G04*
G04 #@! TF.GenerationSoftware,Altium Limited,Altium Designer,23.3.1 (30)*
G04*
G04 Layer_Color=8388736*
%FSLAX44Y44*%
%MOMM*%
G71*
G04*
G04 #@! TF.SameCoordinates,3783E3D3-4BAF-4DE2-A7D5-985F14F6BECE*
G04*
G04*
G04 #@! TF.FilePolarity,Negative*
G04*
G01*
G75*
%ADD44R,2.2098X1.7018*%
G04:AMPARAMS|DCode=68|XSize=1.6mm|YSize=1.6mm|CornerRadius=0.1025mm|HoleSize=0mm|Usage=FLASHONLY|Rotation=0.000|XOffset=0mm|YOffset=0mm|HoleType=Round|Shape=RoundedRectangle|*
%AMROUNDEDRECTD68*
21,1,1.6000,1.3950,0,0,0.0*
21,1,1.3950,1.6000,0,0,0.0*
1,1,0.2050,0.6975,-0.6975*
1,1,0.2050,-0.6975,-0.6975*
1,1,0.2050,-0.6975,0.6975*
1,1,0.2050,0.6975,0.6975*
%
%ADD68ROUNDEDRECTD68*%
%ADD69R,0.3480X0.7500*%
%ADD70R,1.0480X0.7500*%
%ADD71R,5.4500X2.9500*%
%ADD72R,2.9500X5.4500*%
%ADD73R,3.1000X2.9000*%
%ADD74R,2.7500X8.0500*%
%ADD75R,2.3640X1.2740*%
G04:AMPARAMS|DCode=76|XSize=1.26mm|YSize=0.64mm|CornerRadius=0.1725mm|HoleSize=0mm|Usage=FLASHONLY|Rotation=90.000|XOffset=0mm|YOffset=0mm|HoleType=Round|Shape=RoundedRectangle|*
%AMROUNDEDRECTD76*
21,1,1.2600,0.2950,0,0,90.0*
21,1,0.9150,0.6400,0,0,90.0*
1,1,0.3450,0.1475,0.4575*
1,1,0.3450,0.1475,-0.4575*
1,1,0.3450,-0.1475,-0.4575*
1,1,0.3450,-0.1475,0.4575*
%
%ADD76ROUNDEDRECTD76*%
%ADD77R,1.3500X0.6500*%
%ADD78R,3.2000X1.8300*%
%ADD79R,1.2500X1.2500*%
%ADD80R,2.5340X1.7540*%
%ADD81R,1.7540X2.5340*%
%ADD82R,2.3240X2.4840*%
G04:AMPARAMS|DCode=83|XSize=0.64mm|YSize=1.35mm|CornerRadius=0.0693mm|HoleSize=0mm|Usage=FLASHONLY|Rotation=90.000|XOffset=0mm|YOffset=0mm|HoleType=Round|Shape=RoundedRectangle|*
%AMROUNDEDRECTD83*
21,1,0.6400,1.2115,0,0,90.0*
21,1,0.5015,1.3500,0,0,90.0*
1,1,0.1385,0.6058,0.2508*
1,1,0.1385,0.6058,-0.2508*
1,1,0.1385,-0.6058,-0.2508*
1,1,0.1385,-0.6058,0.2508*
%
%ADD83ROUNDEDRECTD83*%
G04:AMPARAMS|DCode=84|XSize=1.04mm|YSize=1.35mm|CornerRadius=0.0993mm|HoleSize=0mm|Usage=FLASHONLY|Rotation=90.000|XOffset=0mm|YOffset=0mm|HoleType=Round|Shape=RoundedRectangle|*
%AMROUNDEDRECTD84*
21,1,1.0400,1.1515,0,0,90.0*
21,1,0.8415,1.3500,0,0,90.0*
1,1,0.1985,0.5758,0.4208*
1,1,0.1985,0.5758,-0.4208*
1,1,0.1985,-0.5758,-0.4208*
1,1,0.1985,-0.5758,0.4208*
%
%ADD84ROUNDEDRECTD84*%
%ADD85R,1.1500X0.9500*%
%ADD86R,0.7500X1.5750*%
%ADD87R,1.5750X0.7500*%
%ADD88R,2.7300X2.7300*%
G04:AMPARAMS|DCode=89|XSize=0.86mm|YSize=0.31mm|CornerRadius=0.038mm|HoleSize=0mm|Usage=FLASHONLY|Rotation=180.000|XOffset=0mm|YOffset=0mm|HoleType=Round|Shape=RoundedRectangle|*
%AMROUNDEDRECTD89*
21,1,0.8600,0.2340,0,0,180.0*
21,1,0.7840,0.3100,0,0,180.0*
1,1,0.0760,-0.3920,0.1170*
1,1,0.0760,0.3920,0.1170*
1,1,0.0760,0.3920,-0.1170*
1,1,0.0760,-0.3920,-0.1170*
%
%ADD89ROUNDEDRECTD89*%
G04:AMPARAMS|DCode=90|XSize=0.86mm|YSize=0.31mm|CornerRadius=0.038mm|HoleSize=0mm|Usage=FLASHONLY|Rotation=90.000|XOffset=0mm|YOffset=0mm|HoleType=Round|Shape=RoundedRectangle|*
%AMROUNDEDRECTD90*
21,1,0.8600,0.2340,0,0,90.0*
21,1,0.7840,0.3100,0,0,90.0*
1,1,0.0760,0.1170,0.3920*
1,1,0.0760,0.1170,-0.3920*
1,1,0.0760,-0.1170,-0.3920*
1,1,0.0760,-0.1170,0.3920*
%
%ADD90ROUNDEDRECTD90*%
%ADD91R,0.8000X2.1000*%
%ADD92R,1.4900X2.1400*%
%ADD93R,6.1500X5.6800*%
G04:AMPARAMS|DCode=94|XSize=2.88mm|YSize=1.02mm|CornerRadius=0.1463mm|HoleSize=0mm|Usage=FLASHONLY|Rotation=180.000|XOffset=0mm|YOffset=0mm|HoleType=Round|Shape=RoundedRectangle|*
%AMROUNDEDRECTD94*
21,1,2.8800,0.7275,0,0,180.0*
21,1,2.5875,1.0200,0,0,180.0*
1,1,0.2925,-1.2938,0.3638*
1,1,0.2925,1.2938,0.3638*
1,1,0.2925,1.2938,-0.3638*
1,1,0.2925,-1.2938,-0.3638*
%
%ADD94ROUNDEDRECTD94*%
G04:AMPARAMS|DCode=95|XSize=0.85mm|YSize=0.95mm|CornerRadius=0.065mm|HoleSize=0mm|Usage=FLASHONLY|Rotation=180.000|XOffset=0mm|YOffset=0mm|HoleType=Round|Shape=RoundedRectangle|*
%AMROUNDEDRECTD95*
21,1,0.8500,0.8200,0,0,180.0*
21,1,0.7200,0.9500,0,0,180.0*
1,1,0.1300,-0.3600,0.4100*
1,1,0.1300,0.3600,0.4100*
1,1,0.1300,0.3600,-0.4100*
1,1,0.1300,-0.3600,-0.4100*
%
%ADD95ROUNDEDRECTD95*%
%ADD96R,0.9500X0.8500*%
%ADD97R,0.8500X0.9500*%
G04:AMPARAMS|DCode=98|XSize=0.55mm|YSize=0.65mm|CornerRadius=0.05mm|HoleSize=0mm|Usage=FLASHONLY|Rotation=180.000|XOffset=0mm|YOffset=0mm|HoleType=Round|Shape=RoundedRectangle|*
%AMROUNDEDRECTD98*
21,1,0.5500,0.5500,0,0,180.0*
21,1,0.4500,0.6500,0,0,180.0*
1,1,0.1000,-0.2250,0.2750*
1,1,0.1000,0.2250,0.2750*
1,1,0.1000,0.2250,-0.2750*
1,1,0.1000,-0.2250,-0.2750*
%
%ADD98ROUNDEDRECTD98*%
G04:AMPARAMS|DCode=99|XSize=1.05mm|YSize=1.35mm|CornerRadius=0.075mm|HoleSize=0mm|Usage=FLASHONLY|Rotation=0.000|XOffset=0mm|YOffset=0mm|HoleType=Round|Shape=RoundedRectangle|*
%AMROUNDEDRECTD99*
21,1,1.0500,1.2000,0,0,0.0*
21,1,0.9000,1.3500,0,0,0.0*
1,1,0.1500,0.4500,-0.6000*
1,1,0.1500,-0.4500,-0.6000*
1,1,0.1500,-0.4500,0.6000*
1,1,0.1500,0.4500,0.6000*
%
%ADD99ROUNDEDRECTD99*%
G04:AMPARAMS|DCode=100|XSize=0.55mm|YSize=0.65mm|CornerRadius=0.05mm|HoleSize=0mm|Usage=FLASHONLY|Rotation=90.000|XOffset=0mm|YOffset=0mm|HoleType=Round|Shape=RoundedRectangle|*
%AMROUNDEDRECTD100*
21,1,0.5500,0.5500,0,0,90.0*
21,1,0.4500,0.6500,0,0,90.0*
1,1,0.1000,0.2750,0.2250*
1,1,0.1000,0.2750,-0.2250*
1,1,0.1000,-0.2750,-0.2250*
1,1,0.1000,-0.2750,0.2250*
%
%ADD100ROUNDEDRECTD100*%
G04:AMPARAMS|DCode=101|XSize=0.85mm|YSize=0.95mm|CornerRadius=0.065mm|HoleSize=0mm|Usage=FLASHONLY|Rotation=270.000|XOffset=0mm|YOffset=0mm|HoleType=Round|Shape=RoundedRectangle|*
%AMROUNDEDRECTD101*
21,1,0.8500,0.8200,0,0,270.0*
21,1,0.7200,0.9500,0,0,270.0*
1,1,0.1300,-0.4100,-0.3600*
1,1,0.1300,-0.4100,0.3600*
1,1,0.1300,0.4100,0.3600*
1,1,0.1300,0.4100,-0.3600*
%
%ADD101ROUNDEDRECTD101*%
%ADD102R,1.0200X1.7800*%
%ADD103R,1.7800X1.0200*%
G04:AMPARAMS|DCode=104|XSize=0.31mm|YSize=0.8mm|CornerRadius=0.038mm|HoleSize=0mm|Usage=FLASHONLY|Rotation=0.000|XOffset=0mm|YOffset=0mm|HoleType=Round|Shape=RoundedRectangle|*
%AMROUNDEDRECTD104*
21,1,0.3100,0.7240,0,0,0.0*
21,1,0.2340,0.8000,0,0,0.0*
1,1,0.0760,0.1170,-0.3620*
1,1,0.0760,-0.1170,-0.3620*
1,1,0.0760,-0.1170,0.3620*
1,1,0.0760,0.1170,0.3620*
%
%ADD104ROUNDEDRECTD104*%
G04:AMPARAMS|DCode=105|XSize=0.31mm|YSize=0.8mm|CornerRadius=0.038mm|HoleSize=0mm|Usage=FLASHONLY|Rotation=90.000|XOffset=0mm|YOffset=0mm|HoleType=Round|Shape=RoundedRectangle|*
%AMROUNDEDRECTD105*
21,1,0.3100,0.7240,0,0,90.0*
21,1,0.2340,0.8000,0,0,90.0*
1,1,0.0760,0.3620,0.1170*
1,1,0.0760,0.3620,-0.1170*
1,1,0.0760,-0.3620,-0.1170*
1,1,0.0760,-0.3620,0.1170*
%
%ADD105ROUNDEDRECTD105*%
%ADD106R,1.8700X1.2600*%
G04:AMPARAMS|DCode=107|XSize=0.58mm|YSize=1.06mm|CornerRadius=0.0515mm|HoleSize=0mm|Usage=FLASHONLY|Rotation=0.000|XOffset=0mm|YOffset=0mm|HoleType=Round|Shape=RoundedRectangle|*
%AMROUNDEDRECTD107*
21,1,0.5800,0.9570,0,0,0.0*
21,1,0.4770,1.0600,0,0,0.0*
1,1,0.1030,0.2385,-0.4785*
1,1,0.1030,-0.2385,-0.4785*
1,1,0.1030,-0.2385,0.4785*
1,1,0.1030,0.2385,0.4785*
%
%ADD107ROUNDEDRECTD107*%
%ADD108O,0.3500X1.5000*%
%ADD109O,1.5000X0.3500*%
G04:AMPARAMS|DCode=110|XSize=0.75mm|YSize=0.65mm|CornerRadius=0.055mm|HoleSize=0mm|Usage=FLASHONLY|Rotation=270.000|XOffset=0mm|YOffset=0mm|HoleType=Round|Shape=RoundedRectangle|*
%AMROUNDEDRECTD110*
21,1,0.7500,0.5400,0,0,270.0*
21,1,0.6400,0.6500,0,0,270.0*
1,1,0.1100,-0.2700,-0.3200*
1,1,0.1100,-0.2700,0.3200*
1,1,0.1100,0.2700,0.3200*
1,1,0.1100,0.2700,-0.3200*
%
%ADD110ROUNDEDRECTD110*%
%ADD111R,1.2500X1.8000*%
G04:AMPARAMS|DCode=112|XSize=1.15mm|YSize=0.5mm|CornerRadius=0.0475mm|HoleSize=0mm|Usage=FLASHONLY|Rotation=0.000|XOffset=0mm|YOffset=0mm|HoleType=Round|Shape=RoundedRectangle|*
%AMROUNDEDRECTD112*
21,1,1.1500,0.4050,0,0,0.0*
21,1,1.0550,0.5000,0,0,0.0*
1,1,0.0950,0.5275,-0.2025*
1,1,0.0950,-0.5275,-0.2025*
1,1,0.0950,-0.5275,0.2025*
1,1,0.0950,0.5275,0.2025*
%
%ADD112ROUNDEDRECTD112*%
G04:AMPARAMS|DCode=113|XSize=0.55mm|YSize=0.5mm|CornerRadius=0.0475mm|HoleSize=0mm|Usage=FLASHONLY|Rotation=270.000|XOffset=0mm|YOffset=0mm|HoleType=Round|Shape=RoundedRectangle|*
%AMROUNDEDRECTD113*
21,1,0.5500,0.4050,0,0,270.0*
21,1,0.4550,0.5000,0,0,270.0*
1,1,0.0950,-0.2025,-0.2275*
1,1,0.0950,-0.2025,0.2275*
1,1,0.0950,0.2025,0.2275*
1,1,0.0950,0.2025,-0.2275*
%
%ADD113ROUNDEDRECTD113*%
G04:AMPARAMS|DCode=114|XSize=1.05mm|YSize=1.35mm|CornerRadius=0.075mm|HoleSize=0mm|Usage=FLASHONLY|Rotation=270.000|XOffset=0mm|YOffset=0mm|HoleType=Round|Shape=RoundedRectangle|*
%AMROUNDEDRECTD114*
21,1,1.0500,1.2000,0,0,270.0*
21,1,0.9000,1.3500,0,0,270.0*
1,1,0.1500,-0.6000,-0.4500*
1,1,0.1500,-0.6000,0.4500*
1,1,0.1500,0.6000,0.4500*
1,1,0.1500,0.6000,-0.4500*
%
%ADD114ROUNDEDRECTD114*%
%ADD115R,1.3500X0.7500*%
%ADD116R,2.2000X3.9000*%
%ADD117R,0.6500X1.3500*%
%ADD118O,1.2270X2.7270*%
%ADD119O,1.1630X2.2270*%
%ADD120R,2.0000X2.0000*%
%ADD121C,2.0000*%
%ADD122C,1.2500*%
%ADD123R,1.2500X1.2500*%
%ADD124C,1.8500*%
%ADD125R,1.8500X1.8500*%
%ADD126R,1.8500X1.8500*%
%ADD127R,2.0500X1.6500*%
%ADD128C,1.6500*%
%ADD129R,1.6400X1.6400*%
%ADD130C,1.6400*%
%ADD131C,5.5500*%
D44*
X209304Y-173000D02*
D03*
X170696D02*
D03*
Y-283000D02*
D03*
X209304D02*
D03*
D68*
X27500Y370500D02*
D03*
D69*
X180000Y-499600D02*
D03*
X185000D02*
D03*
X190000D02*
D03*
X195000D02*
D03*
X200000D02*
D03*
X205000D02*
D03*
X215000D02*
D03*
X220000D02*
D03*
X225000D02*
D03*
X230000D02*
D03*
X235000D02*
D03*
X240000D02*
D03*
X232500Y-512600D02*
D03*
X227500D02*
D03*
X222500D02*
D03*
X217500D02*
D03*
X212500D02*
D03*
X207500D02*
D03*
X202500D02*
D03*
X197500D02*
D03*
X192500D02*
D03*
X187500D02*
D03*
D70*
X241000D02*
D03*
X179000D02*
D03*
D71*
X-41000Y428000D02*
D03*
Y527000D02*
D03*
X-250000Y-203500D02*
D03*
Y-302500D02*
D03*
D72*
X-68000Y-72500D02*
D03*
X-167000D02*
D03*
X-30500Y-485000D02*
D03*
X-129500D02*
D03*
D73*
X336000Y241500D02*
D03*
Y154500D02*
D03*
X131500Y241500D02*
D03*
Y154500D02*
D03*
D74*
X-309500Y62500D02*
D03*
X-360500D02*
D03*
X-309500Y-415000D02*
D03*
X-360500D02*
D03*
D75*
X91800Y278500D02*
D03*
Y295500D02*
D03*
Y312500D02*
D03*
Y329500D02*
D03*
Y346500D02*
D03*
X296050Y278500D02*
D03*
Y295500D02*
D03*
Y312500D02*
D03*
Y329500D02*
D03*
Y346500D02*
D03*
D76*
X238000Y-349950D02*
D03*
X257000D02*
D03*
Y-375050D02*
D03*
X247500D02*
D03*
X238000D02*
D03*
D77*
X287000Y-387500D02*
D03*
X308000Y-378000D02*
D03*
Y-397000D02*
D03*
D78*
X-384000Y428500D02*
D03*
Y376200D02*
D03*
X-330000Y428650D02*
D03*
Y376350D02*
D03*
D79*
X258500Y76500D02*
D03*
Y97500D02*
D03*
X220500Y76500D02*
D03*
Y97500D02*
D03*
X-370000Y-137500D02*
D03*
X-120000Y-235000D02*
D03*
Y-322500D02*
D03*
X-205000Y-485000D02*
D03*
X-310000D02*
D03*
X331500Y460000D02*
D03*
X169000D02*
D03*
D80*
X4650Y-141000D02*
D03*
X47350D02*
D03*
X11150Y-362500D02*
D03*
X53850D02*
D03*
Y-485000D02*
D03*
X11150D02*
D03*
X-131000Y476000D02*
D03*
X-173700D02*
D03*
D81*
X-68000Y50350D02*
D03*
Y7650D02*
D03*
D82*
X-190000Y424150D02*
D03*
Y380850D02*
D03*
D83*
X121750Y-482400D02*
D03*
X142250D02*
D03*
X121750Y-501600D02*
D03*
D84*
X142250Y-499600D02*
D03*
D85*
X262000Y362200D02*
D03*
Y329800D02*
D03*
X62000Y362200D02*
D03*
Y329800D02*
D03*
D86*
X-378400Y252880D02*
D03*
X-365700D02*
D03*
X-353000D02*
D03*
X-340300D02*
D03*
Y307120D02*
D03*
X-353000D02*
D03*
X-365700D02*
D03*
X-378400D02*
D03*
D87*
X246120Y-142700D02*
D03*
Y-130000D02*
D03*
Y-117300D02*
D03*
Y-104600D02*
D03*
X191880D02*
D03*
Y-117300D02*
D03*
Y-130000D02*
D03*
Y-142700D02*
D03*
X246120Y-253050D02*
D03*
Y-240350D02*
D03*
Y-227650D02*
D03*
Y-214950D02*
D03*
X191880D02*
D03*
Y-227650D02*
D03*
Y-240350D02*
D03*
Y-253050D02*
D03*
D88*
X181500Y-434550D02*
D03*
D89*
X161950Y-447050D02*
D03*
Y-442050D02*
D03*
Y-437050D02*
D03*
Y-432050D02*
D03*
Y-427050D02*
D03*
Y-422050D02*
D03*
X201050Y-447050D02*
D03*
Y-442050D02*
D03*
Y-437050D02*
D03*
Y-432050D02*
D03*
Y-427050D02*
D03*
Y-422050D02*
D03*
D90*
X169000Y-415000D02*
D03*
X194000D02*
D03*
X189000D02*
D03*
X184000D02*
D03*
X179000D02*
D03*
X174000D02*
D03*
X169000Y-454100D02*
D03*
X174000D02*
D03*
X179000D02*
D03*
X184000D02*
D03*
X189000D02*
D03*
X194000D02*
D03*
D91*
X364600Y-175750D02*
D03*
X339200D02*
D03*
X313800D02*
D03*
X288400D02*
D03*
Y-84250D02*
D03*
X313800D02*
D03*
X339200D02*
D03*
X364600D02*
D03*
D92*
X416500Y-84200D02*
D03*
X391100D02*
D03*
Y-175000D02*
D03*
X416500D02*
D03*
D93*
X-12100Y-217000D02*
D03*
Y-75000D02*
D03*
Y-291900D02*
D03*
X27400Y-420000D02*
D03*
D94*
X54400Y-194100D02*
D03*
Y-239900D02*
D03*
Y-52100D02*
D03*
Y-97900D02*
D03*
Y-269000D02*
D03*
Y-314800D02*
D03*
X93900Y-397100D02*
D03*
Y-442900D02*
D03*
D95*
X179000Y-400000D02*
D03*
X195000D02*
D03*
X223000Y-456000D02*
D03*
X239000D02*
D03*
X223000Y-477000D02*
D03*
X239000D02*
D03*
X-135000Y146000D02*
D03*
X-119000D02*
D03*
X411000Y-222000D02*
D03*
X395000D02*
D03*
X244000Y-88000D02*
D03*
X228000D02*
D03*
Y-198000D02*
D03*
X244000D02*
D03*
X63500Y407500D02*
D03*
X79500D02*
D03*
D96*
X222000Y-429000D02*
D03*
Y-413000D02*
D03*
X-174000Y93000D02*
D03*
Y109000D02*
D03*
X364000Y-47000D02*
D03*
Y-63000D02*
D03*
D97*
X253000Y-413000D02*
D03*
X237000D02*
D03*
X238000Y-442000D02*
D03*
X222000D02*
D03*
X284000Y-525000D02*
D03*
X268000D02*
D03*
X136500D02*
D03*
X152500D02*
D03*
X241000Y-317500D02*
D03*
X257000D02*
D03*
Y-332500D02*
D03*
X273000D02*
D03*
X274500Y-350000D02*
D03*
X290500D02*
D03*
X207000Y-375000D02*
D03*
X223000D02*
D03*
X179500D02*
D03*
X195500D02*
D03*
X416000Y-60000D02*
D03*
X400000D02*
D03*
X395000Y-206000D02*
D03*
X411000D02*
D03*
X272000Y-62000D02*
D03*
X288000D02*
D03*
D98*
X-234000Y145000D02*
D03*
X-224000D02*
D03*
X4000Y345000D02*
D03*
X-6000D02*
D03*
X4000Y330000D02*
D03*
X-6000D02*
D03*
X4000Y315000D02*
D03*
X-6000D02*
D03*
X-234000Y346000D02*
D03*
X-224000D02*
D03*
X-299000Y264000D02*
D03*
X-309000D02*
D03*
X-299000Y223000D02*
D03*
X-309000D02*
D03*
X-106500Y146000D02*
D03*
X-96500D02*
D03*
X-351500Y455500D02*
D03*
X-361500D02*
D03*
D99*
X-195000Y127000D02*
D03*
X-175000D02*
D03*
D100*
X225000Y-350000D02*
D03*
Y-340000D02*
D03*
X57000Y295500D02*
D03*
Y285500D02*
D03*
X70000D02*
D03*
Y295500D02*
D03*
X-213000Y345000D02*
D03*
Y355000D02*
D03*
X-276000Y281000D02*
D03*
Y291000D02*
D03*
Y256000D02*
D03*
Y266000D02*
D03*
X-276500Y216000D02*
D03*
Y226000D02*
D03*
Y206000D02*
D03*
Y196000D02*
D03*
X-341250Y183500D02*
D03*
Y193500D02*
D03*
X-276500Y173500D02*
D03*
Y183500D02*
D03*
X-71250Y306000D02*
D03*
Y316000D02*
D03*
X-291000Y410000D02*
D03*
Y420000D02*
D03*
X-28000Y189000D02*
D03*
Y199000D02*
D03*
X274000Y285500D02*
D03*
Y295500D02*
D03*
X261000D02*
D03*
Y285500D02*
D03*
X64500Y421500D02*
D03*
Y431500D02*
D03*
X80500Y421500D02*
D03*
Y431500D02*
D03*
X-397000Y317500D02*
D03*
Y307500D02*
D03*
D101*
X436000Y-159000D02*
D03*
Y-175000D02*
D03*
X-5500Y384500D02*
D03*
Y368500D02*
D03*
X-71250Y279000D02*
D03*
Y295000D02*
D03*
X-28000Y213000D02*
D03*
Y229000D02*
D03*
X364500Y-210500D02*
D03*
Y-194500D02*
D03*
D102*
X123800Y-206000D02*
D03*
X94200D02*
D03*
X79200Y-98000D02*
D03*
X108800D02*
D03*
X233200Y-283000D02*
D03*
X262800D02*
D03*
X260800Y-173000D02*
D03*
X231200D02*
D03*
X108800Y-141000D02*
D03*
X79200D02*
D03*
D103*
X109000Y-284200D02*
D03*
Y-313800D02*
D03*
X314000Y-218200D02*
D03*
Y-247800D02*
D03*
X340000Y-218000D02*
D03*
Y-247600D02*
D03*
D104*
X25000Y356500D02*
D03*
X35000D02*
D03*
X30000D02*
D03*
X20000D02*
D03*
Y384500D02*
D03*
X25000D02*
D03*
X30000D02*
D03*
X35000D02*
D03*
D105*
X13500Y363000D02*
D03*
Y368000D02*
D03*
Y373000D02*
D03*
Y378000D02*
D03*
X41500D02*
D03*
Y373000D02*
D03*
Y368000D02*
D03*
Y363000D02*
D03*
D106*
X-123500Y429500D02*
D03*
Y400500D02*
D03*
X-153500Y429500D02*
D03*
Y400500D02*
D03*
X40000Y503500D02*
D03*
Y532500D02*
D03*
X66000Y503500D02*
D03*
Y532500D02*
D03*
D107*
X-273000Y451550D02*
D03*
X-263500Y472450D02*
D03*
X-282500D02*
D03*
D108*
X-234000Y323250D02*
D03*
X-229000D02*
D03*
X-224000D02*
D03*
X-219000D02*
D03*
X-214000D02*
D03*
X-209000D02*
D03*
X-204000D02*
D03*
X-199000D02*
D03*
X-194000D02*
D03*
X-189000D02*
D03*
X-184000D02*
D03*
X-179000D02*
D03*
X-174000D02*
D03*
X-169000D02*
D03*
X-164000D02*
D03*
X-159000D02*
D03*
X-154000D02*
D03*
X-149000D02*
D03*
X-144000D02*
D03*
X-139000D02*
D03*
X-134000D02*
D03*
X-129000D02*
D03*
X-124000D02*
D03*
X-119000D02*
D03*
X-114000D02*
D03*
Y168750D02*
D03*
X-119000D02*
D03*
X-124000D02*
D03*
X-129000D02*
D03*
X-134000D02*
D03*
X-139000D02*
D03*
X-144000D02*
D03*
X-149000D02*
D03*
X-154000D02*
D03*
X-159000D02*
D03*
X-164000D02*
D03*
X-169000D02*
D03*
X-174000D02*
D03*
X-179000D02*
D03*
X-184000D02*
D03*
X-189000D02*
D03*
X-194000D02*
D03*
X-199000D02*
D03*
X-204000D02*
D03*
X-209000D02*
D03*
X-214000D02*
D03*
X-219000D02*
D03*
X-224000D02*
D03*
X-229000D02*
D03*
X-234000D02*
D03*
D109*
X-96750Y306000D02*
D03*
Y301000D02*
D03*
Y296000D02*
D03*
Y291000D02*
D03*
Y286000D02*
D03*
Y281000D02*
D03*
Y276000D02*
D03*
Y271000D02*
D03*
Y266000D02*
D03*
Y261000D02*
D03*
Y256000D02*
D03*
Y251000D02*
D03*
Y246000D02*
D03*
Y241000D02*
D03*
Y236000D02*
D03*
Y231000D02*
D03*
Y226000D02*
D03*
Y221000D02*
D03*
Y216000D02*
D03*
Y211000D02*
D03*
Y206000D02*
D03*
Y201000D02*
D03*
Y196000D02*
D03*
Y191000D02*
D03*
Y186000D02*
D03*
X-251250D02*
D03*
Y191000D02*
D03*
Y196000D02*
D03*
Y201000D02*
D03*
Y206000D02*
D03*
Y211000D02*
D03*
Y216000D02*
D03*
Y221000D02*
D03*
Y226000D02*
D03*
Y231000D02*
D03*
Y236000D02*
D03*
Y241000D02*
D03*
Y246000D02*
D03*
Y251000D02*
D03*
Y256000D02*
D03*
Y261000D02*
D03*
Y266000D02*
D03*
Y271000D02*
D03*
Y276000D02*
D03*
Y281000D02*
D03*
Y286000D02*
D03*
Y291000D02*
D03*
Y296000D02*
D03*
Y301000D02*
D03*
Y306000D02*
D03*
D110*
X-298500Y250500D02*
D03*
X-309500Y236500D02*
D03*
Y250500D02*
D03*
X-298500Y236500D02*
D03*
D111*
X-296000Y183500D02*
D03*
X-321500D02*
D03*
D112*
X-252000Y403000D02*
D03*
Y409500D02*
D03*
Y416000D02*
D03*
Y422500D02*
D03*
X-278000Y403000D02*
D03*
Y409500D02*
D03*
Y416000D02*
D03*
Y422500D02*
D03*
D113*
X-232000Y433250D02*
D03*
X-224000D02*
D03*
X-232000Y448750D02*
D03*
X-224000D02*
D03*
D114*
X142000Y-173000D02*
D03*
Y-153000D02*
D03*
Y-263000D02*
D03*
Y-283000D02*
D03*
D115*
X258500Y131500D02*
D03*
Y150500D02*
D03*
X220500Y131500D02*
D03*
Y150500D02*
D03*
D116*
X102500Y465000D02*
D03*
X41500D02*
D03*
D117*
X-359000Y350000D02*
D03*
X-349500Y329000D02*
D03*
X-368500D02*
D03*
D118*
X166800Y-557300D02*
D03*
X253200D02*
D03*
D119*
X166800Y-503700D02*
D03*
X253200D02*
D03*
D120*
X-406000Y-214000D02*
D03*
D121*
Y-264800D02*
D03*
D122*
X-370000Y-87500D02*
D03*
X-120000Y-185000D02*
D03*
Y-372500D02*
D03*
X-262500Y-45000D02*
D03*
X-212500Y62500D02*
D03*
X-205000Y-535000D02*
D03*
X-310000D02*
D03*
X331500Y410000D02*
D03*
X369000Y77500D02*
D03*
X169000Y410000D02*
D03*
X165000Y77000D02*
D03*
D123*
X-212500Y-45000D02*
D03*
X-262500Y62500D02*
D03*
X319000Y77500D02*
D03*
X115000Y77000D02*
D03*
D124*
X-259930Y537000D02*
D03*
X-285330D02*
D03*
X-344400D02*
D03*
X-369800D02*
D03*
X413000Y-387400D02*
D03*
Y-362000D02*
D03*
X-415000Y87400D02*
D03*
X-149000Y539000D02*
D03*
X-415000Y-389600D02*
D03*
D125*
X-234530Y537000D02*
D03*
X-319000D02*
D03*
X-174400Y539000D02*
D03*
D126*
X413000Y-412800D02*
D03*
X-415000Y62000D02*
D03*
Y-415000D02*
D03*
D127*
X0Y289700D02*
D03*
X-1000Y155800D02*
D03*
D128*
X0Y264300D02*
D03*
Y213500D02*
D03*
Y188100D02*
D03*
Y238900D02*
D03*
X-1000Y130400D02*
D03*
Y79600D02*
D03*
Y54200D02*
D03*
Y105000D02*
D03*
D129*
X335000Y-335530D02*
D03*
D130*
Y-439470D02*
D03*
D131*
X0Y0D02*
D03*
X417000Y-534000D02*
D03*
X-417000D02*
D03*
X417000Y534000D02*
D03*
X-417000Y534000D02*
D03*
M02*
