M48
;Layer_Color=9474304
;FILE_FORMAT=4:4
METRIC,LZ
;TYPE=PLATED
T1F00S00C0.3000
T2F00S00C0.4000
T4F00S00C0.8500
T5F00S00C1.0600
T6F00S00C1.1000
T7F00S00C1.3000
T8F00S00C3.2000
%
T01
X-00325Y-00546
X-00317
X-00303
X-00294
X-00295Y-00524
X-00304
X-00316
X-00325
X-0022
X-00211
X-00199
X-0019
X-00189Y-00546
X-00198
X-00212
X-0022
X-00135Y-003835
X-00127
X-00113
X-00104
X-00105Y-003615
X-00114
X-00126
X-00135
X0008Y-003875
X00089
X000975
X001065
Y-004067
X000975
X00089
X0008
X00094Y-0034
X00150904Y-00335096
X00151596Y-00317404
X00231Y-003175
X00215Y-0034
Y-0035
X00222Y-0040055
X002475Y-003875
X00253Y-00423
X00249Y-00456
Y-00476
X00223Y-00466
X002102Y-004872
X002075Y-00522
X00213Y-0053
X00241Y-00524
X00179
X00128Y-00525
X0016Y-00476
X001815Y-0043455
X001795Y-0038745
X00195Y-0038755
X00308Y-00406
X00308Y-003668
X002842Y-003325
X002925Y-00525
X00268Y-00536
X00274Y-00283
X0028Y-0025
X0026Y-002275
Y-002145
Y-00198
X00272Y-00173
X002884Y-0015975
X0026Y-001045
Y-00088
X003138Y-0010025
X003392
X003911Y-001002
X00436Y-0015
X00436Y-00184
X00386Y-00206
X00386Y-00222
X003555Y-001945
X0034Y-002588
X00314Y-00259
X00317Y00036
Y00044
Y00052
Y0006
X00325
Y00052
Y00044
Y00036
X00376Y000665
X00385
X00384Y000885
X00375
X0018Y00088
X00171
X00172Y00066
X00181
X00121
Y00058
Y0005
Y00042
X00113
Y0005
Y00058
Y00066
X00067Y-000425
X00058
X000495
X000405
Y-000617
X000495
X00058
X00067
X00219Y-00088
Y-00198
X00094Y-00243
X-00104Y-00196
X-00113
X-00127
X-00135
Y-00174
X-00126
X-00114
X-00105
X-00119Y00036
X-001965Y000515
X-002055
X-002195
X-002275
Y000735
X-002185
X-002065
X-001975
X-002475Y-00034
X-002565
X-002685
X-002775
Y-00056
X-002695
X-002555
X-002465
X-00355Y-000765
X-00364
X-00376
X-00385
Y-000985
X-00377
X-00363
X-00354
X-0035025Y001835
Y001935
X-00309Y00214
X-002855Y00216
Y00226
Y00206
Y00196
X-002765Y00166
X-00229Y00183
X-00237Y00211
Y00261
X-00285Y00266
Y00256
Y00281
Y00291
X-00299Y00273
X-00332Y003075
X-00404875Y003075
X-00397Y003245
X-00359042Y00361684
X-00291Y00402
Y00427
X-00281Y00451
X-00234Y00353875
X-00224Y00363
X-00213
X-001965
X-001835
X-0016Y0039
X-00147
X-00229Y00312
X-00224Y00136
X-00214
X-00214Y00127
X-00135Y00137
X-001065
X-000965
X-00124Y00193
X-00134Y00184
X-00028Y0018
X-00037Y00229
X-0006225Y00279
Y00306
Y00316
X-000235Y003225
X-00015Y0033
X-00015Y00315
X-000235Y00347
X-000145Y003685
Y003845
X00025Y00394
X000275Y003705
X00044Y003565
X0003525Y003475
X000725Y003625
X00079Y0039
X00054Y00385
X00075Y00315
Y003075
Y002775
X0017075Y0028
Y00293
Y00306
Y00319
Y00332
Y00345
X0018375
X0019675
X0020975
Y00332
X0019675
X0018375
Y00319
X00189Y003125
X0018375Y00306
X0019675
Y00319
X0020975
Y00306
Y00293
X0019675
X0018375
Y0028
X0019675
X0020975
X002205Y001595
X00185Y00399
X00176
X00162
X00154
Y00421
X00163
X00175
X00184
X-00117Y0039
X-0013
X-00111Y00301
X0027925Y003075
Y00315
Y002775
X0027675Y003625
X003165Y00399
X003245
X003385
X003475
X003465Y00421
X003375
X003255
X003165
X00375Y00345
Y00332
Y00319
Y00306
Y00293
Y0028
X00388
X00401
X00414
Y00293
X00401
X00388
Y00306
X0039325Y003125
X00388Y00319
X00401
Y00306
X00414
Y00319
Y00332
X00401
X00388
Y00345
X00401
X00414
X002585Y001595
X000725Y00543
X000595
X000465
X000335
T02
X00178Y-00353
X00335Y-00315
T04
X-0031Y-00535
Y-00485
X-00205
Y-00535
X-0012Y-003725
Y-003225
X00319Y000775
X00369
X00165Y00077
X00115
X-0012Y-00185
Y-00235
X-002125Y-00045
X-002625
Y000625
X-002125
X-0037Y-000875
Y-001375
X00169Y0041
Y0046
X003315
Y0041
T05
X00335Y-0043947
Y-0033553
T06
X-00415Y-00415
Y-003896
X00413Y-003874
Y-004128
Y-00362
X-00001Y000542
Y000796
X-00415Y000874
Y00062
X-00001Y00105
Y001304
Y001558
X0Y001881
Y002135
Y002389
Y002643
Y002897
X-00149Y00539
X-001744
X-0023453Y00537
X-0025993
X-0028533
X-00319
X-003444
X-003698
T07
X-00406Y-002648
Y-00214
T08
X-00417Y-00534
X00417
X0Y0
X00417Y00534
X-00417Y00534
M30
