G04*
G04 #@! TF.GenerationSoftware,Altium Limited,Altium Designer,23.3.1 (30)*
G04*
G04 Layer_Physical_Order=2*
G04 Layer_Color=36540*
%FSLAX44Y44*%
%MOMM*%
G71*
G04*
G04 #@! TF.SameCoordinates,53C96C9C-EB82-4BDB-A650-E1B61EAB27B3*
G04*
G04*
G04 #@! TF.FilePolarity,Positive*
G04*
G01*
G75*
%ADD144R,1.2000X1.2000*%
%ADD184O,1.1000X2.6000*%
%ADD185O,1.0360X2.1000*%
%ADD186R,1.9500X1.9500*%
%ADD187C,1.9500*%
%ADD188C,1.2000*%
%ADD189R,1.2000X1.2000*%
%ADD190C,1.8000*%
%ADD191R,1.8000X1.8000*%
%ADD192R,1.8000X1.8000*%
%ADD193R,2.0000X1.6000*%
%ADD194C,1.6000*%
%ADD196C,1.5900*%
%ADD197C,5.5000*%
%ADD198C,0.6000*%
%ADD199C,0.8000*%
G36*
X447961Y-325000D02*
X320000D01*
Y-465000D01*
X447961D01*
Y-572961D01*
X256415D01*
X256162Y-571691D01*
X256982Y-571351D01*
X258549Y-570149D01*
X259751Y-568582D01*
X260507Y-566758D01*
X260765Y-564800D01*
Y-558300D01*
X253200D01*
X245635D01*
Y-564800D01*
X245893Y-566758D01*
X246649Y-568582D01*
X247851Y-570149D01*
X249418Y-571351D01*
X250238Y-571691D01*
X249985Y-572961D01*
X170015D01*
X169762Y-571691D01*
X170582Y-571351D01*
X172149Y-570149D01*
X173351Y-568582D01*
X174107Y-566758D01*
X174365Y-564800D01*
Y-558300D01*
X166800D01*
X159235D01*
Y-564800D01*
X159493Y-566758D01*
X160249Y-568582D01*
X161451Y-570149D01*
X163018Y-571351D01*
X163838Y-571691D01*
X163585Y-572961D01*
X-447961D01*
Y572961D01*
X447961D01*
Y-325000D01*
D02*
G37*
%LPC*%
G36*
X-147552Y550000D02*
X-148000D01*
Y540000D01*
X-138000D01*
Y540448D01*
X-138750Y543246D01*
X-140198Y545754D01*
X-142246Y547802D01*
X-144754Y549250D01*
X-147552Y550000D01*
D02*
G37*
G36*
X-150000D02*
X-150448D01*
X-153246Y549250D01*
X-155754Y547802D01*
X-157802Y545754D01*
X-159250Y543246D01*
X-160000Y540448D01*
Y540000D01*
X-150000D01*
Y550000D01*
D02*
G37*
G36*
X-308000Y548000D02*
X-318000D01*
Y538000D01*
X-308000D01*
Y548000D01*
D02*
G37*
G36*
X-223530D02*
X-233530D01*
Y538000D01*
X-223530D01*
Y548000D01*
D02*
G37*
G36*
X-235530D02*
X-245530D01*
Y538000D01*
X-235530D01*
Y548000D01*
D02*
G37*
G36*
X-320000D02*
X-330000D01*
Y538000D01*
X-320000D01*
Y548000D01*
D02*
G37*
G36*
X-164400Y549000D02*
X-184400D01*
Y529000D01*
X-164400D01*
Y549000D01*
D02*
G37*
G36*
X-138000Y538000D02*
X-148000D01*
Y528000D01*
X-147552D01*
X-144754Y528750D01*
X-142246Y530198D01*
X-140198Y532246D01*
X-138750Y534754D01*
X-138000Y537552D01*
Y538000D01*
D02*
G37*
G36*
X-150000D02*
X-160000D01*
Y537552D01*
X-159250Y534754D01*
X-157802Y532246D01*
X-155754Y530198D01*
X-153246Y528750D01*
X-150448Y528000D01*
X-150000D01*
Y538000D01*
D02*
G37*
G36*
X-258613Y547000D02*
X-261246D01*
X-263790Y546319D01*
X-266070Y545002D01*
X-267932Y543140D01*
X-269249Y540860D01*
X-269930Y538317D01*
Y535684D01*
X-269249Y533140D01*
X-267932Y530860D01*
X-266070Y528998D01*
X-263790Y527682D01*
X-261246Y527000D01*
X-258613D01*
X-256070Y527682D01*
X-253790Y528998D01*
X-251928Y530860D01*
X-250611Y533140D01*
X-249930Y535684D01*
Y538317D01*
X-250611Y540860D01*
X-251928Y543140D01*
X-253790Y545002D01*
X-256070Y546319D01*
X-258613Y547000D01*
D02*
G37*
G36*
X-284014D02*
X-286646D01*
X-289190Y546319D01*
X-291470Y545002D01*
X-293332Y543140D01*
X-294648Y540860D01*
X-295330Y538317D01*
Y535684D01*
X-294648Y533140D01*
X-293332Y530860D01*
X-291470Y528998D01*
X-289190Y527682D01*
X-286646Y527000D01*
X-284014D01*
X-281470Y527682D01*
X-279190Y528998D01*
X-277328Y530860D01*
X-276012Y533140D01*
X-275330Y535684D01*
Y538317D01*
X-276012Y540860D01*
X-277328Y543140D01*
X-279190Y545002D01*
X-281470Y546319D01*
X-284014Y547000D01*
D02*
G37*
G36*
X-343083D02*
X-345717D01*
X-348260Y546319D01*
X-350540Y545002D01*
X-352402Y543140D01*
X-353718Y540860D01*
X-354400Y538317D01*
Y535684D01*
X-353718Y533140D01*
X-352402Y530860D01*
X-350540Y528998D01*
X-348260Y527682D01*
X-345717Y527000D01*
X-343083D01*
X-340540Y527682D01*
X-338260Y528998D01*
X-336398Y530860D01*
X-335081Y533140D01*
X-334400Y535684D01*
Y538317D01*
X-335081Y540860D01*
X-336398Y543140D01*
X-338260Y545002D01*
X-340540Y546319D01*
X-343083Y547000D01*
D02*
G37*
G36*
X-368483D02*
X-371116D01*
X-373660Y546319D01*
X-375940Y545002D01*
X-377802Y543140D01*
X-379118Y540860D01*
X-379800Y538317D01*
Y535684D01*
X-379118Y533140D01*
X-377802Y530860D01*
X-375940Y528998D01*
X-373660Y527682D01*
X-371116Y527000D01*
X-368483D01*
X-365940Y527682D01*
X-363660Y528998D01*
X-361798Y530860D01*
X-360481Y533140D01*
X-359800Y535684D01*
Y538317D01*
X-360481Y540860D01*
X-361798Y543140D01*
X-363660Y545002D01*
X-365940Y546319D01*
X-368483Y547000D01*
D02*
G37*
G36*
X-223530Y536000D02*
X-233530D01*
Y526000D01*
X-223530D01*
Y536000D01*
D02*
G37*
G36*
X-235530D02*
X-245530D01*
Y526000D01*
X-235530D01*
Y536000D01*
D02*
G37*
G36*
X-308000D02*
X-318000D01*
Y526000D01*
X-308000D01*
Y536000D01*
D02*
G37*
G36*
X-320000D02*
X-330000D01*
Y526000D01*
X-320000D01*
Y536000D01*
D02*
G37*
G36*
X-414757Y562500D02*
X-419243D01*
X-423674Y561798D01*
X-427940Y560412D01*
X-431937Y558375D01*
X-435566Y555739D01*
X-438739Y552566D01*
X-441375Y548937D01*
X-443412Y544940D01*
X-444798Y540674D01*
X-445500Y536243D01*
Y531757D01*
X-444798Y527326D01*
X-443412Y523060D01*
X-441375Y519063D01*
X-438739Y515434D01*
X-435566Y512261D01*
X-431937Y509625D01*
X-427940Y507588D01*
X-423674Y506202D01*
X-419243Y505500D01*
X-414757D01*
X-410326Y506202D01*
X-406060Y507588D01*
X-402063Y509625D01*
X-398433Y512261D01*
X-395261Y515434D01*
X-392625Y519063D01*
X-390588Y523060D01*
X-389202Y527326D01*
X-388500Y531757D01*
Y536243D01*
X-389202Y540674D01*
X-390588Y544940D01*
X-392625Y548937D01*
X-395261Y552566D01*
X-398433Y555739D01*
X-402063Y558375D01*
X-406060Y560412D01*
X-410326Y561798D01*
X-414757Y562500D01*
D02*
G37*
G36*
X419243Y562500D02*
X414757D01*
X410326Y561798D01*
X406060Y560412D01*
X402063Y558375D01*
X398433Y555739D01*
X395261Y552566D01*
X392625Y548937D01*
X390588Y544940D01*
X389202Y540674D01*
X388500Y536243D01*
Y531757D01*
X389202Y527326D01*
X390588Y523060D01*
X392625Y519063D01*
X395261Y515434D01*
X398433Y512261D01*
X402063Y509625D01*
X406060Y507588D01*
X410326Y506202D01*
X414757Y505500D01*
X419243D01*
X423674Y506202D01*
X427940Y507588D01*
X431937Y509625D01*
X435566Y512261D01*
X438739Y515434D01*
X441375Y519063D01*
X443412Y523060D01*
X444798Y527326D01*
X445500Y531757D01*
Y536243D01*
X444798Y540674D01*
X443412Y544940D01*
X441375Y548937D01*
X438739Y552566D01*
X435566Y555739D01*
X431937Y558375D01*
X427940Y560412D01*
X423674Y561798D01*
X419243Y562500D01*
D02*
G37*
G36*
X338500Y467000D02*
X324500D01*
Y453000D01*
X338500D01*
Y467000D01*
D02*
G37*
G36*
X176000D02*
X162000D01*
Y453000D01*
X176000D01*
Y467000D01*
D02*
G37*
G36*
X170053Y418000D02*
X170000D01*
Y411000D01*
X177000D01*
Y411053D01*
X176455Y413088D01*
X175402Y414912D01*
X173912Y416402D01*
X172088Y417455D01*
X170053Y418000D01*
D02*
G37*
G36*
X168000D02*
X167947D01*
X165912Y417455D01*
X164088Y416402D01*
X162598Y414912D01*
X161545Y413088D01*
X161000Y411053D01*
Y411000D01*
X168000D01*
Y418000D01*
D02*
G37*
G36*
X332553D02*
X332500D01*
Y411000D01*
X339500D01*
Y411053D01*
X338955Y413088D01*
X337902Y414912D01*
X336412Y416402D01*
X334588Y417455D01*
X332553Y418000D01*
D02*
G37*
G36*
X330500D02*
X330447D01*
X328412Y417455D01*
X326588Y416402D01*
X325098Y414912D01*
X324045Y413088D01*
X323500Y411053D01*
Y411000D01*
X330500D01*
Y418000D01*
D02*
G37*
G36*
X339500Y409000D02*
X332500D01*
Y402000D01*
X332553D01*
X334588Y402545D01*
X336412Y403598D01*
X337902Y405088D01*
X338955Y406912D01*
X339500Y408947D01*
Y409000D01*
D02*
G37*
G36*
X330500D02*
X323500D01*
Y408947D01*
X324045Y406912D01*
X325098Y405088D01*
X326588Y403598D01*
X328412Y402545D01*
X330447Y402000D01*
X330500D01*
Y409000D01*
D02*
G37*
G36*
X177000Y409000D02*
X170000D01*
Y402000D01*
X170053D01*
X172088Y402545D01*
X173912Y403598D01*
X175402Y405088D01*
X176455Y406912D01*
X177000Y408947D01*
Y409000D01*
D02*
G37*
G36*
X168000D02*
X161000D01*
Y408947D01*
X161545Y406912D01*
X162598Y405088D01*
X164088Y403598D01*
X165912Y402545D01*
X167947Y402000D01*
X168000D01*
Y409000D01*
D02*
G37*
G36*
X-290204Y406000D02*
X-291796D01*
X-293266Y405391D01*
X-294391Y404266D01*
X-295000Y402796D01*
Y401204D01*
X-294391Y399734D01*
X-293266Y398609D01*
X-291796Y398000D01*
X-290204D01*
X-288734Y398609D01*
X-287609Y399734D01*
X-287000Y401204D01*
Y402796D01*
X-287609Y404266D01*
X-288734Y405391D01*
X-290204Y406000D01*
D02*
G37*
G36*
X79796Y394000D02*
X78204D01*
X76734Y393391D01*
X75609Y392266D01*
X75000Y390796D01*
Y389204D01*
X75609Y387734D01*
X76734Y386609D01*
X78204Y386000D01*
X79796D01*
X81266Y386609D01*
X82391Y387734D01*
X83000Y389204D01*
Y390796D01*
X82391Y392266D01*
X81266Y393391D01*
X79796Y394000D01*
D02*
G37*
G36*
X54796Y389000D02*
X53204D01*
X51734Y388391D01*
X50609Y387266D01*
X50000Y385796D01*
Y384204D01*
X50609Y382734D01*
X51734Y381609D01*
X53204Y381000D01*
X54796D01*
X56266Y381609D01*
X57391Y382734D01*
X58000Y384204D01*
Y385796D01*
X57391Y387266D01*
X56266Y388391D01*
X54796Y389000D01*
D02*
G37*
G36*
X-13704Y388500D02*
X-15296D01*
X-16766Y387891D01*
X-17891Y386766D01*
X-18500Y385296D01*
Y383704D01*
X-17891Y382234D01*
X-16766Y381109D01*
X-15296Y380500D01*
X-13704D01*
X-12234Y381109D01*
X-11109Y382234D01*
X-10500Y383704D01*
Y385296D01*
X-11109Y386766D01*
X-12234Y387891D01*
X-13704Y388500D01*
D02*
G37*
G36*
X-233204Y357875D02*
X-234796D01*
X-236266Y357266D01*
X-237391Y356141D01*
X-238000Y354671D01*
Y353079D01*
X-237391Y351609D01*
X-236266Y350484D01*
X-234796Y349875D01*
X-233204D01*
X-231734Y350484D01*
X-230609Y351609D01*
X-230000Y353079D01*
Y354671D01*
X-230609Y356141D01*
X-231734Y357266D01*
X-233204Y357875D01*
D02*
G37*
G36*
X-22704Y351000D02*
X-24296D01*
X-25766Y350391D01*
X-26891Y349266D01*
X-27500Y347796D01*
Y346204D01*
X-26891Y344734D01*
X-25766Y343609D01*
X-24296Y343000D01*
X-22704D01*
X-21234Y343609D01*
X-20109Y344734D01*
X-19500Y346204D01*
Y347796D01*
X-20109Y349266D01*
X-21234Y350391D01*
X-22704Y351000D01*
D02*
G37*
G36*
X-14204Y334000D02*
X-15796D01*
X-17266Y333391D01*
X-18391Y332266D01*
X-19000Y330796D01*
Y329204D01*
X-18391Y327734D01*
X-17266Y326609D01*
X-15796Y326000D01*
X-14204D01*
X-12734Y326609D01*
X-11609Y327734D01*
X-11000Y329204D01*
Y330796D01*
X-11609Y332266D01*
X-12734Y333391D01*
X-14204Y334000D01*
D02*
G37*
G36*
X-22704Y326500D02*
X-24296D01*
X-25766Y325891D01*
X-26891Y324766D01*
X-27500Y323296D01*
Y321704D01*
X-26891Y320234D01*
X-25766Y319109D01*
X-24296Y318500D01*
X-22704D01*
X-21234Y319109D01*
X-20109Y320234D01*
X-19500Y321704D01*
Y323296D01*
X-20109Y324766D01*
X-21234Y325891D01*
X-22704Y326500D01*
D02*
G37*
G36*
X-14204Y319000D02*
X-15796D01*
X-17266Y318391D01*
X-18391Y317266D01*
X-19000Y315796D01*
Y314204D01*
X-18391Y312734D01*
X-17266Y311609D01*
X-15796Y311000D01*
X-14204D01*
X-12734Y311609D01*
X-11609Y312734D01*
X-11000Y314204D01*
Y315796D01*
X-11609Y317266D01*
X-12734Y318391D01*
X-14204Y319000D01*
D02*
G37*
G36*
X-404079Y311500D02*
X-405671D01*
X-407141Y310891D01*
X-408266Y309766D01*
X-408875Y308296D01*
Y306704D01*
X-408266Y305234D01*
X-407141Y304109D01*
X-405671Y303500D01*
X-404079D01*
X-402609Y304109D01*
X-401484Y305234D01*
X-400875Y306704D01*
Y308296D01*
X-401484Y309766D01*
X-402609Y310891D01*
X-404079Y311500D01*
D02*
G37*
G36*
X-61454Y310000D02*
X-63046D01*
X-64516Y309391D01*
X-65641Y308266D01*
X-66250Y306796D01*
Y305204D01*
X-65641Y303734D01*
X-64516Y302609D01*
X-63046Y302000D01*
X-61454D01*
X-59984Y302609D01*
X-58859Y303734D01*
X-58250Y305204D01*
Y306796D01*
X-58859Y308266D01*
X-59984Y309391D01*
X-61454Y310000D01*
D02*
G37*
G36*
X11000Y298700D02*
X-11000D01*
Y280700D01*
X11000D01*
Y298700D01*
D02*
G37*
G36*
X-284204Y285000D02*
X-285796D01*
X-287266Y284391D01*
X-288391Y283266D01*
X-289000Y281796D01*
Y280204D01*
X-288391Y278734D01*
X-287266Y277609D01*
X-285796Y277000D01*
X-284204D01*
X-282734Y277609D01*
X-281609Y278734D01*
X-281000Y280204D01*
Y281796D01*
X-281609Y283266D01*
X-282734Y284391D01*
X-284204Y285000D01*
D02*
G37*
G36*
X1317Y274300D02*
X1000D01*
Y265300D01*
X10000D01*
Y265617D01*
X9319Y268160D01*
X8002Y270440D01*
X6140Y272302D01*
X3860Y273619D01*
X1317Y274300D01*
D02*
G37*
G36*
X-1000D02*
X-1317D01*
X-3860Y273619D01*
X-6140Y272302D01*
X-8002Y270440D01*
X-9319Y268160D01*
X-10000Y265617D01*
Y265300D01*
X-1000D01*
Y274300D01*
D02*
G37*
G36*
X10000Y263300D02*
X1000D01*
Y254300D01*
X1317D01*
X3860Y254981D01*
X6140Y256298D01*
X8002Y258160D01*
X9319Y260440D01*
X10000Y262983D01*
Y263300D01*
D02*
G37*
G36*
X-1000D02*
X-10000D01*
Y262983D01*
X-9319Y260440D01*
X-8002Y258160D01*
X-6140Y256298D01*
X-3860Y254981D01*
X-1317Y254300D01*
X-1000D01*
Y263300D01*
D02*
G37*
G36*
X-284204Y260000D02*
X-285796D01*
X-287266Y259391D01*
X-288391Y258266D01*
X-289000Y256796D01*
Y255204D01*
X-288391Y253734D01*
X-287266Y252609D01*
X-285796Y252000D01*
X-284204D01*
X-282734Y252609D01*
X-281609Y253734D01*
X-281000Y255204D01*
Y256796D01*
X-281609Y258266D01*
X-282734Y259391D01*
X-284204Y260000D01*
D02*
G37*
G36*
X1185Y247900D02*
X-1185D01*
X-3474Y247287D01*
X-5526Y246102D01*
X-7202Y244426D01*
X-8387Y242374D01*
X-9000Y240085D01*
Y237715D01*
X-8387Y235426D01*
X-7202Y233374D01*
X-5526Y231698D01*
X-3474Y230513D01*
X-1185Y229900D01*
X1185D01*
X3474Y230513D01*
X5526Y231698D01*
X7202Y233374D01*
X8387Y235426D01*
X9000Y237715D01*
Y240085D01*
X8387Y242374D01*
X7202Y244426D01*
X5526Y246102D01*
X3474Y247287D01*
X1185Y247900D01*
D02*
G37*
G36*
X-284704Y220000D02*
X-286296D01*
X-287766Y219391D01*
X-288891Y218266D01*
X-289500Y216796D01*
Y215204D01*
X-288891Y213734D01*
X-287766Y212609D01*
X-286296Y212000D01*
X-284704D01*
X-283234Y212609D01*
X-282109Y213734D01*
X-281500Y215204D01*
Y216796D01*
X-282109Y218266D01*
X-283234Y219391D01*
X-284704Y220000D01*
D02*
G37*
G36*
X1185Y222500D02*
X-1185D01*
X-3474Y221887D01*
X-5526Y220702D01*
X-7202Y219026D01*
X-8387Y216974D01*
X-9000Y214685D01*
Y212315D01*
X-8387Y210026D01*
X-7202Y207974D01*
X-5526Y206298D01*
X-3474Y205113D01*
X-1185Y204500D01*
X1185D01*
X3474Y205113D01*
X5526Y206298D01*
X7202Y207974D01*
X8387Y210026D01*
X9000Y212315D01*
Y214685D01*
X8387Y216974D01*
X7202Y219026D01*
X5526Y220702D01*
X3474Y221887D01*
X1185Y222500D01*
D02*
G37*
G36*
X-284704Y210000D02*
X-286296D01*
X-287766Y209391D01*
X-288891Y208266D01*
X-289500Y206796D01*
Y205204D01*
X-288891Y203734D01*
X-287766Y202609D01*
X-286296Y202000D01*
X-284704D01*
X-283234Y202609D01*
X-282109Y203734D01*
X-281500Y205204D01*
Y206796D01*
X-282109Y208266D01*
X-283234Y209391D01*
X-284704Y210000D01*
D02*
G37*
G36*
X-123204Y197000D02*
X-124796D01*
X-126266Y196391D01*
X-127391Y195266D01*
X-128000Y193796D01*
Y192204D01*
X-127391Y190734D01*
X-126266Y189609D01*
X-124796Y189000D01*
X-123204D01*
X-121734Y189609D01*
X-120609Y190734D01*
X-120000Y192204D01*
Y193796D01*
X-120609Y195266D01*
X-121734Y196391D01*
X-123204Y197000D01*
D02*
G37*
G36*
X-133204Y188000D02*
X-134796D01*
X-136266Y187391D01*
X-137391Y186266D01*
X-138000Y184796D01*
Y183204D01*
X-137391Y181734D01*
X-136266Y180609D01*
X-134796Y180000D01*
X-133204D01*
X-131734Y180609D01*
X-130609Y181734D01*
X-130000Y183204D01*
Y184796D01*
X-130609Y186266D01*
X-131734Y187391D01*
X-133204Y188000D01*
D02*
G37*
G36*
X-349454Y187500D02*
X-351046D01*
X-352516Y186891D01*
X-353641Y185766D01*
X-354250Y184296D01*
Y182704D01*
X-353641Y181234D01*
X-352516Y180109D01*
X-351046Y179500D01*
X-349454D01*
X-347984Y180109D01*
X-346859Y181234D01*
X-346250Y182704D01*
Y184296D01*
X-346859Y185766D01*
X-347984Y186891D01*
X-349454Y187500D01*
D02*
G37*
G36*
X1185Y197100D02*
X-1185D01*
X-3474Y196487D01*
X-5526Y195302D01*
X-7202Y193626D01*
X-8387Y191574D01*
X-9000Y189285D01*
Y186915D01*
X-8387Y184626D01*
X-7202Y182574D01*
X-5526Y180898D01*
X-3474Y179713D01*
X-1185Y179100D01*
X1185D01*
X3474Y179713D01*
X5526Y180898D01*
X7202Y182574D01*
X8387Y184626D01*
X9000Y186915D01*
Y189285D01*
X8387Y191574D01*
X7202Y193626D01*
X5526Y195302D01*
X3474Y196487D01*
X1185Y197100D01*
D02*
G37*
G36*
X-27204Y184000D02*
X-28796D01*
X-30266Y183391D01*
X-31391Y182266D01*
X-32000Y180796D01*
Y179204D01*
X-31391Y177734D01*
X-30266Y176609D01*
X-28796Y176000D01*
X-27204D01*
X-25734Y176609D01*
X-24609Y177734D01*
X-24000Y179204D01*
Y180796D01*
X-24609Y182266D01*
X-25734Y183391D01*
X-27204Y184000D01*
D02*
G37*
G36*
X10000Y164800D02*
X-12000D01*
Y146800D01*
X10000D01*
Y164800D01*
D02*
G37*
G36*
X-105704Y141000D02*
X-107296D01*
X-108766Y140391D01*
X-109891Y139266D01*
X-110500Y137796D01*
Y136204D01*
X-109891Y134734D01*
X-108766Y133609D01*
X-107296Y133000D01*
X-105704D01*
X-104234Y133609D01*
X-103109Y134734D01*
X-102500Y136204D01*
Y137796D01*
X-103109Y139266D01*
X-104234Y140391D01*
X-105704Y141000D01*
D02*
G37*
G36*
X-223204Y140000D02*
X-224796D01*
X-226266Y139391D01*
X-227391Y138266D01*
X-228000Y136796D01*
Y135204D01*
X-227391Y133734D01*
X-226266Y132609D01*
X-224796Y132000D01*
X-223204D01*
X-221734Y132609D01*
X-220609Y133734D01*
X-220000Y135204D01*
Y136796D01*
X-220609Y138266D01*
X-221734Y139391D01*
X-223204Y140000D01*
D02*
G37*
G36*
X185Y139400D02*
X-2185D01*
X-4474Y138787D01*
X-6526Y137602D01*
X-8202Y135926D01*
X-9387Y133874D01*
X-10000Y131585D01*
Y129215D01*
X-9387Y126926D01*
X-8202Y124874D01*
X-6526Y123198D01*
X-4474Y122013D01*
X-2185Y121400D01*
X185D01*
X2474Y122013D01*
X4526Y123198D01*
X6202Y124874D01*
X7387Y126926D01*
X8000Y129215D01*
Y131585D01*
X7387Y133874D01*
X6202Y135926D01*
X4526Y137602D01*
X2474Y138787D01*
X185Y139400D01*
D02*
G37*
G36*
Y114000D02*
X-2185D01*
X-4474Y113387D01*
X-6526Y112202D01*
X-8202Y110526D01*
X-9387Y108474D01*
X-10000Y106185D01*
Y103815D01*
X-9387Y101526D01*
X-8202Y99474D01*
X-6526Y97798D01*
X-4474Y96613D01*
X-2185Y96000D01*
X185D01*
X2474Y96613D01*
X4526Y97798D01*
X6202Y99474D01*
X7387Y101526D01*
X8000Y103815D01*
Y106185D01*
X7387Y108474D01*
X6202Y110526D01*
X4526Y112202D01*
X2474Y113387D01*
X185Y114000D01*
D02*
G37*
G36*
X-413552Y98400D02*
X-414000D01*
Y88400D01*
X-404000D01*
Y88848D01*
X-404750Y91646D01*
X-406198Y94154D01*
X-408246Y96202D01*
X-410754Y97650D01*
X-413552Y98400D01*
D02*
G37*
G36*
X-416000D02*
X-416448D01*
X-419246Y97650D01*
X-421754Y96202D01*
X-423802Y94154D01*
X-425250Y91646D01*
X-426000Y88848D01*
Y88400D01*
X-416000D01*
Y98400D01*
D02*
G37*
G36*
X370053Y85500D02*
X370000D01*
Y78500D01*
X377000D01*
Y78553D01*
X376455Y80588D01*
X375402Y82412D01*
X373912Y83902D01*
X372088Y84955D01*
X370053Y85500D01*
D02*
G37*
G36*
X368000D02*
X367947D01*
X365912Y84955D01*
X364088Y83902D01*
X362598Y82412D01*
X361545Y80588D01*
X361000Y78553D01*
Y78500D01*
X368000D01*
Y85500D01*
D02*
G37*
G36*
X166053Y85000D02*
X166000D01*
Y78000D01*
X173000D01*
Y78053D01*
X172455Y80088D01*
X171402Y81912D01*
X169912Y83402D01*
X168088Y84455D01*
X166053Y85000D01*
D02*
G37*
G36*
X164000D02*
X163947D01*
X161912Y84455D01*
X160088Y83402D01*
X158598Y81912D01*
X157545Y80088D01*
X157000Y78053D01*
Y78000D01*
X164000D01*
Y85000D01*
D02*
G37*
G36*
X-404000Y86400D02*
X-414000D01*
Y76400D01*
X-413552D01*
X-410754Y77150D01*
X-408246Y78598D01*
X-406198Y80646D01*
X-404750Y83154D01*
X-404000Y85952D01*
Y86400D01*
D02*
G37*
G36*
X-416000D02*
X-426000D01*
Y85952D01*
X-425250Y83154D01*
X-423802Y80646D01*
X-421754Y78598D01*
X-419246Y77150D01*
X-416448Y76400D01*
X-416000D01*
Y86400D01*
D02*
G37*
G36*
X185Y88600D02*
X-2185D01*
X-4474Y87987D01*
X-6526Y86802D01*
X-8202Y85126D01*
X-9387Y83074D01*
X-10000Y80785D01*
Y78415D01*
X-9387Y76126D01*
X-8202Y74074D01*
X-6526Y72398D01*
X-4474Y71213D01*
X-2185Y70600D01*
X185D01*
X2474Y71213D01*
X4526Y72398D01*
X6202Y74074D01*
X7387Y76126D01*
X8000Y78415D01*
Y80785D01*
X7387Y83074D01*
X6202Y85126D01*
X4526Y86802D01*
X2474Y87987D01*
X185Y88600D01*
D02*
G37*
G36*
X326000Y84500D02*
X312000D01*
Y70500D01*
X326000D01*
Y84500D01*
D02*
G37*
G36*
X377000Y76500D02*
X370000D01*
Y69500D01*
X370053D01*
X372088Y70045D01*
X373912Y71098D01*
X375402Y72588D01*
X376455Y74412D01*
X377000Y76447D01*
Y76500D01*
D02*
G37*
G36*
X368000D02*
X361000D01*
Y76447D01*
X361545Y74412D01*
X362598Y72588D01*
X364088Y71098D01*
X365912Y70045D01*
X367947Y69500D01*
X368000D01*
Y76500D01*
D02*
G37*
G36*
X173000Y76000D02*
X166000D01*
Y69000D01*
X166053D01*
X168088Y69545D01*
X169912Y70598D01*
X171402Y72088D01*
X172455Y73912D01*
X173000Y75947D01*
Y76000D01*
D02*
G37*
G36*
X164000D02*
X157000D01*
Y75947D01*
X157545Y73912D01*
X158598Y72088D01*
X160088Y70598D01*
X161912Y69545D01*
X163947Y69000D01*
X164000D01*
Y76000D01*
D02*
G37*
G36*
X-211447Y70500D02*
X-211500D01*
Y63500D01*
X-204500D01*
Y63553D01*
X-205045Y65588D01*
X-206098Y67412D01*
X-207588Y68902D01*
X-209412Y69955D01*
X-211447Y70500D01*
D02*
G37*
G36*
X-213500D02*
X-213553D01*
X-215588Y69955D01*
X-217412Y68902D01*
X-218902Y67412D01*
X-219955Y65588D01*
X-220500Y63553D01*
Y63500D01*
X-213500D01*
Y70500D01*
D02*
G37*
G36*
X325796Y64000D02*
X324204D01*
X322734Y63391D01*
X321720Y62377D01*
X321000Y62317D01*
X320280Y62377D01*
X319266Y63391D01*
X317796Y64000D01*
X316204D01*
X314734Y63391D01*
X313609Y62266D01*
X313000Y60796D01*
Y59204D01*
X313609Y57734D01*
X314623Y56720D01*
X314683Y56000D01*
X314623Y55280D01*
X313609Y54266D01*
X313000Y52796D01*
Y51204D01*
X313609Y49734D01*
X314623Y48720D01*
X314683Y48000D01*
X314623Y47280D01*
X313609Y46266D01*
X313000Y44796D01*
Y43204D01*
X313609Y41734D01*
X314623Y40720D01*
X314683Y40000D01*
X314623Y39280D01*
X313609Y38266D01*
X313000Y36796D01*
Y35204D01*
X313609Y33734D01*
X314734Y32609D01*
X316204Y32000D01*
X317796D01*
X319266Y32609D01*
X320280Y33623D01*
X321000Y33683D01*
X321720Y33623D01*
X322734Y32609D01*
X324204Y32000D01*
X325796D01*
X327266Y32609D01*
X328391Y33734D01*
X329000Y35204D01*
Y36796D01*
X328391Y38266D01*
X327377Y39280D01*
X327317Y40000D01*
X327377Y40720D01*
X328391Y41734D01*
X329000Y43204D01*
Y44796D01*
X328391Y46266D01*
X327377Y47280D01*
X327317Y48000D01*
X327377Y48720D01*
X328391Y49734D01*
X329000Y51204D01*
Y52796D01*
X328391Y54266D01*
X327377Y55280D01*
X327317Y56000D01*
X327377Y56720D01*
X328391Y57734D01*
X329000Y59204D01*
Y60796D01*
X328391Y62266D01*
X327266Y63391D01*
X325796Y64000D01*
D02*
G37*
G36*
X-255500Y69500D02*
X-269500D01*
Y55500D01*
X-255500D01*
Y69500D01*
D02*
G37*
G36*
X317Y64200D02*
X0D01*
Y55200D01*
X9000D01*
Y55517D01*
X8318Y58060D01*
X7002Y60340D01*
X5140Y62202D01*
X2860Y63519D01*
X317Y64200D01*
D02*
G37*
G36*
X-2000D02*
X-2316D01*
X-4860Y63519D01*
X-7140Y62202D01*
X-9002Y60340D01*
X-10318Y58060D01*
X-11000Y55517D01*
Y55200D01*
X-2000D01*
Y64200D01*
D02*
G37*
G36*
X-204500Y61500D02*
X-211500D01*
Y54500D01*
X-211447D01*
X-209412Y55045D01*
X-207588Y56098D01*
X-206098Y57588D01*
X-205045Y59412D01*
X-204500Y61447D01*
Y61500D01*
D02*
G37*
G36*
X-213500D02*
X-220500D01*
Y61447D01*
X-219955Y59412D01*
X-218902Y57588D01*
X-217412Y56098D01*
X-215588Y55045D01*
X-213553Y54500D01*
X-213500D01*
Y61500D01*
D02*
G37*
G36*
X-405000Y72000D02*
X-425000D01*
Y52000D01*
X-405000D01*
Y72000D01*
D02*
G37*
G36*
X9000Y53200D02*
X0D01*
Y44200D01*
X317D01*
X2860Y44882D01*
X5140Y46198D01*
X7002Y48060D01*
X8318Y50340D01*
X9000Y52884D01*
Y53200D01*
D02*
G37*
G36*
X-2000D02*
X-11000D01*
Y52884D01*
X-10318Y50340D01*
X-9002Y48060D01*
X-7140Y46198D01*
X-4860Y44882D01*
X-2316Y44200D01*
X-2000D01*
Y53200D01*
D02*
G37*
G36*
X122000Y84000D02*
X108000D01*
Y70000D01*
X109547D01*
X110073Y68730D01*
X109609Y68266D01*
X109000Y66796D01*
Y65204D01*
X109609Y63734D01*
X110623Y62720D01*
X110683Y62000D01*
X110623Y61280D01*
X109609Y60266D01*
X109000Y58796D01*
Y57204D01*
X109609Y55734D01*
X110623Y54720D01*
X110683Y54000D01*
X110623Y53280D01*
X109609Y52266D01*
X109000Y50796D01*
Y49204D01*
X109609Y47734D01*
X110623Y46720D01*
X110683Y46000D01*
X110623Y45280D01*
X109609Y44266D01*
X109000Y42796D01*
Y41204D01*
X109609Y39734D01*
X110734Y38609D01*
X112204Y38000D01*
X113796D01*
X115266Y38609D01*
X116280Y39623D01*
X117000Y39683D01*
X117720Y39623D01*
X118734Y38609D01*
X120204Y38000D01*
X121796D01*
X123266Y38609D01*
X124391Y39734D01*
X125000Y41204D01*
Y42796D01*
X124391Y44266D01*
X123377Y45280D01*
X123317Y46000D01*
X123377Y46720D01*
X124391Y47734D01*
X125000Y49204D01*
Y50796D01*
X124391Y52266D01*
X123377Y53280D01*
X123317Y54000D01*
X123377Y54720D01*
X124391Y55734D01*
X125000Y57204D01*
Y58796D01*
X124391Y60266D01*
X123377Y61280D01*
X123317Y62000D01*
X123377Y62720D01*
X124391Y63734D01*
X125000Y65204D01*
Y66796D01*
X124391Y68266D01*
X123266Y69391D01*
X123054Y69479D01*
X122000Y70000D01*
X122000Y71185D01*
Y84000D01*
D02*
G37*
G36*
X-118204Y40000D02*
X-119796D01*
X-121266Y39391D01*
X-122391Y38266D01*
X-123000Y36796D01*
Y35204D01*
X-122391Y33734D01*
X-121266Y32609D01*
X-119796Y32000D01*
X-118204D01*
X-116734Y32609D01*
X-115609Y33734D01*
X-115000Y35204D01*
Y36796D01*
X-115609Y38266D01*
X-116734Y39391D01*
X-118204Y40000D01*
D02*
G37*
G36*
X2243Y28500D02*
X-2243D01*
X-6674Y27798D01*
X-10940Y26412D01*
X-14937Y24375D01*
X-18566Y21739D01*
X-21739Y18566D01*
X-24375Y14937D01*
X-26412Y10940D01*
X-27798Y6674D01*
X-28500Y2243D01*
Y-2243D01*
X-27798Y-6674D01*
X-26412Y-10940D01*
X-24375Y-14937D01*
X-21739Y-18566D01*
X-18566Y-21739D01*
X-14937Y-24375D01*
X-10940Y-26412D01*
X-6674Y-27798D01*
X-2243Y-28500D01*
X2243D01*
X6674Y-27798D01*
X10940Y-26412D01*
X14937Y-24375D01*
X18566Y-21739D01*
X21739Y-18566D01*
X24375Y-14937D01*
X26412Y-10940D01*
X27798Y-6674D01*
X28500Y-2243D01*
Y2243D01*
X27798Y6674D01*
X26412Y10940D01*
X24375Y14937D01*
X21739Y18566D01*
X18566Y21739D01*
X14937Y24375D01*
X10940Y26412D01*
X6674Y27798D01*
X2243Y28500D01*
D02*
G37*
G36*
X-261447Y-37000D02*
X-261500D01*
Y-44000D01*
X-254500D01*
Y-43947D01*
X-255045Y-41912D01*
X-256098Y-40088D01*
X-257588Y-38598D01*
X-259412Y-37545D01*
X-261447Y-37000D01*
D02*
G37*
G36*
X-263500D02*
X-263553D01*
X-265588Y-37545D01*
X-267412Y-38598D01*
X-268902Y-40088D01*
X-269955Y-41912D01*
X-270500Y-43947D01*
Y-44000D01*
X-263500D01*
Y-37000D01*
D02*
G37*
G36*
X-205500Y-38000D02*
X-219500D01*
Y-52000D01*
X-205500D01*
Y-38000D01*
D02*
G37*
G36*
X-254500Y-46000D02*
X-261500D01*
Y-53000D01*
X-261447D01*
X-259412Y-52455D01*
X-257588Y-51402D01*
X-256098Y-49912D01*
X-255045Y-48088D01*
X-254500Y-46053D01*
Y-46000D01*
D02*
G37*
G36*
X-263500D02*
X-270500D01*
Y-46053D01*
X-269955Y-48088D01*
X-268902Y-49912D01*
X-267412Y-51402D01*
X-265588Y-52455D01*
X-263553Y-53000D01*
X-263500D01*
Y-46000D01*
D02*
G37*
G36*
X-368947Y-79500D02*
X-369000D01*
Y-86500D01*
X-362000D01*
Y-86447D01*
X-362545Y-84412D01*
X-363598Y-82588D01*
X-365088Y-81098D01*
X-366912Y-80045D01*
X-368947Y-79500D01*
D02*
G37*
G36*
X-371000D02*
X-371053D01*
X-373088Y-80045D01*
X-374912Y-81098D01*
X-376402Y-82588D01*
X-377455Y-84412D01*
X-378000Y-86447D01*
Y-86500D01*
X-371000D01*
Y-79500D01*
D02*
G37*
G36*
X219796Y-84000D02*
X218204D01*
X216734Y-84609D01*
X215609Y-85734D01*
X215000Y-87204D01*
Y-88796D01*
X215609Y-90266D01*
X216734Y-91391D01*
X218204Y-92000D01*
X219796D01*
X221266Y-91391D01*
X222391Y-90266D01*
X223000Y-88796D01*
Y-87204D01*
X222391Y-85734D01*
X221266Y-84609D01*
X219796Y-84000D01*
D02*
G37*
G36*
X-362000Y-88500D02*
X-369000D01*
Y-95500D01*
X-368947D01*
X-366912Y-94955D01*
X-365088Y-93902D01*
X-363598Y-92412D01*
X-362545Y-90588D01*
X-362000Y-88553D01*
Y-88500D01*
D02*
G37*
G36*
X-371000D02*
X-378000D01*
Y-88553D01*
X-377455Y-90588D01*
X-376402Y-92412D01*
X-374912Y-93902D01*
X-373088Y-94955D01*
X-371053Y-95500D01*
X-371000D01*
Y-88500D01*
D02*
G37*
G36*
X-363000Y-130500D02*
X-377000D01*
Y-144500D01*
X-363000D01*
Y-130500D01*
D02*
G37*
G36*
X272796Y-169000D02*
X271204D01*
X269734Y-169609D01*
X268609Y-170734D01*
X268000Y-172204D01*
Y-173796D01*
X268609Y-175266D01*
X269734Y-176391D01*
X271204Y-177000D01*
X272796D01*
X274266Y-176391D01*
X275391Y-175266D01*
X276000Y-173796D01*
Y-172204D01*
X275391Y-170734D01*
X274266Y-169609D01*
X272796Y-169000D01*
D02*
G37*
G36*
X-118947Y-177000D02*
X-119000D01*
Y-184000D01*
X-112000D01*
Y-183947D01*
X-112545Y-181912D01*
X-113598Y-180088D01*
X-115088Y-178598D01*
X-116912Y-177545D01*
X-118947Y-177000D01*
D02*
G37*
G36*
X-121000D02*
X-121053D01*
X-123088Y-177545D01*
X-124912Y-178598D01*
X-126402Y-180088D01*
X-127455Y-181912D01*
X-128000Y-183947D01*
Y-184000D01*
X-121000D01*
Y-177000D01*
D02*
G37*
G36*
X436796Y-180000D02*
X435204D01*
X433734Y-180609D01*
X432609Y-181734D01*
X432000Y-183204D01*
Y-184796D01*
X432609Y-186266D01*
X433734Y-187391D01*
X435204Y-188000D01*
X436796D01*
X438266Y-187391D01*
X439391Y-186266D01*
X440000Y-184796D01*
Y-183204D01*
X439391Y-181734D01*
X438266Y-180609D01*
X436796Y-180000D01*
D02*
G37*
G36*
X-112000Y-186000D02*
X-119000D01*
Y-193000D01*
X-118947D01*
X-116912Y-192455D01*
X-115088Y-191402D01*
X-113598Y-189912D01*
X-112545Y-188088D01*
X-112000Y-186053D01*
Y-186000D01*
D02*
G37*
G36*
X-121000D02*
X-128000D01*
Y-186053D01*
X-127455Y-188088D01*
X-126402Y-189912D01*
X-124912Y-191402D01*
X-123088Y-192455D01*
X-121053Y-193000D01*
X-121000D01*
Y-186000D01*
D02*
G37*
G36*
X356296Y-190500D02*
X354704D01*
X353234Y-191109D01*
X352109Y-192234D01*
X351500Y-193704D01*
Y-195296D01*
X352109Y-196766D01*
X353234Y-197891D01*
X354704Y-198500D01*
X356296D01*
X357766Y-197891D01*
X358891Y-196766D01*
X359500Y-195296D01*
Y-193704D01*
X358891Y-192234D01*
X357766Y-191109D01*
X356296Y-190500D01*
D02*
G37*
G36*
X219796Y-194000D02*
X218204D01*
X216734Y-194609D01*
X215609Y-195734D01*
X215000Y-197204D01*
Y-198796D01*
X215609Y-200266D01*
X216734Y-201391D01*
X218204Y-202000D01*
X219796D01*
X221266Y-201391D01*
X222391Y-200266D01*
X223000Y-198796D01*
Y-197204D01*
X222391Y-195734D01*
X221266Y-194609D01*
X219796Y-194000D01*
D02*
G37*
G36*
X-395250Y-203250D02*
X-416750D01*
Y-224750D01*
X-395250D01*
Y-203250D01*
D02*
G37*
G36*
X260796Y-223500D02*
X259204D01*
X257734Y-224109D01*
X256609Y-225234D01*
X256000Y-226704D01*
Y-228296D01*
X256609Y-229766D01*
X257734Y-230891D01*
X259204Y-231500D01*
X260796D01*
X262266Y-230891D01*
X263391Y-229766D01*
X264000Y-228296D01*
Y-226704D01*
X263391Y-225234D01*
X262266Y-224109D01*
X260796Y-223500D01*
D02*
G37*
G36*
X-113000Y-228000D02*
X-127000D01*
Y-242000D01*
X-113000D01*
Y-228000D01*
D02*
G37*
G36*
X94796Y-239000D02*
X93204D01*
X91734Y-239609D01*
X90609Y-240734D01*
X90000Y-242204D01*
Y-243796D01*
X90609Y-245266D01*
X91734Y-246391D01*
X93204Y-247000D01*
X94796D01*
X96266Y-246391D01*
X97391Y-245266D01*
X98000Y-243796D01*
Y-242204D01*
X97391Y-240734D01*
X96266Y-239609D01*
X94796Y-239000D01*
D02*
G37*
G36*
X280796Y-246000D02*
X279204D01*
X277734Y-246609D01*
X276609Y-247734D01*
X276000Y-249204D01*
Y-250796D01*
X276609Y-252266D01*
X277734Y-253391D01*
X279204Y-254000D01*
X280796D01*
X282266Y-253391D01*
X283391Y-252266D01*
X284000Y-250796D01*
Y-249204D01*
X283391Y-247734D01*
X282266Y-246609D01*
X280796Y-246000D01*
D02*
G37*
G36*
X340796Y-254800D02*
X339204D01*
X337734Y-255409D01*
X336609Y-256534D01*
X336000Y-258004D01*
Y-259596D01*
X336609Y-261066D01*
X337734Y-262191D01*
X339204Y-262800D01*
X340796D01*
X342266Y-262191D01*
X343391Y-261066D01*
X344000Y-259596D01*
Y-258004D01*
X343391Y-256534D01*
X342266Y-255409D01*
X340796Y-254800D01*
D02*
G37*
G36*
X314796Y-255000D02*
X313204D01*
X311734Y-255609D01*
X310609Y-256734D01*
X310000Y-258204D01*
Y-259796D01*
X310609Y-261266D01*
X311734Y-262391D01*
X313204Y-263000D01*
X314796D01*
X316266Y-262391D01*
X317391Y-261266D01*
X318000Y-259796D01*
Y-258204D01*
X317391Y-256734D01*
X316266Y-255609D01*
X314796Y-255000D01*
D02*
G37*
G36*
X-404453Y-253050D02*
X-405000D01*
Y-263800D01*
X-394250D01*
Y-263253D01*
X-395051Y-260265D01*
X-396598Y-257585D01*
X-398785Y-255398D01*
X-401465Y-253851D01*
X-404453Y-253050D01*
D02*
G37*
G36*
X-407000D02*
X-407547D01*
X-410535Y-253851D01*
X-413215Y-255398D01*
X-415402Y-257585D01*
X-416949Y-260265D01*
X-417750Y-263253D01*
Y-263800D01*
X-407000D01*
Y-253050D01*
D02*
G37*
G36*
X-394250Y-265800D02*
X-405000D01*
Y-276550D01*
X-404453D01*
X-401465Y-275749D01*
X-398785Y-274202D01*
X-396598Y-272015D01*
X-395051Y-269335D01*
X-394250Y-266347D01*
Y-265800D01*
D02*
G37*
G36*
X-407000D02*
X-417750D01*
Y-266347D01*
X-416949Y-269335D01*
X-415402Y-272015D01*
X-413215Y-274202D01*
X-410535Y-275749D01*
X-407547Y-276550D01*
X-407000D01*
Y-265800D01*
D02*
G37*
G36*
X274796Y-279000D02*
X273204D01*
X271734Y-279609D01*
X270609Y-280734D01*
X270000Y-282204D01*
Y-283796D01*
X270609Y-285266D01*
X271734Y-286391D01*
X273204Y-287000D01*
X274796D01*
X276266Y-286391D01*
X277391Y-285266D01*
X278000Y-283796D01*
Y-282204D01*
X277391Y-280734D01*
X276266Y-279609D01*
X274796Y-279000D01*
D02*
G37*
G36*
X335995Y-310000D02*
X334005D01*
X332168Y-310761D01*
X330761Y-312168D01*
X330000Y-314005D01*
Y-315995D01*
X330761Y-317832D01*
X332168Y-319239D01*
X334005Y-320000D01*
X335995D01*
X337832Y-319239D01*
X339239Y-317832D01*
X340000Y-315995D01*
Y-314005D01*
X339239Y-312168D01*
X337832Y-310761D01*
X335995Y-310000D01*
D02*
G37*
G36*
X152392Y-313404D02*
X150801D01*
X149330Y-314013D01*
X148205Y-315138D01*
X147596Y-316608D01*
Y-318200D01*
X148205Y-319670D01*
X149330Y-320795D01*
X150801Y-321404D01*
X152392D01*
X153862Y-320795D01*
X154987Y-319670D01*
X155596Y-318200D01*
Y-316608D01*
X154987Y-315138D01*
X153862Y-314013D01*
X152392Y-313404D01*
D02*
G37*
G36*
X-113000Y-315500D02*
X-127000D01*
Y-329500D01*
X-113000D01*
Y-315500D01*
D02*
G37*
G36*
X284996Y-328500D02*
X283404D01*
X281934Y-329109D01*
X280809Y-330234D01*
X280200Y-331704D01*
Y-333296D01*
X280809Y-334766D01*
X281934Y-335891D01*
X283404Y-336500D01*
X284996D01*
X286466Y-335891D01*
X287591Y-334766D01*
X288200Y-333296D01*
Y-331704D01*
X287591Y-330234D01*
X286466Y-329109D01*
X284996Y-328500D01*
D02*
G37*
G36*
X151699Y-331096D02*
X150108D01*
X148638Y-331705D01*
X147513Y-332830D01*
X146904Y-334300D01*
Y-335892D01*
X147513Y-337362D01*
X148638Y-338487D01*
X150108Y-339096D01*
X151699D01*
X153170Y-338487D01*
X154295Y-337362D01*
X154904Y-335892D01*
Y-334300D01*
X154295Y-332830D01*
X153170Y-331705D01*
X151699Y-331096D01*
D02*
G37*
G36*
X94796Y-336000D02*
X93204D01*
X91734Y-336609D01*
X90609Y-337734D01*
X90000Y-339204D01*
Y-340796D01*
X90609Y-342266D01*
X91734Y-343391D01*
X93204Y-344000D01*
X94796D01*
X96266Y-343391D01*
X97391Y-342266D01*
X98000Y-340796D01*
Y-339204D01*
X97391Y-337734D01*
X96266Y-336609D01*
X94796Y-336000D01*
D02*
G37*
G36*
X215796Y-346000D02*
X214204D01*
X212734Y-346609D01*
X211609Y-347734D01*
X211000Y-349204D01*
Y-350796D01*
X211609Y-352266D01*
X212734Y-353391D01*
X214204Y-354000D01*
X215796D01*
X217266Y-353391D01*
X218391Y-352266D01*
X219000Y-350796D01*
Y-349204D01*
X218391Y-347734D01*
X217266Y-346609D01*
X215796Y-346000D01*
D02*
G37*
G36*
X178995Y-348000D02*
X177005D01*
X175168Y-348761D01*
X173761Y-350168D01*
X173000Y-352005D01*
Y-353995D01*
X173761Y-355832D01*
X175168Y-357239D01*
X177005Y-358000D01*
X178995D01*
X180832Y-357239D01*
X182239Y-355832D01*
X183000Y-353995D01*
Y-352005D01*
X182239Y-350168D01*
X180832Y-348761D01*
X178995Y-348000D01*
D02*
G37*
G36*
X308796Y-362800D02*
X307204D01*
X305734Y-363409D01*
X304609Y-364534D01*
X304000Y-366004D01*
Y-367596D01*
X304609Y-369066D01*
X305734Y-370191D01*
X307204Y-370800D01*
X308796D01*
X310266Y-370191D01*
X311391Y-369066D01*
X312000Y-367596D01*
Y-366004D01*
X311391Y-364534D01*
X310266Y-363409D01*
X308796Y-362800D01*
D02*
G37*
G36*
X-118947Y-364500D02*
X-119000D01*
Y-371500D01*
X-112000D01*
Y-371447D01*
X-112545Y-369412D01*
X-113598Y-367588D01*
X-115088Y-366098D01*
X-116912Y-365045D01*
X-118947Y-364500D01*
D02*
G37*
G36*
X-121000D02*
X-121053D01*
X-123088Y-365045D01*
X-124912Y-366098D01*
X-126402Y-367588D01*
X-127455Y-369412D01*
X-128000Y-371447D01*
Y-371500D01*
X-121000D01*
Y-364500D01*
D02*
G37*
G36*
X-112000Y-373500D02*
X-119000D01*
Y-380500D01*
X-118947D01*
X-116912Y-379955D01*
X-115088Y-378902D01*
X-113598Y-377412D01*
X-112545Y-375588D01*
X-112000Y-373553D01*
Y-373500D01*
D02*
G37*
G36*
X-121000D02*
X-128000D01*
Y-373553D01*
X-127455Y-375588D01*
X-126402Y-377412D01*
X-124912Y-378902D01*
X-123088Y-379955D01*
X-121053Y-380500D01*
X-121000D01*
Y-373500D01*
D02*
G37*
G36*
X-413552Y-378600D02*
X-414000D01*
Y-388600D01*
X-404000D01*
Y-388152D01*
X-404750Y-385354D01*
X-406198Y-382846D01*
X-408246Y-380798D01*
X-410754Y-379350D01*
X-413552Y-378600D01*
D02*
G37*
G36*
X-416000D02*
X-416448D01*
X-419246Y-379350D01*
X-421754Y-380798D01*
X-423802Y-382846D01*
X-425250Y-385354D01*
X-426000Y-388152D01*
Y-388600D01*
X-416000D01*
Y-378600D01*
D02*
G37*
G36*
X-404000Y-390600D02*
X-414000D01*
Y-400600D01*
X-413552D01*
X-410754Y-399850D01*
X-408246Y-398402D01*
X-406198Y-396354D01*
X-404750Y-393846D01*
X-404000Y-391048D01*
Y-390600D01*
D02*
G37*
G36*
X-416000D02*
X-426000D01*
Y-391048D01*
X-425250Y-393846D01*
X-423802Y-396354D01*
X-421754Y-398402D01*
X-419246Y-399850D01*
X-416448Y-400600D01*
X-416000D01*
Y-390600D01*
D02*
G37*
G36*
X-405000Y-405000D02*
X-425000D01*
Y-425000D01*
X-405000D01*
Y-405000D01*
D02*
G37*
G36*
X253796Y-419000D02*
X252204D01*
X250734Y-419609D01*
X249609Y-420734D01*
X249000Y-422204D01*
Y-423796D01*
X249609Y-425266D01*
X250734Y-426391D01*
X252204Y-427000D01*
X253796D01*
X255266Y-426391D01*
X256391Y-425266D01*
X257000Y-423796D01*
Y-422204D01*
X256391Y-420734D01*
X255266Y-419609D01*
X253796Y-419000D01*
D02*
G37*
G36*
X223796Y-462000D02*
X222204D01*
X220734Y-462609D01*
X219609Y-463734D01*
X219000Y-465204D01*
Y-466796D01*
X219609Y-468266D01*
X220734Y-469391D01*
X222204Y-470000D01*
X223796D01*
X225266Y-469391D01*
X226391Y-468266D01*
X227000Y-466796D01*
Y-465204D01*
X226391Y-463734D01*
X225266Y-462609D01*
X223796Y-462000D01*
D02*
G37*
G36*
X160796Y-472000D02*
X159204D01*
X157734Y-472609D01*
X156609Y-473734D01*
X156000Y-475204D01*
Y-476796D01*
X156609Y-478266D01*
X157734Y-479391D01*
X159204Y-480000D01*
X160796D01*
X162266Y-479391D01*
X163391Y-478266D01*
X164000Y-476796D01*
Y-475204D01*
X163391Y-473734D01*
X162266Y-472609D01*
X160796Y-472000D01*
D02*
G37*
G36*
X210996Y-483200D02*
X209404D01*
X207934Y-483809D01*
X206809Y-484934D01*
X206200Y-486404D01*
Y-487996D01*
X206809Y-489466D01*
X207934Y-490591D01*
X209404Y-491200D01*
X210996D01*
X212466Y-490591D01*
X213591Y-489466D01*
X214200Y-487996D01*
Y-486404D01*
X213591Y-484934D01*
X212466Y-483809D01*
X210996Y-483200D01*
D02*
G37*
G36*
X-198000Y-478000D02*
X-212000D01*
Y-492000D01*
X-198000D01*
Y-478000D01*
D02*
G37*
G36*
X-303000D02*
X-317000D01*
Y-492000D01*
X-303000D01*
Y-478000D01*
D02*
G37*
G36*
X254200Y-491270D02*
Y-502700D01*
X260442D01*
Y-498380D01*
X260195Y-496506D01*
X259472Y-494759D01*
X258321Y-493259D01*
X256821Y-492108D01*
X255074Y-491385D01*
X254200Y-491270D01*
D02*
G37*
G36*
X252200D02*
X251326Y-491385D01*
X249579Y-492108D01*
X248079Y-493259D01*
X246928Y-494759D01*
X246205Y-496506D01*
X245958Y-498380D01*
Y-502700D01*
X252200D01*
Y-491270D01*
D02*
G37*
G36*
X167800D02*
Y-502700D01*
X174042D01*
Y-498380D01*
X173795Y-496506D01*
X173072Y-494759D01*
X171921Y-493259D01*
X170421Y-492108D01*
X168674Y-491385D01*
X167800Y-491270D01*
D02*
G37*
G36*
X165800D02*
X164926Y-491385D01*
X163179Y-492108D01*
X161679Y-493259D01*
X160528Y-494759D01*
X159805Y-496506D01*
X159558Y-498380D01*
Y-502700D01*
X165800D01*
Y-491270D01*
D02*
G37*
G36*
X174042Y-504700D02*
X167800D01*
Y-516130D01*
X168674Y-516015D01*
X170421Y-515292D01*
X171921Y-514141D01*
X173072Y-512641D01*
X173795Y-510894D01*
X174042Y-509020D01*
Y-504700D01*
D02*
G37*
G36*
X260442Y-504700D02*
X254200D01*
Y-516130D01*
X255074Y-516015D01*
X256821Y-515292D01*
X258321Y-514141D01*
X259472Y-512641D01*
X260195Y-510894D01*
X260442Y-509020D01*
Y-504700D01*
D02*
G37*
G36*
X252200D02*
X245958D01*
Y-509020D01*
X246205Y-510894D01*
X246928Y-512641D01*
X248079Y-514141D01*
X249579Y-515292D01*
X251326Y-516015D01*
X252200Y-516130D01*
Y-504700D01*
D02*
G37*
G36*
X165800Y-504700D02*
X159558D01*
Y-509020D01*
X159805Y-510894D01*
X160528Y-512641D01*
X161679Y-514141D01*
X163179Y-515292D01*
X164926Y-516015D01*
X165800Y-516130D01*
Y-504700D01*
D02*
G37*
G36*
X208296Y-518000D02*
X206704D01*
X205234Y-518609D01*
X204109Y-519734D01*
X203500Y-521204D01*
Y-522796D01*
X204109Y-524266D01*
X205234Y-525391D01*
X206704Y-526000D01*
X208296D01*
X209766Y-525391D01*
X210891Y-524266D01*
X211500Y-522796D01*
Y-521204D01*
X210891Y-519734D01*
X209766Y-518609D01*
X208296Y-518000D01*
D02*
G37*
G36*
X-308947Y-527000D02*
X-309000D01*
Y-534000D01*
X-302000D01*
Y-533947D01*
X-302545Y-531912D01*
X-303598Y-530088D01*
X-305088Y-528598D01*
X-306912Y-527545D01*
X-308947Y-527000D01*
D02*
G37*
G36*
X213796Y-526000D02*
X212204D01*
X210734Y-526609D01*
X209609Y-527734D01*
X209000Y-529204D01*
Y-530796D01*
X209609Y-532266D01*
X210734Y-533391D01*
X212204Y-534000D01*
X213796D01*
X215266Y-533391D01*
X216391Y-532266D01*
X217000Y-530796D01*
Y-529204D01*
X216391Y-527734D01*
X215266Y-526609D01*
X213796Y-526000D01*
D02*
G37*
G36*
X-311000Y-527000D02*
X-311053D01*
X-313088Y-527545D01*
X-314912Y-528598D01*
X-316402Y-530088D01*
X-317455Y-531912D01*
X-318000Y-533947D01*
Y-534000D01*
X-311000D01*
Y-527000D01*
D02*
G37*
G36*
X-203947D02*
X-204000D01*
Y-534000D01*
X-197000D01*
Y-533947D01*
X-197545Y-531912D01*
X-198598Y-530088D01*
X-200088Y-528598D01*
X-201912Y-527545D01*
X-203947Y-527000D01*
D02*
G37*
G36*
X-206000D02*
X-206053D01*
X-208088Y-527545D01*
X-209912Y-528598D01*
X-211402Y-530088D01*
X-212455Y-531912D01*
X-213000Y-533947D01*
Y-534000D01*
X-206000D01*
Y-527000D01*
D02*
G37*
G36*
X268796Y-532000D02*
X267204D01*
X265734Y-532609D01*
X264609Y-533734D01*
X264000Y-535204D01*
Y-536796D01*
X264609Y-538266D01*
X265734Y-539391D01*
X267204Y-540000D01*
X268796D01*
X270266Y-539391D01*
X271391Y-538266D01*
X272000Y-536796D01*
Y-535204D01*
X271391Y-533734D01*
X270266Y-532609D01*
X268796Y-532000D01*
D02*
G37*
G36*
X-197000Y-536000D02*
X-204000D01*
Y-543000D01*
X-203947D01*
X-201912Y-542455D01*
X-200088Y-541402D01*
X-198598Y-539912D01*
X-197545Y-538088D01*
X-197000Y-536053D01*
Y-536000D01*
D02*
G37*
G36*
X-206000D02*
X-213000D01*
Y-536053D01*
X-212455Y-538088D01*
X-211402Y-539912D01*
X-209912Y-541402D01*
X-208088Y-542455D01*
X-206053Y-543000D01*
X-206000D01*
Y-536000D01*
D02*
G37*
G36*
X-302000Y-536000D02*
X-309000D01*
Y-543000D01*
X-308947D01*
X-306912Y-542455D01*
X-305088Y-541402D01*
X-303598Y-539912D01*
X-302545Y-538088D01*
X-302000Y-536053D01*
Y-536000D01*
D02*
G37*
G36*
X-311000D02*
X-318000D01*
Y-536053D01*
X-317455Y-538088D01*
X-316402Y-539912D01*
X-314912Y-541402D01*
X-313088Y-542455D01*
X-311053Y-543000D01*
X-311000D01*
Y-536000D01*
D02*
G37*
G36*
X254200Y-542367D02*
Y-556300D01*
X260765D01*
Y-549800D01*
X260507Y-547842D01*
X259751Y-546018D01*
X258549Y-544451D01*
X256982Y-543249D01*
X255158Y-542493D01*
X254200Y-542367D01*
D02*
G37*
G36*
X252200D02*
X251242Y-542493D01*
X249418Y-543249D01*
X247851Y-544451D01*
X246649Y-546018D01*
X245893Y-547842D01*
X245635Y-549800D01*
Y-556300D01*
X252200D01*
Y-542367D01*
D02*
G37*
G36*
X167800D02*
Y-556300D01*
X174365D01*
Y-549800D01*
X174107Y-547842D01*
X173351Y-546018D01*
X172149Y-544451D01*
X170582Y-543249D01*
X168758Y-542493D01*
X167800Y-542367D01*
D02*
G37*
G36*
X165800D02*
X164842Y-542493D01*
X163018Y-543249D01*
X161451Y-544451D01*
X160249Y-546018D01*
X159493Y-547842D01*
X159235Y-549800D01*
Y-556300D01*
X165800D01*
Y-542367D01*
D02*
G37*
G36*
X419243Y-505500D02*
X414757D01*
X410326Y-506202D01*
X406060Y-507588D01*
X402063Y-509625D01*
X398433Y-512261D01*
X395261Y-515434D01*
X392625Y-519063D01*
X390588Y-523060D01*
X389202Y-527326D01*
X388500Y-531757D01*
Y-536243D01*
X389202Y-540674D01*
X390588Y-544940D01*
X392625Y-548937D01*
X395261Y-552566D01*
X398433Y-555739D01*
X402063Y-558375D01*
X406060Y-560412D01*
X410326Y-561798D01*
X414757Y-562500D01*
X419243D01*
X423674Y-561798D01*
X427940Y-560412D01*
X431937Y-558375D01*
X435566Y-555739D01*
X438739Y-552566D01*
X441375Y-548937D01*
X443412Y-544940D01*
X444798Y-540674D01*
X445500Y-536243D01*
Y-531757D01*
X444798Y-527326D01*
X443412Y-523060D01*
X441375Y-519063D01*
X438739Y-515434D01*
X435566Y-512261D01*
X431937Y-509625D01*
X427940Y-507588D01*
X423674Y-506202D01*
X419243Y-505500D01*
D02*
G37*
G36*
X-414757D02*
X-419243D01*
X-423674Y-506202D01*
X-427940Y-507588D01*
X-431937Y-509625D01*
X-435566Y-512261D01*
X-438739Y-515434D01*
X-441375Y-519063D01*
X-443412Y-523060D01*
X-444798Y-527326D01*
X-445500Y-531757D01*
Y-536243D01*
X-444798Y-540674D01*
X-443412Y-544940D01*
X-441375Y-548937D01*
X-438739Y-552566D01*
X-435566Y-555739D01*
X-431937Y-558375D01*
X-427940Y-560412D01*
X-423674Y-561798D01*
X-419243Y-562500D01*
X-414757D01*
X-410326Y-561798D01*
X-406060Y-560412D01*
X-402063Y-558375D01*
X-398433Y-555739D01*
X-395261Y-552566D01*
X-392625Y-548937D01*
X-390588Y-544940D01*
X-389202Y-540674D01*
X-388500Y-536243D01*
Y-531757D01*
X-389202Y-527326D01*
X-390588Y-523060D01*
X-392625Y-519063D01*
X-395261Y-515434D01*
X-398433Y-512261D01*
X-402063Y-509625D01*
X-406060Y-507588D01*
X-410326Y-506202D01*
X-414757Y-505500D01*
D02*
G37*
%LPD*%
D144*
X-370000Y-137500D02*
D03*
X-120000Y-235000D02*
D03*
Y-322500D02*
D03*
X-205000Y-485000D02*
D03*
X-310000D02*
D03*
X331500Y460000D02*
D03*
X169000D02*
D03*
D184*
X166800Y-557300D02*
D03*
X253200D02*
D03*
D185*
X166800Y-503700D02*
D03*
X253200D02*
D03*
D186*
X-406000Y-214000D02*
D03*
D187*
Y-264800D02*
D03*
D188*
X-370000Y-87500D02*
D03*
X-120000Y-185000D02*
D03*
Y-372500D02*
D03*
X-262500Y-45000D02*
D03*
X-212500Y62500D02*
D03*
X-205000Y-535000D02*
D03*
X-310000D02*
D03*
X331500Y410000D02*
D03*
X369000Y77500D02*
D03*
X169000Y410000D02*
D03*
X165000Y77000D02*
D03*
D189*
X-212500Y-45000D02*
D03*
X-262500Y62500D02*
D03*
X319000Y77500D02*
D03*
X115000Y77000D02*
D03*
D190*
X-259930Y537000D02*
D03*
X-285330D02*
D03*
X-344400D02*
D03*
X-369800D02*
D03*
X413000Y-387400D02*
D03*
Y-362000D02*
D03*
X-415000Y87400D02*
D03*
X-149000Y539000D02*
D03*
X-415000Y-389600D02*
D03*
D191*
X-234530Y537000D02*
D03*
X-319000D02*
D03*
X-174400Y539000D02*
D03*
D192*
X413000Y-412800D02*
D03*
X-415000Y62000D02*
D03*
Y-415000D02*
D03*
D193*
X0Y289700D02*
D03*
X-1000Y155800D02*
D03*
D194*
X0Y264300D02*
D03*
Y213500D02*
D03*
Y188100D02*
D03*
Y238900D02*
D03*
X-1000Y130400D02*
D03*
Y79600D02*
D03*
Y54200D02*
D03*
Y105000D02*
D03*
D196*
X335000Y-335530D02*
D03*
Y-439470D02*
D03*
D197*
X0Y0D02*
D03*
X417000Y-534000D02*
D03*
X-417000D02*
D03*
X417000Y534000D02*
D03*
X-417000Y534000D02*
D03*
D198*
X35250Y347500D02*
D03*
X-124000Y193000D02*
D03*
X-134000Y184000D02*
D03*
X151596Y-317404D02*
D03*
X150904Y-335096D02*
D03*
X268000Y-536000D02*
D03*
X213000Y-530000D02*
D03*
X160000Y-476000D02*
D03*
X292500Y-525000D02*
D03*
X128000D02*
D03*
X179000Y-524000D02*
D03*
X241000D02*
D03*
X210200Y-487200D02*
D03*
X207500Y-522000D02*
D03*
X181500Y-434550D02*
D03*
X249000Y-476000D02*
D03*
Y-456000D02*
D03*
X223000Y-466000D02*
D03*
X253000Y-423000D02*
D03*
X222000Y-400550D02*
D03*
X195000Y-387550D02*
D03*
X317000Y60000D02*
D03*
X325000D02*
D03*
X317000Y52000D02*
D03*
X325000D02*
D03*
X317000Y44000D02*
D03*
X325000D02*
D03*
X317000Y36000D02*
D03*
X325000D02*
D03*
X121000Y42000D02*
D03*
X113000D02*
D03*
X121000Y50000D02*
D03*
X113000D02*
D03*
X121000Y58000D02*
D03*
X113000D02*
D03*
X121000Y66000D02*
D03*
X113000D02*
D03*
X58000Y-42500D02*
D03*
X67000D02*
D03*
X58000Y-61700D02*
D03*
X67000D02*
D03*
X49500Y-42500D02*
D03*
Y-61700D02*
D03*
X-119000Y36000D02*
D03*
X-224000Y136000D02*
D03*
X-214000Y127000D02*
D03*
X179500Y-387450D02*
D03*
X247500Y-387500D02*
D03*
X284200Y-332500D02*
D03*
X231000Y-317500D02*
D03*
X215000Y-340000D02*
D03*
Y-350000D02*
D03*
X308000Y-406000D02*
D03*
X308000Y-366800D02*
D03*
X280000Y-250000D02*
D03*
X260000Y-227500D02*
D03*
X355500Y-194500D02*
D03*
X436000Y-184000D02*
D03*
X288400Y-159750D02*
D03*
X386000Y-222000D02*
D03*
X386000Y-206000D02*
D03*
X436000Y-150000D02*
D03*
X391100Y-100200D02*
D03*
X340000Y-258800D02*
D03*
X314000Y-259000D02*
D03*
X339200Y-100250D02*
D03*
X313800D02*
D03*
X260000Y-214500D02*
D03*
Y-198000D02*
D03*
Y-88000D02*
D03*
Y-104500D02*
D03*
X274000Y-283000D02*
D03*
X272000Y-173000D02*
D03*
X219000Y-88000D02*
D03*
Y-198000D02*
D03*
X40500Y-42500D02*
D03*
Y-61700D02*
D03*
X80000Y-406700D02*
D03*
X89000D02*
D03*
X97500D02*
D03*
X106500D02*
D03*
Y-387500D02*
D03*
X97500D02*
D03*
X89000D02*
D03*
X80000D02*
D03*
X-206500Y73500D02*
D03*
X-218500D02*
D03*
X-227500D02*
D03*
Y51500D02*
D03*
X-219500D02*
D03*
X-205500D02*
D03*
X-197500Y73500D02*
D03*
X-196500Y51500D02*
D03*
X-256500Y-34000D02*
D03*
X-268500D02*
D03*
X-277500D02*
D03*
Y-56000D02*
D03*
X-269500D02*
D03*
X-255500D02*
D03*
X-247500Y-34000D02*
D03*
X-246500Y-56000D02*
D03*
X-364000Y-76500D02*
D03*
X-376000D02*
D03*
X-385000D02*
D03*
Y-98500D02*
D03*
X-377000D02*
D03*
X-363000D02*
D03*
X-355000Y-76500D02*
D03*
X-354000Y-98500D02*
D03*
X-114000Y-174000D02*
D03*
X-126000D02*
D03*
X-135000D02*
D03*
Y-196000D02*
D03*
X-127000D02*
D03*
X-113000D02*
D03*
X-105000Y-174000D02*
D03*
X-104000Y-196000D02*
D03*
X-114000Y-361500D02*
D03*
X-126000D02*
D03*
X-135000D02*
D03*
Y-383500D02*
D03*
X-127000D02*
D03*
X-113000D02*
D03*
X-105000Y-361500D02*
D03*
X-104000Y-383500D02*
D03*
X-199000Y-524000D02*
D03*
X-211000D02*
D03*
X-220000D02*
D03*
Y-546000D02*
D03*
X-212000D02*
D03*
X-198000D02*
D03*
X-190000Y-524000D02*
D03*
X-189000Y-546000D02*
D03*
X-304000Y-524000D02*
D03*
X-316000D02*
D03*
X-325000D02*
D03*
Y-546000D02*
D03*
X-317000D02*
D03*
X-303000D02*
D03*
X-295000Y-524000D02*
D03*
X-294000Y-546000D02*
D03*
X94000Y-340000D02*
D03*
Y-243000D02*
D03*
X189000Y312500D02*
D03*
X170750Y345000D02*
D03*
X183750D02*
D03*
X196750D02*
D03*
X209750D02*
D03*
X170750Y332000D02*
D03*
X183750D02*
D03*
X196750D02*
D03*
X209750D02*
D03*
X170750Y319000D02*
D03*
X183750D02*
D03*
X196750D02*
D03*
X209750D02*
D03*
X170750Y306000D02*
D03*
X183750D02*
D03*
X196750D02*
D03*
X209750D02*
D03*
X170750Y293000D02*
D03*
X183750D02*
D03*
X170750Y280000D02*
D03*
X183750D02*
D03*
X196750Y293000D02*
D03*
Y280000D02*
D03*
X209750Y293000D02*
D03*
Y280000D02*
D03*
X414000D02*
D03*
Y293000D02*
D03*
X401000Y280000D02*
D03*
Y293000D02*
D03*
X388000Y280000D02*
D03*
X375000D02*
D03*
X388000Y293000D02*
D03*
X375000D02*
D03*
X414000Y306000D02*
D03*
X401000D02*
D03*
X388000D02*
D03*
X375000D02*
D03*
X414000Y319000D02*
D03*
X401000D02*
D03*
X388000D02*
D03*
X375000D02*
D03*
X414000Y332000D02*
D03*
X401000D02*
D03*
X388000D02*
D03*
X375000D02*
D03*
X414000Y345000D02*
D03*
X401000D02*
D03*
X388000D02*
D03*
X375000D02*
D03*
X393250Y312500D02*
D03*
X385000Y66500D02*
D03*
X384000Y88500D02*
D03*
X376000Y66500D02*
D03*
X375000Y88500D02*
D03*
X171000Y88000D02*
D03*
X172000Y66000D02*
D03*
X180000Y88000D02*
D03*
X181000Y66000D02*
D03*
X279250Y315000D02*
D03*
Y307500D02*
D03*
Y277500D02*
D03*
X276750Y362500D02*
D03*
X258500Y159500D02*
D03*
X220500Y159500D02*
D03*
X-14500Y368500D02*
D03*
X25000Y394000D02*
D03*
X27500Y370500D02*
D03*
X44000Y356500D02*
D03*
X-37000Y229000D02*
D03*
X-62250Y279000D02*
D03*
Y316000D02*
D03*
X-96500Y137000D02*
D03*
X-135000D02*
D03*
X-214000Y136000D02*
D03*
X-14500Y384500D02*
D03*
X-15000Y330000D02*
D03*
X-15000Y315000D02*
D03*
X-28000Y180000D02*
D03*
X-62250Y306000D02*
D03*
X-106500Y137000D02*
D03*
X-111000Y301000D02*
D03*
X-229000Y183000D02*
D03*
X-276500Y166000D02*
D03*
X-350250Y193500D02*
D03*
Y183500D02*
D03*
X-285500Y196000D02*
D03*
Y226000D02*
D03*
Y206000D02*
D03*
Y216000D02*
D03*
X-285000Y256000D02*
D03*
Y281000D02*
D03*
X-404875Y307500D02*
D03*
X-229000Y312000D02*
D03*
X-224000Y363000D02*
D03*
X-213000D02*
D03*
X-196500D02*
D03*
X-183500D02*
D03*
X-234000Y353875D02*
D03*
X-291000Y402000D02*
D03*
X-281000Y451000D02*
D03*
X-237000Y261000D02*
D03*
Y211000D02*
D03*
X-309000Y214000D02*
D03*
X-299000Y273000D02*
D03*
X-285000Y266000D02*
D03*
Y291000D02*
D03*
X-291000Y427000D02*
D03*
X72500Y362500D02*
D03*
X75000Y277500D02*
D03*
Y307500D02*
D03*
Y315000D02*
D03*
X337500Y421000D02*
D03*
X325500D02*
D03*
X316500D02*
D03*
Y399000D02*
D03*
X324500D02*
D03*
X338500D02*
D03*
X346500Y421000D02*
D03*
X347500Y399000D02*
D03*
X185000D02*
D03*
X184000Y421000D02*
D03*
X176000Y399000D02*
D03*
X162000D02*
D03*
X154000D02*
D03*
Y421000D02*
D03*
X163000D02*
D03*
X175000D02*
D03*
X59500Y543000D02*
D03*
X72500D02*
D03*
X33500D02*
D03*
X46500D02*
D03*
X-130000Y390000D02*
D03*
X-117000D02*
D03*
X-147000Y390000D02*
D03*
X-160000D02*
D03*
X-397000Y324500D02*
D03*
X-332000Y307500D02*
D03*
X-359042Y361684D02*
D03*
X54000Y385000D02*
D03*
X79000Y390000D02*
D03*
X-23500Y322500D02*
D03*
X-23500Y347000D02*
D03*
D199*
X178000Y-353000D02*
D03*
X335000Y-315000D02*
D03*
M02*
