G04*
G04 #@! TF.GenerationSoftware,Altium Limited,Altium Designer,23.3.1 (30)*
G04*
G04 Layer_Color=16711935*
%FSLAX44Y44*%
%MOMM*%
G71*
G04*
G04 #@! TF.SameCoordinates,CE043AAA-0833-454A-BDF7-73AFAC6018A4*
G04*
G04*
G04 #@! TF.FilePolarity,Negative*
G04*
G01*
G75*
%ADD79R,1.2500X1.2500*%
%ADD118O,1.2270X2.7270*%
%ADD119O,1.1630X2.2270*%
%ADD120R,2.0000X2.0000*%
%ADD121C,2.0000*%
%ADD122C,1.2500*%
%ADD123R,1.2500X1.2500*%
%ADD124C,1.8500*%
%ADD125R,1.8500X1.8500*%
%ADD126R,1.8500X1.8500*%
%ADD127R,2.0500X1.6500*%
%ADD128C,1.6500*%
%ADD129R,1.6400X1.6400*%
%ADD130C,1.6400*%
%ADD131C,5.5500*%
D79*
X-370000Y-137500D02*
D03*
X-120000Y-235000D02*
D03*
Y-322500D02*
D03*
X-205000Y-485000D02*
D03*
X-310000D02*
D03*
X331500Y460000D02*
D03*
X169000D02*
D03*
D118*
X166800Y-557300D02*
D03*
X253200D02*
D03*
D119*
X166800Y-503700D02*
D03*
X253200D02*
D03*
D120*
X-406000Y-214000D02*
D03*
D121*
Y-264800D02*
D03*
D122*
X-370000Y-87500D02*
D03*
X-120000Y-185000D02*
D03*
Y-372500D02*
D03*
X-262500Y-45000D02*
D03*
X-212500Y62500D02*
D03*
X-205000Y-535000D02*
D03*
X-310000D02*
D03*
X331500Y410000D02*
D03*
X369000Y77500D02*
D03*
X169000Y410000D02*
D03*
X165000Y77000D02*
D03*
D123*
X-212500Y-45000D02*
D03*
X-262500Y62500D02*
D03*
X319000Y77500D02*
D03*
X115000Y77000D02*
D03*
D124*
X-259930Y537000D02*
D03*
X-285330D02*
D03*
X-344400D02*
D03*
X-369800D02*
D03*
X413000Y-387400D02*
D03*
Y-362000D02*
D03*
X-415000Y87400D02*
D03*
X-149000Y539000D02*
D03*
X-415000Y-389600D02*
D03*
D125*
X-234530Y537000D02*
D03*
X-319000D02*
D03*
X-174400Y539000D02*
D03*
D126*
X413000Y-412800D02*
D03*
X-415000Y62000D02*
D03*
Y-415000D02*
D03*
D127*
X0Y289700D02*
D03*
X-1000Y155800D02*
D03*
D128*
X0Y264300D02*
D03*
Y213500D02*
D03*
Y188100D02*
D03*
Y238900D02*
D03*
X-1000Y130400D02*
D03*
Y79600D02*
D03*
Y54200D02*
D03*
Y105000D02*
D03*
D129*
X335000Y-335530D02*
D03*
D130*
Y-439470D02*
D03*
D131*
X0Y0D02*
D03*
X417000Y-534000D02*
D03*
X-417000D02*
D03*
X417000Y534000D02*
D03*
X-417000Y534000D02*
D03*
M02*
