G04*
G04 #@! TF.GenerationSoftware,Altium Limited,Altium Designer,23.3.1 (30)*
G04*
G04 Layer_Physical_Order=3*
G04 Layer_Color=16440176*
%FSLAX44Y44*%
%MOMM*%
G71*
G04*
G04 #@! TF.SameCoordinates,3783E3D3-4BAF-4DE2-A7D5-985F14F6BECE*
G04*
G04*
G04 #@! TF.FilePolarity,Positive*
G04*
G01*
G75*
%ADD145R,1.2000X1.2000*%
%ADD184O,1.1000X2.6000*%
%ADD185O,1.0360X2.1000*%
%ADD186R,1.9500X1.9500*%
%ADD187C,1.9500*%
%ADD188C,1.2000*%
%ADD189R,1.2000X1.2000*%
%ADD190C,1.8000*%
%ADD191R,1.8000X1.8000*%
%ADD192R,1.8000X1.8000*%
%ADD193R,2.0000X1.6000*%
%ADD194C,1.6000*%
%ADD196C,1.5900*%
%ADD197C,5.5000*%
%ADD198C,0.6000*%
%ADD199C,0.8000*%
G36*
X445000Y549693D02*
X443000Y549087D01*
X440303Y553124D01*
X436124Y557303D01*
X431210Y560586D01*
X425751Y562847D01*
X419955Y564000D01*
X414045D01*
X408249Y562847D01*
X402790Y560586D01*
X397876Y557303D01*
X393698Y553124D01*
X390414Y548210D01*
X388153Y542751D01*
X387000Y536955D01*
Y531045D01*
X388153Y525249D01*
X390414Y519790D01*
X393698Y514876D01*
X397876Y510698D01*
X402790Y507414D01*
X408249Y505153D01*
X414045Y504000D01*
X419955D01*
X425751Y505153D01*
X431210Y507414D01*
X436124Y510698D01*
X440303Y514876D01*
X443000Y518913D01*
X445000Y518307D01*
Y72549D01*
X390878D01*
X390632Y72500D01*
X390381D01*
X390149Y72404D01*
X389903Y72355D01*
X389694Y72215D01*
X389462Y72119D01*
X389284Y71942D01*
X389076Y71802D01*
X388116Y71163D01*
X386094Y72000D01*
X383906D01*
X381884Y71163D01*
X380500Y69778D01*
X379115Y71163D01*
X377784Y71714D01*
X376864Y73536D01*
X376794Y74000D01*
X376921Y74219D01*
X377500Y76381D01*
Y78619D01*
X376921Y80781D01*
X376706Y81152D01*
X377591Y83620D01*
X378116Y83837D01*
X379500Y85222D01*
X380885Y83837D01*
X382906Y83000D01*
X385094D01*
X387116Y83837D01*
X388663Y85385D01*
X389500Y87406D01*
Y89594D01*
X388663Y91615D01*
X387116Y93163D01*
X385094Y94000D01*
X382906D01*
X380885Y93163D01*
X379500Y91778D01*
X378116Y93163D01*
X376094Y94000D01*
X373906D01*
X371884Y93163D01*
X370337Y91615D01*
X369500Y89594D01*
Y87406D01*
X368561Y86000D01*
X367881D01*
X365719Y85421D01*
X363781Y84302D01*
X362198Y82719D01*
X361079Y80781D01*
X360500Y78619D01*
Y76381D01*
X360991Y74549D01*
X360032Y72549D01*
X327500D01*
Y86000D01*
X310500D01*
Y72549D01*
X201000D01*
X200025Y72355D01*
X199198Y71802D01*
X198645Y70975D01*
X198451Y70000D01*
Y-381000D01*
X196668Y-382288D01*
X196094Y-382050D01*
X193906D01*
X191884Y-382887D01*
X190337Y-384435D01*
X189500Y-386456D01*
Y-388644D01*
X190337Y-390666D01*
X191884Y-392213D01*
X193906Y-393050D01*
X196094D01*
X198116Y-392213D01*
X199663Y-390666D01*
X200500Y-388644D01*
Y-386456D01*
X200063Y-385402D01*
X200531Y-384476D01*
X201390Y-383549D01*
X241060D01*
X242355Y-385549D01*
X242000Y-386406D01*
Y-388594D01*
X242837Y-390616D01*
X244384Y-392163D01*
X246406Y-393000D01*
X248594D01*
X250616Y-392163D01*
X252163Y-390616D01*
X253000Y-388594D01*
Y-386406D01*
X252645Y-385549D01*
X253940Y-383549D01*
X320000D01*
Y-465000D01*
X445000D01*
Y-518307D01*
X443000Y-518913D01*
X440303Y-514876D01*
X436124Y-510698D01*
X431210Y-507414D01*
X425751Y-505153D01*
X419955Y-504000D01*
X414045D01*
X408249Y-505153D01*
X402790Y-507414D01*
X397876Y-510698D01*
X393698Y-514876D01*
X390414Y-519790D01*
X388153Y-525249D01*
X387000Y-531045D01*
Y-536955D01*
X388153Y-542751D01*
X390414Y-548210D01*
X393698Y-553124D01*
X397876Y-557303D01*
X402790Y-560586D01*
X408249Y-562847D01*
X414045Y-564000D01*
X419955D01*
X425751Y-562847D01*
X431210Y-560586D01*
X436124Y-557303D01*
X440303Y-553124D01*
X443000Y-549087D01*
X445000Y-549693D01*
Y-570000D01*
X261636D01*
X260534Y-568000D01*
X260994Y-566888D01*
X261269Y-564800D01*
Y-549800D01*
X260994Y-547712D01*
X260188Y-545765D01*
X258906Y-544094D01*
X257234Y-542812D01*
X255288Y-542006D01*
X253200Y-541731D01*
X251112Y-542006D01*
X249165Y-542812D01*
X247494Y-544094D01*
X246212Y-545765D01*
X245406Y-547712D01*
X245131Y-549800D01*
Y-564800D01*
X245406Y-566888D01*
X245866Y-568000D01*
X244764Y-570000D01*
X175236D01*
X174134Y-568000D01*
X174594Y-566888D01*
X174869Y-564800D01*
Y-549800D01*
X174594Y-547712D01*
X173788Y-545765D01*
X172506Y-544094D01*
X170835Y-542812D01*
X168888Y-542006D01*
X166800Y-541731D01*
X164712Y-542006D01*
X162766Y-542812D01*
X161094Y-544094D01*
X159812Y-545765D01*
X159006Y-547712D01*
X158731Y-549800D01*
Y-564800D01*
X159006Y-566888D01*
X159466Y-568000D01*
X158364Y-570000D01*
X-445000D01*
Y-549693D01*
X-443000Y-549087D01*
X-440303Y-553124D01*
X-436124Y-557303D01*
X-431210Y-560586D01*
X-425751Y-562847D01*
X-419955Y-564000D01*
X-414045D01*
X-408249Y-562847D01*
X-402790Y-560586D01*
X-397876Y-557303D01*
X-393698Y-553124D01*
X-390414Y-548210D01*
X-388153Y-542751D01*
X-387000Y-536955D01*
Y-531045D01*
X-388153Y-525249D01*
X-390414Y-519790D01*
X-393698Y-514876D01*
X-397876Y-510698D01*
X-402790Y-507414D01*
X-408249Y-505153D01*
X-414045Y-504000D01*
X-419955D01*
X-425751Y-505153D01*
X-431210Y-507414D01*
X-436124Y-510698D01*
X-440303Y-514876D01*
X-443000Y-518913D01*
X-445000Y-518307D01*
Y518307D01*
X-443000Y518913D01*
X-440303Y514876D01*
X-436124Y510698D01*
X-431210Y507414D01*
X-425751Y505153D01*
X-419955Y504000D01*
X-414045D01*
X-408249Y505153D01*
X-402790Y507414D01*
X-397876Y510698D01*
X-393698Y514876D01*
X-390414Y519790D01*
X-388153Y525249D01*
X-387000Y531045D01*
Y536955D01*
X-388153Y542751D01*
X-390414Y548210D01*
X-393698Y553124D01*
X-397876Y557303D01*
X-402790Y560586D01*
X-408249Y562847D01*
X-414045Y564000D01*
X-419955D01*
X-425751Y562847D01*
X-431210Y560586D01*
X-436124Y557303D01*
X-440303Y553124D01*
X-443000Y549087D01*
X-445000Y549693D01*
Y570000D01*
X445000D01*
Y549693D01*
D02*
G37*
G36*
Y-324060D02*
X444099Y-324954D01*
X321000Y-324000D01*
Y-325000D01*
X320000D01*
Y-381000D01*
X201000D01*
Y70000D01*
X364990D01*
X365719Y69579D01*
X367881Y69000D01*
X369708D01*
X370647Y67949D01*
X370500Y67594D01*
Y65406D01*
X371337Y63384D01*
X372884Y61837D01*
X374906Y61000D01*
X377094D01*
X379115Y61837D01*
X380500Y63222D01*
X381884Y61837D01*
X383906Y61000D01*
X386094D01*
X388116Y61837D01*
X389663Y63384D01*
X390500Y65406D01*
Y67594D01*
X390029Y68730D01*
X390878Y70000D01*
X445000D01*
Y-324060D01*
D02*
G37*
%LPC*%
G36*
X73594Y548500D02*
X71406D01*
X69385Y547663D01*
X67837Y546115D01*
X67000Y544094D01*
Y541906D01*
X67837Y539884D01*
X69385Y538337D01*
X71406Y537500D01*
X73594D01*
X75616Y538337D01*
X77163Y539884D01*
X78000Y541906D01*
Y544094D01*
X77163Y546115D01*
X75616Y547663D01*
X73594Y548500D01*
D02*
G37*
G36*
X60594D02*
X58406D01*
X56385Y547663D01*
X54837Y546115D01*
X54000Y544094D01*
Y541906D01*
X54837Y539884D01*
X56385Y538337D01*
X58406Y537500D01*
X60594D01*
X62615Y538337D01*
X64163Y539884D01*
X65000Y541906D01*
Y544094D01*
X64163Y546115D01*
X62615Y547663D01*
X60594Y548500D01*
D02*
G37*
G36*
X47594D02*
X45406D01*
X43385Y547663D01*
X41837Y546115D01*
X41000Y544094D01*
Y541906D01*
X41837Y539884D01*
X43385Y538337D01*
X45406Y537500D01*
X47594D01*
X49616Y538337D01*
X51163Y539884D01*
X52000Y541906D01*
Y544094D01*
X51163Y546115D01*
X49616Y547663D01*
X47594Y548500D01*
D02*
G37*
G36*
X34594D02*
X32406D01*
X30385Y547663D01*
X28837Y546115D01*
X28000Y544094D01*
Y541906D01*
X28837Y539884D01*
X30385Y538337D01*
X32406Y537500D01*
X34594D01*
X36616Y538337D01*
X38163Y539884D01*
X39000Y541906D01*
Y544094D01*
X38163Y546115D01*
X36616Y547663D01*
X34594Y548500D01*
D02*
G37*
G36*
X-147486Y550500D02*
X-150514D01*
X-153439Y549716D01*
X-156061Y548202D01*
X-158202Y546061D01*
X-159716Y543439D01*
X-160500Y540514D01*
Y537486D01*
X-159716Y534561D01*
X-158202Y531939D01*
X-156061Y529798D01*
X-153439Y528284D01*
X-150514Y527500D01*
X-147486D01*
X-144561Y528284D01*
X-141939Y529798D01*
X-139798Y531939D01*
X-138284Y534561D01*
X-137500Y537486D01*
Y540514D01*
X-138284Y543439D01*
X-139798Y546061D01*
X-141939Y548202D01*
X-144561Y549716D01*
X-147486Y550500D01*
D02*
G37*
G36*
X-162900D02*
X-185900D01*
Y527500D01*
X-162900D01*
Y550500D01*
D02*
G37*
G36*
X-223030Y548500D02*
X-246030D01*
Y525500D01*
X-223030D01*
Y548500D01*
D02*
G37*
G36*
X-258416D02*
X-261444D01*
X-264369Y547716D01*
X-266991Y546202D01*
X-269132Y544061D01*
X-270646Y541439D01*
X-271430Y538514D01*
Y535486D01*
X-270646Y532561D01*
X-269132Y529939D01*
X-266991Y527798D01*
X-264369Y526284D01*
X-261444Y525500D01*
X-258416D01*
X-255491Y526284D01*
X-252869Y527798D01*
X-250728Y529939D01*
X-249214Y532561D01*
X-248430Y535486D01*
Y538514D01*
X-249214Y541439D01*
X-250728Y544061D01*
X-252869Y546202D01*
X-255491Y547716D01*
X-258416Y548500D01*
D02*
G37*
G36*
X-283816D02*
X-286844D01*
X-289769Y547716D01*
X-292391Y546202D01*
X-294532Y544061D01*
X-296046Y541439D01*
X-296830Y538514D01*
Y535486D01*
X-296046Y532561D01*
X-294532Y529939D01*
X-292391Y527798D01*
X-289769Y526284D01*
X-286844Y525500D01*
X-283816D01*
X-280891Y526284D01*
X-278269Y527798D01*
X-276128Y529939D01*
X-274614Y532561D01*
X-273830Y535486D01*
Y538514D01*
X-274614Y541439D01*
X-276128Y544061D01*
X-278269Y546202D01*
X-280891Y547716D01*
X-283816Y548500D01*
D02*
G37*
G36*
X-307500D02*
X-330500D01*
Y525500D01*
X-307500D01*
Y548500D01*
D02*
G37*
G36*
X-342886D02*
X-345914D01*
X-348839Y547716D01*
X-351461Y546202D01*
X-353602Y544061D01*
X-355116Y541439D01*
X-355900Y538514D01*
Y535486D01*
X-355116Y532561D01*
X-353602Y529939D01*
X-351461Y527798D01*
X-348839Y526284D01*
X-345914Y525500D01*
X-342886D01*
X-339961Y526284D01*
X-337339Y527798D01*
X-335198Y529939D01*
X-333684Y532561D01*
X-332900Y535486D01*
Y538514D01*
X-333684Y541439D01*
X-335198Y544061D01*
X-337339Y546202D01*
X-339961Y547716D01*
X-342886Y548500D01*
D02*
G37*
G36*
X-368286D02*
X-371314D01*
X-374239Y547716D01*
X-376861Y546202D01*
X-379002Y544061D01*
X-380516Y541439D01*
X-381300Y538514D01*
Y535486D01*
X-380516Y532561D01*
X-379002Y529939D01*
X-376861Y527798D01*
X-374239Y526284D01*
X-371314Y525500D01*
X-368286D01*
X-365361Y526284D01*
X-362739Y527798D01*
X-360598Y529939D01*
X-359084Y532561D01*
X-358300Y535486D01*
Y538514D01*
X-359084Y541439D01*
X-360598Y544061D01*
X-362739Y546202D01*
X-365361Y547716D01*
X-368286Y548500D01*
D02*
G37*
G36*
X340000Y468500D02*
X323000D01*
Y451500D01*
X340000D01*
Y468500D01*
D02*
G37*
G36*
X177500D02*
X160500D01*
Y451500D01*
X177500D01*
Y468500D01*
D02*
G37*
G36*
X-279906Y456500D02*
X-282094D01*
X-284116Y455663D01*
X-285663Y454115D01*
X-286500Y452094D01*
Y449906D01*
X-285663Y447884D01*
X-284116Y446337D01*
X-282094Y445500D01*
X-279906D01*
X-277885Y446337D01*
X-276337Y447884D01*
X-275500Y449906D01*
Y452094D01*
X-276337Y454115D01*
X-277885Y455663D01*
X-279906Y456500D01*
D02*
G37*
G36*
X347594Y426500D02*
X345406D01*
X343385Y425663D01*
X342000Y424278D01*
X340616Y425663D01*
X338594Y426500D01*
X336406D01*
X334384Y425663D01*
X332837Y424115D01*
X332582Y423500D01*
X330418D01*
X330163Y424115D01*
X328615Y425663D01*
X326594Y426500D01*
X324406D01*
X322384Y425663D01*
X321000Y424278D01*
X319615Y425663D01*
X317594Y426500D01*
X315406D01*
X313384Y425663D01*
X311837Y424115D01*
X311000Y422094D01*
Y419906D01*
X311837Y417884D01*
X313384Y416337D01*
X315406Y415500D01*
X317594D01*
X319615Y416337D01*
X321000Y417722D01*
X322384Y416337D01*
X322909Y416120D01*
X323794Y413652D01*
X323579Y413281D01*
X323000Y411119D01*
Y408881D01*
X323579Y406719D01*
X323706Y406500D01*
X323636Y406036D01*
X322716Y404214D01*
X321385Y403663D01*
X320500Y402778D01*
X319615Y403663D01*
X317594Y404500D01*
X315406D01*
X313384Y403663D01*
X311837Y402116D01*
X311000Y400094D01*
Y397906D01*
X311837Y395885D01*
X313384Y394337D01*
X315406Y393500D01*
X317594D01*
X319615Y394337D01*
X320500Y395222D01*
X321385Y394337D01*
X323406Y393500D01*
X325594D01*
X327616Y394337D01*
X329163Y395885D01*
X330000Y397906D01*
Y399586D01*
X330044Y399806D01*
X331500Y400547D01*
X332956Y399806D01*
X333000Y399586D01*
Y397906D01*
X333837Y395885D01*
X335384Y394337D01*
X337406Y393500D01*
X339594D01*
X341615Y394337D01*
X343000Y395722D01*
X344384Y394337D01*
X346406Y393500D01*
X348594D01*
X350616Y394337D01*
X352163Y395885D01*
X353000Y397906D01*
Y400094D01*
X352163Y402116D01*
X350616Y403663D01*
X348594Y404500D01*
X346406D01*
X344384Y403663D01*
X343000Y402278D01*
X341615Y403663D01*
X340284Y404214D01*
X339364Y406036D01*
X339294Y406500D01*
X339421Y406719D01*
X340000Y408881D01*
Y411119D01*
X339421Y413281D01*
X339206Y413652D01*
X340091Y416120D01*
X340616Y416337D01*
X342000Y417722D01*
X343385Y416337D01*
X345406Y415500D01*
X347594D01*
X349616Y416337D01*
X351163Y417884D01*
X352000Y419906D01*
Y422094D01*
X351163Y424115D01*
X349616Y425663D01*
X347594Y426500D01*
D02*
G37*
G36*
X185094D02*
X182906D01*
X180884Y425663D01*
X179500Y424278D01*
X178116Y425663D01*
X176094Y426500D01*
X173906D01*
X171884Y425663D01*
X170337Y424115D01*
X170082Y423500D01*
X167918D01*
X167663Y424115D01*
X166115Y425663D01*
X164094Y426500D01*
X161906D01*
X159885Y425663D01*
X158500Y424278D01*
X157115Y425663D01*
X155094Y426500D01*
X152906D01*
X150885Y425663D01*
X149337Y424115D01*
X148500Y422094D01*
Y419906D01*
X149337Y417884D01*
X150722Y416500D01*
X149337Y415116D01*
X148500Y413094D01*
Y410906D01*
X149337Y408885D01*
X150222Y408000D01*
X149337Y407116D01*
X148500Y405094D01*
Y402906D01*
X149337Y400885D01*
X150885Y399337D01*
X152906Y398500D01*
X155094D01*
X157115Y399337D01*
X158663Y400885D01*
X159500Y402906D01*
Y405094D01*
X158802Y406780D01*
X158805Y406808D01*
X158925Y407031D01*
X160967Y406790D01*
X161079Y406720D01*
X161079Y406719D01*
X162198Y404781D01*
X163781Y403198D01*
X165719Y402079D01*
X167881Y401500D01*
X170119D01*
X172281Y402079D01*
X174219Y403198D01*
X175802Y404781D01*
X176921Y406719D01*
X177420Y408583D01*
X178358Y408959D01*
X179500Y409062D01*
X180242Y408020D01*
X179337Y407116D01*
X178500Y405094D01*
Y402906D01*
X179337Y400885D01*
X180884Y399337D01*
X182906Y398500D01*
X185094D01*
X187115Y399337D01*
X188663Y400885D01*
X189500Y402906D01*
Y405094D01*
X188663Y407116D01*
X187278Y408500D01*
X188663Y409884D01*
X189500Y411906D01*
Y414094D01*
X188663Y416115D01*
X187778Y417000D01*
X188663Y417884D01*
X189500Y419906D01*
Y422094D01*
X188663Y424115D01*
X187115Y425663D01*
X185094Y426500D01*
D02*
G37*
G36*
X-289906Y432500D02*
X-292094D01*
X-294116Y431663D01*
X-295663Y430115D01*
X-296500Y428094D01*
Y425906D01*
X-295663Y423884D01*
X-294116Y422337D01*
X-292094Y421500D01*
X-289906D01*
X-287885Y422337D01*
X-286337Y423884D01*
X-285500Y425906D01*
Y428094D01*
X-286337Y430115D01*
X-287885Y431663D01*
X-289906Y432500D01*
D02*
G37*
G36*
X26094Y399500D02*
X23906D01*
X21885Y398663D01*
X20337Y397116D01*
X19500Y395094D01*
Y392906D01*
X20337Y390885D01*
X21885Y389337D01*
X23906Y388500D01*
X26094D01*
X28115Y389337D01*
X29663Y390885D01*
X30500Y392906D01*
Y395094D01*
X29663Y397116D01*
X28115Y398663D01*
X26094Y399500D01*
D02*
G37*
G36*
X-115906Y395500D02*
X-118094D01*
X-120115Y394663D01*
X-121663Y393116D01*
X-122500Y391094D01*
Y388906D01*
X-121663Y386885D01*
X-120115Y385337D01*
X-118094Y384500D01*
X-115906D01*
X-113884Y385337D01*
X-112337Y386885D01*
X-111500Y388906D01*
Y391094D01*
X-112337Y393116D01*
X-113884Y394663D01*
X-115906Y395500D01*
D02*
G37*
G36*
X-128906D02*
X-131094D01*
X-133116Y394663D01*
X-134663Y393116D01*
X-135500Y391094D01*
Y388906D01*
X-134663Y386885D01*
X-133116Y385337D01*
X-131094Y384500D01*
X-128906D01*
X-126884Y385337D01*
X-125337Y386885D01*
X-124500Y388906D01*
Y391094D01*
X-125337Y393116D01*
X-126884Y394663D01*
X-128906Y395500D01*
D02*
G37*
G36*
X80094Y395500D02*
X77906D01*
X75884Y394663D01*
X74337Y393116D01*
X73500Y391094D01*
Y388906D01*
X74337Y386884D01*
X75884Y385337D01*
X77906Y384500D01*
X80094D01*
X82115Y385337D01*
X83663Y386884D01*
X84500Y388906D01*
Y391094D01*
X83663Y393116D01*
X82115Y394663D01*
X80094Y395500D01*
D02*
G37*
G36*
X-145906D02*
X-148094D01*
X-150115Y394663D01*
X-151663Y393116D01*
X-152500Y391094D01*
Y388906D01*
X-151663Y386884D01*
X-150115Y385337D01*
X-148094Y384500D01*
X-145906D01*
X-143884Y385337D01*
X-142337Y386884D01*
X-141500Y388906D01*
Y391094D01*
X-142337Y393116D01*
X-143884Y394663D01*
X-145906Y395500D01*
D02*
G37*
G36*
X-158906D02*
X-161094D01*
X-163116Y394663D01*
X-164663Y393116D01*
X-165500Y391094D01*
Y388906D01*
X-164663Y386884D01*
X-163116Y385337D01*
X-161094Y384500D01*
X-158906D01*
X-156884Y385337D01*
X-155337Y386884D01*
X-154500Y388906D01*
Y391094D01*
X-155337Y393116D01*
X-156884Y394663D01*
X-158906Y395500D01*
D02*
G37*
G36*
X55094Y390500D02*
X52906D01*
X50884Y389663D01*
X49337Y388116D01*
X48500Y386094D01*
Y383906D01*
X49337Y381884D01*
X50884Y380337D01*
X52906Y379500D01*
X55094D01*
X57116Y380337D01*
X58663Y381884D01*
X59500Y383906D01*
Y386094D01*
X58663Y388116D01*
X57116Y389663D01*
X55094Y390500D01*
D02*
G37*
G36*
X-211906Y368500D02*
X-214094D01*
X-216115Y367663D01*
X-217316Y366462D01*
X-218500Y366259D01*
X-219684Y366462D01*
X-220884Y367663D01*
X-222906Y368500D01*
X-225094D01*
X-227115Y367663D01*
X-228663Y366115D01*
X-229500Y364094D01*
Y361906D01*
X-228663Y359884D01*
X-227115Y358337D01*
X-225094Y357500D01*
X-222906D01*
X-220884Y358337D01*
X-219684Y359538D01*
X-218500Y359741D01*
X-217316Y359538D01*
X-216115Y358337D01*
X-214094Y357500D01*
X-211906D01*
X-209884Y358337D01*
X-208337Y359884D01*
X-207500Y361906D01*
Y364094D01*
X-208337Y366115D01*
X-209884Y367663D01*
X-211906Y368500D01*
D02*
G37*
G36*
X28594Y376000D02*
X26406D01*
X24385Y375163D01*
X22837Y373615D01*
X22000Y371594D01*
Y369406D01*
X22837Y367385D01*
X24385Y365837D01*
X26406Y365000D01*
X28594D01*
X30615Y365837D01*
X32163Y367385D01*
X33000Y369406D01*
Y371594D01*
X32163Y373615D01*
X30615Y375163D01*
X28594Y376000D01*
D02*
G37*
G36*
X-13406Y374000D02*
X-15594D01*
X-17615Y373163D01*
X-19163Y371615D01*
X-20000Y369594D01*
Y367406D01*
X-19163Y365384D01*
X-17615Y363837D01*
X-15594Y363000D01*
X-13406D01*
X-11385Y363837D01*
X-9837Y365384D01*
X-9000Y367406D01*
Y369594D01*
X-9837Y371615D01*
X-11385Y373163D01*
X-13406Y374000D01*
D02*
G37*
G36*
X-182406Y368500D02*
X-184594D01*
X-186616Y367663D01*
X-188163Y366115D01*
X-189000Y364094D01*
Y361906D01*
X-188163Y359884D01*
X-186616Y358337D01*
X-184594Y357500D01*
X-182406D01*
X-180385Y358337D01*
X-178837Y359884D01*
X-178000Y361906D01*
Y364094D01*
X-178837Y366115D01*
X-180385Y367663D01*
X-182406Y368500D01*
D02*
G37*
G36*
X-195406D02*
X-197594D01*
X-199615Y367663D01*
X-201163Y366115D01*
X-202000Y364094D01*
Y361906D01*
X-201163Y359884D01*
X-199615Y358337D01*
X-197594Y357500D01*
X-195406D01*
X-193385Y358337D01*
X-191837Y359884D01*
X-191000Y361906D01*
Y364094D01*
X-191837Y366115D01*
X-193385Y367663D01*
X-195406Y368500D01*
D02*
G37*
G36*
X277844Y368000D02*
X275656D01*
X273634Y367163D01*
X272087Y365616D01*
X271250Y363594D01*
Y361406D01*
X272087Y359384D01*
X273634Y357837D01*
X275656Y357000D01*
X277844D01*
X279865Y357837D01*
X281413Y359384D01*
X282250Y361406D01*
Y363594D01*
X281413Y365616D01*
X279865Y367163D01*
X277844Y368000D01*
D02*
G37*
G36*
X73594D02*
X71406D01*
X69384Y367163D01*
X67837Y365616D01*
X67000Y363594D01*
Y361406D01*
X67837Y359384D01*
X69384Y357837D01*
X71406Y357000D01*
X73594D01*
X75616Y357837D01*
X77163Y359384D01*
X78000Y361406D01*
Y363594D01*
X77163Y365616D01*
X75616Y367163D01*
X73594Y368000D01*
D02*
G37*
G36*
X-357948Y367184D02*
X-360136D01*
X-362158Y366347D01*
X-363705Y364799D01*
X-364542Y362778D01*
Y360590D01*
X-363705Y358568D01*
X-362158Y357021D01*
X-360136Y356184D01*
X-357948D01*
X-355927Y357021D01*
X-354380Y358568D01*
X-353542Y360590D01*
Y362778D01*
X-354380Y364799D01*
X-355927Y366347D01*
X-357948Y367184D01*
D02*
G37*
G36*
X45094Y362000D02*
X42906D01*
X40884Y361163D01*
X39337Y359616D01*
X38500Y357594D01*
Y355406D01*
X39067Y354037D01*
X37650Y352459D01*
X36344Y353000D01*
X34156D01*
X32134Y352163D01*
X30587Y350616D01*
X29750Y348594D01*
Y346406D01*
X30587Y344384D01*
X32134Y342837D01*
X34156Y342000D01*
X36344D01*
X38365Y342837D01*
X39913Y344384D01*
X40750Y346406D01*
Y348594D01*
X40183Y349963D01*
X41600Y351541D01*
X42906Y351000D01*
X45094D01*
X47116Y351837D01*
X48663Y353385D01*
X49500Y355406D01*
Y357594D01*
X48663Y359616D01*
X47116Y361163D01*
X45094Y362000D01*
D02*
G37*
G36*
X-22406Y352500D02*
X-24594D01*
X-26616Y351663D01*
X-28163Y350116D01*
X-29000Y348094D01*
Y345906D01*
X-28163Y343885D01*
X-26616Y342337D01*
X-24594Y341500D01*
X-22406D01*
X-20385Y342337D01*
X-18837Y343885D01*
X-18000Y345906D01*
Y348094D01*
X-18837Y350116D01*
X-20385Y351663D01*
X-22406Y352500D01*
D02*
G37*
G36*
X415094Y350500D02*
X412906D01*
X410885Y349663D01*
X409337Y348116D01*
X408500Y346094D01*
Y343906D01*
X409337Y341884D01*
X410885Y340337D01*
X412906Y339500D01*
X415094D01*
X417116Y340337D01*
X418663Y341884D01*
X419500Y343906D01*
Y346094D01*
X418663Y348116D01*
X417116Y349663D01*
X415094Y350500D01*
D02*
G37*
G36*
X402094D02*
X399906D01*
X397884Y349663D01*
X396337Y348116D01*
X395500Y346094D01*
Y343906D01*
X396337Y341884D01*
X397884Y340337D01*
X399906Y339500D01*
X402094D01*
X404115Y340337D01*
X405663Y341884D01*
X406500Y343906D01*
Y346094D01*
X405663Y348116D01*
X404115Y349663D01*
X402094Y350500D01*
D02*
G37*
G36*
X389094D02*
X386906D01*
X384884Y349663D01*
X383337Y348116D01*
X382500Y346094D01*
Y343906D01*
X383337Y341884D01*
X384884Y340337D01*
X386906Y339500D01*
X389094D01*
X391115Y340337D01*
X392663Y341884D01*
X393500Y343906D01*
Y346094D01*
X392663Y348116D01*
X391115Y349663D01*
X389094Y350500D01*
D02*
G37*
G36*
X376094D02*
X373906D01*
X371884Y349663D01*
X370337Y348116D01*
X369500Y346094D01*
Y343906D01*
X370337Y341884D01*
X371884Y340337D01*
X373906Y339500D01*
X376094D01*
X378116Y340337D01*
X379663Y341884D01*
X380500Y343906D01*
Y346094D01*
X379663Y348116D01*
X378116Y349663D01*
X376094Y350500D01*
D02*
G37*
G36*
X210844D02*
X208656D01*
X206635Y349663D01*
X205087Y348116D01*
X204250Y346094D01*
Y343906D01*
X205087Y341884D01*
X206635Y340337D01*
X208656Y339500D01*
X210844D01*
X212866Y340337D01*
X214413Y341884D01*
X215250Y343906D01*
Y346094D01*
X214413Y348116D01*
X212866Y349663D01*
X210844Y350500D01*
D02*
G37*
G36*
X197844D02*
X195656D01*
X193634Y349663D01*
X192087Y348116D01*
X191250Y346094D01*
Y343906D01*
X192087Y341884D01*
X193634Y340337D01*
X195656Y339500D01*
X197844D01*
X199865Y340337D01*
X201413Y341884D01*
X202250Y343906D01*
Y346094D01*
X201413Y348116D01*
X199865Y349663D01*
X197844Y350500D01*
D02*
G37*
G36*
X184844D02*
X182656D01*
X180634Y349663D01*
X179087Y348116D01*
X178250Y346094D01*
Y343906D01*
X179087Y341884D01*
X180634Y340337D01*
X182656Y339500D01*
X184844D01*
X186866Y340337D01*
X188413Y341884D01*
X189250Y343906D01*
Y346094D01*
X188413Y348116D01*
X186866Y349663D01*
X184844Y350500D01*
D02*
G37*
G36*
X171844D02*
X169656D01*
X167635Y349663D01*
X166087Y348116D01*
X165250Y346094D01*
Y343906D01*
X166087Y341884D01*
X167635Y340337D01*
X169656Y339500D01*
X171844D01*
X173866Y340337D01*
X175413Y341884D01*
X176250Y343906D01*
Y346094D01*
X175413Y348116D01*
X173866Y349663D01*
X171844Y350500D01*
D02*
G37*
G36*
X415094Y337500D02*
X412906D01*
X410885Y336663D01*
X409337Y335116D01*
X408500Y333094D01*
Y330906D01*
X409337Y328885D01*
X410885Y327337D01*
X412906Y326500D01*
X415094D01*
X417116Y327337D01*
X418663Y328885D01*
X419500Y330906D01*
Y333094D01*
X418663Y335116D01*
X417116Y336663D01*
X415094Y337500D01*
D02*
G37*
G36*
X402094D02*
X399906D01*
X397884Y336663D01*
X396337Y335116D01*
X395500Y333094D01*
Y330906D01*
X396337Y328885D01*
X397884Y327337D01*
X399906Y326500D01*
X402094D01*
X404115Y327337D01*
X405663Y328885D01*
X406500Y330906D01*
Y333094D01*
X405663Y335116D01*
X404115Y336663D01*
X402094Y337500D01*
D02*
G37*
G36*
X389094D02*
X386906D01*
X384884Y336663D01*
X383337Y335116D01*
X382500Y333094D01*
Y330906D01*
X383337Y328885D01*
X384884Y327337D01*
X386906Y326500D01*
X389094D01*
X391115Y327337D01*
X392663Y328885D01*
X393500Y330906D01*
Y333094D01*
X392663Y335116D01*
X391115Y336663D01*
X389094Y337500D01*
D02*
G37*
G36*
X376094D02*
X373906D01*
X371884Y336663D01*
X370337Y335116D01*
X369500Y333094D01*
Y330906D01*
X370337Y328885D01*
X371884Y327337D01*
X373906Y326500D01*
X376094D01*
X378116Y327337D01*
X379663Y328885D01*
X380500Y330906D01*
Y333094D01*
X379663Y335116D01*
X378116Y336663D01*
X376094Y337500D01*
D02*
G37*
G36*
X210844D02*
X208656D01*
X206635Y336663D01*
X205087Y335116D01*
X204250Y333094D01*
Y330906D01*
X205087Y328885D01*
X206635Y327337D01*
X208656Y326500D01*
X210844D01*
X212866Y327337D01*
X214413Y328885D01*
X215250Y330906D01*
Y333094D01*
X214413Y335116D01*
X212866Y336663D01*
X210844Y337500D01*
D02*
G37*
G36*
X197844D02*
X195656D01*
X193634Y336663D01*
X192087Y335116D01*
X191250Y333094D01*
Y330906D01*
X192087Y328885D01*
X193634Y327337D01*
X195656Y326500D01*
X197844D01*
X199865Y327337D01*
X201413Y328885D01*
X202250Y330906D01*
Y333094D01*
X201413Y335116D01*
X199865Y336663D01*
X197844Y337500D01*
D02*
G37*
G36*
X184844D02*
X182656D01*
X180634Y336663D01*
X179087Y335116D01*
X178250Y333094D01*
Y330906D01*
X179087Y328885D01*
X180634Y327337D01*
X182656Y326500D01*
X184844D01*
X186866Y327337D01*
X188413Y328885D01*
X189250Y330906D01*
Y333094D01*
X188413Y335116D01*
X186866Y336663D01*
X184844Y337500D01*
D02*
G37*
G36*
X171844D02*
X169656D01*
X167635Y336663D01*
X166087Y335116D01*
X165250Y333094D01*
Y330906D01*
X166087Y328885D01*
X167635Y327337D01*
X169656Y326500D01*
X171844D01*
X173866Y327337D01*
X175413Y328885D01*
X176250Y330906D01*
Y333094D01*
X175413Y335116D01*
X173866Y336663D01*
X171844Y337500D01*
D02*
G37*
G36*
X402094Y324500D02*
X399906D01*
X397884Y323663D01*
X396337Y322116D01*
X395500Y320094D01*
X393539Y320188D01*
X393445Y320226D01*
X392663Y322116D01*
X391115Y323663D01*
X389094Y324500D01*
X386906D01*
X384884Y323663D01*
X383337Y322116D01*
X382500Y320094D01*
Y317906D01*
X383337Y315884D01*
X384884Y314337D01*
X386906Y313500D01*
X387750D01*
Y311500D01*
X386906D01*
X384884Y310663D01*
X383337Y309116D01*
X382500Y307094D01*
Y304906D01*
X383337Y302885D01*
X384884Y301337D01*
X386906Y300500D01*
X389094D01*
X391115Y301337D01*
X392663Y302885D01*
X393445Y304774D01*
X393539Y304812D01*
X395500Y304906D01*
X396337Y302885D01*
X397884Y301337D01*
X399906Y300500D01*
X402094D01*
X404115Y301337D01*
X405663Y302885D01*
X406500Y304906D01*
Y307094D01*
X405663Y309116D01*
X404115Y310663D01*
X402094Y311500D01*
X401527Y312500D01*
X402094Y313500D01*
X404115Y314337D01*
X405663Y315884D01*
X406500Y317906D01*
Y320094D01*
X405663Y322116D01*
X404115Y323663D01*
X402094Y324500D01*
D02*
G37*
G36*
X197844D02*
X195656D01*
X193634Y323663D01*
X192087Y322116D01*
X191250Y320094D01*
X189289Y320188D01*
X189195Y320226D01*
X188413Y322116D01*
X186866Y323663D01*
X184844Y324500D01*
X182656D01*
X180634Y323663D01*
X179087Y322116D01*
X178250Y320094D01*
Y317906D01*
X179087Y315884D01*
X180634Y314337D01*
X182656Y313500D01*
X183500D01*
Y311500D01*
X182656D01*
X180634Y310663D01*
X179087Y309116D01*
X178250Y307094D01*
Y304906D01*
X179087Y302885D01*
X180634Y301337D01*
X182656Y300500D01*
X184844D01*
X186866Y301337D01*
X188413Y302885D01*
X189195Y304774D01*
X189289Y304812D01*
X191250Y304906D01*
X192087Y302885D01*
X193634Y301337D01*
X195656Y300500D01*
X197844D01*
X199865Y301337D01*
X201413Y302885D01*
X202250Y304906D01*
Y307094D01*
X201413Y309116D01*
X199865Y310663D01*
X197844Y311500D01*
X197277Y312500D01*
X197844Y313500D01*
X199865Y314337D01*
X201413Y315884D01*
X202250Y317906D01*
Y320094D01*
X201413Y322116D01*
X199865Y323663D01*
X197844Y324500D01*
D02*
G37*
G36*
X-395906Y330000D02*
X-398094D01*
X-400116Y329163D01*
X-401663Y327616D01*
X-402500Y325594D01*
Y323406D01*
X-401663Y321385D01*
X-400116Y319837D01*
X-398094Y319000D01*
X-395906D01*
X-393885Y319837D01*
X-392337Y321385D01*
X-391500Y323406D01*
Y325594D01*
X-392337Y327616D01*
X-393885Y329163D01*
X-395906Y330000D01*
D02*
G37*
G36*
X-22406Y328000D02*
X-24594D01*
X-26616Y327163D01*
X-28163Y325616D01*
X-29000Y323594D01*
Y321406D01*
X-28163Y319384D01*
X-26616Y317837D01*
X-24594Y317000D01*
X-22406D01*
X-20385Y317837D01*
X-18837Y319384D01*
X-18000Y321406D01*
Y323594D01*
X-18837Y325616D01*
X-20385Y327163D01*
X-22406Y328000D01*
D02*
G37*
G36*
X415094Y324500D02*
X412906D01*
X410885Y323663D01*
X409337Y322116D01*
X408500Y320094D01*
Y317906D01*
X409337Y315884D01*
X410885Y314337D01*
X412906Y313500D01*
X415094D01*
X417116Y314337D01*
X418663Y315884D01*
X419500Y317906D01*
Y320094D01*
X418663Y322116D01*
X417116Y323663D01*
X415094Y324500D01*
D02*
G37*
G36*
X376094D02*
X373906D01*
X371884Y323663D01*
X370337Y322116D01*
X369500Y320094D01*
Y317906D01*
X370337Y315884D01*
X371884Y314337D01*
X373906Y313500D01*
X376094D01*
X378116Y314337D01*
X379663Y315884D01*
X380500Y317906D01*
Y320094D01*
X379663Y322116D01*
X378116Y323663D01*
X376094Y324500D01*
D02*
G37*
G36*
X210844D02*
X208656D01*
X206635Y323663D01*
X205087Y322116D01*
X204250Y320094D01*
Y317906D01*
X205087Y315884D01*
X206635Y314337D01*
X208656Y313500D01*
X210844D01*
X212866Y314337D01*
X214413Y315884D01*
X215250Y317906D01*
Y320094D01*
X214413Y322116D01*
X212866Y323663D01*
X210844Y324500D01*
D02*
G37*
G36*
X171844D02*
X169656D01*
X167635Y323663D01*
X166087Y322116D01*
X165250Y320094D01*
Y317906D01*
X166087Y315884D01*
X167635Y314337D01*
X169656Y313500D01*
X171844D01*
X173866Y314337D01*
X175413Y315884D01*
X176250Y317906D01*
Y320094D01*
X175413Y322116D01*
X173866Y323663D01*
X171844Y324500D01*
D02*
G37*
G36*
X-61156Y321500D02*
X-63344D01*
X-65366Y320663D01*
X-66913Y319116D01*
X-67750Y317094D01*
Y314906D01*
X-66913Y312885D01*
X-65366Y311337D01*
X-63344Y310500D01*
X-61156D01*
X-59134Y311337D01*
X-57587Y312885D01*
X-56750Y314906D01*
Y317094D01*
X-57587Y319116D01*
X-59134Y320663D01*
X-61156Y321500D01*
D02*
G37*
G36*
X-227906Y317500D02*
X-230094D01*
X-232115Y316663D01*
X-233663Y315116D01*
X-234500Y313094D01*
Y310906D01*
X-233663Y308885D01*
X-232115Y307337D01*
X-230094Y306500D01*
X-227906D01*
X-225884Y307337D01*
X-224337Y308885D01*
X-223500Y310906D01*
Y313094D01*
X-224337Y315116D01*
X-225884Y316663D01*
X-227906Y317500D01*
D02*
G37*
G36*
X280344Y320500D02*
X278156D01*
X276134Y319663D01*
X274587Y318116D01*
X273750Y316094D01*
Y313906D01*
X274587Y311884D01*
X275222Y311250D01*
X274587Y310616D01*
X273750Y308594D01*
Y306406D01*
X274587Y304384D01*
X276134Y302837D01*
X278156Y302000D01*
X280344D01*
X282365Y302837D01*
X283913Y304384D01*
X284750Y306406D01*
Y308594D01*
X283913Y310616D01*
X283278Y311250D01*
X283913Y311884D01*
X284750Y313906D01*
Y316094D01*
X283913Y318116D01*
X282365Y319663D01*
X280344Y320500D01*
D02*
G37*
G36*
X76094D02*
X73906D01*
X71884Y319663D01*
X70337Y318116D01*
X69500Y316094D01*
Y313906D01*
X70337Y311884D01*
X70972Y311250D01*
X70337Y310616D01*
X69500Y308594D01*
Y306406D01*
X70337Y304384D01*
X71884Y302837D01*
X73906Y302000D01*
X76094D01*
X78116Y302837D01*
X79663Y304384D01*
X80500Y306406D01*
Y308594D01*
X79663Y310616D01*
X79028Y311250D01*
X79663Y311884D01*
X80500Y313906D01*
Y316094D01*
X79663Y318116D01*
X78116Y319663D01*
X76094Y320500D01*
D02*
G37*
G36*
X-330906Y313000D02*
X-333094D01*
X-335116Y312163D01*
X-336663Y310616D01*
X-337500Y308594D01*
Y306406D01*
X-336663Y304384D01*
X-335116Y302837D01*
X-333094Y302000D01*
X-330906D01*
X-328885Y302837D01*
X-327337Y304384D01*
X-326500Y306406D01*
Y308594D01*
X-327337Y310616D01*
X-328885Y312163D01*
X-330906Y313000D01*
D02*
G37*
G36*
X415094Y311500D02*
X412906D01*
X410885Y310663D01*
X409337Y309116D01*
X408500Y307094D01*
Y304906D01*
X409337Y302885D01*
X410885Y301337D01*
X412906Y300500D01*
X415094D01*
X417116Y301337D01*
X418663Y302885D01*
X419500Y304906D01*
Y307094D01*
X418663Y309116D01*
X417116Y310663D01*
X415094Y311500D01*
D02*
G37*
G36*
X376094D02*
X373906D01*
X371884Y310663D01*
X370337Y309116D01*
X369500Y307094D01*
Y304906D01*
X370337Y302885D01*
X371884Y301337D01*
X373906Y300500D01*
X376094D01*
X378116Y301337D01*
X379663Y302885D01*
X380500Y304906D01*
Y307094D01*
X379663Y309116D01*
X378116Y310663D01*
X376094Y311500D01*
D02*
G37*
G36*
X210844D02*
X208656D01*
X206635Y310663D01*
X205087Y309116D01*
X204250Y307094D01*
Y304906D01*
X205087Y302885D01*
X206635Y301337D01*
X208656Y300500D01*
X210844D01*
X212866Y301337D01*
X214413Y302885D01*
X215250Y304906D01*
Y307094D01*
X214413Y309116D01*
X212866Y310663D01*
X210844Y311500D01*
D02*
G37*
G36*
X171844D02*
X169656D01*
X167635Y310663D01*
X166087Y309116D01*
X165250Y307094D01*
Y304906D01*
X166087Y302885D01*
X167635Y301337D01*
X169656Y300500D01*
X171844D01*
X173866Y301337D01*
X175413Y302885D01*
X176250Y304906D01*
Y307094D01*
X175413Y309116D01*
X173866Y310663D01*
X171844Y311500D01*
D02*
G37*
G36*
X-109906Y306500D02*
X-112094D01*
X-114115Y305663D01*
X-115663Y304116D01*
X-116500Y302094D01*
Y299906D01*
X-115663Y297885D01*
X-114115Y296337D01*
X-112094Y295500D01*
X-109906D01*
X-107884Y296337D01*
X-106337Y297885D01*
X-105500Y299906D01*
Y302094D01*
X-106337Y304116D01*
X-107884Y305663D01*
X-109906Y306500D01*
D02*
G37*
G36*
X415094Y298500D02*
X412906D01*
X410885Y297663D01*
X409337Y296115D01*
X408500Y294094D01*
Y291906D01*
X409337Y289884D01*
X410885Y288337D01*
X412906Y287500D01*
X415094D01*
X417116Y288337D01*
X418663Y289884D01*
X419500Y291906D01*
Y294094D01*
X418663Y296115D01*
X417116Y297663D01*
X415094Y298500D01*
D02*
G37*
G36*
X402094D02*
X399906D01*
X397884Y297663D01*
X396337Y296115D01*
X395500Y294094D01*
Y291906D01*
X396337Y289884D01*
X397884Y288337D01*
X399906Y287500D01*
X402094D01*
X404115Y288337D01*
X405663Y289884D01*
X406500Y291906D01*
Y294094D01*
X405663Y296115D01*
X404115Y297663D01*
X402094Y298500D01*
D02*
G37*
G36*
X389094D02*
X386906D01*
X384884Y297663D01*
X383337Y296115D01*
X382500Y294094D01*
Y291906D01*
X383337Y289884D01*
X384884Y288337D01*
X386906Y287500D01*
X389094D01*
X391115Y288337D01*
X392663Y289884D01*
X393500Y291906D01*
Y294094D01*
X392663Y296115D01*
X391115Y297663D01*
X389094Y298500D01*
D02*
G37*
G36*
X376094D02*
X373906D01*
X371884Y297663D01*
X370337Y296115D01*
X369500Y294094D01*
Y291906D01*
X370337Y289884D01*
X371884Y288337D01*
X373906Y287500D01*
X376094D01*
X378116Y288337D01*
X379663Y289884D01*
X380500Y291906D01*
Y294094D01*
X379663Y296115D01*
X378116Y297663D01*
X376094Y298500D01*
D02*
G37*
G36*
X210844D02*
X208656D01*
X206635Y297663D01*
X205087Y296115D01*
X204250Y294094D01*
Y291906D01*
X205087Y289884D01*
X206635Y288337D01*
X208656Y287500D01*
X210844D01*
X212866Y288337D01*
X214413Y289884D01*
X215250Y291906D01*
Y294094D01*
X214413Y296115D01*
X212866Y297663D01*
X210844Y298500D01*
D02*
G37*
G36*
X197844D02*
X195656D01*
X193634Y297663D01*
X192087Y296115D01*
X191250Y294094D01*
Y291906D01*
X192087Y289884D01*
X193634Y288337D01*
X195656Y287500D01*
X197844D01*
X199865Y288337D01*
X201413Y289884D01*
X202250Y291906D01*
Y294094D01*
X201413Y296115D01*
X199865Y297663D01*
X197844Y298500D01*
D02*
G37*
G36*
X184844D02*
X182656D01*
X180634Y297663D01*
X179087Y296115D01*
X178250Y294094D01*
Y291906D01*
X179087Y289884D01*
X180634Y288337D01*
X182656Y287500D01*
X184844D01*
X186866Y288337D01*
X188413Y289884D01*
X189250Y291906D01*
Y294094D01*
X188413Y296115D01*
X186866Y297663D01*
X184844Y298500D01*
D02*
G37*
G36*
X171844D02*
X169656D01*
X167635Y297663D01*
X166087Y296115D01*
X165250Y294094D01*
Y291906D01*
X166087Y289884D01*
X167635Y288337D01*
X169656Y287500D01*
X171844D01*
X173866Y288337D01*
X175413Y289884D01*
X176250Y291906D01*
Y294094D01*
X175413Y296115D01*
X173866Y297663D01*
X171844Y298500D01*
D02*
G37*
G36*
X-283906Y296500D02*
X-286094D01*
X-288116Y295663D01*
X-289663Y294116D01*
X-290500Y292094D01*
Y289906D01*
X-289663Y287885D01*
X-288116Y286337D01*
X-286094Y285500D01*
X-283906D01*
X-281884Y286337D01*
X-280337Y287885D01*
X-279500Y289906D01*
Y292094D01*
X-280337Y294116D01*
X-281884Y295663D01*
X-283906Y296500D01*
D02*
G37*
G36*
X12500Y300200D02*
X-12500D01*
Y279200D01*
X12500D01*
Y300200D01*
D02*
G37*
G36*
X415094Y285500D02*
X412906D01*
X410885Y284663D01*
X409337Y283116D01*
X408500Y281094D01*
Y278906D01*
X409337Y276884D01*
X410885Y275337D01*
X412906Y274500D01*
X415094D01*
X417116Y275337D01*
X418663Y276884D01*
X419500Y278906D01*
Y281094D01*
X418663Y283116D01*
X417116Y284663D01*
X415094Y285500D01*
D02*
G37*
G36*
X402094D02*
X399906D01*
X397884Y284663D01*
X396337Y283116D01*
X395500Y281094D01*
Y278906D01*
X396337Y276884D01*
X397884Y275337D01*
X399906Y274500D01*
X402094D01*
X404115Y275337D01*
X405663Y276884D01*
X406500Y278906D01*
Y281094D01*
X405663Y283116D01*
X404115Y284663D01*
X402094Y285500D01*
D02*
G37*
G36*
X389094D02*
X386906D01*
X384884Y284663D01*
X383337Y283116D01*
X382500Y281094D01*
Y278906D01*
X383337Y276884D01*
X384884Y275337D01*
X386906Y274500D01*
X389094D01*
X391115Y275337D01*
X392663Y276884D01*
X393500Y278906D01*
Y281094D01*
X392663Y283116D01*
X391115Y284663D01*
X389094Y285500D01*
D02*
G37*
G36*
X376094D02*
X373906D01*
X371884Y284663D01*
X370337Y283116D01*
X369500Y281094D01*
Y278906D01*
X370337Y276884D01*
X371884Y275337D01*
X373906Y274500D01*
X376094D01*
X378116Y275337D01*
X379663Y276884D01*
X380500Y278906D01*
Y281094D01*
X379663Y283116D01*
X378116Y284663D01*
X376094Y285500D01*
D02*
G37*
G36*
X210844D02*
X208656D01*
X206635Y284663D01*
X205087Y283116D01*
X204250Y281094D01*
Y278906D01*
X205087Y276884D01*
X206635Y275337D01*
X208656Y274500D01*
X210844D01*
X212866Y275337D01*
X214413Y276884D01*
X215250Y278906D01*
Y281094D01*
X214413Y283116D01*
X212866Y284663D01*
X210844Y285500D01*
D02*
G37*
G36*
X197844D02*
X195656D01*
X193634Y284663D01*
X192087Y283116D01*
X191250Y281094D01*
Y278906D01*
X192087Y276884D01*
X193634Y275337D01*
X195656Y274500D01*
X197844D01*
X199865Y275337D01*
X201413Y276884D01*
X202250Y278906D01*
Y281094D01*
X201413Y283116D01*
X199865Y284663D01*
X197844Y285500D01*
D02*
G37*
G36*
X184844D02*
X182656D01*
X180634Y284663D01*
X179087Y283116D01*
X178250Y281094D01*
Y278906D01*
X179087Y276884D01*
X180634Y275337D01*
X182656Y274500D01*
X184844D01*
X186866Y275337D01*
X188413Y276884D01*
X189250Y278906D01*
Y281094D01*
X188413Y283116D01*
X186866Y284663D01*
X184844Y285500D01*
D02*
G37*
G36*
X171844D02*
X169656D01*
X167635Y284663D01*
X166087Y283116D01*
X165250Y281094D01*
Y278906D01*
X166087Y276884D01*
X167635Y275337D01*
X169656Y274500D01*
X171844D01*
X173866Y275337D01*
X175413Y276884D01*
X176250Y278906D01*
Y281094D01*
X175413Y283116D01*
X173866Y284663D01*
X171844Y285500D01*
D02*
G37*
G36*
X-61156Y284500D02*
X-63344D01*
X-65366Y283663D01*
X-66913Y282115D01*
X-67750Y280094D01*
Y277906D01*
X-66913Y275884D01*
X-65366Y274337D01*
X-63344Y273500D01*
X-61156D01*
X-59134Y274337D01*
X-57587Y275884D01*
X-56750Y277906D01*
Y280094D01*
X-57587Y282115D01*
X-59134Y283663D01*
X-61156Y284500D01*
D02*
G37*
G36*
X280344Y283000D02*
X278156D01*
X276134Y282163D01*
X274587Y280616D01*
X273750Y278594D01*
Y276406D01*
X274587Y274384D01*
X276134Y272837D01*
X278156Y272000D01*
X280344D01*
X282365Y272837D01*
X283913Y274384D01*
X284750Y276406D01*
Y278594D01*
X283913Y280616D01*
X282365Y282163D01*
X280344Y283000D01*
D02*
G37*
G36*
X76094D02*
X73906D01*
X71884Y282163D01*
X70337Y280616D01*
X69500Y278594D01*
Y276406D01*
X70337Y274384D01*
X71884Y272837D01*
X73906Y272000D01*
X76094D01*
X78116Y272837D01*
X79663Y274384D01*
X80500Y276406D01*
Y278594D01*
X79663Y280616D01*
X78116Y282163D01*
X76094Y283000D01*
D02*
G37*
G36*
X-297906Y278500D02*
X-300094D01*
X-302115Y277663D01*
X-303663Y276115D01*
X-304500Y274094D01*
Y271906D01*
X-303663Y269885D01*
X-302115Y268337D01*
X-300094Y267500D01*
X-297906D01*
X-295884Y268337D01*
X-294337Y269885D01*
X-293500Y271906D01*
Y274094D01*
X-294337Y276115D01*
X-295884Y277663D01*
X-297906Y278500D01*
D02*
G37*
G36*
X-283906Y271500D02*
X-286094D01*
X-288116Y270663D01*
X-289663Y269116D01*
X-290500Y267094D01*
Y264906D01*
X-289663Y262885D01*
X-288116Y261337D01*
X-286094Y260500D01*
X-283906D01*
X-281884Y261337D01*
X-280337Y262885D01*
X-279500Y264906D01*
Y267094D01*
X-280337Y269116D01*
X-281884Y270663D01*
X-283906Y271500D01*
D02*
G37*
G36*
X-235906Y266500D02*
X-238094D01*
X-240116Y265663D01*
X-241663Y264116D01*
X-242500Y262094D01*
Y259906D01*
X-241663Y257885D01*
X-240116Y256337D01*
X-238094Y255500D01*
X-235906D01*
X-233885Y256337D01*
X-232337Y257885D01*
X-231500Y259906D01*
Y262094D01*
X-232337Y264116D01*
X-233885Y265663D01*
X-235906Y266500D01*
D02*
G37*
G36*
X1382Y274800D02*
X-1382D01*
X-4053Y274084D01*
X-6447Y272702D01*
X-8402Y270747D01*
X-9784Y268353D01*
X-10500Y265682D01*
Y262918D01*
X-9784Y260247D01*
X-8402Y257853D01*
X-6447Y255898D01*
X-4053Y254516D01*
X-1382Y253800D01*
X1382D01*
X4053Y254516D01*
X6447Y255898D01*
X8402Y257853D01*
X9784Y260247D01*
X10500Y262918D01*
Y265682D01*
X9784Y268353D01*
X8402Y270747D01*
X6447Y272702D01*
X4053Y274084D01*
X1382Y274800D01*
D02*
G37*
G36*
Y249400D02*
X-1382D01*
X-4053Y248684D01*
X-6447Y247302D01*
X-8402Y245347D01*
X-9784Y242953D01*
X-10500Y240282D01*
Y237518D01*
X-9784Y234847D01*
X-8402Y232453D01*
X-6447Y230498D01*
X-4053Y229116D01*
X-1382Y228400D01*
X1382D01*
X4053Y229116D01*
X6447Y230498D01*
X8402Y232453D01*
X9784Y234847D01*
X10500Y237518D01*
Y240282D01*
X9784Y242953D01*
X8402Y245347D01*
X6447Y247302D01*
X4053Y248684D01*
X1382Y249400D01*
D02*
G37*
G36*
X-35906Y234500D02*
X-38094D01*
X-40115Y233663D01*
X-41663Y232115D01*
X-42500Y230094D01*
Y227906D01*
X-41663Y225884D01*
X-40115Y224337D01*
X-38094Y223500D01*
X-35906D01*
X-33884Y224337D01*
X-32337Y225884D01*
X-31500Y227906D01*
Y230094D01*
X-32337Y232115D01*
X-33884Y233663D01*
X-35906Y234500D01*
D02*
G37*
G36*
X-284406Y231500D02*
X-286594D01*
X-288615Y230663D01*
X-290163Y229115D01*
X-291000Y227094D01*
Y224906D01*
X-290163Y222885D01*
X-288615Y221337D01*
X-286594Y220500D01*
X-284406D01*
X-282384Y221337D01*
X-280837Y222885D01*
X-280000Y224906D01*
Y227094D01*
X-280837Y229115D01*
X-282384Y230663D01*
X-284406Y231500D01*
D02*
G37*
G36*
X-307906Y219500D02*
X-310094D01*
X-312115Y218663D01*
X-313663Y217115D01*
X-314500Y215094D01*
Y212906D01*
X-313663Y210884D01*
X-312115Y209337D01*
X-310094Y208500D01*
X-307906D01*
X-305884Y209337D01*
X-304337Y210884D01*
X-303500Y212906D01*
Y215094D01*
X-304337Y217115D01*
X-305884Y218663D01*
X-307906Y219500D01*
D02*
G37*
G36*
X-235906Y216500D02*
X-238094D01*
X-240116Y215663D01*
X-241663Y214116D01*
X-242500Y212094D01*
Y209906D01*
X-241663Y207885D01*
X-240116Y206337D01*
X-238094Y205500D01*
X-235906D01*
X-233885Y206337D01*
X-232337Y207885D01*
X-231500Y209906D01*
Y212094D01*
X-232337Y214116D01*
X-233885Y215663D01*
X-235906Y216500D01*
D02*
G37*
G36*
X1382Y224000D02*
X-1382D01*
X-4053Y223284D01*
X-6447Y221902D01*
X-8402Y219947D01*
X-9784Y217553D01*
X-10500Y214882D01*
Y212118D01*
X-9784Y209447D01*
X-8402Y207053D01*
X-6447Y205098D01*
X-4053Y203716D01*
X-1382Y203000D01*
X1382D01*
X4053Y203716D01*
X6447Y205098D01*
X8402Y207053D01*
X9784Y209447D01*
X10500Y212118D01*
Y214882D01*
X9784Y217553D01*
X8402Y219947D01*
X6447Y221902D01*
X4053Y223284D01*
X1382Y224000D01*
D02*
G37*
G36*
X-284406Y201500D02*
X-286594D01*
X-288615Y200663D01*
X-290163Y199116D01*
X-291000Y197094D01*
Y194906D01*
X-290163Y192885D01*
X-288615Y191337D01*
X-286594Y190500D01*
X-284406D01*
X-282384Y191337D01*
X-280837Y192885D01*
X-280000Y194906D01*
Y197094D01*
X-280837Y199116D01*
X-282384Y200663D01*
X-284406Y201500D01*
D02*
G37*
G36*
X-349156Y199000D02*
X-351344D01*
X-353366Y198163D01*
X-354913Y196615D01*
X-355750Y194594D01*
Y192406D01*
X-354913Y190385D01*
X-353366Y188837D01*
X-351344Y188000D01*
X-349156D01*
X-347135Y188837D01*
X-345587Y190385D01*
X-344750Y192406D01*
Y194594D01*
X-345587Y196615D01*
X-347135Y198163D01*
X-349156Y199000D01*
D02*
G37*
G36*
X-122906Y198500D02*
X-125094D01*
X-127115Y197663D01*
X-128663Y196115D01*
X-129500Y194094D01*
Y191906D01*
X-128663Y189884D01*
X-127115Y188337D01*
X-125094Y187500D01*
X-122906D01*
X-120885Y188337D01*
X-119337Y189884D01*
X-118500Y191906D01*
Y194094D01*
X-119337Y196115D01*
X-120885Y197663D01*
X-122906Y198500D01*
D02*
G37*
G36*
X-132906Y189500D02*
X-135094D01*
X-137115Y188663D01*
X-138663Y187115D01*
X-139500Y185094D01*
Y182906D01*
X-138663Y180884D01*
X-137115Y179337D01*
X-135094Y178500D01*
X-132906D01*
X-130885Y179337D01*
X-129337Y180884D01*
X-128500Y182906D01*
Y185094D01*
X-129337Y187115D01*
X-130885Y188663D01*
X-132906Y189500D01*
D02*
G37*
G36*
X-227906Y188500D02*
X-230094D01*
X-232115Y187663D01*
X-233663Y186115D01*
X-234500Y184094D01*
Y181906D01*
X-233663Y179884D01*
X-232115Y178337D01*
X-230094Y177500D01*
X-227906D01*
X-225884Y178337D01*
X-224337Y179884D01*
X-223500Y181906D01*
Y184094D01*
X-224337Y186115D01*
X-225884Y187663D01*
X-227906Y188500D01*
D02*
G37*
G36*
X-275406Y171500D02*
X-277594D01*
X-279615Y170663D01*
X-281163Y169116D01*
X-282000Y167094D01*
Y164906D01*
X-281163Y162885D01*
X-279615Y161337D01*
X-277594Y160500D01*
X-275406D01*
X-273384Y161337D01*
X-271837Y162885D01*
X-271000Y164906D01*
Y167094D01*
X-271837Y169116D01*
X-273384Y170663D01*
X-275406Y171500D01*
D02*
G37*
G36*
X221594Y165000D02*
X219406D01*
X217384Y164163D01*
X215837Y162616D01*
X215000Y160594D01*
Y158406D01*
X215837Y156384D01*
X217384Y154837D01*
X219406Y154000D01*
X221594D01*
X223615Y154837D01*
X225163Y156384D01*
X226000Y158406D01*
Y160594D01*
X225163Y162616D01*
X223615Y164163D01*
X221594Y165000D01*
D02*
G37*
G36*
X259594Y165000D02*
X257406D01*
X255385Y164163D01*
X253837Y162616D01*
X253000Y160594D01*
Y158406D01*
X253837Y156384D01*
X255385Y154837D01*
X257406Y154000D01*
X259594D01*
X261616Y154837D01*
X263163Y156384D01*
X264000Y158406D01*
Y160594D01*
X263163Y162616D01*
X261616Y164163D01*
X259594Y165000D01*
D02*
G37*
G36*
X-95406Y142500D02*
X-97594D01*
X-99615Y141663D01*
X-101163Y140115D01*
X-102000Y138094D01*
Y135906D01*
X-101163Y133884D01*
X-99615Y132337D01*
X-97594Y131500D01*
X-95406D01*
X-93384Y132337D01*
X-91837Y133884D01*
X-91000Y135906D01*
Y138094D01*
X-91837Y140115D01*
X-93384Y141663D01*
X-95406Y142500D01*
D02*
G37*
G36*
X-133906D02*
X-136094D01*
X-138115Y141663D01*
X-139663Y140115D01*
X-140500Y138094D01*
Y135906D01*
X-139663Y133884D01*
X-138115Y132337D01*
X-136094Y131500D01*
X-133906D01*
X-131884Y132337D01*
X-130337Y133884D01*
X-129500Y135906D01*
Y138094D01*
X-130337Y140115D01*
X-131884Y141663D01*
X-133906Y142500D01*
D02*
G37*
G36*
X-212906Y141500D02*
X-215094D01*
X-217115Y140663D01*
X-218663Y139115D01*
X-219500Y137094D01*
Y134906D01*
X-218663Y132885D01*
X-217278Y131500D01*
X-218663Y130115D01*
X-219500Y128094D01*
Y125906D01*
X-218663Y123884D01*
X-217115Y122337D01*
X-215094Y121500D01*
X-212906D01*
X-210884Y122337D01*
X-209337Y123884D01*
X-208500Y125906D01*
Y128094D01*
X-209337Y130115D01*
X-210722Y131500D01*
X-209337Y132885D01*
X-208500Y134906D01*
Y137094D01*
X-209337Y139115D01*
X-210884Y140663D01*
X-212906Y141500D01*
D02*
G37*
G36*
X382Y140900D02*
X-2382D01*
X-5053Y140184D01*
X-7447Y138802D01*
X-9402Y136847D01*
X-10784Y134453D01*
X-11500Y131782D01*
Y129018D01*
X-10784Y126347D01*
X-9402Y123953D01*
X-7447Y121998D01*
X-5053Y120616D01*
X-2382Y119900D01*
X382D01*
X3053Y120616D01*
X5447Y121998D01*
X7402Y123953D01*
X8784Y126347D01*
X9500Y129018D01*
Y131782D01*
X8784Y134453D01*
X7402Y136847D01*
X5447Y138802D01*
X3053Y140184D01*
X382Y140900D01*
D02*
G37*
G36*
Y115500D02*
X-2382D01*
X-5053Y114784D01*
X-7447Y113402D01*
X-9402Y111447D01*
X-10784Y109053D01*
X-11500Y106382D01*
Y103618D01*
X-10784Y100947D01*
X-9402Y98553D01*
X-7447Y96598D01*
X-5053Y95216D01*
X-2382Y94500D01*
X382D01*
X3053Y95216D01*
X5447Y96598D01*
X7402Y98553D01*
X8784Y100947D01*
X9500Y103618D01*
Y106382D01*
X8784Y109053D01*
X7402Y111447D01*
X5447Y113402D01*
X3053Y114784D01*
X382Y115500D01*
D02*
G37*
G36*
X181094Y93500D02*
X178906D01*
X176884Y92663D01*
X175500Y91278D01*
X174116Y92663D01*
X172094Y93500D01*
X169906D01*
X167885Y92663D01*
X166337Y91116D01*
X165500Y89094D01*
Y86906D01*
X164561Y85500D01*
X163881D01*
X161719Y84921D01*
X159781Y83802D01*
X158198Y82219D01*
X157079Y80281D01*
X156500Y78119D01*
Y75881D01*
X157079Y73719D01*
X158198Y71781D01*
X159781Y70198D01*
X161719Y69079D01*
X163881Y68500D01*
X164918D01*
X166377Y67203D01*
X166500Y66586D01*
Y64906D01*
X167337Y62884D01*
X168885Y61337D01*
X170906Y60500D01*
X173094D01*
X175116Y61337D01*
X176500Y62722D01*
X177885Y61337D01*
X179906Y60500D01*
X182094D01*
X184116Y61337D01*
X185663Y62884D01*
X186500Y64906D01*
Y67094D01*
X185663Y69116D01*
X184116Y70663D01*
X182094Y71500D01*
X179906D01*
X177885Y70663D01*
X176500Y69278D01*
X175116Y70663D01*
X173784Y71214D01*
X172864Y73036D01*
X172794Y73500D01*
X172921Y73719D01*
X173500Y75881D01*
Y78119D01*
X172921Y80281D01*
X172706Y80652D01*
X173591Y83120D01*
X174116Y83337D01*
X175500Y84722D01*
X176884Y83337D01*
X178906Y82500D01*
X181094D01*
X183116Y83337D01*
X184663Y84885D01*
X185500Y86906D01*
Y89094D01*
X184663Y91116D01*
X183116Y92663D01*
X181094Y93500D01*
D02*
G37*
G36*
X-196406Y79000D02*
X-198594D01*
X-200616Y78163D01*
X-202000Y76778D01*
X-203384Y78163D01*
X-205406Y79000D01*
X-207594D01*
X-209615Y78163D01*
X-211163Y76616D01*
X-211418Y76000D01*
X-213582D01*
X-213837Y76616D01*
X-215385Y78163D01*
X-217406Y79000D01*
X-219594D01*
X-221616Y78163D01*
X-223000Y76778D01*
X-224384Y78163D01*
X-226406Y79000D01*
X-228594D01*
X-230616Y78163D01*
X-232163Y76616D01*
X-233000Y74594D01*
Y72406D01*
X-232163Y70384D01*
X-230616Y68837D01*
X-228594Y68000D01*
X-226406D01*
X-224384Y68837D01*
X-223000Y70222D01*
X-221616Y68837D01*
X-221091Y68620D01*
X-220206Y66152D01*
X-220421Y65781D01*
X-221000Y63619D01*
Y61381D01*
X-220421Y59219D01*
X-220294Y59000D01*
X-220364Y58536D01*
X-221284Y56714D01*
X-222616Y56163D01*
X-223500Y55278D01*
X-224384Y56163D01*
X-226406Y57000D01*
X-228594D01*
X-230616Y56163D01*
X-232163Y54616D01*
X-233000Y52594D01*
Y50406D01*
X-232163Y48384D01*
X-230616Y46837D01*
X-228594Y46000D01*
X-226406D01*
X-224384Y46837D01*
X-223500Y47722D01*
X-222616Y46837D01*
X-220594Y46000D01*
X-218406D01*
X-216385Y46837D01*
X-214837Y48384D01*
X-214000Y50406D01*
Y52086D01*
X-213956Y52306D01*
X-212500Y53047D01*
X-211044Y52306D01*
X-211000Y52086D01*
Y50406D01*
X-210163Y48384D01*
X-208615Y46837D01*
X-206594Y46000D01*
X-204406D01*
X-202384Y46837D01*
X-201000Y48222D01*
X-199615Y46837D01*
X-197594Y46000D01*
X-195406D01*
X-193384Y46837D01*
X-191837Y48384D01*
X-191000Y50406D01*
Y52594D01*
X-191837Y54616D01*
X-193384Y56163D01*
X-195406Y57000D01*
X-197594D01*
X-199615Y56163D01*
X-201000Y54778D01*
X-202384Y56163D01*
X-203716Y56714D01*
X-204636Y58536D01*
X-204706Y59000D01*
X-204579Y59219D01*
X-204000Y61381D01*
Y63619D01*
X-204579Y65781D01*
X-204794Y66152D01*
X-203909Y68620D01*
X-203384Y68837D01*
X-202000Y70222D01*
X-200616Y68837D01*
X-198594Y68000D01*
X-196406D01*
X-194384Y68837D01*
X-192837Y70384D01*
X-192000Y72406D01*
Y74594D01*
X-192837Y76616D01*
X-194384Y78163D01*
X-196406Y79000D01*
D02*
G37*
G36*
X-413486Y98900D02*
X-416514D01*
X-419439Y98116D01*
X-422061Y96602D01*
X-424202Y94461D01*
X-425716Y91839D01*
X-426500Y88914D01*
Y85886D01*
X-425716Y82961D01*
X-424202Y80339D01*
X-422061Y78198D01*
X-419439Y76684D01*
X-416514Y75900D01*
X-413486D01*
X-410561Y76684D01*
X-407939Y78198D01*
X-405798Y80339D01*
X-404284Y82961D01*
X-403500Y85886D01*
Y88914D01*
X-404284Y91839D01*
X-405798Y94461D01*
X-407939Y96602D01*
X-410561Y98116D01*
X-413486Y98900D01*
D02*
G37*
G36*
X382Y90100D02*
X-2382D01*
X-5053Y89384D01*
X-7447Y88002D01*
X-9402Y86047D01*
X-10784Y83653D01*
X-11500Y80982D01*
Y78218D01*
X-10784Y75547D01*
X-9402Y73153D01*
X-7447Y71198D01*
X-5053Y69816D01*
X-2382Y69100D01*
X382D01*
X3053Y69816D01*
X5447Y71198D01*
X7402Y73153D01*
X8784Y75547D01*
X9500Y78218D01*
Y80982D01*
X8784Y83653D01*
X7402Y86047D01*
X5447Y88002D01*
X3053Y89384D01*
X382Y90100D01*
D02*
G37*
G36*
X-254000Y71000D02*
X-271000D01*
Y54000D01*
X-254000D01*
Y71000D01*
D02*
G37*
G36*
X-403500Y73500D02*
X-426500D01*
Y50500D01*
X-403500D01*
Y73500D01*
D02*
G37*
G36*
X382Y64700D02*
X-2382D01*
X-5053Y63984D01*
X-7447Y62602D01*
X-9402Y60647D01*
X-10784Y58253D01*
X-11500Y55582D01*
Y52818D01*
X-10784Y50147D01*
X-9402Y47753D01*
X-7447Y45798D01*
X-5053Y44416D01*
X-2382Y43700D01*
X382D01*
X3053Y44416D01*
X5447Y45798D01*
X7402Y47753D01*
X8784Y50147D01*
X9500Y52818D01*
Y55582D01*
X8784Y58253D01*
X7402Y60647D01*
X5447Y62602D01*
X3053Y63984D01*
X382Y64700D01*
D02*
G37*
G36*
X-117906Y41500D02*
X-120094D01*
X-122115Y40663D01*
X-123663Y39116D01*
X-124500Y37094D01*
Y34906D01*
X-123663Y32885D01*
X-122115Y31337D01*
X-120094Y30500D01*
X-117906D01*
X-115885Y31337D01*
X-114337Y32885D01*
X-113500Y34906D01*
Y37094D01*
X-114337Y39116D01*
X-115885Y40663D01*
X-117906Y41500D01*
D02*
G37*
G36*
X2955Y30000D02*
X-2955D01*
X-8751Y28847D01*
X-14210Y26586D01*
X-19124Y23303D01*
X-23303Y19124D01*
X-26586Y14210D01*
X-28847Y8751D01*
X-30000Y2955D01*
Y-2955D01*
X-28847Y-8751D01*
X-26586Y-14210D01*
X-23303Y-19124D01*
X-19124Y-23303D01*
X-14210Y-26586D01*
X-8751Y-28847D01*
X-2955Y-30000D01*
X2955D01*
X8751Y-28847D01*
X14210Y-26586D01*
X19124Y-23303D01*
X23303Y-19124D01*
X26586Y-14210D01*
X28847Y-8751D01*
X30000Y-2955D01*
Y2955D01*
X28847Y8751D01*
X26586Y14210D01*
X23303Y19124D01*
X19124Y23303D01*
X14210Y26586D01*
X8751Y28847D01*
X2955Y30000D01*
D02*
G37*
G36*
X-246406Y-28500D02*
X-248594D01*
X-250616Y-29337D01*
X-252000Y-30722D01*
X-253384Y-29337D01*
X-255406Y-28500D01*
X-257594D01*
X-259615Y-29337D01*
X-261163Y-30884D01*
X-261418Y-31500D01*
X-263582D01*
X-263837Y-30884D01*
X-265385Y-29337D01*
X-267406Y-28500D01*
X-269594D01*
X-271616Y-29337D01*
X-273000Y-30722D01*
X-274384Y-29337D01*
X-276406Y-28500D01*
X-278594D01*
X-280616Y-29337D01*
X-282163Y-30884D01*
X-283000Y-32906D01*
Y-35094D01*
X-282163Y-37115D01*
X-280616Y-38663D01*
X-278594Y-39500D01*
X-276406D01*
X-274384Y-38663D01*
X-273000Y-37278D01*
X-271616Y-38663D01*
X-271091Y-38880D01*
X-270206Y-41348D01*
X-270421Y-41719D01*
X-271000Y-43881D01*
Y-46119D01*
X-270421Y-48281D01*
X-270294Y-48500D01*
X-270364Y-48964D01*
X-271284Y-50786D01*
X-272616Y-51337D01*
X-273500Y-52222D01*
X-274384Y-51337D01*
X-276406Y-50500D01*
X-278594D01*
X-280616Y-51337D01*
X-282163Y-52885D01*
X-283000Y-54906D01*
Y-57094D01*
X-282163Y-59116D01*
X-280616Y-60663D01*
X-278594Y-61500D01*
X-276406D01*
X-274384Y-60663D01*
X-273500Y-59778D01*
X-272616Y-60663D01*
X-270594Y-61500D01*
X-268406D01*
X-266385Y-60663D01*
X-264837Y-59116D01*
X-264000Y-57094D01*
Y-55414D01*
X-263956Y-55194D01*
X-262500Y-54453D01*
X-261044Y-55194D01*
X-261000Y-55414D01*
Y-57094D01*
X-260163Y-59116D01*
X-258615Y-60663D01*
X-256594Y-61500D01*
X-254406D01*
X-252384Y-60663D01*
X-251000Y-59278D01*
X-249615Y-60663D01*
X-247594Y-61500D01*
X-245406D01*
X-243384Y-60663D01*
X-241837Y-59116D01*
X-241000Y-57094D01*
Y-54906D01*
X-241837Y-52885D01*
X-243384Y-51337D01*
X-245406Y-50500D01*
X-247594D01*
X-249615Y-51337D01*
X-251000Y-52722D01*
X-252384Y-51337D01*
X-253716Y-50786D01*
X-254636Y-48964D01*
X-254706Y-48500D01*
X-254579Y-48281D01*
X-254000Y-46119D01*
Y-43881D01*
X-254579Y-41719D01*
X-254794Y-41348D01*
X-253909Y-38880D01*
X-253384Y-38663D01*
X-252000Y-37278D01*
X-250616Y-38663D01*
X-248594Y-39500D01*
X-246406D01*
X-244385Y-38663D01*
X-242837Y-37115D01*
X-242000Y-35094D01*
Y-32906D01*
X-242837Y-30884D01*
X-244385Y-29337D01*
X-246406Y-28500D01*
D02*
G37*
G36*
X68094Y-37000D02*
X65906D01*
X63885Y-37837D01*
X62500Y-39222D01*
X61115Y-37837D01*
X59094Y-37000D01*
X56906D01*
X54885Y-37837D01*
X53750Y-38972D01*
X52615Y-37837D01*
X50594Y-37000D01*
X48406D01*
X46385Y-37837D01*
X45000Y-39222D01*
X43615Y-37837D01*
X41594Y-37000D01*
X39406D01*
X37385Y-37837D01*
X35837Y-39385D01*
X35000Y-41406D01*
Y-43594D01*
X35837Y-45616D01*
X37385Y-47163D01*
X39406Y-48000D01*
X41594D01*
X43615Y-47163D01*
X45000Y-45778D01*
X46385Y-47163D01*
X48406Y-48000D01*
X50594D01*
X52615Y-47163D01*
X53750Y-46028D01*
X54885Y-47163D01*
X56906Y-48000D01*
X59094D01*
X61115Y-47163D01*
X62500Y-45778D01*
X63885Y-47163D01*
X65906Y-48000D01*
X68094D01*
X70115Y-47163D01*
X71663Y-45616D01*
X72500Y-43594D01*
Y-41406D01*
X71663Y-39385D01*
X70115Y-37837D01*
X68094Y-37000D01*
D02*
G37*
G36*
X-204000Y-36500D02*
X-221000D01*
Y-53500D01*
X-204000D01*
Y-36500D01*
D02*
G37*
G36*
X68094Y-56200D02*
X65906D01*
X63885Y-57037D01*
X62500Y-58422D01*
X61115Y-57037D01*
X59094Y-56200D01*
X56906D01*
X54885Y-57037D01*
X53750Y-58172D01*
X52615Y-57037D01*
X50594Y-56200D01*
X48406D01*
X46385Y-57037D01*
X45000Y-58422D01*
X43615Y-57037D01*
X41594Y-56200D01*
X39406D01*
X37385Y-57037D01*
X35837Y-58584D01*
X35000Y-60606D01*
Y-62794D01*
X35837Y-64816D01*
X37385Y-66363D01*
X39406Y-67200D01*
X41594D01*
X43615Y-66363D01*
X45000Y-64978D01*
X46385Y-66363D01*
X48406Y-67200D01*
X50594D01*
X52615Y-66363D01*
X53750Y-65228D01*
X54885Y-66363D01*
X56906Y-67200D01*
X59094D01*
X61115Y-66363D01*
X62500Y-64978D01*
X63885Y-66363D01*
X65906Y-67200D01*
X68094D01*
X70115Y-66363D01*
X71663Y-64816D01*
X72500Y-62794D01*
Y-60606D01*
X71663Y-58584D01*
X70115Y-57037D01*
X68094Y-56200D01*
D02*
G37*
G36*
X-353906Y-71000D02*
X-356094D01*
X-358116Y-71837D01*
X-359500Y-73222D01*
X-360885Y-71837D01*
X-362906Y-71000D01*
X-365094D01*
X-367116Y-71837D01*
X-368663Y-73384D01*
X-368918Y-74000D01*
X-371082D01*
X-371337Y-73384D01*
X-372884Y-71837D01*
X-374906Y-71000D01*
X-377094D01*
X-379115Y-71837D01*
X-380500Y-73222D01*
X-381884Y-71837D01*
X-383906Y-71000D01*
X-386094D01*
X-388116Y-71837D01*
X-389663Y-73384D01*
X-390500Y-75406D01*
Y-77594D01*
X-389663Y-79616D01*
X-388116Y-81163D01*
X-386094Y-82000D01*
X-383906D01*
X-381884Y-81163D01*
X-380500Y-79778D01*
X-379115Y-81163D01*
X-378591Y-81380D01*
X-377706Y-83848D01*
X-377921Y-84219D01*
X-378500Y-86381D01*
Y-88619D01*
X-377921Y-90781D01*
X-377794Y-91000D01*
X-377864Y-91464D01*
X-378784Y-93286D01*
X-380116Y-93837D01*
X-381000Y-94722D01*
X-381884Y-93837D01*
X-383906Y-93000D01*
X-386094D01*
X-388116Y-93837D01*
X-389663Y-95385D01*
X-390500Y-97406D01*
Y-99594D01*
X-389663Y-101615D01*
X-388116Y-103163D01*
X-386094Y-104000D01*
X-383906D01*
X-381884Y-103163D01*
X-381000Y-102278D01*
X-380116Y-103163D01*
X-378094Y-104000D01*
X-375906D01*
X-373885Y-103163D01*
X-372337Y-101615D01*
X-371500Y-99594D01*
Y-97914D01*
X-371456Y-97694D01*
X-370000Y-96953D01*
X-368544Y-97694D01*
X-368500Y-97914D01*
Y-99594D01*
X-367663Y-101615D01*
X-366115Y-103163D01*
X-364094Y-104000D01*
X-361906D01*
X-359884Y-103163D01*
X-358500Y-101778D01*
X-357116Y-103163D01*
X-355094Y-104000D01*
X-352906D01*
X-350885Y-103163D01*
X-349337Y-101615D01*
X-348500Y-99594D01*
Y-97406D01*
X-349337Y-95385D01*
X-350885Y-93837D01*
X-352906Y-93000D01*
X-355094D01*
X-357116Y-93837D01*
X-358500Y-95222D01*
X-359884Y-93837D01*
X-361216Y-93286D01*
X-362136Y-91464D01*
X-362206Y-91000D01*
X-362079Y-90781D01*
X-361500Y-88619D01*
Y-86381D01*
X-362079Y-84219D01*
X-362294Y-83848D01*
X-361409Y-81380D01*
X-360885Y-81163D01*
X-359500Y-79778D01*
X-358116Y-81163D01*
X-356094Y-82000D01*
X-353906D01*
X-351884Y-81163D01*
X-350337Y-79616D01*
X-349500Y-77594D01*
Y-75406D01*
X-350337Y-73384D01*
X-351884Y-71837D01*
X-353906Y-71000D01*
D02*
G37*
G36*
X-361500Y-129000D02*
X-378500D01*
Y-146000D01*
X-361500D01*
Y-129000D01*
D02*
G37*
G36*
X-103906Y-168500D02*
X-106094D01*
X-108116Y-169337D01*
X-109500Y-170722D01*
X-110885Y-169337D01*
X-112906Y-168500D01*
X-115094D01*
X-117115Y-169337D01*
X-118663Y-170884D01*
X-118918Y-171500D01*
X-121082D01*
X-121337Y-170884D01*
X-122885Y-169337D01*
X-124906Y-168500D01*
X-127094D01*
X-129115Y-169337D01*
X-130500Y-170722D01*
X-131884Y-169337D01*
X-133906Y-168500D01*
X-136094D01*
X-138116Y-169337D01*
X-139663Y-170884D01*
X-140500Y-172906D01*
Y-175094D01*
X-139663Y-177115D01*
X-138116Y-178663D01*
X-136094Y-179500D01*
X-133906D01*
X-131884Y-178663D01*
X-130500Y-177278D01*
X-129115Y-178663D01*
X-128591Y-178880D01*
X-127706Y-181348D01*
X-127921Y-181719D01*
X-128500Y-183881D01*
Y-186119D01*
X-127921Y-188281D01*
X-127794Y-188500D01*
X-127864Y-188964D01*
X-128784Y-190786D01*
X-130115Y-191337D01*
X-131000Y-192222D01*
X-131884Y-191337D01*
X-133906Y-190500D01*
X-136094D01*
X-138116Y-191337D01*
X-139663Y-192885D01*
X-140500Y-194906D01*
Y-197094D01*
X-139663Y-199116D01*
X-138116Y-200663D01*
X-136094Y-201500D01*
X-133906D01*
X-131884Y-200663D01*
X-131000Y-199778D01*
X-130115Y-200663D01*
X-128094Y-201500D01*
X-125906D01*
X-123884Y-200663D01*
X-122337Y-199116D01*
X-121500Y-197094D01*
Y-195414D01*
X-121456Y-195194D01*
X-120000Y-194453D01*
X-118544Y-195194D01*
X-118500Y-195414D01*
Y-197094D01*
X-117663Y-199116D01*
X-116116Y-200663D01*
X-114094Y-201500D01*
X-111906D01*
X-109885Y-200663D01*
X-108500Y-199278D01*
X-107115Y-200663D01*
X-105094Y-201500D01*
X-102906D01*
X-100885Y-200663D01*
X-99337Y-199116D01*
X-98500Y-197094D01*
Y-194906D01*
X-99337Y-192885D01*
X-100885Y-191337D01*
X-102906Y-190500D01*
X-105094D01*
X-107115Y-191337D01*
X-108500Y-192722D01*
X-109885Y-191337D01*
X-111216Y-190786D01*
X-112136Y-188964D01*
X-112206Y-188500D01*
X-112079Y-188281D01*
X-111500Y-186119D01*
Y-183881D01*
X-112079Y-181719D01*
X-112294Y-181348D01*
X-111409Y-178880D01*
X-110885Y-178663D01*
X-109500Y-177278D01*
X-108116Y-178663D01*
X-106094Y-179500D01*
X-103906D01*
X-101884Y-178663D01*
X-100337Y-177115D01*
X-99500Y-175094D01*
Y-172906D01*
X-100337Y-170884D01*
X-101884Y-169337D01*
X-103906Y-168500D01*
D02*
G37*
G36*
X-393750Y-201750D02*
X-418250D01*
Y-226250D01*
X-393750D01*
Y-201750D01*
D02*
G37*
G36*
X-111500Y-226500D02*
X-128500D01*
Y-243500D01*
X-111500D01*
Y-226500D01*
D02*
G37*
G36*
X95094Y-237500D02*
X92906D01*
X90885Y-238337D01*
X89337Y-239884D01*
X88500Y-241906D01*
Y-244094D01*
X89337Y-246115D01*
X90885Y-247663D01*
X92906Y-248500D01*
X95094D01*
X97115Y-247663D01*
X98663Y-246115D01*
X99500Y-244094D01*
Y-241906D01*
X98663Y-239884D01*
X97115Y-238337D01*
X95094Y-237500D01*
D02*
G37*
G36*
X-404387Y-252550D02*
X-407613D01*
X-410728Y-253385D01*
X-413522Y-254998D01*
X-415802Y-257278D01*
X-417415Y-260072D01*
X-418250Y-263187D01*
Y-266413D01*
X-417415Y-269528D01*
X-415802Y-272322D01*
X-413522Y-274602D01*
X-410728Y-276215D01*
X-407613Y-277050D01*
X-404387D01*
X-401272Y-276215D01*
X-398478Y-274602D01*
X-396198Y-272322D01*
X-394585Y-269528D01*
X-393750Y-266413D01*
Y-263187D01*
X-394585Y-260072D01*
X-396198Y-257278D01*
X-398478Y-254998D01*
X-401272Y-253385D01*
X-404387Y-252550D01*
D02*
G37*
G36*
X152690Y-311904D02*
X150502D01*
X148481Y-312741D01*
X146933Y-314288D01*
X146096Y-316310D01*
Y-318498D01*
X146933Y-320519D01*
X148481Y-322066D01*
X150502Y-322904D01*
X152690D01*
X154712Y-322066D01*
X156259Y-320519D01*
X157096Y-318498D01*
Y-316310D01*
X156259Y-314288D01*
X154712Y-312741D01*
X152690Y-311904D01*
D02*
G37*
G36*
X-111500Y-314000D02*
X-128500D01*
Y-331000D01*
X-111500D01*
Y-314000D01*
D02*
G37*
G36*
X151998Y-329596D02*
X149810D01*
X147788Y-330434D01*
X146241Y-331981D01*
X145404Y-334002D01*
Y-336190D01*
X146241Y-338212D01*
X147788Y-339759D01*
X149810Y-340596D01*
X151998D01*
X154019Y-339759D01*
X155567Y-338212D01*
X156404Y-336190D01*
Y-334002D01*
X155567Y-331981D01*
X154019Y-330434D01*
X151998Y-329596D01*
D02*
G37*
G36*
X95094Y-334500D02*
X92906D01*
X90885Y-335337D01*
X89337Y-336884D01*
X88500Y-338906D01*
Y-341094D01*
X89337Y-343116D01*
X90885Y-344663D01*
X92906Y-345500D01*
X95094D01*
X97115Y-344663D01*
X98663Y-343116D01*
X99500Y-341094D01*
Y-338906D01*
X98663Y-336884D01*
X97115Y-335337D01*
X95094Y-334500D01*
D02*
G37*
G36*
X-103906Y-356000D02*
X-106094D01*
X-108116Y-356837D01*
X-109500Y-358222D01*
X-110885Y-356837D01*
X-112906Y-356000D01*
X-115094D01*
X-117115Y-356837D01*
X-118663Y-358385D01*
X-118918Y-359000D01*
X-121082D01*
X-121337Y-358385D01*
X-122885Y-356837D01*
X-124906Y-356000D01*
X-127094D01*
X-129115Y-356837D01*
X-130500Y-358222D01*
X-131884Y-356837D01*
X-133906Y-356000D01*
X-136094D01*
X-138116Y-356837D01*
X-139663Y-358385D01*
X-140500Y-360406D01*
Y-362594D01*
X-139663Y-364616D01*
X-138116Y-366163D01*
X-136094Y-367000D01*
X-133906D01*
X-131884Y-366163D01*
X-130500Y-364778D01*
X-129115Y-366163D01*
X-128591Y-366380D01*
X-127706Y-368848D01*
X-127921Y-369219D01*
X-128500Y-371381D01*
Y-373619D01*
X-127921Y-375781D01*
X-127794Y-376000D01*
X-127864Y-376464D01*
X-128784Y-378286D01*
X-130115Y-378837D01*
X-131000Y-379722D01*
X-131884Y-378837D01*
X-133906Y-378000D01*
X-136094D01*
X-138116Y-378837D01*
X-139663Y-380384D01*
X-140500Y-382406D01*
Y-384594D01*
X-139663Y-386615D01*
X-138116Y-388163D01*
X-136094Y-389000D01*
X-133906D01*
X-131884Y-388163D01*
X-131000Y-387278D01*
X-130115Y-388163D01*
X-128094Y-389000D01*
X-125906D01*
X-123884Y-388163D01*
X-122337Y-386615D01*
X-121500Y-384594D01*
Y-382914D01*
X-121456Y-382694D01*
X-120000Y-381953D01*
X-118544Y-382694D01*
X-118500Y-382914D01*
Y-384594D01*
X-117663Y-386615D01*
X-116116Y-388163D01*
X-114094Y-389000D01*
X-111906D01*
X-109885Y-388163D01*
X-108500Y-386778D01*
X-107115Y-388163D01*
X-105094Y-389000D01*
X-102906D01*
X-100885Y-388163D01*
X-99337Y-386615D01*
X-98500Y-384594D01*
Y-382406D01*
X-99337Y-380384D01*
X-100885Y-378837D01*
X-102906Y-378000D01*
X-105094D01*
X-107115Y-378837D01*
X-108500Y-380222D01*
X-109885Y-378837D01*
X-111216Y-378286D01*
X-112136Y-376464D01*
X-112206Y-376000D01*
X-112079Y-375781D01*
X-111500Y-373619D01*
Y-371381D01*
X-112079Y-369219D01*
X-112294Y-368848D01*
X-111409Y-366380D01*
X-110885Y-366163D01*
X-109500Y-364778D01*
X-108116Y-366163D01*
X-106094Y-367000D01*
X-103906D01*
X-101884Y-366163D01*
X-100337Y-364616D01*
X-99500Y-362594D01*
Y-360406D01*
X-100337Y-358385D01*
X-101884Y-356837D01*
X-103906Y-356000D01*
D02*
G37*
G36*
X179293Y-346500D02*
X176707D01*
X174318Y-347490D01*
X172490Y-349318D01*
X171500Y-351707D01*
Y-354293D01*
X172490Y-356682D01*
X174318Y-358510D01*
X176707Y-359500D01*
X179293D01*
X181682Y-358510D01*
X183510Y-356682D01*
X184500Y-354293D01*
Y-351707D01*
X183510Y-349318D01*
X181682Y-347490D01*
X179293Y-346500D01*
D02*
G37*
G36*
X107594Y-382000D02*
X105406D01*
X103385Y-382837D01*
X102000Y-384222D01*
X100616Y-382837D01*
X98594Y-382000D01*
X96406D01*
X94384Y-382837D01*
X93250Y-383972D01*
X92115Y-382837D01*
X90094Y-382000D01*
X87906D01*
X85885Y-382837D01*
X84500Y-384222D01*
X83116Y-382837D01*
X81094Y-382000D01*
X78906D01*
X76884Y-382837D01*
X75337Y-384384D01*
X74500Y-386406D01*
Y-388594D01*
X75337Y-390616D01*
X76884Y-392163D01*
X78906Y-393000D01*
X81094D01*
X83116Y-392163D01*
X84500Y-390778D01*
X85885Y-392163D01*
X87906Y-393000D01*
X90094D01*
X92115Y-392163D01*
X93250Y-391028D01*
X94384Y-392163D01*
X96406Y-393000D01*
X98594D01*
X100616Y-392163D01*
X102000Y-390778D01*
X103385Y-392163D01*
X105406Y-393000D01*
X107594D01*
X109615Y-392163D01*
X111163Y-390616D01*
X112000Y-388594D01*
Y-386406D01*
X111163Y-384384D01*
X109615Y-382837D01*
X107594Y-382000D01*
D02*
G37*
G36*
X180594Y-381950D02*
X178406D01*
X176385Y-382787D01*
X174837Y-384334D01*
X174000Y-386356D01*
Y-388544D01*
X174837Y-390565D01*
X176385Y-392113D01*
X178406Y-392950D01*
X180594D01*
X182616Y-392113D01*
X184163Y-390565D01*
X185000Y-388544D01*
Y-386356D01*
X184163Y-384334D01*
X182616Y-382787D01*
X180594Y-381950D01*
D02*
G37*
G36*
X-413486Y-378100D02*
X-416514D01*
X-419439Y-378884D01*
X-422061Y-380398D01*
X-424202Y-382539D01*
X-425716Y-385161D01*
X-426500Y-388086D01*
Y-391114D01*
X-425716Y-394039D01*
X-424202Y-396661D01*
X-422061Y-398802D01*
X-419439Y-400316D01*
X-416514Y-401100D01*
X-413486D01*
X-410561Y-400316D01*
X-407939Y-398802D01*
X-405798Y-396661D01*
X-404284Y-394039D01*
X-403500Y-391114D01*
Y-388086D01*
X-404284Y-385161D01*
X-405798Y-382539D01*
X-407939Y-380398D01*
X-410561Y-378884D01*
X-413486Y-378100D01*
D02*
G37*
G36*
X107594Y-401200D02*
X105406D01*
X103385Y-402037D01*
X102000Y-403422D01*
X100616Y-402037D01*
X98594Y-401200D01*
X96406D01*
X94384Y-402037D01*
X93250Y-403172D01*
X92115Y-402037D01*
X90094Y-401200D01*
X87906D01*
X85885Y-402037D01*
X84500Y-403422D01*
X83116Y-402037D01*
X81094Y-401200D01*
X78906D01*
X76884Y-402037D01*
X75337Y-403585D01*
X74500Y-405606D01*
Y-407794D01*
X75337Y-409815D01*
X76884Y-411363D01*
X78906Y-412200D01*
X81094D01*
X83116Y-411363D01*
X84500Y-409978D01*
X85885Y-411363D01*
X87906Y-412200D01*
X90094D01*
X92115Y-411363D01*
X93250Y-410228D01*
X94384Y-411363D01*
X96406Y-412200D01*
X98594D01*
X100616Y-411363D01*
X102000Y-409978D01*
X103385Y-411363D01*
X105406Y-412200D01*
X107594D01*
X109615Y-411363D01*
X111163Y-409815D01*
X112000Y-407794D01*
Y-405606D01*
X111163Y-403585D01*
X109615Y-402037D01*
X107594Y-401200D01*
D02*
G37*
G36*
X223094Y-395050D02*
X220906D01*
X218885Y-395887D01*
X217337Y-397435D01*
X216500Y-399456D01*
Y-401644D01*
X217337Y-403666D01*
X218885Y-405213D01*
X220906Y-406050D01*
X223094D01*
X225116Y-405213D01*
X226663Y-403666D01*
X227500Y-401644D01*
Y-399456D01*
X226663Y-397435D01*
X225116Y-395887D01*
X223094Y-395050D01*
D02*
G37*
G36*
X309094Y-400500D02*
X306906D01*
X304884Y-401337D01*
X303337Y-402884D01*
X302500Y-404906D01*
Y-407094D01*
X303337Y-409115D01*
X304884Y-410663D01*
X306906Y-411500D01*
X309094D01*
X311115Y-410663D01*
X312663Y-409115D01*
X313500Y-407094D01*
Y-404906D01*
X312663Y-402884D01*
X311115Y-401337D01*
X309094Y-400500D01*
D02*
G37*
G36*
X-403500Y-403500D02*
X-426500D01*
Y-426500D01*
X-403500D01*
Y-403500D01*
D02*
G37*
G36*
X182594Y-429050D02*
X180406D01*
X178384Y-429887D01*
X176837Y-431435D01*
X176000Y-433456D01*
Y-435644D01*
X176837Y-437665D01*
X178384Y-439213D01*
X180406Y-440050D01*
X182594D01*
X184615Y-439213D01*
X186163Y-437665D01*
X187000Y-435644D01*
Y-433456D01*
X186163Y-431435D01*
X184615Y-429887D01*
X182594Y-429050D01*
D02*
G37*
G36*
X250094Y-450500D02*
X247906D01*
X245884Y-451337D01*
X244337Y-452884D01*
X243500Y-454906D01*
Y-457094D01*
X244337Y-459115D01*
X245884Y-460663D01*
X247906Y-461500D01*
X250094D01*
X252115Y-460663D01*
X253663Y-459115D01*
X254500Y-457094D01*
Y-454906D01*
X253663Y-452884D01*
X252115Y-451337D01*
X250094Y-450500D01*
D02*
G37*
G36*
Y-470500D02*
X247906D01*
X245884Y-471337D01*
X244337Y-472884D01*
X243500Y-474906D01*
Y-477094D01*
X244337Y-479115D01*
X245884Y-480663D01*
X247906Y-481500D01*
X250094D01*
X252115Y-480663D01*
X253663Y-479115D01*
X254500Y-477094D01*
Y-474906D01*
X253663Y-472884D01*
X252115Y-471337D01*
X250094Y-470500D01*
D02*
G37*
G36*
X161094D02*
X158906D01*
X156884Y-471337D01*
X155337Y-472884D01*
X154500Y-474906D01*
Y-477094D01*
X155337Y-479115D01*
X156884Y-480663D01*
X158906Y-481500D01*
X161094D01*
X163116Y-480663D01*
X164663Y-479115D01*
X165500Y-477094D01*
Y-474906D01*
X164663Y-472884D01*
X163116Y-471337D01*
X161094Y-470500D01*
D02*
G37*
G36*
X211294Y-481700D02*
X209106D01*
X207085Y-482537D01*
X205537Y-484085D01*
X204700Y-486106D01*
Y-488294D01*
X205537Y-490316D01*
X207085Y-491863D01*
X209106Y-492700D01*
X211294D01*
X213316Y-491863D01*
X214863Y-490316D01*
X215700Y-488294D01*
Y-486106D01*
X214863Y-484085D01*
X213316Y-482537D01*
X211294Y-481700D01*
D02*
G37*
G36*
X-196500Y-476500D02*
X-213500D01*
Y-493500D01*
X-196500D01*
Y-476500D01*
D02*
G37*
G36*
X-301500D02*
X-318500D01*
Y-493500D01*
X-301500D01*
Y-476500D01*
D02*
G37*
G36*
X253200Y-490634D02*
X251195Y-490898D01*
X249327Y-491671D01*
X247723Y-492902D01*
X246492Y-494507D01*
X245718Y-496375D01*
X245454Y-498380D01*
Y-509020D01*
X245718Y-511025D01*
X246492Y-512893D01*
X247723Y-514497D01*
X249327Y-515728D01*
X251195Y-516502D01*
X253200Y-516766D01*
X255205Y-516502D01*
X257073Y-515728D01*
X258677Y-514497D01*
X259909Y-512893D01*
X260682Y-511025D01*
X260946Y-509020D01*
Y-498380D01*
X260682Y-496375D01*
X259909Y-494507D01*
X258677Y-492902D01*
X257073Y-491671D01*
X255205Y-490898D01*
X253200Y-490634D01*
D02*
G37*
G36*
X166800D02*
X164795Y-490898D01*
X162927Y-491671D01*
X161323Y-492902D01*
X160092Y-494507D01*
X159318Y-496375D01*
X159054Y-498380D01*
Y-509020D01*
X159318Y-511025D01*
X160092Y-512893D01*
X161323Y-514497D01*
X162927Y-515728D01*
X164795Y-516502D01*
X166800Y-516766D01*
X168805Y-516502D01*
X170673Y-515728D01*
X172278Y-514497D01*
X173508Y-512893D01*
X174282Y-511025D01*
X174546Y-509020D01*
Y-498380D01*
X174282Y-496375D01*
X173508Y-494507D01*
X172278Y-492902D01*
X170673Y-491671D01*
X168805Y-490898D01*
X166800Y-490634D01*
D02*
G37*
G36*
X-188906Y-518500D02*
X-191094D01*
X-193116Y-519337D01*
X-194500Y-520722D01*
X-195884Y-519337D01*
X-197906Y-518500D01*
X-200094D01*
X-202115Y-519337D01*
X-203663Y-520885D01*
X-203918Y-521500D01*
X-206082D01*
X-206337Y-520885D01*
X-207885Y-519337D01*
X-209906Y-518500D01*
X-212094D01*
X-214116Y-519337D01*
X-215500Y-520722D01*
X-216884Y-519337D01*
X-218906Y-518500D01*
X-221094D01*
X-223116Y-519337D01*
X-224663Y-520885D01*
X-225500Y-522906D01*
Y-525094D01*
X-224663Y-527116D01*
X-223116Y-528663D01*
X-221094Y-529500D01*
X-218906D01*
X-216884Y-528663D01*
X-215500Y-527278D01*
X-214116Y-528663D01*
X-213591Y-528880D01*
X-212706Y-531348D01*
X-212921Y-531719D01*
X-213500Y-533881D01*
Y-536119D01*
X-212921Y-538281D01*
X-212794Y-538500D01*
X-212864Y-538964D01*
X-213784Y-540786D01*
X-215116Y-541337D01*
X-216000Y-542222D01*
X-216884Y-541337D01*
X-218906Y-540500D01*
X-221094D01*
X-223116Y-541337D01*
X-224663Y-542884D01*
X-225500Y-544906D01*
Y-547094D01*
X-224663Y-549115D01*
X-223116Y-550663D01*
X-221094Y-551500D01*
X-218906D01*
X-216884Y-550663D01*
X-216000Y-549778D01*
X-215116Y-550663D01*
X-213094Y-551500D01*
X-210906D01*
X-208885Y-550663D01*
X-207337Y-549115D01*
X-206500Y-547094D01*
Y-545414D01*
X-206456Y-545194D01*
X-205000Y-544453D01*
X-203544Y-545194D01*
X-203500Y-545414D01*
Y-547094D01*
X-202663Y-549115D01*
X-201115Y-550663D01*
X-199094Y-551500D01*
X-196906D01*
X-194884Y-550663D01*
X-193500Y-549278D01*
X-192115Y-550663D01*
X-190094Y-551500D01*
X-187906D01*
X-185884Y-550663D01*
X-184337Y-549115D01*
X-183500Y-547094D01*
Y-544906D01*
X-184337Y-542884D01*
X-185884Y-541337D01*
X-187906Y-540500D01*
X-190094D01*
X-192115Y-541337D01*
X-193500Y-542722D01*
X-194884Y-541337D01*
X-196216Y-540786D01*
X-197136Y-538964D01*
X-197206Y-538500D01*
X-197079Y-538281D01*
X-196500Y-536119D01*
Y-533881D01*
X-197079Y-531719D01*
X-197294Y-531348D01*
X-196409Y-528880D01*
X-195884Y-528663D01*
X-194500Y-527278D01*
X-193116Y-528663D01*
X-191094Y-529500D01*
X-188906D01*
X-186884Y-528663D01*
X-185337Y-527116D01*
X-184500Y-525094D01*
Y-522906D01*
X-185337Y-520885D01*
X-186884Y-519337D01*
X-188906Y-518500D01*
D02*
G37*
G36*
X-293906D02*
X-296094D01*
X-298116Y-519337D01*
X-299500Y-520722D01*
X-300884Y-519337D01*
X-302906Y-518500D01*
X-305094D01*
X-307115Y-519337D01*
X-308663Y-520885D01*
X-308918Y-521500D01*
X-311082D01*
X-311337Y-520885D01*
X-312885Y-519337D01*
X-314906Y-518500D01*
X-317094D01*
X-319116Y-519337D01*
X-320500Y-520722D01*
X-321884Y-519337D01*
X-323906Y-518500D01*
X-326094D01*
X-328116Y-519337D01*
X-329663Y-520885D01*
X-330500Y-522906D01*
Y-525094D01*
X-329663Y-527116D01*
X-328116Y-528663D01*
X-326094Y-529500D01*
X-323906D01*
X-321884Y-528663D01*
X-320500Y-527278D01*
X-319116Y-528663D01*
X-318591Y-528880D01*
X-317706Y-531348D01*
X-317921Y-531719D01*
X-318500Y-533881D01*
Y-536119D01*
X-317921Y-538281D01*
X-317794Y-538500D01*
X-317864Y-538964D01*
X-318784Y-540786D01*
X-320116Y-541337D01*
X-321000Y-542222D01*
X-321884Y-541337D01*
X-323906Y-540500D01*
X-326094D01*
X-328116Y-541337D01*
X-329663Y-542884D01*
X-330500Y-544906D01*
Y-547094D01*
X-329663Y-549115D01*
X-328116Y-550663D01*
X-326094Y-551500D01*
X-323906D01*
X-321884Y-550663D01*
X-321000Y-549778D01*
X-320116Y-550663D01*
X-318094Y-551500D01*
X-315906D01*
X-313885Y-550663D01*
X-312337Y-549115D01*
X-311500Y-547094D01*
Y-545414D01*
X-311456Y-545194D01*
X-310000Y-544453D01*
X-308544Y-545194D01*
X-308500Y-545414D01*
Y-547094D01*
X-307663Y-549115D01*
X-306115Y-550663D01*
X-304094Y-551500D01*
X-301906D01*
X-299884Y-550663D01*
X-298500Y-549278D01*
X-297115Y-550663D01*
X-295094Y-551500D01*
X-292906D01*
X-290884Y-550663D01*
X-289337Y-549115D01*
X-288500Y-547094D01*
Y-544906D01*
X-289337Y-542884D01*
X-290884Y-541337D01*
X-292906Y-540500D01*
X-295094D01*
X-297115Y-541337D01*
X-298500Y-542722D01*
X-299884Y-541337D01*
X-301216Y-540786D01*
X-302136Y-538964D01*
X-302206Y-538500D01*
X-302079Y-538281D01*
X-301500Y-536119D01*
Y-533881D01*
X-302079Y-531719D01*
X-302294Y-531348D01*
X-301409Y-528880D01*
X-300884Y-528663D01*
X-299500Y-527278D01*
X-298116Y-528663D01*
X-296094Y-529500D01*
X-293906D01*
X-291884Y-528663D01*
X-290337Y-527116D01*
X-289500Y-525094D01*
Y-522906D01*
X-290337Y-520885D01*
X-291884Y-519337D01*
X-293906Y-518500D01*
D02*
G37*
G36*
X242094Y-518500D02*
X239906D01*
X237885Y-519337D01*
X236337Y-520885D01*
X235500Y-522906D01*
Y-525094D01*
X236337Y-527116D01*
X237885Y-528663D01*
X239906Y-529500D01*
X242094D01*
X244116Y-528663D01*
X245663Y-527116D01*
X246500Y-525094D01*
Y-522906D01*
X245663Y-520885D01*
X244116Y-519337D01*
X242094Y-518500D01*
D02*
G37*
G36*
X180094D02*
X177906D01*
X175884Y-519337D01*
X174337Y-520885D01*
X173500Y-522906D01*
Y-525094D01*
X174337Y-527116D01*
X175884Y-528663D01*
X177906Y-529500D01*
X180094D01*
X182115Y-528663D01*
X183663Y-527116D01*
X184500Y-525094D01*
Y-522906D01*
X183663Y-520885D01*
X182115Y-519337D01*
X180094Y-518500D01*
D02*
G37*
G36*
X293594Y-519500D02*
X291406D01*
X289384Y-520337D01*
X287837Y-521884D01*
X287000Y-523906D01*
Y-526094D01*
X287837Y-528116D01*
X289384Y-529663D01*
X291406Y-530500D01*
X293594D01*
X295616Y-529663D01*
X297163Y-528116D01*
X298000Y-526094D01*
Y-523906D01*
X297163Y-521884D01*
X295616Y-520337D01*
X293594Y-519500D01*
D02*
G37*
G36*
X129094D02*
X126906D01*
X124885Y-520337D01*
X123337Y-521884D01*
X122500Y-523906D01*
Y-526094D01*
X123337Y-528116D01*
X124885Y-529663D01*
X126906Y-530500D01*
X129094D01*
X131116Y-529663D01*
X132663Y-528116D01*
X133500Y-526094D01*
Y-523906D01*
X132663Y-521884D01*
X131116Y-520337D01*
X129094Y-519500D01*
D02*
G37*
G36*
X208594Y-516500D02*
X206406D01*
X204384Y-517337D01*
X202837Y-518885D01*
X202000Y-520906D01*
Y-523094D01*
X202837Y-525116D01*
X204384Y-526663D01*
X205989Y-527327D01*
X207500Y-528906D01*
Y-531094D01*
X208337Y-533116D01*
X209884Y-534663D01*
X211906Y-535500D01*
X214094D01*
X216115Y-534663D01*
X217663Y-533116D01*
X218500Y-531094D01*
Y-528906D01*
X217663Y-526884D01*
X216115Y-525337D01*
X214511Y-524673D01*
X213000Y-523094D01*
Y-520906D01*
X212163Y-518885D01*
X210616Y-517337D01*
X208594Y-516500D01*
D02*
G37*
G36*
X269094Y-530500D02*
X266906D01*
X264884Y-531337D01*
X263337Y-532884D01*
X262500Y-534906D01*
Y-537094D01*
X263337Y-539115D01*
X264884Y-540663D01*
X266906Y-541500D01*
X269094D01*
X271115Y-540663D01*
X272663Y-539115D01*
X273500Y-537094D01*
Y-534906D01*
X272663Y-532884D01*
X271115Y-531337D01*
X269094Y-530500D01*
D02*
G37*
G36*
X261094Y-82500D02*
X258906D01*
X256884Y-83337D01*
X255337Y-84885D01*
X254500Y-86906D01*
Y-89094D01*
X255337Y-91116D01*
X256884Y-92663D01*
X258906Y-93500D01*
X261094D01*
X263116Y-92663D01*
X264663Y-91116D01*
X265500Y-89094D01*
Y-86906D01*
X264663Y-84885D01*
X263116Y-83337D01*
X261094Y-82500D01*
D02*
G37*
G36*
X392194Y-94700D02*
X390006D01*
X387985Y-95537D01*
X386437Y-97085D01*
X385600Y-99106D01*
Y-101294D01*
X386437Y-103315D01*
X387985Y-104863D01*
X390006Y-105700D01*
X392194D01*
X394216Y-104863D01*
X395763Y-103315D01*
X396600Y-101294D01*
Y-99106D01*
X395763Y-97085D01*
X394216Y-95537D01*
X392194Y-94700D01*
D02*
G37*
G36*
X340294Y-94750D02*
X338106D01*
X336085Y-95587D01*
X334537Y-97135D01*
X333700Y-99156D01*
Y-101344D01*
X334537Y-103365D01*
X336085Y-104913D01*
X338106Y-105750D01*
X340294D01*
X342315Y-104913D01*
X343863Y-103365D01*
X344700Y-101344D01*
Y-99156D01*
X343863Y-97135D01*
X342315Y-95587D01*
X340294Y-94750D01*
D02*
G37*
G36*
X314894D02*
X312706D01*
X310685Y-95587D01*
X309137Y-97135D01*
X308300Y-99156D01*
Y-101344D01*
X309137Y-103365D01*
X310685Y-104913D01*
X312706Y-105750D01*
X314894D01*
X316915Y-104913D01*
X318463Y-103365D01*
X319300Y-101344D01*
Y-99156D01*
X318463Y-97135D01*
X316915Y-95587D01*
X314894Y-94750D01*
D02*
G37*
G36*
X261094Y-99000D02*
X258906D01*
X256884Y-99837D01*
X255337Y-101384D01*
X254500Y-103406D01*
Y-105594D01*
X255337Y-107615D01*
X256884Y-109163D01*
X258906Y-110000D01*
X261094D01*
X263116Y-109163D01*
X264663Y-107615D01*
X265500Y-105594D01*
Y-103406D01*
X264663Y-101384D01*
X263116Y-99837D01*
X261094Y-99000D01*
D02*
G37*
G36*
X437094Y-144500D02*
X434906D01*
X432884Y-145337D01*
X431337Y-146884D01*
X430500Y-148906D01*
Y-151094D01*
X431337Y-153116D01*
X432884Y-154663D01*
X434906Y-155500D01*
X437094D01*
X439115Y-154663D01*
X440663Y-153116D01*
X441500Y-151094D01*
Y-148906D01*
X440663Y-146884D01*
X439115Y-145337D01*
X437094Y-144500D01*
D02*
G37*
G36*
X289494Y-154250D02*
X287306D01*
X285285Y-155087D01*
X283737Y-156635D01*
X282900Y-158656D01*
Y-160844D01*
X283737Y-162866D01*
X285285Y-164413D01*
X287306Y-165250D01*
X289494D01*
X291515Y-164413D01*
X293063Y-162866D01*
X293900Y-160844D01*
Y-158656D01*
X293063Y-156635D01*
X291515Y-155087D01*
X289494Y-154250D01*
D02*
G37*
G36*
X261094Y-192500D02*
X258906D01*
X256884Y-193337D01*
X255337Y-194884D01*
X254500Y-196906D01*
Y-199094D01*
X255337Y-201115D01*
X256884Y-202663D01*
X258906Y-203500D01*
X261094D01*
X263116Y-202663D01*
X264663Y-201115D01*
X265500Y-199094D01*
Y-196906D01*
X264663Y-194884D01*
X263116Y-193337D01*
X261094Y-192500D01*
D02*
G37*
G36*
X387094Y-200500D02*
X384906D01*
X382884Y-201337D01*
X381337Y-202885D01*
X380500Y-204906D01*
Y-207094D01*
X381337Y-209116D01*
X382884Y-210663D01*
X384906Y-211500D01*
X387094D01*
X389115Y-210663D01*
X390663Y-209116D01*
X391500Y-207094D01*
Y-204906D01*
X390663Y-202885D01*
X389115Y-201337D01*
X387094Y-200500D01*
D02*
G37*
G36*
X261094Y-209000D02*
X258906D01*
X256884Y-209837D01*
X255337Y-211385D01*
X254500Y-213406D01*
Y-215594D01*
X255337Y-217616D01*
X256884Y-219163D01*
X258906Y-220000D01*
X261094D01*
X263116Y-219163D01*
X264663Y-217616D01*
X265500Y-215594D01*
Y-213406D01*
X264663Y-211385D01*
X263116Y-209837D01*
X261094Y-209000D01*
D02*
G37*
G36*
X387094Y-216500D02*
X384906D01*
X382884Y-217337D01*
X381337Y-218885D01*
X380500Y-220906D01*
Y-223094D01*
X381337Y-225116D01*
X382884Y-226663D01*
X384906Y-227500D01*
X387094D01*
X389115Y-226663D01*
X390663Y-225116D01*
X391500Y-223094D01*
Y-220906D01*
X390663Y-218885D01*
X389115Y-217337D01*
X387094Y-216500D01*
D02*
G37*
G36*
X261094Y-222000D02*
X258906D01*
X256884Y-222837D01*
X255337Y-224384D01*
X254500Y-226406D01*
Y-228594D01*
X255337Y-230616D01*
X256884Y-232163D01*
X258906Y-233000D01*
X261094D01*
X263116Y-232163D01*
X264663Y-230616D01*
X265500Y-228594D01*
Y-226406D01*
X264663Y-224384D01*
X263116Y-222837D01*
X261094Y-222000D01*
D02*
G37*
G36*
X281094Y-244500D02*
X278906D01*
X276884Y-245337D01*
X275337Y-246884D01*
X274500Y-248906D01*
Y-251094D01*
X275337Y-253116D01*
X276884Y-254663D01*
X278906Y-255500D01*
X281094D01*
X283116Y-254663D01*
X284663Y-253116D01*
X285500Y-251094D01*
Y-248906D01*
X284663Y-246884D01*
X283116Y-245337D01*
X281094Y-244500D01*
D02*
G37*
G36*
X232094Y-312000D02*
X229906D01*
X227885Y-312837D01*
X226337Y-314384D01*
X225500Y-316406D01*
Y-318594D01*
X226337Y-320616D01*
X227885Y-322163D01*
X229906Y-323000D01*
X232094D01*
X234116Y-322163D01*
X235663Y-320616D01*
X236500Y-318594D01*
Y-316406D01*
X235663Y-314384D01*
X234116Y-312837D01*
X232094Y-312000D01*
D02*
G37*
G36*
X216094Y-334500D02*
X213906D01*
X211884Y-335337D01*
X210337Y-336884D01*
X209500Y-338906D01*
Y-341094D01*
X210337Y-343116D01*
X211884Y-344663D01*
X213906Y-345500D01*
X216094D01*
X218116Y-344663D01*
X219663Y-343116D01*
X220500Y-341094D01*
Y-338906D01*
X219663Y-336884D01*
X218116Y-335337D01*
X216094Y-334500D01*
D02*
G37*
%LPD*%
D145*
X-370000Y-137500D02*
D03*
X-120000Y-235000D02*
D03*
Y-322500D02*
D03*
X-205000Y-485000D02*
D03*
X-310000D02*
D03*
X331500Y460000D02*
D03*
X169000D02*
D03*
D184*
X166800Y-557300D02*
D03*
X253200D02*
D03*
D185*
X166800Y-503700D02*
D03*
X253200D02*
D03*
D186*
X-406000Y-214000D02*
D03*
D187*
Y-264800D02*
D03*
D188*
X-370000Y-87500D02*
D03*
X-120000Y-185000D02*
D03*
Y-372500D02*
D03*
X-262500Y-45000D02*
D03*
X-212500Y62500D02*
D03*
X-205000Y-535000D02*
D03*
X-310000D02*
D03*
X331500Y410000D02*
D03*
X369000Y77500D02*
D03*
X169000Y410000D02*
D03*
X165000Y77000D02*
D03*
D189*
X-212500Y-45000D02*
D03*
X-262500Y62500D02*
D03*
X319000Y77500D02*
D03*
X115000Y77000D02*
D03*
D190*
X-259930Y537000D02*
D03*
X-285330D02*
D03*
X-344400D02*
D03*
X-369800D02*
D03*
X413000Y-387400D02*
D03*
Y-362000D02*
D03*
X-415000Y87400D02*
D03*
X-149000Y539000D02*
D03*
X-415000Y-389600D02*
D03*
D191*
X-234530Y537000D02*
D03*
X-319000D02*
D03*
X-174400Y539000D02*
D03*
D192*
X413000Y-412800D02*
D03*
X-415000Y62000D02*
D03*
Y-415000D02*
D03*
D193*
X0Y289700D02*
D03*
X-1000Y155800D02*
D03*
D194*
X0Y264300D02*
D03*
Y213500D02*
D03*
Y188100D02*
D03*
Y238900D02*
D03*
X-1000Y130400D02*
D03*
Y79600D02*
D03*
Y54200D02*
D03*
Y105000D02*
D03*
D196*
X335000Y-335530D02*
D03*
Y-439470D02*
D03*
D197*
X0Y0D02*
D03*
X417000Y-534000D02*
D03*
X-417000D02*
D03*
X417000Y534000D02*
D03*
X-417000Y534000D02*
D03*
D198*
X154000Y412000D02*
D03*
Y404000D02*
D03*
X35250Y347500D02*
D03*
X-124000Y193000D02*
D03*
X-134000Y184000D02*
D03*
X151596Y-317404D02*
D03*
X150904Y-335096D02*
D03*
X268000Y-536000D02*
D03*
X213000Y-530000D02*
D03*
X160000Y-476000D02*
D03*
X292500Y-525000D02*
D03*
X128000D02*
D03*
X179000Y-524000D02*
D03*
X241000D02*
D03*
X210200Y-487200D02*
D03*
X207500Y-522000D02*
D03*
X181500Y-434550D02*
D03*
X249000Y-476000D02*
D03*
Y-456000D02*
D03*
X223000Y-466000D02*
D03*
X253000Y-423000D02*
D03*
X222000Y-400550D02*
D03*
X195000Y-387550D02*
D03*
X317000Y60000D02*
D03*
X325000D02*
D03*
X317000Y52000D02*
D03*
X325000D02*
D03*
X317000Y44000D02*
D03*
X325000D02*
D03*
X317000Y36000D02*
D03*
X325000D02*
D03*
X121000Y42000D02*
D03*
X113000D02*
D03*
X121000Y50000D02*
D03*
X113000D02*
D03*
X121000Y58000D02*
D03*
X113000D02*
D03*
X121000Y66000D02*
D03*
X113000D02*
D03*
X58000Y-42500D02*
D03*
X67000D02*
D03*
X58000Y-61700D02*
D03*
X67000D02*
D03*
X49500Y-42500D02*
D03*
Y-61700D02*
D03*
X-119000Y36000D02*
D03*
X-224000Y136000D02*
D03*
X-214000Y127000D02*
D03*
X179500Y-387450D02*
D03*
X247500Y-387500D02*
D03*
X284200Y-332500D02*
D03*
X231000Y-317500D02*
D03*
X215000Y-340000D02*
D03*
Y-350000D02*
D03*
X308000Y-406000D02*
D03*
X308000Y-366800D02*
D03*
X280000Y-250000D02*
D03*
X260000Y-227500D02*
D03*
X355500Y-194500D02*
D03*
X436000Y-184000D02*
D03*
X288400Y-159750D02*
D03*
X386000Y-222000D02*
D03*
X386000Y-206000D02*
D03*
X436000Y-150000D02*
D03*
X391100Y-100200D02*
D03*
X340000Y-258800D02*
D03*
X314000Y-259000D02*
D03*
X339200Y-100250D02*
D03*
X313800D02*
D03*
X260000Y-214500D02*
D03*
Y-198000D02*
D03*
Y-88000D02*
D03*
Y-104500D02*
D03*
X274000Y-283000D02*
D03*
X272000Y-173000D02*
D03*
X219000Y-88000D02*
D03*
Y-198000D02*
D03*
X40500Y-42500D02*
D03*
Y-61700D02*
D03*
X80000Y-406700D02*
D03*
X89000D02*
D03*
X97500D02*
D03*
X106500D02*
D03*
Y-387500D02*
D03*
X97500D02*
D03*
X89000D02*
D03*
X80000D02*
D03*
X-206500Y73500D02*
D03*
X-218500D02*
D03*
X-227500D02*
D03*
Y51500D02*
D03*
X-219500D02*
D03*
X-205500D02*
D03*
X-197500Y73500D02*
D03*
X-196500Y51500D02*
D03*
X-256500Y-34000D02*
D03*
X-268500D02*
D03*
X-277500D02*
D03*
Y-56000D02*
D03*
X-269500D02*
D03*
X-255500D02*
D03*
X-247500Y-34000D02*
D03*
X-246500Y-56000D02*
D03*
X-364000Y-76500D02*
D03*
X-376000D02*
D03*
X-385000D02*
D03*
Y-98500D02*
D03*
X-377000D02*
D03*
X-363000D02*
D03*
X-355000Y-76500D02*
D03*
X-354000Y-98500D02*
D03*
X-114000Y-174000D02*
D03*
X-126000D02*
D03*
X-135000D02*
D03*
Y-196000D02*
D03*
X-127000D02*
D03*
X-113000D02*
D03*
X-105000Y-174000D02*
D03*
X-104000Y-196000D02*
D03*
X-114000Y-361500D02*
D03*
X-126000D02*
D03*
X-135000D02*
D03*
Y-383500D02*
D03*
X-127000D02*
D03*
X-113000D02*
D03*
X-105000Y-361500D02*
D03*
X-104000Y-383500D02*
D03*
X-199000Y-524000D02*
D03*
X-211000D02*
D03*
X-220000D02*
D03*
Y-546000D02*
D03*
X-212000D02*
D03*
X-198000D02*
D03*
X-190000Y-524000D02*
D03*
X-189000Y-546000D02*
D03*
X-304000Y-524000D02*
D03*
X-316000D02*
D03*
X-325000D02*
D03*
Y-546000D02*
D03*
X-317000D02*
D03*
X-303000D02*
D03*
X-295000Y-524000D02*
D03*
X-294000Y-546000D02*
D03*
X94000Y-340000D02*
D03*
Y-243000D02*
D03*
X189000Y312500D02*
D03*
X170750Y345000D02*
D03*
X183750D02*
D03*
X196750D02*
D03*
X209750D02*
D03*
X170750Y332000D02*
D03*
X183750D02*
D03*
X196750D02*
D03*
X209750D02*
D03*
X170750Y319000D02*
D03*
X183750D02*
D03*
X196750D02*
D03*
X209750D02*
D03*
X170750Y306000D02*
D03*
X183750D02*
D03*
X196750D02*
D03*
X209750D02*
D03*
X170750Y293000D02*
D03*
X183750D02*
D03*
X170750Y280000D02*
D03*
X183750D02*
D03*
X196750Y293000D02*
D03*
Y280000D02*
D03*
X209750Y293000D02*
D03*
Y280000D02*
D03*
X414000D02*
D03*
Y293000D02*
D03*
X401000Y280000D02*
D03*
Y293000D02*
D03*
X388000Y280000D02*
D03*
X375000D02*
D03*
X388000Y293000D02*
D03*
X375000D02*
D03*
X414000Y306000D02*
D03*
X401000D02*
D03*
X388000D02*
D03*
X375000D02*
D03*
X414000Y319000D02*
D03*
X401000D02*
D03*
X388000D02*
D03*
X375000D02*
D03*
X414000Y332000D02*
D03*
X401000D02*
D03*
X388000D02*
D03*
X375000D02*
D03*
X414000Y345000D02*
D03*
X401000D02*
D03*
X388000D02*
D03*
X375000D02*
D03*
X393250Y312500D02*
D03*
X385000Y66500D02*
D03*
X384000Y88500D02*
D03*
X376000Y66500D02*
D03*
X375000Y88500D02*
D03*
X171000Y88000D02*
D03*
X172000Y66000D02*
D03*
X180000Y88000D02*
D03*
X181000Y66000D02*
D03*
X279250Y315000D02*
D03*
Y307500D02*
D03*
Y277500D02*
D03*
X276750Y362500D02*
D03*
X258500Y159500D02*
D03*
X220500Y159500D02*
D03*
X-14500Y368500D02*
D03*
X25000Y394000D02*
D03*
X27500Y370500D02*
D03*
X44000Y356500D02*
D03*
X-37000Y229000D02*
D03*
X-62250Y279000D02*
D03*
Y316000D02*
D03*
X-96500Y137000D02*
D03*
X-135000D02*
D03*
X-214000Y136000D02*
D03*
X-14500Y384500D02*
D03*
X-15000Y330000D02*
D03*
X-15000Y315000D02*
D03*
X-28000Y180000D02*
D03*
X-62250Y306000D02*
D03*
X-106500Y137000D02*
D03*
X-111000Y301000D02*
D03*
X-229000Y183000D02*
D03*
X-276500Y166000D02*
D03*
X-350250Y193500D02*
D03*
Y183500D02*
D03*
X-285500Y196000D02*
D03*
Y226000D02*
D03*
Y206000D02*
D03*
Y216000D02*
D03*
X-285000Y256000D02*
D03*
Y281000D02*
D03*
X-404875Y307500D02*
D03*
X-229000Y312000D02*
D03*
X-224000Y363000D02*
D03*
X-213000D02*
D03*
X-196500D02*
D03*
X-183500D02*
D03*
X-234000Y353875D02*
D03*
X-291000Y402000D02*
D03*
X-281000Y451000D02*
D03*
X-237000Y261000D02*
D03*
Y211000D02*
D03*
X-309000Y214000D02*
D03*
X-299000Y273000D02*
D03*
X-285000Y266000D02*
D03*
Y291000D02*
D03*
X-291000Y427000D02*
D03*
X72500Y362500D02*
D03*
X75000Y277500D02*
D03*
Y307500D02*
D03*
Y315000D02*
D03*
X337500Y421000D02*
D03*
X325500D02*
D03*
X316500D02*
D03*
Y399000D02*
D03*
X324500D02*
D03*
X338500D02*
D03*
X346500Y421000D02*
D03*
X347500Y399000D02*
D03*
X184000Y413000D02*
D03*
Y421000D02*
D03*
Y404000D02*
D03*
X154000Y421000D02*
D03*
X163000D02*
D03*
X175000D02*
D03*
X59500Y543000D02*
D03*
X72500D02*
D03*
X33500D02*
D03*
X46500D02*
D03*
X-130000Y390000D02*
D03*
X-117000D02*
D03*
X-147000Y390000D02*
D03*
X-160000D02*
D03*
X-397000Y324500D02*
D03*
X-332000Y307500D02*
D03*
X-359042Y361684D02*
D03*
X54000Y385000D02*
D03*
X79000Y390000D02*
D03*
X-23500Y322500D02*
D03*
X-23500Y347000D02*
D03*
D199*
X178000Y-353000D02*
D03*
X335000Y-315000D02*
D03*
M02*
