G04*
G04 #@! TF.GenerationSoftware,Altium Limited,Altium Designer,23.3.1 (30)*
G04*
G04 Layer_Color=65535*
%FSLAX44Y44*%
%MOMM*%
G71*
G04*
G04 #@! TF.SameCoordinates,CE043AAA-0833-454A-BDF7-73AFAC6018A4*
G04*
G04*
G04 #@! TF.FilePolarity,Positive*
G04*
G01*
G75*
%ADD10C,0.3000*%
%ADD11C,0.1000*%
%ADD12C,0.1270*%
%ADD13C,0.2000*%
%ADD14C,0.1500*%
%ADD15C,0.2540*%
%ADD16C,0.6000*%
%ADD17C,0.2500*%
%ADD18C,0.1524*%
G36*
X276000Y496290D02*
X154000D01*
Y529710D01*
X276000D01*
Y496290D01*
D02*
G37*
G36*
X379000Y532290D02*
X154000D01*
Y565710D01*
X379000D01*
Y532290D01*
D02*
G37*
G36*
X233777Y10628D02*
X234147Y10554D01*
X234555Y10443D01*
X234999Y10220D01*
X235444Y9961D01*
X235888Y9591D01*
X235925Y9554D01*
X236073Y9406D01*
X236258Y9183D01*
X236444Y8850D01*
X236666Y8480D01*
X236814Y8036D01*
X236962Y7517D01*
X236999Y6962D01*
Y6924D01*
Y6850D01*
X236962Y6628D01*
X236851Y6295D01*
X236629Y5999D01*
X236555Y5962D01*
X236406Y5850D01*
X236110Y5739D01*
X235740Y5702D01*
X235666D01*
X235444Y5739D01*
X235184Y5814D01*
X234888Y5999D01*
X234814Y6073D01*
X234703Y6258D01*
X234592Y6554D01*
X234518Y6962D01*
Y6999D01*
Y7036D01*
X234481Y7221D01*
X234370Y7480D01*
X234147Y7776D01*
Y7813D01*
X234073Y7850D01*
X233888Y7998D01*
X233629Y8147D01*
X233444Y8221D01*
X229481D01*
Y-5556D01*
Y-5593D01*
Y-5667D01*
X229444Y-5889D01*
X229333Y-6185D01*
X229111Y-6482D01*
X229037Y-6519D01*
X228889Y-6630D01*
X228592Y-6741D01*
X228222Y-6778D01*
X228148D01*
X227926Y-6741D01*
X227667Y-6667D01*
X227370Y-6482D01*
X227296Y-6407D01*
X227185Y-6259D01*
X227074Y-5963D01*
X227000Y-5556D01*
Y9443D01*
Y9480D01*
X227037Y9628D01*
X227074Y9850D01*
X227148Y10072D01*
X227296Y10295D01*
X227519Y10517D01*
X227815Y10665D01*
X228222Y10702D01*
X233481D01*
X233777Y10628D01*
D02*
G37*
G36*
X270958Y10665D02*
X271255Y10554D01*
X271588Y10369D01*
X271662Y10295D01*
X271773Y10109D01*
X271884Y9850D01*
X271958Y9480D01*
X271884Y9035D01*
X266885Y-5926D01*
Y-5963D01*
X266848Y-6000D01*
X266774Y-6185D01*
X266625Y-6445D01*
X266440Y-6704D01*
X266403Y-6741D01*
X266255Y-6778D01*
X266033Y-6889D01*
X265737Y-7000D01*
X265626D01*
X265478Y-6926D01*
X265292Y-6852D01*
X265107Y-6741D01*
X264922Y-6556D01*
X264737Y-6296D01*
X264552Y-5926D01*
X259552Y9035D01*
X259478Y9480D01*
Y9517D01*
Y9554D01*
X259515Y9739D01*
X259626Y9998D01*
X259848Y10295D01*
Y10331D01*
X259923Y10369D01*
X260108Y10517D01*
X260367Y10628D01*
X260552Y10702D01*
X260959D01*
X261182Y10628D01*
X261404Y10554D01*
X261441Y10517D01*
X261552Y10406D01*
X261626Y10331D01*
X261700Y10183D01*
X261811Y10035D01*
X261922Y9813D01*
X265737Y-1593D01*
X269551Y9813D01*
Y9850D01*
X269588Y9887D01*
X269662Y10035D01*
X269810Y10258D01*
X269995Y10443D01*
X270070Y10480D01*
X270218Y10591D01*
X270440Y10665D01*
X270699Y10702D01*
X270773D01*
X270958Y10665D01*
D02*
G37*
G36*
X293660Y18405D02*
X293808Y18294D01*
X294030Y18183D01*
X294215Y17997D01*
X294400Y17738D01*
X294549Y17368D01*
X302029Y-5148D01*
X302103Y-5593D01*
Y-5630D01*
Y-5667D01*
X302066Y-5889D01*
X301918Y-6148D01*
X301844Y-6296D01*
X301696Y-6445D01*
X301622Y-6482D01*
X301437Y-6593D01*
X301140Y-6741D01*
X300807Y-6778D01*
X300659D01*
X300474Y-6741D01*
X300252Y-6667D01*
X300215Y-6630D01*
X300067Y-6519D01*
X299992Y-6445D01*
X299881Y-6296D01*
X299807Y-6148D01*
X299696Y-5926D01*
X297882Y-519D01*
X288808D01*
X286994Y-5926D01*
X286957Y-6000D01*
X286883Y-6148D01*
X286772Y-6370D01*
X286549Y-6593D01*
X286512Y-6630D01*
X286364Y-6667D01*
X286142Y-6741D01*
X285883Y-6778D01*
X285809D01*
X285586Y-6741D01*
X285290Y-6630D01*
X284994Y-6445D01*
X284920Y-6370D01*
X284809Y-6222D01*
X284661Y-5926D01*
X284624Y-5778D01*
X284587Y-5593D01*
X284661Y-5148D01*
X292178Y17368D01*
X292215Y17405D01*
X292253Y17553D01*
X292327Y17701D01*
X292475Y17923D01*
X292623Y18109D01*
X292845Y18294D01*
X293067Y18405D01*
X293363Y18442D01*
X293512D01*
X293660Y18405D01*
D02*
G37*
G36*
X278439Y-4334D02*
X278698Y-4445D01*
X278995Y-4667D01*
X279032D01*
X279069Y-4741D01*
X279217Y-4926D01*
X279365Y-5185D01*
X279439Y-5371D01*
Y-5556D01*
Y-5593D01*
Y-5630D01*
X279402Y-5815D01*
X279291Y-6111D01*
X279069Y-6407D01*
X278995Y-6482D01*
X278810Y-6593D01*
X278550Y-6704D01*
X278180Y-6778D01*
X278106D01*
X277884Y-6741D01*
X277587Y-6630D01*
X277291Y-6407D01*
X277254Y-6333D01*
X277143Y-6148D01*
X276995Y-5889D01*
X276958Y-5556D01*
Y-5519D01*
Y-5482D01*
X276995Y-5260D01*
X277106Y-4963D01*
X277291Y-4667D01*
X277365Y-4593D01*
X277550Y-4482D01*
X277810Y-4371D01*
X278180Y-4297D01*
X278254D01*
X278439Y-4334D01*
D02*
G37*
G36*
X249813Y10665D02*
X250220Y10628D01*
X250701Y10517D01*
X251220Y10331D01*
X251812Y10072D01*
X252405Y9702D01*
X252997Y9220D01*
X253071Y9147D01*
X253220Y8961D01*
X253479Y8665D01*
X253738Y8258D01*
X253997Y7739D01*
X254256Y7147D01*
X254405Y6443D01*
X254479Y5702D01*
Y1925D01*
Y1888D01*
Y1740D01*
X254405Y1555D01*
X254331Y1332D01*
X254182Y1073D01*
X253960Y888D01*
X253627Y740D01*
X253220Y703D01*
X244480D01*
Y-1815D01*
Y-1852D01*
Y-2000D01*
X244517Y-2186D01*
X244554Y-2408D01*
X244665Y-2704D01*
X244776Y-3000D01*
X244961Y-3297D01*
X245183Y-3593D01*
X245257Y-3630D01*
X245406Y-3778D01*
X245665Y-3963D01*
X245961Y-4148D01*
X245998D01*
X246072Y-4186D01*
X246294Y-4223D01*
X246628Y-4260D01*
X246961Y-4297D01*
X253294D01*
X253516Y-4334D01*
X253812Y-4482D01*
X253960Y-4556D01*
X254108Y-4704D01*
X254182Y-4778D01*
X254293Y-4963D01*
X254405Y-5222D01*
X254479Y-5556D01*
Y-5630D01*
X254442Y-5815D01*
X254331Y-6074D01*
X254145Y-6370D01*
X254108Y-6445D01*
X253923Y-6556D01*
X253627Y-6704D01*
X253442Y-6741D01*
X253220Y-6778D01*
X246776D01*
X246628Y-6741D01*
X246257Y-6704D01*
X245776Y-6593D01*
X245220Y-6407D01*
X244628Y-6185D01*
X244035Y-5815D01*
X243443Y-5333D01*
X243369Y-5260D01*
X243221Y-5074D01*
X242998Y-4778D01*
X242739Y-4334D01*
X242443Y-3852D01*
X242221Y-3223D01*
X242073Y-2556D01*
X241998Y-1815D01*
Y5702D01*
Y5739D01*
Y5776D01*
Y5888D01*
X242036Y6036D01*
X242073Y6406D01*
X242184Y6887D01*
X242332Y7443D01*
X242591Y7998D01*
X242924Y8628D01*
X243406Y9183D01*
X243480Y9258D01*
X243665Y9406D01*
X243961Y9665D01*
X244406Y9961D01*
X244924Y10220D01*
X245517Y10480D01*
X246220Y10628D01*
X246961Y10702D01*
X249664D01*
X249813Y10665D01*
D02*
G37*
G36*
X192768Y-41983D02*
X192898Y-42039D01*
X193046Y-42131D01*
X193065D01*
X193083Y-42150D01*
X193157Y-42242D01*
X193213Y-42391D01*
X193250Y-42483D01*
Y-42594D01*
Y-50093D01*
Y-50112D01*
Y-50149D01*
X193231Y-50260D01*
X193176Y-50408D01*
X193065Y-50556D01*
X193028Y-50575D01*
X192954Y-50630D01*
X192806Y-50686D01*
X192620Y-50705D01*
X192583D01*
X192472Y-50686D01*
X192343Y-50649D01*
X192194Y-50556D01*
X192157Y-50519D01*
X192102Y-50445D01*
X192046Y-50297D01*
X192009Y-50093D01*
Y-46946D01*
X188250D01*
Y-50093D01*
Y-50112D01*
Y-50149D01*
X188232Y-50260D01*
X188176Y-50408D01*
X188065Y-50556D01*
X188028Y-50575D01*
X187954Y-50630D01*
X187806Y-50686D01*
X187621Y-50705D01*
X187584D01*
X187473Y-50686D01*
X187343Y-50649D01*
X187195Y-50556D01*
X187158Y-50519D01*
X187102Y-50445D01*
X187047Y-50297D01*
X187010Y-50093D01*
Y-42594D01*
Y-42576D01*
Y-42557D01*
X187028Y-42446D01*
X187084Y-42298D01*
X187195Y-42131D01*
X187232Y-42113D01*
X187325Y-42039D01*
X187454Y-41983D01*
X187621Y-41965D01*
X187658D01*
X187769Y-41983D01*
X187899Y-42039D01*
X188047Y-42131D01*
X188065D01*
X188084Y-42150D01*
X188158Y-42242D01*
X188213Y-42391D01*
X188250Y-42483D01*
Y-42594D01*
Y-45705D01*
X192009D01*
Y-42594D01*
Y-42576D01*
Y-42557D01*
X192028Y-42446D01*
X192083Y-42298D01*
X192194Y-42131D01*
X192232Y-42113D01*
X192324Y-42039D01*
X192454Y-41983D01*
X192620Y-41965D01*
X192657D01*
X192768Y-41983D01*
D02*
G37*
G36*
X139385Y-41891D02*
X139515Y-41946D01*
X139589Y-42020D01*
X139626Y-42039D01*
Y-42057D01*
X139718Y-42224D01*
X139774Y-42391D01*
X139792Y-42465D01*
Y-42539D01*
Y-42576D01*
Y-42594D01*
Y-50093D01*
Y-50205D01*
X139755Y-50297D01*
X139700Y-50427D01*
X139626Y-50519D01*
X139607Y-50557D01*
X139589D01*
X139441Y-50649D01*
X139292Y-50686D01*
X139200Y-50705D01*
X139163D01*
X138978Y-50686D01*
X138830Y-50630D01*
X138756Y-50575D01*
X138719Y-50557D01*
X138626Y-50408D01*
X138570Y-50260D01*
X138552Y-50149D01*
Y-50112D01*
Y-50093D01*
Y-44539D01*
X136552Y-47335D01*
X136460Y-47446D01*
X136348Y-47520D01*
X136274Y-47575D01*
X136182Y-47612D01*
X136071Y-47649D01*
X136034D01*
X135941Y-47631D01*
X135848Y-47594D01*
X135682Y-47483D01*
X135552Y-47390D01*
X135534Y-47353D01*
X135515Y-47335D01*
X133534Y-44539D01*
Y-50093D01*
Y-50205D01*
X133497Y-50297D01*
X133441Y-50427D01*
X133367Y-50519D01*
X133349Y-50557D01*
X133330D01*
X133182Y-50649D01*
X133034Y-50686D01*
X132941Y-50705D01*
X132904D01*
X132719Y-50686D01*
X132571Y-50630D01*
X132497Y-50575D01*
X132460Y-50557D01*
X132367Y-50408D01*
X132312Y-50260D01*
X132293Y-50149D01*
Y-50112D01*
Y-50093D01*
Y-42594D01*
X132312Y-42372D01*
X132367Y-42206D01*
X132423Y-42094D01*
X132441Y-42057D01*
X132515Y-41983D01*
X132590Y-41946D01*
X132701Y-41872D01*
X132793Y-41854D01*
X132830D01*
X132960Y-41872D01*
X133071Y-41909D01*
X133256Y-42039D01*
X133330Y-42113D01*
X133386Y-42168D01*
X133404Y-42206D01*
X133423Y-42224D01*
X136034Y-45890D01*
X138645Y-42224D01*
X138756Y-42094D01*
X138867Y-42002D01*
X138978Y-41946D01*
X139052Y-41891D01*
X139126Y-41872D01*
X139181Y-41854D01*
X139311D01*
X139385Y-41891D01*
D02*
G37*
G36*
X240226Y-41983D02*
X240356Y-42039D01*
X240504Y-42131D01*
X240523D01*
X240541Y-42150D01*
X240615Y-42242D01*
X240671Y-42391D01*
X240708Y-42483D01*
Y-42594D01*
Y-50093D01*
Y-50112D01*
Y-50186D01*
X240671Y-50279D01*
X240634Y-50390D01*
X240560Y-50519D01*
X240449Y-50612D01*
X240282Y-50686D01*
X240078Y-50705D01*
X236856D01*
X236782Y-50686D01*
X236597Y-50668D01*
X236357Y-50612D01*
X236079Y-50519D01*
X235801Y-50408D01*
X235505Y-50223D01*
X235208Y-49982D01*
X235172Y-49945D01*
X235097Y-49853D01*
X234968Y-49705D01*
X234838Y-49482D01*
X234709Y-49242D01*
X234579Y-48927D01*
X234505Y-48594D01*
X234468Y-48223D01*
Y-42594D01*
Y-42576D01*
Y-42557D01*
X234486Y-42446D01*
X234542Y-42298D01*
X234653Y-42131D01*
X234690Y-42113D01*
X234783Y-42039D01*
X234912Y-41983D01*
X235079Y-41965D01*
X235116D01*
X235227Y-41983D01*
X235357Y-42039D01*
X235505Y-42131D01*
X235523D01*
X235542Y-42150D01*
X235616Y-42242D01*
X235671Y-42391D01*
X235709Y-42483D01*
Y-42594D01*
Y-48223D01*
Y-48242D01*
Y-48316D01*
X235727Y-48408D01*
X235746Y-48520D01*
X235801Y-48668D01*
X235857Y-48816D01*
X235949Y-48964D01*
X236060Y-49112D01*
X236097Y-49131D01*
X236190Y-49205D01*
X236320Y-49297D01*
X236468Y-49390D01*
X236486D01*
X236505Y-49408D01*
X236634Y-49427D01*
X236782Y-49445D01*
X236949Y-49464D01*
X239467D01*
Y-42594D01*
Y-42576D01*
Y-42557D01*
X239486Y-42446D01*
X239541Y-42298D01*
X239653Y-42131D01*
X239690Y-42113D01*
X239782Y-42039D01*
X239912Y-41983D01*
X240078Y-41965D01*
X240115D01*
X240226Y-41983D01*
D02*
G37*
G36*
X231487D02*
X231616Y-42039D01*
X231764Y-42131D01*
X231783D01*
X231801Y-42150D01*
X231875Y-42242D01*
X231931Y-42391D01*
X231968Y-42483D01*
Y-42594D01*
Y-50093D01*
Y-50112D01*
Y-50186D01*
X231931Y-50279D01*
X231894Y-50390D01*
X231820Y-50519D01*
X231709Y-50612D01*
X231542Y-50686D01*
X231339Y-50705D01*
X228117D01*
X228043Y-50686D01*
X227857Y-50668D01*
X227617Y-50612D01*
X227339Y-50519D01*
X227061Y-50408D01*
X226765Y-50223D01*
X226469Y-49982D01*
X226432Y-49945D01*
X226358Y-49853D01*
X226228Y-49705D01*
X226098Y-49482D01*
X225969Y-49242D01*
X225839Y-48927D01*
X225765Y-48594D01*
X225728Y-48223D01*
Y-42594D01*
Y-42576D01*
Y-42557D01*
X225746Y-42446D01*
X225802Y-42298D01*
X225913Y-42131D01*
X225950Y-42113D01*
X226043Y-42039D01*
X226172Y-41983D01*
X226339Y-41965D01*
X226376D01*
X226487Y-41983D01*
X226617Y-42039D01*
X226765Y-42131D01*
X226784D01*
X226802Y-42150D01*
X226876Y-42242D01*
X226932Y-42391D01*
X226969Y-42483D01*
Y-42594D01*
Y-48223D01*
Y-48242D01*
Y-48316D01*
X226987Y-48408D01*
X227006Y-48520D01*
X227061Y-48668D01*
X227117Y-48816D01*
X227209Y-48964D01*
X227320Y-49112D01*
X227358Y-49131D01*
X227450Y-49205D01*
X227580Y-49297D01*
X227728Y-49390D01*
X227746D01*
X227765Y-49408D01*
X227894Y-49427D01*
X228043Y-49445D01*
X228209Y-49464D01*
X230728D01*
Y-42594D01*
Y-42576D01*
Y-42557D01*
X230746Y-42446D01*
X230802Y-42298D01*
X230913Y-42131D01*
X230950Y-42113D01*
X231042Y-42039D01*
X231172Y-41983D01*
X231339Y-41965D01*
X231376D01*
X231487Y-41983D01*
D02*
G37*
G36*
X221488D02*
X221617Y-42039D01*
X221765Y-42131D01*
X221784D01*
X221803Y-42150D01*
X221877Y-42242D01*
X221932Y-42391D01*
X221969Y-42483D01*
Y-42594D01*
Y-49464D01*
X222691D01*
X222802Y-49501D01*
X222913Y-49538D01*
X223025Y-49612D01*
X223136Y-49723D01*
X223210Y-49890D01*
X223228Y-50093D01*
Y-51205D01*
Y-51223D01*
Y-51242D01*
X223210Y-51353D01*
X223136Y-51501D01*
X223099Y-51575D01*
X223025Y-51649D01*
X222988Y-51686D01*
X222895Y-51741D01*
X222765Y-51797D01*
X222599Y-51834D01*
X222562D01*
X222469Y-51816D01*
X222339Y-51760D01*
X222191Y-51667D01*
X222154Y-51630D01*
X222099Y-51556D01*
X222025Y-51408D01*
X222006Y-51316D01*
X221988Y-51205D01*
Y-50705D01*
X218136D01*
X218062Y-50686D01*
X217877Y-50668D01*
X217636Y-50612D01*
X217358Y-50519D01*
X217062Y-50408D01*
X216766Y-50223D01*
X216470Y-49982D01*
X216433Y-49945D01*
X216359Y-49853D01*
X216229Y-49705D01*
X216099Y-49482D01*
X215970Y-49242D01*
X215840Y-48927D01*
X215766Y-48594D01*
X215729Y-48223D01*
Y-42594D01*
Y-42576D01*
Y-42557D01*
X215748Y-42446D01*
X215803Y-42298D01*
X215914Y-42131D01*
X215951Y-42113D01*
X216044Y-42039D01*
X216173Y-41983D01*
X216340Y-41965D01*
X216377D01*
X216488Y-41983D01*
X216618Y-42039D01*
X216766Y-42131D01*
X216784D01*
X216803Y-42150D01*
X216877Y-42242D01*
X216933Y-42391D01*
X216970Y-42483D01*
Y-42594D01*
Y-48223D01*
Y-48242D01*
Y-48316D01*
X216988Y-48408D01*
X217007Y-48520D01*
X217062Y-48668D01*
X217118Y-48816D01*
X217210Y-48964D01*
X217321Y-49112D01*
X217358Y-49131D01*
X217451Y-49205D01*
X217581Y-49297D01*
X217729Y-49390D01*
X217747D01*
X217766Y-49408D01*
X217896Y-49427D01*
X218044Y-49445D01*
X218210Y-49464D01*
X220728D01*
Y-42594D01*
Y-42576D01*
Y-42557D01*
X220747Y-42446D01*
X220803Y-42298D01*
X220914Y-42131D01*
X220951Y-42113D01*
X221043Y-42039D01*
X221173Y-41983D01*
X221340Y-41965D01*
X221377D01*
X221488Y-41983D01*
D02*
G37*
G36*
X175289D02*
X175418Y-42039D01*
X175567Y-42131D01*
X175585D01*
X175604Y-42150D01*
X175678Y-42242D01*
X175733Y-42391D01*
X175770Y-42483D01*
Y-42594D01*
Y-50093D01*
Y-50112D01*
Y-50186D01*
X175733Y-50279D01*
X175696Y-50390D01*
X175622Y-50519D01*
X175511Y-50612D01*
X175344Y-50686D01*
X175141Y-50705D01*
X171919D01*
X171845Y-50686D01*
X171660Y-50668D01*
X171419Y-50612D01*
X171141Y-50519D01*
X170863Y-50408D01*
X170567Y-50223D01*
X170271Y-49982D01*
X170234Y-49945D01*
X170160Y-49853D01*
X170030Y-49705D01*
X169900Y-49482D01*
X169771Y-49242D01*
X169641Y-48927D01*
X169567Y-48594D01*
X169530Y-48223D01*
Y-42594D01*
Y-42576D01*
Y-42557D01*
X169549Y-42446D01*
X169604Y-42298D01*
X169715Y-42131D01*
X169752Y-42113D01*
X169845Y-42039D01*
X169974Y-41983D01*
X170141Y-41965D01*
X170178D01*
X170289Y-41983D01*
X170419Y-42039D01*
X170567Y-42131D01*
X170586D01*
X170604Y-42150D01*
X170678Y-42242D01*
X170734Y-42391D01*
X170771Y-42483D01*
Y-42594D01*
Y-48223D01*
Y-48242D01*
Y-48316D01*
X170789Y-48408D01*
X170808Y-48520D01*
X170863Y-48668D01*
X170919Y-48816D01*
X171012Y-48964D01*
X171123Y-49112D01*
X171160Y-49131D01*
X171252Y-49205D01*
X171382Y-49297D01*
X171530Y-49390D01*
X171549D01*
X171567Y-49408D01*
X171697Y-49427D01*
X171845Y-49445D01*
X172011Y-49464D01*
X174530D01*
Y-42594D01*
Y-42576D01*
Y-42557D01*
X174548Y-42446D01*
X174604Y-42298D01*
X174715Y-42131D01*
X174752Y-42113D01*
X174844Y-42039D01*
X174974Y-41983D01*
X175141Y-41965D01*
X175178D01*
X175289Y-41983D01*
D02*
G37*
G36*
X101833Y-41983D02*
X101963Y-42039D01*
X102111Y-42131D01*
X102130D01*
X102148Y-42150D01*
X102222Y-42242D01*
X102278Y-42391D01*
X102315Y-42483D01*
Y-42594D01*
Y-50093D01*
Y-50112D01*
Y-50186D01*
X102278Y-50279D01*
X102241Y-50390D01*
X102167Y-50519D01*
X102056Y-50612D01*
X101889Y-50686D01*
X101685Y-50705D01*
X98463D01*
X98389Y-50686D01*
X98204Y-50668D01*
X97963Y-50612D01*
X97686Y-50519D01*
X97408Y-50408D01*
X97112Y-50223D01*
X96816Y-49983D01*
X96778Y-49945D01*
X96704Y-49853D01*
X96575Y-49705D01*
X96445Y-49482D01*
X96315Y-49242D01*
X96186Y-48927D01*
X96112Y-48594D01*
X96075Y-48223D01*
Y-42594D01*
Y-42576D01*
Y-42557D01*
X96093Y-42446D01*
X96149Y-42298D01*
X96260Y-42131D01*
X96297Y-42113D01*
X96390Y-42039D01*
X96519Y-41983D01*
X96686Y-41965D01*
X96723D01*
X96834Y-41983D01*
X96964Y-42039D01*
X97112Y-42131D01*
X97130D01*
X97149Y-42150D01*
X97223Y-42242D01*
X97278Y-42391D01*
X97315Y-42483D01*
Y-42594D01*
Y-48223D01*
Y-48242D01*
Y-48316D01*
X97334Y-48408D01*
X97352Y-48520D01*
X97408Y-48668D01*
X97464Y-48816D01*
X97556Y-48964D01*
X97667Y-49112D01*
X97704Y-49131D01*
X97797Y-49205D01*
X97926Y-49297D01*
X98075Y-49390D01*
X98093D01*
X98112Y-49408D01*
X98241Y-49427D01*
X98389Y-49446D01*
X98556Y-49464D01*
X101074D01*
Y-42594D01*
Y-42576D01*
Y-42557D01*
X101093Y-42446D01*
X101148Y-42298D01*
X101259Y-42131D01*
X101297Y-42113D01*
X101389Y-42039D01*
X101519Y-41983D01*
X101685Y-41965D01*
X101722D01*
X101833Y-41983D01*
D02*
G37*
G36*
X212803Y-42002D02*
X212915Y-42039D01*
X213026Y-42113D01*
X213137Y-42224D01*
X213211Y-42391D01*
X213229Y-42594D01*
Y-48205D01*
Y-48223D01*
Y-48260D01*
X213248Y-48334D01*
X213266Y-48446D01*
X213340Y-48686D01*
X213396Y-48816D01*
X213470Y-48964D01*
X213489Y-48983D01*
X213507Y-49020D01*
X213563Y-49094D01*
X213618Y-49168D01*
X213711Y-49260D01*
X213822Y-49353D01*
X213951Y-49445D01*
X214100Y-49520D01*
X214118D01*
X214155Y-49556D01*
X214229Y-49594D01*
X214303Y-49649D01*
X214359Y-49723D01*
X214433Y-49816D01*
X214470Y-49927D01*
X214488Y-50075D01*
Y-50093D01*
Y-50112D01*
X214470Y-50242D01*
X214414Y-50371D01*
X214303Y-50519D01*
X214266Y-50556D01*
X214192Y-50612D01*
X214044Y-50668D01*
X213859Y-50705D01*
X213785D01*
X213692Y-50686D01*
X213600Y-50649D01*
X213581Y-50630D01*
X213507Y-50594D01*
X213377Y-50538D01*
X213248Y-50464D01*
X213081Y-50353D01*
X212915Y-50223D01*
X212748Y-50075D01*
X212600Y-49890D01*
X212581Y-49908D01*
X212544Y-49945D01*
X212470Y-50019D01*
X212378Y-50093D01*
X212267Y-50186D01*
X212118Y-50279D01*
X211952Y-50390D01*
X211766Y-50482D01*
X211748D01*
X211674Y-50519D01*
X211581Y-50556D01*
X211452Y-50594D01*
X211285Y-50630D01*
X211118Y-50668D01*
X210915Y-50686D01*
X210730Y-50705D01*
X209378D01*
X209304Y-50686D01*
X209119Y-50668D01*
X208878Y-50612D01*
X208600Y-50519D01*
X208322Y-50408D01*
X208026Y-50223D01*
X207730Y-49982D01*
X207693Y-49945D01*
X207619Y-49853D01*
X207489Y-49705D01*
X207360Y-49482D01*
X207230Y-49242D01*
X207100Y-48927D01*
X207026Y-48594D01*
X206989Y-48223D01*
Y-44465D01*
Y-44446D01*
Y-44409D01*
Y-44372D01*
X207008Y-44298D01*
X207026Y-44094D01*
X207082Y-43853D01*
X207174Y-43576D01*
X207285Y-43279D01*
X207471Y-42983D01*
X207711Y-42705D01*
X207748Y-42668D01*
X207841Y-42594D01*
X207989Y-42465D01*
X208211Y-42335D01*
X208452Y-42206D01*
X208767Y-42076D01*
X209100Y-42002D01*
X209470Y-41965D01*
X212692D01*
X212803Y-42002D01*
D02*
G37*
G36*
X202138Y-41983D02*
X202342Y-42002D01*
X202582Y-42057D01*
X202841Y-42150D01*
X203138Y-42280D01*
X203434Y-42465D01*
X203730Y-42705D01*
X203767Y-42742D01*
X203841Y-42835D01*
X203971Y-42983D01*
X204101Y-43187D01*
X204230Y-43446D01*
X204360Y-43742D01*
X204434Y-44094D01*
X204471Y-44465D01*
Y-50093D01*
Y-50112D01*
Y-50149D01*
X204452Y-50260D01*
X204397Y-50408D01*
X204286Y-50556D01*
X204249Y-50575D01*
X204175Y-50630D01*
X204027Y-50686D01*
X203841Y-50705D01*
X203804D01*
X203693Y-50686D01*
X203564Y-50649D01*
X203416Y-50556D01*
X203379Y-50519D01*
X203323Y-50445D01*
X203267Y-50297D01*
X203230Y-50093D01*
Y-44465D01*
Y-44446D01*
Y-44372D01*
X203212Y-44279D01*
X203193Y-44150D01*
X203138Y-44020D01*
X203082Y-43872D01*
X202990Y-43724D01*
X202860Y-43576D01*
X202841Y-43557D01*
X202805Y-43520D01*
X202712Y-43465D01*
X202619Y-43390D01*
X202490Y-43316D01*
X202342Y-43261D01*
X202156Y-43224D01*
X201971Y-43205D01*
X200731D01*
Y-50093D01*
Y-50112D01*
Y-50149D01*
X200712Y-50260D01*
X200657Y-50408D01*
X200545Y-50556D01*
X200508Y-50575D01*
X200434Y-50630D01*
X200286Y-50686D01*
X200101Y-50705D01*
X200064D01*
X199953Y-50686D01*
X199823Y-50649D01*
X199675Y-50556D01*
X199638Y-50519D01*
X199583Y-50445D01*
X199527Y-50297D01*
X199490Y-50093D01*
Y-43205D01*
X196990D01*
Y-50093D01*
Y-50112D01*
Y-50149D01*
X196972Y-50260D01*
X196916Y-50408D01*
X196805Y-50556D01*
X196768Y-50575D01*
X196694Y-50630D01*
X196546Y-50686D01*
X196361Y-50705D01*
X196324D01*
X196213Y-50686D01*
X196083Y-50649D01*
X195935Y-50556D01*
X195898Y-50519D01*
X195842Y-50445D01*
X195787Y-50297D01*
X195750Y-50093D01*
Y-42594D01*
Y-42576D01*
X195768Y-42502D01*
X195787Y-42391D01*
X195824Y-42280D01*
X195898Y-42168D01*
X196009Y-42057D01*
X196157Y-41983D01*
X196361Y-41965D01*
X202064D01*
X202138Y-41983D01*
D02*
G37*
G36*
X182177D02*
X182381Y-42002D01*
X182621Y-42057D01*
X182881Y-42150D01*
X183177Y-42280D01*
X183473Y-42465D01*
X183769Y-42705D01*
X183806Y-42742D01*
X183881Y-42835D01*
X184010Y-42983D01*
X184140Y-43187D01*
X184269Y-43446D01*
X184399Y-43742D01*
X184473Y-44094D01*
X184510Y-44465D01*
Y-46353D01*
Y-46372D01*
Y-46446D01*
X184473Y-46538D01*
X184436Y-46649D01*
X184362Y-46779D01*
X184251Y-46872D01*
X184084Y-46946D01*
X183881Y-46964D01*
X179511D01*
Y-48223D01*
Y-48242D01*
Y-48316D01*
X179529Y-48408D01*
X179548Y-48520D01*
X179603Y-48668D01*
X179659Y-48816D01*
X179751Y-48964D01*
X179862Y-49112D01*
X179899Y-49131D01*
X179974Y-49205D01*
X180103Y-49297D01*
X180251Y-49390D01*
X180270D01*
X180307Y-49408D01*
X180418Y-49427D01*
X180585Y-49445D01*
X180751Y-49464D01*
X183918D01*
X184029Y-49482D01*
X184177Y-49556D01*
X184251Y-49594D01*
X184325Y-49668D01*
X184362Y-49705D01*
X184417Y-49797D01*
X184473Y-49927D01*
X184510Y-50093D01*
Y-50131D01*
X184492Y-50223D01*
X184436Y-50353D01*
X184343Y-50501D01*
X184325Y-50538D01*
X184232Y-50594D01*
X184084Y-50668D01*
X183992Y-50686D01*
X183881Y-50705D01*
X180659D01*
X180585Y-50686D01*
X180399Y-50668D01*
X180159Y-50612D01*
X179881Y-50519D01*
X179585Y-50408D01*
X179288Y-50223D01*
X178992Y-49982D01*
X178955Y-49945D01*
X178881Y-49853D01*
X178770Y-49705D01*
X178640Y-49482D01*
X178492Y-49242D01*
X178381Y-48927D01*
X178307Y-48594D01*
X178270Y-48223D01*
Y-44465D01*
Y-44446D01*
Y-44427D01*
Y-44372D01*
X178288Y-44298D01*
X178307Y-44113D01*
X178363Y-43872D01*
X178437Y-43594D01*
X178566Y-43316D01*
X178733Y-43002D01*
X178974Y-42724D01*
X179011Y-42687D01*
X179103Y-42613D01*
X179251Y-42483D01*
X179474Y-42335D01*
X179733Y-42206D01*
X180029Y-42076D01*
X180381Y-42002D01*
X180751Y-41965D01*
X182103D01*
X182177Y-41983D01*
D02*
G37*
G36*
X154958Y-38224D02*
X155161Y-38243D01*
X155402Y-38298D01*
X155680Y-38391D01*
X155976Y-38521D01*
X156272Y-38706D01*
X156550Y-38947D01*
X156587Y-38984D01*
X156661Y-39076D01*
X156791Y-39243D01*
X156920Y-39446D01*
X157050Y-39706D01*
X157180Y-40002D01*
X157254Y-40335D01*
X157291Y-40706D01*
Y-48205D01*
Y-48223D01*
Y-48242D01*
Y-48297D01*
X157272Y-48372D01*
X157254Y-48575D01*
X157198Y-48816D01*
X157106Y-49094D01*
X156976Y-49390D01*
X156791Y-49686D01*
X156550Y-49983D01*
X156513Y-50019D01*
X156420Y-50093D01*
X156254Y-50205D01*
X156050Y-50334D01*
X155791Y-50482D01*
X155495Y-50594D01*
X155161Y-50668D01*
X154791Y-50705D01*
X152199D01*
X152125Y-50686D01*
X151939Y-50668D01*
X151699Y-50612D01*
X151421Y-50519D01*
X151125Y-50408D01*
X150828Y-50223D01*
X150532Y-49983D01*
X150495Y-49945D01*
X150421Y-49853D01*
X150291Y-49705D01*
X150162Y-49482D01*
X150032Y-49223D01*
X149902Y-48927D01*
X149829Y-48575D01*
X149791Y-48205D01*
Y-40706D01*
Y-40687D01*
Y-40650D01*
Y-40613D01*
X149810Y-40539D01*
X149829Y-40335D01*
X149884Y-40095D01*
X149977Y-39817D01*
X150088Y-39521D01*
X150273Y-39224D01*
X150514Y-38947D01*
X150551Y-38909D01*
X150643Y-38835D01*
X150791Y-38706D01*
X151013Y-38576D01*
X151273Y-38447D01*
X151569Y-38317D01*
X151921Y-38243D01*
X152291Y-38206D01*
X154883D01*
X154958Y-38224D01*
D02*
G37*
G36*
X127460Y-41983D02*
X127664Y-42002D01*
X127905Y-42057D01*
X128164Y-42150D01*
X128460Y-42280D01*
X128757Y-42465D01*
X129053Y-42705D01*
X129090Y-42743D01*
X129164Y-42835D01*
X129294Y-42983D01*
X129423Y-43187D01*
X129553Y-43446D01*
X129682Y-43742D01*
X129756Y-44094D01*
X129794Y-44465D01*
Y-46353D01*
Y-46372D01*
Y-46446D01*
X129756Y-46538D01*
X129719Y-46649D01*
X129645Y-46779D01*
X129534Y-46872D01*
X129368Y-46946D01*
X129164Y-46964D01*
X124794D01*
Y-48223D01*
Y-48242D01*
Y-48316D01*
X124813Y-48408D01*
X124831Y-48520D01*
X124887Y-48668D01*
X124942Y-48816D01*
X125035Y-48964D01*
X125146Y-49112D01*
X125183Y-49131D01*
X125257Y-49205D01*
X125387Y-49297D01*
X125535Y-49390D01*
X125553D01*
X125590Y-49408D01*
X125701Y-49427D01*
X125868Y-49446D01*
X126035Y-49464D01*
X129201D01*
X129312Y-49482D01*
X129460Y-49557D01*
X129534Y-49594D01*
X129608Y-49668D01*
X129645Y-49705D01*
X129701Y-49797D01*
X129756Y-49927D01*
X129794Y-50093D01*
Y-50131D01*
X129775Y-50223D01*
X129719Y-50353D01*
X129627Y-50501D01*
X129608Y-50538D01*
X129516Y-50594D01*
X129368Y-50668D01*
X129275Y-50686D01*
X129164Y-50705D01*
X125942D01*
X125868Y-50686D01*
X125683Y-50668D01*
X125442Y-50612D01*
X125164Y-50519D01*
X124868Y-50408D01*
X124572Y-50223D01*
X124276Y-49983D01*
X124239Y-49945D01*
X124164Y-49853D01*
X124053Y-49705D01*
X123924Y-49482D01*
X123776Y-49242D01*
X123665Y-48927D01*
X123590Y-48594D01*
X123553Y-48223D01*
Y-44465D01*
Y-44446D01*
Y-44427D01*
Y-44372D01*
X123572Y-44298D01*
X123590Y-44113D01*
X123646Y-43872D01*
X123720Y-43594D01*
X123850Y-43316D01*
X124016Y-43002D01*
X124257Y-42724D01*
X124294Y-42687D01*
X124387Y-42613D01*
X124535Y-42483D01*
X124757Y-42335D01*
X125016Y-42206D01*
X125312Y-42076D01*
X125664Y-42002D01*
X126035Y-41965D01*
X127386D01*
X127460Y-41983D01*
D02*
G37*
G36*
X118702D02*
X118906Y-42002D01*
X119146Y-42057D01*
X119406Y-42150D01*
X119702Y-42280D01*
X119998Y-42465D01*
X120295Y-42705D01*
X120331Y-42743D01*
X120406Y-42835D01*
X120535Y-42983D01*
X120665Y-43187D01*
X120794Y-43446D01*
X120924Y-43742D01*
X120998Y-44094D01*
X121035Y-44465D01*
Y-50093D01*
Y-50112D01*
Y-50149D01*
X121017Y-50260D01*
X120961Y-50408D01*
X120850Y-50557D01*
X120813Y-50575D01*
X120739Y-50630D01*
X120591Y-50686D01*
X120406Y-50705D01*
X120369D01*
X120258Y-50686D01*
X120128Y-50649D01*
X119980Y-50557D01*
X119943Y-50519D01*
X119887Y-50445D01*
X119832Y-50297D01*
X119795Y-50093D01*
Y-44465D01*
Y-44446D01*
Y-44372D01*
X119776Y-44279D01*
X119757Y-44150D01*
X119702Y-44020D01*
X119646Y-43872D01*
X119554Y-43724D01*
X119424Y-43576D01*
X119406Y-43557D01*
X119369Y-43520D01*
X119276Y-43465D01*
X119184Y-43390D01*
X119054Y-43316D01*
X118906Y-43261D01*
X118721Y-43224D01*
X118535Y-43205D01*
X117295D01*
Y-50093D01*
Y-50112D01*
Y-50149D01*
X117276Y-50260D01*
X117221Y-50408D01*
X117110Y-50557D01*
X117073Y-50575D01*
X116999Y-50630D01*
X116850Y-50686D01*
X116665Y-50705D01*
X116628D01*
X116517Y-50686D01*
X116388Y-50649D01*
X116239Y-50557D01*
X116202Y-50519D01*
X116147Y-50445D01*
X116091Y-50297D01*
X116054Y-50093D01*
Y-43205D01*
X113554D01*
Y-50093D01*
Y-50112D01*
Y-50149D01*
X113536Y-50260D01*
X113480Y-50408D01*
X113369Y-50557D01*
X113332Y-50575D01*
X113258Y-50630D01*
X113110Y-50686D01*
X112925Y-50705D01*
X112888D01*
X112777Y-50686D01*
X112647Y-50649D01*
X112499Y-50557D01*
X112462Y-50519D01*
X112406Y-50445D01*
X112351Y-50297D01*
X112314Y-50093D01*
Y-42594D01*
Y-42576D01*
X112332Y-42502D01*
X112351Y-42391D01*
X112388Y-42280D01*
X112462Y-42168D01*
X112573Y-42057D01*
X112721Y-41983D01*
X112925Y-41965D01*
X118628D01*
X118702Y-41983D01*
D02*
G37*
G36*
X109333D02*
X109481Y-42057D01*
X109555Y-42094D01*
X109629Y-42168D01*
X109666Y-42206D01*
X109721Y-42298D01*
X109777Y-42428D01*
X109814Y-42594D01*
Y-42631D01*
X109796Y-42724D01*
X109740Y-42854D01*
X109648Y-43002D01*
X109629Y-43039D01*
X109536Y-43094D01*
X109388Y-43168D01*
X109296Y-43187D01*
X109185Y-43205D01*
X107203D01*
X107111Y-43224D01*
X107000Y-43242D01*
X106852Y-43298D01*
X106703Y-43354D01*
X106555Y-43446D01*
X106407Y-43576D01*
X106370Y-43613D01*
X106296Y-43687D01*
X106203Y-43816D01*
X106129Y-43983D01*
Y-44002D01*
X106111Y-44020D01*
X106092Y-44131D01*
X106074Y-44279D01*
X106055Y-44465D01*
Y-48223D01*
Y-48242D01*
Y-48316D01*
X106074Y-48408D01*
X106092Y-48520D01*
X106148Y-48668D01*
X106203Y-48816D01*
X106296Y-48964D01*
X106407Y-49112D01*
X106444Y-49131D01*
X106537Y-49205D01*
X106666Y-49297D01*
X106814Y-49390D01*
X106833D01*
X106852Y-49408D01*
X106981Y-49427D01*
X107129Y-49446D01*
X107296Y-49464D01*
X109222D01*
X109333Y-49482D01*
X109481Y-49557D01*
X109555Y-49594D01*
X109629Y-49668D01*
X109666Y-49705D01*
X109721Y-49797D01*
X109777Y-49927D01*
X109814Y-50093D01*
Y-50131D01*
X109796Y-50223D01*
X109740Y-50353D01*
X109648Y-50501D01*
X109629Y-50538D01*
X109536Y-50594D01*
X109388Y-50668D01*
X109296Y-50686D01*
X109185Y-50705D01*
X107222D01*
X107148Y-50686D01*
X106962Y-50668D01*
X106722Y-50612D01*
X106444Y-50519D01*
X106148Y-50408D01*
X105852Y-50223D01*
X105555Y-49983D01*
X105518Y-49945D01*
X105444Y-49853D01*
X105315Y-49705D01*
X105185Y-49482D01*
X105055Y-49242D01*
X104926Y-48927D01*
X104852Y-48594D01*
X104815Y-48223D01*
Y-44465D01*
Y-44446D01*
Y-44409D01*
Y-44372D01*
X104833Y-44298D01*
X104852Y-44094D01*
X104907Y-43854D01*
X105000Y-43576D01*
X105111Y-43279D01*
X105296Y-42983D01*
X105537Y-42705D01*
X105574Y-42668D01*
X105666Y-42594D01*
X105833Y-42465D01*
X106037Y-42335D01*
X106296Y-42206D01*
X106592Y-42076D01*
X106944Y-42002D01*
X107314Y-41965D01*
X109222D01*
X109333Y-41983D01*
D02*
G37*
G36*
X93112Y-38224D02*
X93260Y-38298D01*
X93316Y-38335D01*
X93390Y-38410D01*
X93427Y-38447D01*
X93483Y-38539D01*
X93538Y-38669D01*
X93575Y-38835D01*
Y-38872D01*
X93556Y-38965D01*
X93501Y-39095D01*
X93408Y-39243D01*
X93390Y-39280D01*
X93297Y-39335D01*
X93149Y-39409D01*
X93057Y-39428D01*
X92945Y-39446D01*
X89724D01*
X89631Y-39465D01*
X89520Y-39483D01*
X89372Y-39539D01*
X89224Y-39595D01*
X89075Y-39687D01*
X88927Y-39817D01*
X88890Y-39854D01*
X88816Y-39928D01*
X88724Y-40058D01*
X88650Y-40224D01*
Y-40243D01*
X88631Y-40261D01*
X88613Y-40372D01*
X88594Y-40521D01*
X88576Y-40706D01*
Y-48223D01*
Y-48242D01*
Y-48316D01*
X88594Y-48408D01*
X88613Y-48520D01*
X88668Y-48668D01*
X88724Y-48816D01*
X88816Y-48964D01*
X88927Y-49112D01*
X88964Y-49131D01*
X89057Y-49205D01*
X89187Y-49297D01*
X89335Y-49390D01*
X89353D01*
X89372Y-49408D01*
X89501Y-49427D01*
X89649Y-49446D01*
X89816Y-49464D01*
X93001D01*
X93112Y-49482D01*
X93242Y-49557D01*
X93316Y-49594D01*
X93390Y-49668D01*
X93427Y-49705D01*
X93483Y-49797D01*
X93538Y-49927D01*
X93575Y-50093D01*
Y-50131D01*
X93556Y-50223D01*
X93501Y-50353D01*
X93408Y-50501D01*
X93390Y-50538D01*
X93297Y-50594D01*
X93168Y-50668D01*
X93075Y-50686D01*
X92964Y-50705D01*
X89742D01*
X89668Y-50686D01*
X89483Y-50668D01*
X89242Y-50612D01*
X88964Y-50519D01*
X88668Y-50408D01*
X88372Y-50223D01*
X88076Y-49983D01*
X88039Y-49945D01*
X87964Y-49853D01*
X87835Y-49705D01*
X87705Y-49482D01*
X87576Y-49223D01*
X87446Y-48927D01*
X87372Y-48575D01*
X87335Y-48205D01*
Y-40706D01*
Y-40687D01*
Y-40650D01*
Y-40613D01*
X87353Y-40539D01*
X87372Y-40335D01*
X87428Y-40095D01*
X87520Y-39817D01*
X87631Y-39521D01*
X87816Y-39224D01*
X88057Y-38947D01*
X88094Y-38909D01*
X88187Y-38835D01*
X88335Y-38706D01*
X88557Y-38576D01*
X88816Y-38447D01*
X89113Y-38317D01*
X89464Y-38243D01*
X89835Y-38206D01*
X93001D01*
X93112Y-38224D01*
D02*
G37*
G36*
X164697Y-41983D02*
X164901Y-42002D01*
X165142Y-42057D01*
X165401Y-42150D01*
X165697Y-42280D01*
X165993Y-42465D01*
X166290Y-42705D01*
X166327Y-42742D01*
X166401Y-42835D01*
X166530Y-42983D01*
X166660Y-43187D01*
X166790Y-43446D01*
X166919Y-43742D01*
X166993Y-44094D01*
X167030Y-44465D01*
Y-48223D01*
Y-48242D01*
Y-48260D01*
Y-48316D01*
X167012Y-48390D01*
X166993Y-48575D01*
X166938Y-48816D01*
X166845Y-49094D01*
X166716Y-49390D01*
X166530Y-49686D01*
X166290Y-49982D01*
X166253Y-50019D01*
X166160Y-50093D01*
X165993Y-50205D01*
X165790Y-50334D01*
X165531Y-50482D01*
X165234Y-50594D01*
X164901Y-50668D01*
X164531Y-50705D01*
X162031D01*
Y-53815D01*
Y-53834D01*
Y-53852D01*
X162012Y-53963D01*
X161938Y-54112D01*
X161901Y-54186D01*
X161827Y-54260D01*
X161790Y-54297D01*
X161698Y-54352D01*
X161568Y-54408D01*
X161401Y-54445D01*
X161364D01*
X161272Y-54426D01*
X161142Y-54371D01*
X160994Y-54278D01*
X160957Y-54241D01*
X160901Y-54167D01*
X160827Y-54019D01*
X160809Y-53927D01*
X160790Y-53815D01*
Y-42594D01*
Y-42576D01*
X160809Y-42502D01*
X160827Y-42391D01*
X160864Y-42280D01*
X160938Y-42168D01*
X161049Y-42057D01*
X161198Y-41983D01*
X161401Y-41965D01*
X164623D01*
X164697Y-41983D01*
D02*
G37*
G36*
X301146Y-18983D02*
X301276Y-19057D01*
X301368Y-19094D01*
X301461Y-19168D01*
X301479D01*
X301498Y-19205D01*
X301572Y-19298D01*
X301628Y-19428D01*
X301665Y-19520D01*
Y-19613D01*
Y-19631D01*
X301646Y-19705D01*
X301628Y-19816D01*
X301553Y-19946D01*
X299294Y-23335D01*
X301572Y-26742D01*
X301665Y-26927D01*
Y-27094D01*
Y-27112D01*
Y-27131D01*
X301646Y-27242D01*
X301572Y-27390D01*
X301535Y-27464D01*
X301461Y-27538D01*
X301368Y-27612D01*
X301220Y-27686D01*
X300998Y-27705D01*
X300961D01*
X300831Y-27668D01*
X300683Y-27594D01*
X300591Y-27538D01*
X300498Y-27445D01*
X298535Y-24464D01*
X296554Y-27427D01*
Y-27445D01*
X296517Y-27464D01*
X296424Y-27557D01*
X296258Y-27668D01*
X296147Y-27686D01*
X296035Y-27705D01*
X295998D01*
X295906Y-27686D01*
X295776Y-27631D01*
X295610Y-27519D01*
X295573Y-27482D01*
X295517Y-27390D01*
X295443Y-27260D01*
X295424Y-27168D01*
X295406Y-27075D01*
Y-27057D01*
X295424Y-26982D01*
X295443Y-26871D01*
X295499Y-26742D01*
X297776Y-23335D01*
X295480Y-19946D01*
X295406Y-19761D01*
Y-19594D01*
Y-19576D01*
Y-19557D01*
X295424Y-19446D01*
X295480Y-19317D01*
X295591Y-19168D01*
Y-19150D01*
X295628Y-19131D01*
X295721Y-19057D01*
X295869Y-19002D01*
X295961Y-18965D01*
X296091D01*
X296221Y-19002D01*
X296295Y-19039D01*
X296369Y-19076D01*
X296461Y-19150D01*
X296554Y-19243D01*
X298535Y-22205D01*
X300498Y-19261D01*
Y-19243D01*
X300535Y-19205D01*
X300628Y-19113D01*
X300794Y-19002D01*
X300905Y-18983D01*
X301017Y-18965D01*
X301054D01*
X301146Y-18983D01*
D02*
G37*
G36*
X282426D02*
X282555Y-19039D01*
X282703Y-19131D01*
X282722D01*
X282741Y-19150D01*
X282815Y-19243D01*
X282870Y-19391D01*
X282907Y-19483D01*
Y-19594D01*
Y-27094D01*
Y-27112D01*
Y-27149D01*
X282889Y-27260D01*
X282833Y-27408D01*
X282722Y-27557D01*
X282685Y-27575D01*
X282611Y-27631D01*
X282463Y-27686D01*
X282278Y-27705D01*
X282241D01*
X282129Y-27686D01*
X282000Y-27649D01*
X281852Y-27557D01*
X281815Y-27519D01*
X281759Y-27445D01*
X281704Y-27297D01*
X281667Y-27094D01*
Y-23946D01*
X277908D01*
Y-27094D01*
Y-27112D01*
Y-27149D01*
X277889Y-27260D01*
X277834Y-27408D01*
X277723Y-27557D01*
X277686Y-27575D01*
X277612Y-27631D01*
X277463Y-27686D01*
X277278Y-27705D01*
X277241D01*
X277130Y-27686D01*
X277000Y-27649D01*
X276852Y-27557D01*
X276815Y-27519D01*
X276760Y-27445D01*
X276704Y-27297D01*
X276667Y-27094D01*
Y-19594D01*
Y-19576D01*
Y-19557D01*
X276686Y-19446D01*
X276741Y-19298D01*
X276852Y-19131D01*
X276889Y-19113D01*
X276982Y-19039D01*
X277111Y-18983D01*
X277278Y-18965D01*
X277315D01*
X277426Y-18983D01*
X277556Y-19039D01*
X277704Y-19131D01*
X277723D01*
X277741Y-19150D01*
X277815Y-19243D01*
X277871Y-19391D01*
X277908Y-19483D01*
Y-19594D01*
Y-22705D01*
X281667D01*
Y-19594D01*
Y-19576D01*
Y-19557D01*
X281685Y-19446D01*
X281741Y-19298D01*
X281852Y-19131D01*
X281889Y-19113D01*
X281981Y-19039D01*
X282111Y-18983D01*
X282278Y-18965D01*
X282315D01*
X282426Y-18983D01*
D02*
G37*
G36*
X273686D02*
X273816Y-19039D01*
X273964Y-19131D01*
X273982D01*
X274001Y-19150D01*
X274075Y-19243D01*
X274130Y-19391D01*
X274167Y-19483D01*
Y-19594D01*
Y-27094D01*
Y-27112D01*
Y-27149D01*
X274149Y-27260D01*
X274093Y-27408D01*
X273982Y-27557D01*
X273945Y-27575D01*
X273871Y-27631D01*
X273723Y-27686D01*
X273538Y-27705D01*
X273501D01*
X273390Y-27686D01*
X273260Y-27649D01*
X273112Y-27557D01*
X273075Y-27519D01*
X273019Y-27445D01*
X272964Y-27297D01*
X272927Y-27094D01*
Y-23946D01*
X270334D01*
X270260Y-23927D01*
X270075Y-23909D01*
X269834Y-23853D01*
X269557Y-23779D01*
X269261Y-23649D01*
X268964Y-23483D01*
X268668Y-23242D01*
X268631Y-23205D01*
X268557Y-23112D01*
X268427Y-22964D01*
X268298Y-22742D01*
X268168Y-22483D01*
X268038Y-22187D01*
X267964Y-21835D01*
X267927Y-21465D01*
Y-19594D01*
Y-19576D01*
Y-19557D01*
X267946Y-19446D01*
X268001Y-19298D01*
X268113Y-19131D01*
X268150Y-19113D01*
X268242Y-19039D01*
X268372Y-18983D01*
X268538Y-18965D01*
X268575D01*
X268687Y-18983D01*
X268816Y-19039D01*
X268964Y-19131D01*
X268983D01*
X269001Y-19150D01*
X269075Y-19243D01*
X269131Y-19391D01*
X269168Y-19483D01*
Y-19594D01*
Y-21465D01*
Y-21483D01*
Y-21557D01*
X269186Y-21650D01*
X269205Y-21779D01*
X269261Y-21909D01*
X269316Y-22057D01*
X269409Y-22205D01*
X269520Y-22353D01*
X269557Y-22372D01*
X269649Y-22446D01*
X269779Y-22538D01*
X269927Y-22631D01*
X269946D01*
X269964Y-22650D01*
X270094Y-22668D01*
X270242Y-22687D01*
X270408Y-22705D01*
X272927D01*
Y-19594D01*
Y-19576D01*
Y-19557D01*
X272945Y-19446D01*
X273001Y-19298D01*
X273112Y-19131D01*
X273149Y-19113D01*
X273242Y-19039D01*
X273371Y-18983D01*
X273538Y-18965D01*
X273575D01*
X273686Y-18983D01*
D02*
G37*
G36*
X236079Y-18946D02*
X236208Y-19020D01*
X236282Y-19057D01*
X236375Y-19131D01*
X236412Y-19168D01*
X236468Y-19261D01*
X236523Y-19409D01*
X236560Y-19594D01*
Y-19613D01*
Y-19631D01*
X236542Y-19742D01*
X236468Y-19909D01*
X236431Y-19983D01*
X236357Y-20076D01*
X233857Y-22705D01*
X236431Y-26686D01*
Y-26705D01*
X236449Y-26723D01*
X236505Y-26834D01*
X236542Y-26982D01*
X236560Y-27112D01*
Y-27131D01*
Y-27149D01*
X236542Y-27260D01*
X236468Y-27408D01*
X236431Y-27464D01*
X236357Y-27538D01*
X236320Y-27575D01*
X236227Y-27631D01*
X236097Y-27686D01*
X235931Y-27723D01*
X235894D01*
X235783Y-27686D01*
X235634Y-27612D01*
X235560Y-27557D01*
X235486Y-27482D01*
X232968Y-23631D01*
X231579Y-25094D01*
Y-27094D01*
Y-27112D01*
Y-27149D01*
X231561Y-27260D01*
X231505Y-27408D01*
X231394Y-27557D01*
X231357Y-27575D01*
X231283Y-27631D01*
X231135Y-27686D01*
X230950Y-27705D01*
X230913D01*
X230802Y-27686D01*
X230672Y-27649D01*
X230524Y-27557D01*
X230487Y-27519D01*
X230431Y-27445D01*
X230376Y-27297D01*
X230339Y-27094D01*
Y-19594D01*
Y-19576D01*
Y-19557D01*
X230357Y-19446D01*
X230413Y-19298D01*
X230524Y-19131D01*
X230561Y-19113D01*
X230653Y-19039D01*
X230783Y-18983D01*
X230950Y-18965D01*
X230987D01*
X231098Y-18983D01*
X231227Y-19039D01*
X231376Y-19131D01*
X231394D01*
X231413Y-19150D01*
X231487Y-19243D01*
X231542Y-19391D01*
X231579Y-19483D01*
Y-19594D01*
Y-23279D01*
X235542Y-19131D01*
Y-19113D01*
X235579Y-19094D01*
X235653Y-19020D01*
X235783Y-18965D01*
X235857Y-18928D01*
X235986D01*
X236079Y-18946D01*
D02*
G37*
G36*
X175011Y-18983D02*
X175141Y-19039D01*
X175289Y-19131D01*
X175307D01*
X175326Y-19150D01*
X175400Y-19243D01*
X175455Y-19391D01*
X175492Y-19483D01*
Y-19594D01*
Y-27094D01*
Y-27112D01*
Y-27186D01*
X175455Y-27279D01*
X175418Y-27390D01*
X175344Y-27519D01*
X175233Y-27612D01*
X175067Y-27686D01*
X174863Y-27705D01*
X171641D01*
X171567Y-27686D01*
X171382Y-27668D01*
X171141Y-27612D01*
X170863Y-27519D01*
X170585Y-27408D01*
X170289Y-27223D01*
X169993Y-26982D01*
X169956Y-26945D01*
X169882Y-26853D01*
X169752Y-26705D01*
X169623Y-26483D01*
X169493Y-26242D01*
X169363Y-25927D01*
X169289Y-25594D01*
X169252Y-25223D01*
Y-19594D01*
Y-19576D01*
Y-19557D01*
X169271Y-19446D01*
X169326Y-19298D01*
X169438Y-19131D01*
X169475Y-19113D01*
X169567Y-19039D01*
X169697Y-18983D01*
X169863Y-18965D01*
X169900D01*
X170012Y-18983D01*
X170141Y-19039D01*
X170289Y-19131D01*
X170308D01*
X170326Y-19150D01*
X170400Y-19243D01*
X170456Y-19391D01*
X170493Y-19483D01*
Y-19594D01*
Y-25223D01*
Y-25242D01*
Y-25316D01*
X170511Y-25408D01*
X170530Y-25520D01*
X170585Y-25668D01*
X170641Y-25816D01*
X170734Y-25964D01*
X170845Y-26112D01*
X170882Y-26131D01*
X170974Y-26205D01*
X171104Y-26297D01*
X171252Y-26390D01*
X171271D01*
X171289Y-26408D01*
X171419Y-26427D01*
X171567Y-26446D01*
X171734Y-26464D01*
X174252D01*
Y-19594D01*
Y-19576D01*
Y-19557D01*
X174270Y-19446D01*
X174326Y-19298D01*
X174437Y-19131D01*
X174474Y-19113D01*
X174567Y-19039D01*
X174696Y-18983D01*
X174863Y-18965D01*
X174900D01*
X175011Y-18983D01*
D02*
G37*
G36*
X292425D02*
X292554Y-19039D01*
X292703Y-19131D01*
X292721D01*
X292740Y-19150D01*
X292814Y-19243D01*
X292869Y-19391D01*
X292906Y-19483D01*
Y-19594D01*
Y-27094D01*
Y-27112D01*
Y-27149D01*
X292888Y-27260D01*
X292832Y-27408D01*
X292721Y-27557D01*
X292684Y-27575D01*
X292610Y-27631D01*
X292462Y-27686D01*
X292277Y-27705D01*
X292240D01*
X292129Y-27686D01*
X291999Y-27649D01*
X291851Y-27557D01*
X291814Y-27519D01*
X291758Y-27445D01*
X291703Y-27297D01*
X291666Y-27094D01*
Y-19594D01*
Y-19576D01*
Y-19557D01*
X291684Y-19446D01*
X291740Y-19298D01*
X291851Y-19131D01*
X291888Y-19113D01*
X291980Y-19039D01*
X292110Y-18983D01*
X292277Y-18965D01*
X292314D01*
X292425Y-18983D01*
D02*
G37*
G36*
X286166D02*
X286296Y-19039D01*
X286444Y-19131D01*
X286462D01*
X286481Y-19150D01*
X286555Y-19243D01*
X286611Y-19391D01*
X286648Y-19483D01*
Y-19594D01*
Y-22705D01*
X287999D01*
X288092Y-22724D01*
X288296Y-22742D01*
X288573Y-22798D01*
X288870Y-22890D01*
X289184Y-23038D01*
X289499Y-23224D01*
X289777Y-23483D01*
X289795Y-23520D01*
X289869Y-23612D01*
X289981Y-23761D01*
X290092Y-23964D01*
X290203Y-24223D01*
X290314Y-24520D01*
X290388Y-24834D01*
X290406Y-25205D01*
Y-25223D01*
Y-25242D01*
Y-25297D01*
Y-25371D01*
X290369Y-25557D01*
X290332Y-25797D01*
X290258Y-26057D01*
X290147Y-26353D01*
X289981Y-26649D01*
X289777Y-26927D01*
X289740Y-26964D01*
X289647Y-27057D01*
X289499Y-27168D01*
X289277Y-27316D01*
X289018Y-27464D01*
X288684Y-27575D01*
X288314Y-27668D01*
X287907Y-27705D01*
X286000D01*
X285925Y-27686D01*
X285833Y-27668D01*
X285722Y-27631D01*
X285592Y-27557D01*
X285500Y-27445D01*
X285425Y-27297D01*
X285407Y-27094D01*
Y-19594D01*
Y-19576D01*
Y-19557D01*
X285425Y-19446D01*
X285481Y-19298D01*
X285592Y-19131D01*
X285629Y-19113D01*
X285722Y-19039D01*
X285851Y-18983D01*
X286018Y-18965D01*
X286055D01*
X286166Y-18983D01*
D02*
G37*
G36*
X262854D02*
X263057Y-19002D01*
X263335Y-19057D01*
X263631Y-19168D01*
X263946Y-19317D01*
X264279Y-19502D01*
X264446Y-19631D01*
X264594Y-19779D01*
X264613D01*
X264631Y-19816D01*
X264724Y-19928D01*
X264853Y-20094D01*
X265020Y-20317D01*
X265168Y-20594D01*
X265298Y-20928D01*
X265390Y-21316D01*
X265428Y-21520D01*
Y-21724D01*
Y-24964D01*
Y-24983D01*
Y-25020D01*
Y-25075D01*
X265409Y-25149D01*
X265390Y-25353D01*
X265335Y-25612D01*
X265224Y-25927D01*
X265076Y-26242D01*
X264891Y-26575D01*
X264761Y-26742D01*
X264613Y-26890D01*
X264576Y-26927D01*
X264465Y-27020D01*
X264298Y-27149D01*
X264076Y-27297D01*
X263798Y-27445D01*
X263465Y-27575D01*
X263076Y-27668D01*
X262872Y-27686D01*
X262669Y-27705D01*
X261817D01*
X261743Y-27686D01*
X261539Y-27668D01*
X261280Y-27612D01*
X260965Y-27519D01*
X260650Y-27371D01*
X260317Y-27186D01*
X260002Y-26927D01*
Y-26908D01*
X259965Y-26890D01*
X259873Y-26779D01*
X259743Y-26612D01*
X259595Y-26390D01*
X259447Y-26094D01*
X259317Y-25760D01*
X259224Y-25390D01*
X259206Y-25186D01*
X259188Y-24964D01*
Y-21724D01*
Y-21705D01*
Y-21668D01*
Y-21613D01*
X259206Y-21539D01*
X259224Y-21335D01*
X259280Y-21076D01*
X259391Y-20779D01*
X259521Y-20446D01*
X259724Y-20113D01*
X259835Y-19965D01*
X259984Y-19798D01*
X260002Y-19779D01*
X260021Y-19761D01*
X260132Y-19668D01*
X260299Y-19539D01*
X260521Y-19372D01*
X260817Y-19224D01*
X261132Y-19094D01*
X261521Y-19002D01*
X261724Y-18965D01*
X262780D01*
X262854Y-18983D01*
D02*
G37*
G36*
X254336D02*
X254540Y-19002D01*
X254781Y-19057D01*
X255040Y-19150D01*
X255336Y-19280D01*
X255632Y-19465D01*
X255928Y-19705D01*
X255966Y-19742D01*
X256040Y-19835D01*
X256169Y-19983D01*
X256299Y-20187D01*
X256429Y-20446D01*
X256558Y-20742D01*
X256632Y-21094D01*
X256669Y-21465D01*
Y-27094D01*
Y-27112D01*
Y-27149D01*
X256651Y-27260D01*
X256595Y-27408D01*
X256484Y-27557D01*
X256447Y-27575D01*
X256373Y-27631D01*
X256225Y-27686D01*
X256040Y-27705D01*
X256003D01*
X255891Y-27686D01*
X255762Y-27649D01*
X255614Y-27557D01*
X255577Y-27519D01*
X255521Y-27445D01*
X255466Y-27297D01*
X255429Y-27094D01*
Y-21465D01*
Y-21446D01*
Y-21372D01*
X255410Y-21279D01*
X255392Y-21150D01*
X255336Y-21020D01*
X255280Y-20872D01*
X255188Y-20724D01*
X255058Y-20576D01*
X255040Y-20557D01*
X255003Y-20520D01*
X254910Y-20465D01*
X254818Y-20391D01*
X254688Y-20317D01*
X254540Y-20261D01*
X254355Y-20224D01*
X254170Y-20205D01*
X252929D01*
Y-27094D01*
Y-27112D01*
Y-27149D01*
X252910Y-27260D01*
X252855Y-27408D01*
X252744Y-27557D01*
X252707Y-27575D01*
X252633Y-27631D01*
X252484Y-27686D01*
X252299Y-27705D01*
X252262D01*
X252151Y-27686D01*
X252022Y-27649D01*
X251873Y-27557D01*
X251836Y-27519D01*
X251781Y-27445D01*
X251725Y-27297D01*
X251688Y-27094D01*
Y-20205D01*
X249188D01*
Y-27094D01*
Y-27112D01*
Y-27149D01*
X249170Y-27260D01*
X249114Y-27408D01*
X249003Y-27557D01*
X248966Y-27575D01*
X248892Y-27631D01*
X248744Y-27686D01*
X248559Y-27705D01*
X248522D01*
X248411Y-27686D01*
X248281Y-27649D01*
X248133Y-27557D01*
X248096Y-27519D01*
X248041Y-27445D01*
X247985Y-27297D01*
X247948Y-27094D01*
Y-19594D01*
Y-19576D01*
X247966Y-19502D01*
X247985Y-19391D01*
X248022Y-19280D01*
X248096Y-19168D01*
X248207Y-19057D01*
X248355Y-18983D01*
X248559Y-18965D01*
X254262D01*
X254336Y-18983D01*
D02*
G37*
G36*
X242874D02*
X243078Y-19002D01*
X243356Y-19057D01*
X243652Y-19168D01*
X243967Y-19317D01*
X244300Y-19502D01*
X244467Y-19631D01*
X244615Y-19779D01*
X244633D01*
X244652Y-19816D01*
X244744Y-19928D01*
X244874Y-20094D01*
X245041Y-20317D01*
X245189Y-20594D01*
X245319Y-20928D01*
X245411Y-21316D01*
X245448Y-21520D01*
Y-21724D01*
Y-24964D01*
Y-24983D01*
Y-25020D01*
Y-25075D01*
X245430Y-25149D01*
X245411Y-25353D01*
X245356Y-25612D01*
X245245Y-25927D01*
X245096Y-26242D01*
X244911Y-26575D01*
X244782Y-26742D01*
X244633Y-26890D01*
X244596Y-26927D01*
X244485Y-27020D01*
X244319Y-27149D01*
X244096Y-27297D01*
X243819Y-27445D01*
X243485Y-27575D01*
X243097Y-27668D01*
X242893Y-27686D01*
X242689Y-27705D01*
X241837D01*
X241763Y-27686D01*
X241560Y-27668D01*
X241300Y-27612D01*
X240986Y-27519D01*
X240671Y-27371D01*
X240338Y-27186D01*
X240023Y-26927D01*
Y-26908D01*
X239986Y-26890D01*
X239893Y-26779D01*
X239764Y-26612D01*
X239615Y-26390D01*
X239467Y-26094D01*
X239338Y-25760D01*
X239245Y-25390D01*
X239227Y-25186D01*
X239208Y-24964D01*
Y-21724D01*
Y-21705D01*
Y-21668D01*
Y-21613D01*
X239227Y-21539D01*
X239245Y-21335D01*
X239301Y-21076D01*
X239412Y-20779D01*
X239541Y-20446D01*
X239745Y-20113D01*
X239856Y-19965D01*
X240004Y-19798D01*
X240023Y-19779D01*
X240041Y-19761D01*
X240152Y-19668D01*
X240319Y-19539D01*
X240541Y-19372D01*
X240837Y-19224D01*
X241152Y-19094D01*
X241541Y-19002D01*
X241745Y-18965D01*
X242800D01*
X242874Y-18983D01*
D02*
G37*
G36*
X225395D02*
X225598Y-19002D01*
X225876Y-19057D01*
X226172Y-19168D01*
X226487Y-19317D01*
X226821Y-19502D01*
X226987Y-19631D01*
X227135Y-19779D01*
X227154D01*
X227172Y-19816D01*
X227265Y-19928D01*
X227395Y-20094D01*
X227561Y-20317D01*
X227709Y-20594D01*
X227839Y-20928D01*
X227931Y-21316D01*
X227969Y-21520D01*
Y-21724D01*
Y-24964D01*
Y-24983D01*
Y-25020D01*
Y-25075D01*
X227950Y-25149D01*
X227931Y-25353D01*
X227876Y-25612D01*
X227765Y-25927D01*
X227617Y-26242D01*
X227432Y-26575D01*
X227302Y-26742D01*
X227154Y-26890D01*
X227117Y-26927D01*
X227006Y-27020D01*
X226839Y-27149D01*
X226617Y-27297D01*
X226339Y-27445D01*
X226006Y-27575D01*
X225617Y-27668D01*
X225413Y-27686D01*
X225210Y-27705D01*
X224358D01*
X224284Y-27686D01*
X224080Y-27668D01*
X223821Y-27612D01*
X223506Y-27519D01*
X223191Y-27371D01*
X222858Y-27186D01*
X222543Y-26927D01*
Y-26908D01*
X222506Y-26890D01*
X222414Y-26779D01*
X222284Y-26612D01*
X222136Y-26390D01*
X221988Y-26094D01*
X221858Y-25760D01*
X221765Y-25390D01*
X221747Y-25186D01*
X221728Y-24964D01*
Y-21724D01*
Y-21705D01*
Y-21668D01*
Y-21613D01*
X221747Y-21539D01*
X221765Y-21335D01*
X221821Y-21076D01*
X221932Y-20779D01*
X222062Y-20446D01*
X222265Y-20113D01*
X222376Y-19965D01*
X222525Y-19798D01*
X222543Y-19779D01*
X222562Y-19761D01*
X222673Y-19668D01*
X222839Y-19539D01*
X223062Y-19372D01*
X223358Y-19224D01*
X223673Y-19094D01*
X224062Y-19002D01*
X224265Y-18965D01*
X225321D01*
X225395Y-18983D01*
D02*
G37*
G36*
X218747D02*
X218895Y-19057D01*
X218969Y-19094D01*
X219044Y-19168D01*
X219081Y-19205D01*
X219136Y-19298D01*
X219192Y-19428D01*
X219229Y-19594D01*
Y-19631D01*
X219210Y-19724D01*
X219155Y-19854D01*
X219062Y-20002D01*
X219044Y-20039D01*
X218951Y-20094D01*
X218803Y-20168D01*
X218710Y-20187D01*
X218599Y-20205D01*
X216618D01*
X216525Y-20224D01*
X216414Y-20242D01*
X216266Y-20298D01*
X216118Y-20354D01*
X215970Y-20446D01*
X215822Y-20576D01*
X215785Y-20613D01*
X215711Y-20687D01*
X215618Y-20816D01*
X215544Y-20983D01*
Y-21002D01*
X215525Y-21020D01*
X215507Y-21131D01*
X215488Y-21279D01*
X215470Y-21465D01*
Y-25223D01*
Y-25242D01*
Y-25316D01*
X215488Y-25408D01*
X215507Y-25520D01*
X215562Y-25668D01*
X215618Y-25816D01*
X215711Y-25964D01*
X215822Y-26112D01*
X215859Y-26131D01*
X215951Y-26205D01*
X216081Y-26297D01*
X216229Y-26390D01*
X216248D01*
X216266Y-26408D01*
X216396Y-26427D01*
X216544Y-26446D01*
X216710Y-26464D01*
X218636D01*
X218747Y-26483D01*
X218895Y-26557D01*
X218969Y-26594D01*
X219044Y-26668D01*
X219081Y-26705D01*
X219136Y-26797D01*
X219192Y-26927D01*
X219229Y-27094D01*
Y-27131D01*
X219210Y-27223D01*
X219155Y-27353D01*
X219062Y-27501D01*
X219044Y-27538D01*
X218951Y-27594D01*
X218803Y-27668D01*
X218710Y-27686D01*
X218599Y-27705D01*
X216636D01*
X216562Y-27686D01*
X216377Y-27668D01*
X216136Y-27612D01*
X215859Y-27519D01*
X215562Y-27408D01*
X215266Y-27223D01*
X214970Y-26982D01*
X214933Y-26945D01*
X214859Y-26853D01*
X214729Y-26705D01*
X214599Y-26483D01*
X214470Y-26242D01*
X214340Y-25927D01*
X214266Y-25594D01*
X214229Y-25223D01*
Y-21465D01*
Y-21446D01*
Y-21409D01*
Y-21372D01*
X214248Y-21298D01*
X214266Y-21094D01*
X214322Y-20854D01*
X214414Y-20576D01*
X214525Y-20279D01*
X214711Y-19983D01*
X214951Y-19705D01*
X214988Y-19668D01*
X215081Y-19594D01*
X215248Y-19465D01*
X215451Y-19335D01*
X215711Y-19205D01*
X216007Y-19076D01*
X216359Y-19002D01*
X216729Y-18965D01*
X218636D01*
X218747Y-18983D01*
D02*
G37*
G36*
X211248D02*
X211378Y-19039D01*
X211526Y-19131D01*
X211544D01*
X211563Y-19150D01*
X211637Y-19243D01*
X211692Y-19391D01*
X211729Y-19483D01*
Y-19594D01*
Y-27094D01*
Y-27112D01*
Y-27149D01*
X211711Y-27260D01*
X211655Y-27408D01*
X211544Y-27557D01*
X211507Y-27575D01*
X211433Y-27631D01*
X211285Y-27686D01*
X211100Y-27705D01*
X211063D01*
X210952Y-27686D01*
X210822Y-27649D01*
X210674Y-27557D01*
X210637Y-27519D01*
X210581Y-27445D01*
X210526Y-27297D01*
X210489Y-27094D01*
Y-19594D01*
Y-19576D01*
Y-19557D01*
X210507Y-19446D01*
X210563Y-19298D01*
X210674Y-19131D01*
X210711Y-19113D01*
X210804Y-19039D01*
X210933Y-18983D01*
X211100Y-18965D01*
X211137D01*
X211248Y-18983D01*
D02*
G37*
G36*
X204989D02*
X205119Y-19039D01*
X205267Y-19131D01*
X205286D01*
X205304Y-19150D01*
X205378Y-19243D01*
X205434Y-19391D01*
X205471Y-19483D01*
Y-19594D01*
Y-22705D01*
X206822D01*
X206915Y-22724D01*
X207119Y-22742D01*
X207397Y-22798D01*
X207693Y-22890D01*
X208008Y-23038D01*
X208322Y-23224D01*
X208600Y-23483D01*
X208619Y-23520D01*
X208693Y-23612D01*
X208804Y-23761D01*
X208915Y-23964D01*
X209026Y-24223D01*
X209137Y-24520D01*
X209211Y-24834D01*
X209230Y-25205D01*
Y-25223D01*
Y-25242D01*
Y-25297D01*
Y-25371D01*
X209193Y-25557D01*
X209156Y-25797D01*
X209081Y-26057D01*
X208970Y-26353D01*
X208804Y-26649D01*
X208600Y-26927D01*
X208563Y-26964D01*
X208470Y-27057D01*
X208322Y-27168D01*
X208100Y-27316D01*
X207841Y-27464D01*
X207508Y-27575D01*
X207137Y-27668D01*
X206730Y-27705D01*
X204823D01*
X204749Y-27686D01*
X204656Y-27668D01*
X204545Y-27631D01*
X204415Y-27557D01*
X204323Y-27445D01*
X204249Y-27297D01*
X204230Y-27094D01*
Y-19594D01*
Y-19576D01*
Y-19557D01*
X204249Y-19446D01*
X204304Y-19298D01*
X204415Y-19131D01*
X204452Y-19113D01*
X204545Y-19039D01*
X204675Y-18983D01*
X204841Y-18965D01*
X204878D01*
X204989Y-18983D01*
D02*
G37*
G36*
X198768Y-15224D02*
X198972Y-15243D01*
X199212Y-15299D01*
X199490Y-15391D01*
X199786Y-15521D01*
X200082Y-15706D01*
X200360Y-15947D01*
X200397Y-15984D01*
X200471Y-16076D01*
X200601Y-16243D01*
X200731Y-16446D01*
X200860Y-16706D01*
X200990Y-17002D01*
X201064Y-17354D01*
X201101Y-17724D01*
Y-18965D01*
Y-18983D01*
Y-19039D01*
Y-19131D01*
X201082Y-19243D01*
X201064Y-19372D01*
X201045Y-19502D01*
X200953Y-19816D01*
Y-19835D01*
X200934Y-19891D01*
X200897Y-19965D01*
X200860Y-20057D01*
X200712Y-20317D01*
X200527Y-20594D01*
X200545Y-20613D01*
X200620Y-20650D01*
X200712Y-20724D01*
X200842Y-20816D01*
X200971Y-20946D01*
X201119Y-21113D01*
X201268Y-21298D01*
X201397Y-21502D01*
X201416Y-21520D01*
X201453Y-21594D01*
X201508Y-21724D01*
X201564Y-21872D01*
X201619Y-22057D01*
X201675Y-22261D01*
X201712Y-22483D01*
X201730Y-22724D01*
Y-25223D01*
Y-25242D01*
Y-25260D01*
Y-25316D01*
X201712Y-25390D01*
X201693Y-25575D01*
X201638Y-25816D01*
X201545Y-26094D01*
X201416Y-26390D01*
X201231Y-26686D01*
X200990Y-26982D01*
X200953Y-27020D01*
X200860Y-27094D01*
X200693Y-27205D01*
X200490Y-27334D01*
X200231Y-27482D01*
X199934Y-27594D01*
X199601Y-27668D01*
X199231Y-27705D01*
X194824D01*
X194750Y-27686D01*
X194657Y-27668D01*
X194546Y-27631D01*
X194416Y-27557D01*
X194324Y-27445D01*
X194250Y-27297D01*
X194231Y-27094D01*
Y-15835D01*
Y-15817D01*
X194250Y-15743D01*
X194268Y-15632D01*
X194305Y-15521D01*
X194379Y-15410D01*
X194491Y-15299D01*
X194639Y-15224D01*
X194842Y-15206D01*
X198694D01*
X198768Y-15224D01*
D02*
G37*
G36*
X183825Y-19002D02*
X183936Y-19039D01*
X184047Y-19113D01*
X184158Y-19224D01*
X184232Y-19391D01*
X184251Y-19594D01*
Y-27094D01*
Y-27112D01*
Y-27149D01*
X184232Y-27260D01*
X184177Y-27408D01*
X184066Y-27557D01*
X184029Y-27575D01*
X183955Y-27631D01*
X183806Y-27686D01*
X183621Y-27705D01*
X183584D01*
X183473Y-27686D01*
X183344Y-27649D01*
X183195Y-27557D01*
X183158Y-27519D01*
X183103Y-27445D01*
X183047Y-27297D01*
X183010Y-27094D01*
Y-23964D01*
X181455D01*
X179140Y-27427D01*
X179122Y-27445D01*
X179085Y-27501D01*
X179011Y-27575D01*
X178899Y-27649D01*
X178603Y-27705D01*
X178566D01*
X178474Y-27686D01*
X178344Y-27631D01*
X178177Y-27519D01*
X178140Y-27482D01*
X178085Y-27390D01*
X178029Y-27260D01*
X177992Y-27075D01*
Y-27057D01*
X178011Y-26982D01*
X178029Y-26871D01*
X178085Y-26742D01*
X179955Y-23946D01*
X179918D01*
X179807Y-23909D01*
X179640Y-23853D01*
X179436Y-23779D01*
X179196Y-23668D01*
X178955Y-23520D01*
X178714Y-23316D01*
X178511Y-23075D01*
X178492Y-23038D01*
X178437Y-22946D01*
X178344Y-22798D01*
X178251Y-22594D01*
X178159Y-22353D01*
X178066Y-22076D01*
X178011Y-21779D01*
X177992Y-21465D01*
Y-21446D01*
Y-21428D01*
Y-21372D01*
X178011Y-21298D01*
X178029Y-21113D01*
X178066Y-20872D01*
X178140Y-20613D01*
X178251Y-20317D01*
X178400Y-20039D01*
X178603Y-19761D01*
Y-19742D01*
X178640Y-19724D01*
X178733Y-19631D01*
X178881Y-19502D01*
X179103Y-19354D01*
X179381Y-19224D01*
X179696Y-19094D01*
X180066Y-19002D01*
X180270Y-18965D01*
X183714D01*
X183825Y-19002D01*
D02*
G37*
G36*
X155439Y-18983D02*
X155643Y-19002D01*
X155920Y-19057D01*
X156217Y-19168D01*
X156531Y-19317D01*
X156865Y-19502D01*
X157031Y-19631D01*
X157179Y-19779D01*
X157198D01*
X157217Y-19816D01*
X157309Y-19928D01*
X157439Y-20094D01*
X157605Y-20317D01*
X157753Y-20594D01*
X157883Y-20928D01*
X157976Y-21316D01*
X158013Y-21520D01*
Y-21724D01*
Y-24964D01*
Y-24983D01*
Y-25020D01*
Y-25075D01*
X157994Y-25149D01*
X157976Y-25353D01*
X157920Y-25612D01*
X157809Y-25927D01*
X157661Y-26242D01*
X157476Y-26575D01*
X157346Y-26742D01*
X157198Y-26890D01*
X157161Y-26927D01*
X157050Y-27020D01*
X156883Y-27149D01*
X156661Y-27297D01*
X156383Y-27445D01*
X156050Y-27575D01*
X155661Y-27668D01*
X155457Y-27686D01*
X155254Y-27705D01*
X154402D01*
X154328Y-27686D01*
X154124Y-27668D01*
X153865Y-27612D01*
X153550Y-27520D01*
X153236Y-27371D01*
X152902Y-27186D01*
X152587Y-26927D01*
Y-26908D01*
X152550Y-26890D01*
X152458Y-26779D01*
X152328Y-26612D01*
X152180Y-26390D01*
X152032Y-26094D01*
X151902Y-25760D01*
X151810Y-25390D01*
X151791Y-25186D01*
X151773Y-24964D01*
Y-21724D01*
Y-21705D01*
Y-21668D01*
Y-21613D01*
X151791Y-21539D01*
X151810Y-21335D01*
X151865Y-21076D01*
X151976Y-20779D01*
X152106Y-20446D01*
X152310Y-20113D01*
X152421Y-19965D01*
X152569Y-19798D01*
X152587Y-19779D01*
X152606Y-19761D01*
X152717Y-19668D01*
X152884Y-19539D01*
X153106Y-19372D01*
X153402Y-19224D01*
X153717Y-19094D01*
X154106Y-19002D01*
X154309Y-18965D01*
X155365D01*
X155439Y-18983D01*
D02*
G37*
G36*
X146921D02*
X147125Y-19002D01*
X147366Y-19057D01*
X147625Y-19150D01*
X147921Y-19280D01*
X148217Y-19465D01*
X148514Y-19705D01*
X148551Y-19742D01*
X148625Y-19835D01*
X148755Y-19983D01*
X148884Y-20187D01*
X149014Y-20446D01*
X149143Y-20742D01*
X149217Y-21094D01*
X149254Y-21465D01*
Y-27094D01*
Y-27112D01*
Y-27149D01*
X149236Y-27260D01*
X149180Y-27408D01*
X149069Y-27557D01*
X149032Y-27575D01*
X148958Y-27631D01*
X148810Y-27686D01*
X148625Y-27705D01*
X148588D01*
X148477Y-27686D01*
X148347Y-27649D01*
X148199Y-27557D01*
X148162Y-27520D01*
X148106Y-27445D01*
X148051Y-27297D01*
X148014Y-27094D01*
Y-21465D01*
Y-21446D01*
Y-21372D01*
X147995Y-21279D01*
X147977Y-21150D01*
X147921Y-21020D01*
X147866Y-20872D01*
X147773Y-20724D01*
X147643Y-20576D01*
X147625Y-20557D01*
X147588Y-20520D01*
X147495Y-20465D01*
X147403Y-20391D01*
X147273Y-20317D01*
X147125Y-20261D01*
X146940Y-20224D01*
X146755Y-20205D01*
X145514D01*
Y-27094D01*
Y-27112D01*
Y-27149D01*
X145496Y-27260D01*
X145440Y-27408D01*
X145329Y-27557D01*
X145292Y-27575D01*
X145218Y-27631D01*
X145070Y-27686D01*
X144885Y-27705D01*
X144847D01*
X144736Y-27686D01*
X144607Y-27649D01*
X144459Y-27557D01*
X144422Y-27520D01*
X144366Y-27445D01*
X144311Y-27297D01*
X144273Y-27094D01*
Y-20205D01*
X141774D01*
Y-27094D01*
Y-27112D01*
Y-27149D01*
X141755Y-27260D01*
X141700Y-27408D01*
X141588Y-27557D01*
X141552Y-27575D01*
X141477Y-27631D01*
X141329Y-27686D01*
X141144Y-27705D01*
X141107D01*
X140996Y-27686D01*
X140866Y-27649D01*
X140718Y-27557D01*
X140681Y-27520D01*
X140626Y-27445D01*
X140570Y-27297D01*
X140533Y-27094D01*
Y-19594D01*
Y-19576D01*
X140552Y-19502D01*
X140570Y-19391D01*
X140607Y-19280D01*
X140681Y-19168D01*
X140792Y-19057D01*
X140941Y-18983D01*
X141144Y-18965D01*
X146847D01*
X146921Y-18983D01*
D02*
G37*
G36*
X137607Y-19002D02*
X137719Y-19039D01*
X137830Y-19113D01*
X137941Y-19224D01*
X138015Y-19391D01*
X138033Y-19594D01*
Y-25205D01*
Y-25223D01*
Y-25260D01*
X138052Y-25334D01*
X138070Y-25446D01*
X138145Y-25686D01*
X138200Y-25816D01*
X138274Y-25964D01*
X138293Y-25983D01*
X138311Y-26020D01*
X138367Y-26094D01*
X138422Y-26168D01*
X138515Y-26260D01*
X138626Y-26353D01*
X138756Y-26446D01*
X138904Y-26520D01*
X138922D01*
X138959Y-26557D01*
X139033Y-26594D01*
X139107Y-26649D01*
X139163Y-26723D01*
X139237Y-26816D01*
X139274Y-26927D01*
X139292Y-27075D01*
Y-27094D01*
Y-27112D01*
X139274Y-27242D01*
X139218Y-27371D01*
X139107Y-27520D01*
X139070Y-27557D01*
X138996Y-27612D01*
X138848Y-27668D01*
X138663Y-27705D01*
X138589D01*
X138496Y-27686D01*
X138404Y-27649D01*
X138385Y-27631D01*
X138311Y-27594D01*
X138181Y-27538D01*
X138052Y-27464D01*
X137885Y-27353D01*
X137719Y-27223D01*
X137552Y-27075D01*
X137404Y-26890D01*
X137385Y-26908D01*
X137348Y-26945D01*
X137274Y-27020D01*
X137182Y-27094D01*
X137071Y-27186D01*
X136922Y-27279D01*
X136756Y-27390D01*
X136571Y-27482D01*
X136552D01*
X136478Y-27520D01*
X136385Y-27557D01*
X136256Y-27594D01*
X136089Y-27631D01*
X135922Y-27668D01*
X135719Y-27686D01*
X135534Y-27705D01*
X134182D01*
X134108Y-27686D01*
X133923Y-27668D01*
X133682Y-27612D01*
X133404Y-27520D01*
X133126Y-27408D01*
X132830Y-27223D01*
X132534Y-26983D01*
X132497Y-26945D01*
X132423Y-26853D01*
X132293Y-26705D01*
X132164Y-26483D01*
X132034Y-26242D01*
X131904Y-25927D01*
X131830Y-25594D01*
X131793Y-25223D01*
Y-21465D01*
Y-21446D01*
Y-21409D01*
Y-21372D01*
X131812Y-21298D01*
X131830Y-21094D01*
X131886Y-20854D01*
X131978Y-20576D01*
X132090Y-20280D01*
X132275Y-19983D01*
X132515Y-19705D01*
X132552Y-19668D01*
X132645Y-19594D01*
X132793Y-19465D01*
X133015Y-19335D01*
X133256Y-19205D01*
X133571Y-19076D01*
X133904Y-19002D01*
X134275Y-18965D01*
X137496D01*
X137607Y-19002D01*
D02*
G37*
G36*
X120128D02*
X120239Y-19039D01*
X120350Y-19113D01*
X120461Y-19224D01*
X120535Y-19391D01*
X120554Y-19594D01*
Y-25205D01*
Y-25223D01*
Y-25260D01*
X120572Y-25334D01*
X120591Y-25446D01*
X120665Y-25686D01*
X120720Y-25816D01*
X120794Y-25964D01*
X120813Y-25983D01*
X120831Y-26020D01*
X120887Y-26094D01*
X120942Y-26168D01*
X121035Y-26260D01*
X121146Y-26353D01*
X121276Y-26446D01*
X121424Y-26520D01*
X121442D01*
X121480Y-26557D01*
X121554Y-26594D01*
X121628Y-26649D01*
X121683Y-26723D01*
X121757Y-26816D01*
X121794Y-26927D01*
X121813Y-27075D01*
Y-27094D01*
Y-27112D01*
X121794Y-27242D01*
X121739Y-27371D01*
X121628Y-27520D01*
X121591Y-27557D01*
X121517Y-27612D01*
X121368Y-27668D01*
X121183Y-27705D01*
X121109D01*
X121017Y-27686D01*
X120924Y-27649D01*
X120906Y-27631D01*
X120831Y-27594D01*
X120702Y-27538D01*
X120572Y-27464D01*
X120406Y-27353D01*
X120239Y-27223D01*
X120072Y-27075D01*
X119924Y-26890D01*
X119906Y-26908D01*
X119869Y-26945D01*
X119795Y-27020D01*
X119702Y-27094D01*
X119591Y-27186D01*
X119443Y-27279D01*
X119276Y-27390D01*
X119091Y-27482D01*
X119072D01*
X118998Y-27520D01*
X118906Y-27557D01*
X118776Y-27594D01*
X118609Y-27631D01*
X118443Y-27668D01*
X118239Y-27686D01*
X118054Y-27705D01*
X116702D01*
X116628Y-27686D01*
X116443Y-27668D01*
X116202Y-27612D01*
X115925Y-27520D01*
X115647Y-27408D01*
X115351Y-27223D01*
X115054Y-26983D01*
X115017Y-26945D01*
X114943Y-26853D01*
X114813Y-26705D01*
X114684Y-26483D01*
X114554Y-26242D01*
X114425Y-25927D01*
X114351Y-25594D01*
X114314Y-25223D01*
Y-21465D01*
Y-21446D01*
Y-21409D01*
Y-21372D01*
X114332Y-21298D01*
X114351Y-21094D01*
X114406Y-20854D01*
X114499Y-20576D01*
X114610Y-20280D01*
X114795Y-19983D01*
X115036Y-19705D01*
X115073Y-19668D01*
X115165Y-19594D01*
X115314Y-19465D01*
X115536Y-19335D01*
X115776Y-19205D01*
X116091Y-19076D01*
X116425Y-19002D01*
X116795Y-18965D01*
X120017D01*
X120128Y-19002D01*
D02*
G37*
G36*
X111332Y-15224D02*
X111481Y-15299D01*
X111555Y-15336D01*
X111629Y-15410D01*
X111666Y-15447D01*
X111721Y-15539D01*
X111777Y-15669D01*
X111814Y-15835D01*
Y-15872D01*
X111795Y-15965D01*
X111740Y-16095D01*
X111647Y-16243D01*
X111629Y-16280D01*
X111536Y-16335D01*
X111388Y-16409D01*
X111295Y-16428D01*
X111184Y-16446D01*
X107759D01*
X111055Y-19613D01*
X111203Y-19816D01*
X111221Y-19854D01*
X111295Y-19946D01*
X111388Y-20094D01*
X111518Y-20298D01*
X111629Y-20539D01*
X111721Y-20816D01*
X111795Y-21131D01*
X111814Y-21465D01*
Y-25205D01*
Y-25223D01*
Y-25242D01*
Y-25298D01*
X111795Y-25371D01*
X111777Y-25575D01*
X111721Y-25816D01*
X111629Y-26094D01*
X111499Y-26390D01*
X111314Y-26686D01*
X111073Y-26983D01*
X111036Y-27020D01*
X110944Y-27094D01*
X110795Y-27205D01*
X110592Y-27334D01*
X110332Y-27482D01*
X110036Y-27594D01*
X109684Y-27668D01*
X109314Y-27705D01*
X107962D01*
X107888Y-27686D01*
X107703Y-27668D01*
X107462Y-27612D01*
X107185Y-27520D01*
X106907Y-27408D01*
X106611Y-27223D01*
X106314Y-26983D01*
X106277Y-26945D01*
X106203Y-26853D01*
X106074Y-26705D01*
X105944Y-26483D01*
X105815Y-26242D01*
X105685Y-25927D01*
X105611Y-25594D01*
X105574Y-25223D01*
Y-21465D01*
Y-21446D01*
Y-21409D01*
Y-21372D01*
X105592Y-21298D01*
X105611Y-21094D01*
X105666Y-20854D01*
X105759Y-20576D01*
X105870Y-20280D01*
X106055Y-19983D01*
X106296Y-19705D01*
X106333Y-19668D01*
X106426Y-19594D01*
X106592Y-19465D01*
X106796Y-19335D01*
X107055Y-19205D01*
X107351Y-19076D01*
X107685Y-19002D01*
X108055Y-18965D01*
X108555D01*
X105759Y-16298D01*
Y-16280D01*
X105722Y-16261D01*
X105685Y-16206D01*
X105648Y-16132D01*
X105574Y-15965D01*
X105555Y-15872D01*
X105537Y-15761D01*
Y-15724D01*
X105555Y-15650D01*
X105592Y-15521D01*
X105685Y-15391D01*
X105722Y-15354D01*
X105815Y-15299D01*
X105963Y-15243D01*
X106185Y-15206D01*
X111221D01*
X111332Y-15224D01*
D02*
G37*
G36*
X102648Y-19002D02*
X102759Y-19039D01*
X102870Y-19113D01*
X102981Y-19224D01*
X103055Y-19391D01*
X103074Y-19594D01*
Y-25205D01*
Y-25223D01*
Y-25260D01*
X103092Y-25334D01*
X103111Y-25446D01*
X103185Y-25686D01*
X103241Y-25816D01*
X103315Y-25964D01*
X103333Y-25983D01*
X103352Y-26020D01*
X103407Y-26094D01*
X103463Y-26168D01*
X103555Y-26260D01*
X103666Y-26353D01*
X103796Y-26446D01*
X103944Y-26520D01*
X103963D01*
X104000Y-26557D01*
X104074Y-26594D01*
X104148Y-26649D01*
X104204Y-26723D01*
X104278Y-26816D01*
X104315Y-26927D01*
X104333Y-27075D01*
Y-27094D01*
Y-27112D01*
X104315Y-27242D01*
X104259Y-27371D01*
X104148Y-27520D01*
X104111Y-27557D01*
X104037Y-27612D01*
X103889Y-27668D01*
X103704Y-27705D01*
X103630D01*
X103537Y-27686D01*
X103444Y-27649D01*
X103426Y-27631D01*
X103352Y-27594D01*
X103222Y-27538D01*
X103092Y-27464D01*
X102926Y-27353D01*
X102759Y-27223D01*
X102593Y-27075D01*
X102444Y-26890D01*
X102426Y-26908D01*
X102389Y-26945D01*
X102315Y-27020D01*
X102222Y-27094D01*
X102111Y-27186D01*
X101963Y-27279D01*
X101796Y-27390D01*
X101611Y-27482D01*
X101593D01*
X101519Y-27520D01*
X101426Y-27557D01*
X101296Y-27594D01*
X101130Y-27631D01*
X100963Y-27668D01*
X100759Y-27686D01*
X100574Y-27705D01*
X99223D01*
X99149Y-27686D01*
X98963Y-27668D01*
X98723Y-27612D01*
X98445Y-27520D01*
X98167Y-27408D01*
X97871Y-27223D01*
X97575Y-26983D01*
X97537Y-26945D01*
X97464Y-26853D01*
X97334Y-26705D01*
X97204Y-26483D01*
X97075Y-26242D01*
X96945Y-25927D01*
X96871Y-25594D01*
X96834Y-25223D01*
Y-21465D01*
Y-21446D01*
Y-21409D01*
Y-21372D01*
X96852Y-21298D01*
X96871Y-21094D01*
X96926Y-20854D01*
X97019Y-20576D01*
X97130Y-20280D01*
X97315Y-19983D01*
X97556Y-19705D01*
X97593Y-19668D01*
X97686Y-19594D01*
X97834Y-19465D01*
X98056Y-19335D01*
X98297Y-19205D01*
X98611Y-19076D01*
X98945Y-19002D01*
X99315Y-18965D01*
X102537D01*
X102648Y-19002D01*
D02*
G37*
G36*
X93908Y-15243D02*
X94019Y-15280D01*
X94130Y-15354D01*
X94242Y-15465D01*
X94316Y-15632D01*
X94334Y-15835D01*
Y-27094D01*
Y-27112D01*
Y-27149D01*
X94316Y-27260D01*
X94260Y-27408D01*
X94149Y-27557D01*
X94112Y-27575D01*
X94038Y-27631D01*
X93890Y-27686D01*
X93705Y-27705D01*
X93668D01*
X93556Y-27686D01*
X93427Y-27649D01*
X93279Y-27557D01*
X93242Y-27520D01*
X93186Y-27445D01*
X93131Y-27297D01*
X93094Y-27094D01*
Y-16446D01*
X91057D01*
X88057Y-27242D01*
Y-27279D01*
X88020Y-27353D01*
X87964Y-27464D01*
X87853Y-27575D01*
X87816Y-27594D01*
X87742Y-27631D01*
X87613Y-27686D01*
X87465Y-27705D01*
X87428D01*
X87298Y-27686D01*
X87150Y-27649D01*
X87002Y-27557D01*
X86983Y-27520D01*
X86927Y-27445D01*
X86854Y-27297D01*
X86835Y-27112D01*
Y-27094D01*
Y-27038D01*
Y-26983D01*
X86854Y-26927D01*
X89983Y-15687D01*
Y-15669D01*
X90020Y-15613D01*
X90057Y-15539D01*
X90112Y-15447D01*
X90187Y-15354D01*
X90279Y-15280D01*
X90409Y-15224D01*
X90575Y-15206D01*
X93797D01*
X93908Y-15243D01*
D02*
G37*
G36*
X164419Y-18983D02*
X164623Y-19002D01*
X164864Y-19057D01*
X165123Y-19150D01*
X165419Y-19280D01*
X165716Y-19465D01*
X166012Y-19705D01*
X166049Y-19742D01*
X166123Y-19835D01*
X166253Y-19983D01*
X166382Y-20187D01*
X166512Y-20446D01*
X166642Y-20742D01*
X166716Y-21094D01*
X166753Y-21465D01*
Y-25223D01*
Y-25242D01*
Y-25260D01*
Y-25316D01*
X166734Y-25390D01*
X166716Y-25575D01*
X166660Y-25816D01*
X166567Y-26094D01*
X166438Y-26390D01*
X166253Y-26686D01*
X166012Y-26982D01*
X165975Y-27020D01*
X165882Y-27094D01*
X165716Y-27205D01*
X165512Y-27334D01*
X165253Y-27482D01*
X164956Y-27594D01*
X164623Y-27668D01*
X164253Y-27705D01*
X161753D01*
Y-30815D01*
Y-30834D01*
Y-30852D01*
X161735Y-30963D01*
X161660Y-31112D01*
X161623Y-31186D01*
X161549Y-31260D01*
X161512Y-31297D01*
X161420Y-31352D01*
X161290Y-31408D01*
X161124Y-31445D01*
X161087D01*
X160994Y-31426D01*
X160864Y-31371D01*
X160716Y-31278D01*
X160679Y-31241D01*
X160624Y-31167D01*
X160550Y-31019D01*
X160531Y-30926D01*
X160513Y-30815D01*
Y-19594D01*
Y-19576D01*
X160531Y-19502D01*
X160550Y-19391D01*
X160587Y-19280D01*
X160661Y-19168D01*
X160772Y-19057D01*
X160920Y-18983D01*
X161124Y-18965D01*
X164345D01*
X164419Y-18983D01*
D02*
G37*
G36*
X126960Y-18983D02*
X127164Y-19002D01*
X127405Y-19057D01*
X127664Y-19150D01*
X127960Y-19280D01*
X128257Y-19465D01*
X128553Y-19705D01*
X128590Y-19742D01*
X128664Y-19835D01*
X128794Y-19983D01*
X128923Y-20187D01*
X129053Y-20446D01*
X129182Y-20742D01*
X129256Y-21094D01*
X129293Y-21465D01*
Y-25223D01*
Y-25242D01*
Y-25260D01*
Y-25316D01*
X129275Y-25390D01*
X129256Y-25575D01*
X129201Y-25816D01*
X129108Y-26094D01*
X128979Y-26390D01*
X128794Y-26686D01*
X128553Y-26983D01*
X128516Y-27020D01*
X128423Y-27094D01*
X128257Y-27205D01*
X128053Y-27334D01*
X127794Y-27482D01*
X127497Y-27594D01*
X127164Y-27668D01*
X126794Y-27705D01*
X124294D01*
Y-30815D01*
Y-30834D01*
Y-30852D01*
X124276Y-30963D01*
X124201Y-31112D01*
X124164Y-31186D01*
X124090Y-31260D01*
X124053Y-31297D01*
X123961Y-31352D01*
X123831Y-31408D01*
X123665Y-31445D01*
X123627D01*
X123535Y-31426D01*
X123405Y-31371D01*
X123257Y-31278D01*
X123220Y-31241D01*
X123165Y-31167D01*
X123090Y-31019D01*
X123072Y-30926D01*
X123053Y-30815D01*
Y-19594D01*
Y-19576D01*
X123072Y-19502D01*
X123090Y-19391D01*
X123127Y-19280D01*
X123202Y-19168D01*
X123313Y-19057D01*
X123461Y-18983D01*
X123665Y-18965D01*
X126886D01*
X126960Y-18983D01*
D02*
G37*
G36*
X99480Y17960D02*
X99776Y17812D01*
X99961Y17738D01*
X100109Y17590D01*
X100146D01*
X100183Y17516D01*
X100331Y17331D01*
X100443Y17072D01*
X100517Y16886D01*
Y16701D01*
Y16627D01*
X100480Y16479D01*
X100369Y16220D01*
X100183Y15886D01*
X92999Y5480D01*
Y-5778D01*
Y-5815D01*
Y-5889D01*
X92962Y-6111D01*
X92851Y-6407D01*
X92629Y-6704D01*
X92555Y-6741D01*
X92406Y-6852D01*
X92110Y-6963D01*
X91740Y-7000D01*
X91666D01*
X91444Y-6963D01*
X91184Y-6889D01*
X90888Y-6704D01*
X90814Y-6630D01*
X90703Y-6482D01*
X90592Y-6185D01*
X90518Y-5778D01*
Y5480D01*
X83296Y15886D01*
X83259Y15961D01*
X83148Y16146D01*
X83037Y16405D01*
X83000Y16701D01*
Y16738D01*
Y16775D01*
X83037Y16961D01*
X83148Y17257D01*
X83370Y17553D01*
Y17590D01*
X83444Y17627D01*
X83630Y17775D01*
X83889Y17923D01*
X84074Y17997D01*
X84333D01*
X84555Y17923D01*
X84852Y17812D01*
X85037Y17664D01*
X85185Y17516D01*
X91740Y7887D01*
X98295Y17516D01*
Y17553D01*
X98369Y17590D01*
X98554Y17775D01*
X98813Y17923D01*
X98998Y17960D01*
X99184Y17997D01*
X99258D01*
X99480Y17960D01*
D02*
G37*
G36*
X189248Y17960D02*
X189545Y17849D01*
X189841Y17664D01*
X189878D01*
X189915Y17627D01*
X190063Y17442D01*
X190174Y17146D01*
X190248Y16961D01*
Y16738D01*
Y-5630D01*
Y-5667D01*
Y-5741D01*
Y-5852D01*
X190211Y-5963D01*
X190100Y-6296D01*
X189878Y-6630D01*
X189508Y-6926D01*
X189471D01*
X189396Y-6963D01*
X189248Y-7000D01*
X188952D01*
X188804Y-6963D01*
X188656Y-6889D01*
X188433Y-6815D01*
X188248Y-6704D01*
X188063Y-6519D01*
X187878Y-6259D01*
X177768Y11739D01*
Y-5778D01*
Y-5815D01*
Y-5889D01*
X177731Y-6111D01*
X177620Y-6407D01*
X177398Y-6704D01*
X177324Y-6741D01*
X177175Y-6852D01*
X176879Y-6963D01*
X176509Y-7000D01*
X176435D01*
X176213Y-6963D01*
X175953Y-6889D01*
X175657Y-6704D01*
X175583Y-6630D01*
X175472Y-6482D01*
X175361Y-6185D01*
X175287Y-5778D01*
Y16590D01*
Y16627D01*
Y16701D01*
X175324Y16812D01*
Y16961D01*
X175435Y17294D01*
X175620Y17627D01*
X175694Y17701D01*
X175842Y17812D01*
X176101Y17923D01*
X176435Y17997D01*
X176546D01*
X176694Y17960D01*
X176879Y17886D01*
X177064Y17812D01*
X177250Y17664D01*
X177435Y17442D01*
X177620Y17183D01*
X187767Y-778D01*
Y16738D01*
Y16775D01*
Y16812D01*
X187804Y17035D01*
X187915Y17331D01*
X188137Y17664D01*
X188211Y17701D01*
X188396Y17849D01*
X188656Y17960D01*
X188989Y17997D01*
X189063D01*
X189248Y17960D01*
D02*
G37*
G36*
X201951Y18146D02*
X202173Y18034D01*
X202469Y17812D01*
X202506Y17738D01*
X202654Y17516D01*
X202765Y17183D01*
X202802Y16738D01*
Y-5778D01*
Y-5815D01*
Y-5889D01*
X202765Y-6111D01*
X202654Y-6407D01*
X202432Y-6704D01*
X202358Y-6741D01*
X202210Y-6852D01*
X201914Y-6963D01*
X201543Y-7000D01*
X201469D01*
X201247Y-6963D01*
X200988Y-6889D01*
X200692Y-6704D01*
X200618Y-6630D01*
X200506Y-6482D01*
X200395Y-6185D01*
X200321Y-5778D01*
Y13739D01*
X197433Y10850D01*
X197358Y10776D01*
X197173Y10665D01*
X196877Y10554D01*
X196544Y10480D01*
X196470D01*
X196285Y10517D01*
X195988Y10628D01*
X195692Y10850D01*
Y10887D01*
X195618Y10924D01*
X195507Y11109D01*
X195359Y11406D01*
X195322Y11554D01*
X195285Y11739D01*
Y11776D01*
Y11813D01*
X195322Y11998D01*
X195433Y12294D01*
X195655Y12591D01*
X200655Y17627D01*
X200692Y17664D01*
X200803Y17775D01*
X200988Y17923D01*
X201173Y18034D01*
X201210Y18072D01*
X201358Y18109D01*
X201543Y18146D01*
X201765Y18183D01*
X201803D01*
X201951Y18146D01*
D02*
G37*
G36*
X166880Y17960D02*
X167176Y17812D01*
X167325Y17738D01*
X167473Y17590D01*
X167510Y17516D01*
X167621Y17331D01*
X167732Y17035D01*
X167769Y16664D01*
Y16627D01*
Y16479D01*
X167695Y16257D01*
X167621Y16072D01*
X167584Y16035D01*
X167510Y15924D01*
X167325Y15738D01*
X167028Y15553D01*
X166991D01*
X166954Y15516D01*
X166732Y15405D01*
X166436Y15257D01*
X166103Y15109D01*
X166028Y15072D01*
X165843Y14998D01*
X165584Y14813D01*
X165251Y14627D01*
X165214Y14590D01*
X165103Y14553D01*
X164954Y14405D01*
X164769Y14257D01*
X164251Y13850D01*
X163695Y13331D01*
X163621Y13257D01*
X163436Y13072D01*
X163177Y12776D01*
X162844Y12368D01*
X162510Y11850D01*
X162103Y11294D01*
X161770Y10665D01*
X161436Y9961D01*
X161066Y8961D01*
X160770Y7961D01*
X165473D01*
X165621Y7924D01*
X166028Y7887D01*
X166510Y7776D01*
X167028Y7591D01*
X167621Y7332D01*
X168213Y6962D01*
X168806Y6480D01*
X168880Y6406D01*
X169028Y6221D01*
X169287Y5925D01*
X169547Y5517D01*
X169806Y4999D01*
X170065Y4406D01*
X170213Y3703D01*
X170287Y2962D01*
Y-2037D01*
Y-2075D01*
Y-2112D01*
Y-2223D01*
X170250Y-2371D01*
X170213Y-2741D01*
X170102Y-3223D01*
X169917Y-3778D01*
X169658Y-4371D01*
X169287Y-4963D01*
X168806Y-5556D01*
X168732Y-5630D01*
X168547Y-5778D01*
X168250Y-6000D01*
X167843Y-6259D01*
X167325Y-6556D01*
X166732Y-6778D01*
X166028Y-6926D01*
X165288Y-7000D01*
X162584D01*
X162436Y-6963D01*
X162066Y-6926D01*
X161584Y-6815D01*
X161029Y-6630D01*
X160473Y-6407D01*
X159881Y-6037D01*
X159288Y-5556D01*
X159214Y-5482D01*
X159066Y-5296D01*
X158807Y-5000D01*
X158548Y-4556D01*
X158288Y-4074D01*
X158029Y-3445D01*
X157881Y-2778D01*
X157807Y-2037D01*
Y4221D01*
Y4258D01*
Y4369D01*
Y4554D01*
X157844Y4814D01*
Y5147D01*
X157881Y5517D01*
X157918Y5925D01*
X157992Y6406D01*
X158029Y6888D01*
X158140Y7443D01*
X158363Y8554D01*
X158696Y9776D01*
X159140Y10961D01*
Y10998D01*
X159177Y11072D01*
X159251Y11183D01*
X159325Y11331D01*
X159548Y11776D01*
X159844Y12294D01*
X160214Y12924D01*
X160696Y13591D01*
X161251Y14294D01*
X161881Y14998D01*
X161918Y15035D01*
X161955Y15072D01*
X162066Y15183D01*
X162214Y15294D01*
X162584Y15627D01*
X163103Y16035D01*
X163695Y16479D01*
X164399Y16961D01*
X165214Y17442D01*
X166066Y17849D01*
X166584Y17997D01*
X166658D01*
X166880Y17960D01*
D02*
G37*
G36*
X146142Y17960D02*
X146401Y17923D01*
X146697Y17886D01*
X147364Y17738D01*
X148141Y17516D01*
X148993Y17183D01*
X149401Y16961D01*
X149808Y16701D01*
X150215Y16368D01*
X150623Y16035D01*
X150660Y15998D01*
X150697Y15961D01*
X150808Y15849D01*
X150956Y15701D01*
X151104Y15516D01*
X151252Y15294D01*
X151660Y14739D01*
X152030Y14072D01*
X152326Y13257D01*
X152585Y12368D01*
X152622Y11887D01*
X152660Y11406D01*
Y11331D01*
Y11146D01*
X152622Y10850D01*
X152548Y10443D01*
X152474Y9998D01*
X152326Y9480D01*
X152104Y8924D01*
X151845Y8332D01*
X143771Y-4519D01*
X151622D01*
X151845Y-4556D01*
X152141Y-4704D01*
X152252Y-4778D01*
X152400Y-4926D01*
X152474Y-5000D01*
X152585Y-5185D01*
X152697Y-5445D01*
X152771Y-5778D01*
Y-5852D01*
X152733Y-6037D01*
X152622Y-6296D01*
X152437Y-6593D01*
X152400Y-6667D01*
X152215Y-6778D01*
X151956Y-6926D01*
X151771Y-6963D01*
X151549Y-7000D01*
X141327D01*
X141105Y-6963D01*
X140883Y-6889D01*
X140624Y-6741D01*
X140401Y-6593D01*
X140253Y-6333D01*
X140179Y-6000D01*
Y-5926D01*
X140216Y-5741D01*
X140290Y-5445D01*
X140476Y-5074D01*
X149697Y9628D01*
X149734Y9665D01*
X149771Y9813D01*
X149845Y9998D01*
X149956Y10258D01*
X150030Y10517D01*
X150104Y10850D01*
X150141Y11183D01*
X150178Y11517D01*
Y11554D01*
Y11591D01*
Y11776D01*
X150104Y12072D01*
X150030Y12479D01*
X149882Y12887D01*
X149660Y13368D01*
X149326Y13850D01*
X148919Y14294D01*
X148882Y14331D01*
X148808Y14405D01*
X148697Y14479D01*
X148512Y14627D01*
X148104Y14887D01*
X147549Y15183D01*
X147512D01*
X147401Y15220D01*
X147253Y15294D01*
X147030Y15368D01*
X146808Y15405D01*
X146512Y15479D01*
X145845Y15516D01*
X145697D01*
X145512Y15479D01*
X145290Y15442D01*
X144994Y15405D01*
X144697Y15294D01*
X144364Y15183D01*
X144031Y14998D01*
X143994Y14961D01*
X143883Y14887D01*
X143735Y14776D01*
X143512Y14627D01*
X143290Y14405D01*
X143031Y14146D01*
X142586Y13553D01*
X142549Y13516D01*
X142475Y13405D01*
X142327Y13257D01*
X142105Y13109D01*
X141550Y12998D01*
X141475D01*
X141253Y13035D01*
X140957Y13146D01*
X140661Y13331D01*
X140587Y13405D01*
X140476Y13590D01*
X140327Y13850D01*
X140290Y14035D01*
X140253Y14220D01*
Y14257D01*
X140290Y14405D01*
X140364Y14627D01*
X140476Y14924D01*
X140513Y14998D01*
X140624Y15146D01*
X140809Y15405D01*
X141105Y15701D01*
X141438Y16035D01*
X141809Y16405D01*
X142290Y16775D01*
X142809Y17109D01*
X142846Y17146D01*
X142920Y17183D01*
X143068Y17257D01*
X143253Y17331D01*
X143735Y17553D01*
X144253Y17738D01*
X144290D01*
X144364Y17775D01*
X144512Y17812D01*
X144697Y17886D01*
X145179Y17960D01*
X145660Y17997D01*
X145956D01*
X146142Y17960D01*
D02*
G37*
G36*
X130180D02*
X130588Y17923D01*
X131143Y17812D01*
X131736Y17590D01*
X132365Y17294D01*
X133032Y16923D01*
X133365Y16664D01*
X133661Y16368D01*
X133699D01*
X133736Y16294D01*
X133921Y16072D01*
X134180Y15738D01*
X134513Y15294D01*
X134810Y14739D01*
X135069Y14072D01*
X135254Y13294D01*
X135328Y12887D01*
Y12479D01*
Y-1519D01*
Y-1556D01*
Y-1630D01*
Y-1741D01*
X135291Y-1889D01*
X135254Y-2297D01*
X135143Y-2815D01*
X134921Y-3445D01*
X134624Y-4074D01*
X134254Y-4741D01*
X133995Y-5074D01*
X133699Y-5371D01*
X133624Y-5445D01*
X133402Y-5630D01*
X133069Y-5889D01*
X132625Y-6185D01*
X132069Y-6482D01*
X131402Y-6741D01*
X130625Y-6926D01*
X130217Y-6963D01*
X129810Y-7000D01*
X128106D01*
X127958Y-6963D01*
X127551Y-6926D01*
X127032Y-6815D01*
X126403Y-6630D01*
X125773Y-6333D01*
X125107Y-5963D01*
X124477Y-5445D01*
Y-5408D01*
X124403Y-5371D01*
X124218Y-5148D01*
X123959Y-4815D01*
X123663Y-4371D01*
X123366Y-3778D01*
X123107Y-3112D01*
X122922Y-2371D01*
X122885Y-1963D01*
X122848Y-1519D01*
Y12479D01*
Y12516D01*
Y12591D01*
Y12702D01*
X122885Y12850D01*
X122922Y13257D01*
X123033Y13776D01*
X123255Y14368D01*
X123514Y15035D01*
X123922Y15701D01*
X124144Y15998D01*
X124440Y16331D01*
X124477Y16368D01*
X124514Y16405D01*
X124736Y16590D01*
X125070Y16849D01*
X125514Y17183D01*
X126107Y17479D01*
X126736Y17738D01*
X127514Y17923D01*
X127921Y17997D01*
X130032D01*
X130180Y17960D01*
D02*
G37*
G36*
X111182D02*
X111441Y17923D01*
X111738Y17886D01*
X112404Y17738D01*
X113182Y17516D01*
X114034Y17183D01*
X114441Y16961D01*
X114849Y16701D01*
X115256Y16368D01*
X115663Y16035D01*
X115700Y15998D01*
X115737Y15961D01*
X115849Y15849D01*
X115997Y15701D01*
X116145Y15516D01*
X116293Y15294D01*
X116700Y14739D01*
X117071Y14072D01*
X117367Y13257D01*
X117626Y12368D01*
X117663Y11887D01*
X117700Y11406D01*
Y11331D01*
Y11146D01*
X117663Y10850D01*
X117589Y10443D01*
X117515Y9998D01*
X117367Y9480D01*
X117145Y8924D01*
X116885Y8332D01*
X108812Y-4519D01*
X116663D01*
X116885Y-4556D01*
X117182Y-4704D01*
X117293Y-4778D01*
X117441Y-4926D01*
X117515Y-5000D01*
X117626Y-5185D01*
X117737Y-5445D01*
X117811Y-5778D01*
Y-5852D01*
X117774Y-6037D01*
X117663Y-6296D01*
X117478Y-6593D01*
X117441Y-6667D01*
X117256Y-6778D01*
X116996Y-6926D01*
X116811Y-6963D01*
X116589Y-7000D01*
X106368D01*
X106146Y-6963D01*
X105924Y-6889D01*
X105664Y-6741D01*
X105442Y-6593D01*
X105294Y-6333D01*
X105220Y-6000D01*
Y-5926D01*
X105257Y-5741D01*
X105331Y-5445D01*
X105516Y-5074D01*
X114738Y9628D01*
X114775Y9665D01*
X114811Y9813D01*
X114886Y9998D01*
X114997Y10258D01*
X115071Y10517D01*
X115145Y10850D01*
X115182Y11183D01*
X115219Y11517D01*
Y11554D01*
Y11591D01*
Y11776D01*
X115145Y12072D01*
X115071Y12479D01*
X114923Y12887D01*
X114700Y13368D01*
X114367Y13850D01*
X113960Y14294D01*
X113923Y14331D01*
X113849Y14405D01*
X113738Y14479D01*
X113552Y14627D01*
X113145Y14887D01*
X112590Y15183D01*
X112552D01*
X112441Y15220D01*
X112293Y15294D01*
X112071Y15368D01*
X111849Y15405D01*
X111553Y15479D01*
X110886Y15516D01*
X110738D01*
X110553Y15479D01*
X110330Y15442D01*
X110034Y15405D01*
X109738Y15294D01*
X109405Y15183D01*
X109071Y14998D01*
X109034Y14961D01*
X108923Y14887D01*
X108775Y14776D01*
X108553Y14627D01*
X108331Y14405D01*
X108071Y14146D01*
X107627Y13553D01*
X107590Y13516D01*
X107516Y13405D01*
X107368Y13257D01*
X107146Y13109D01*
X106590Y12998D01*
X106516D01*
X106294Y13035D01*
X105998Y13146D01*
X105701Y13331D01*
X105627Y13405D01*
X105516Y13590D01*
X105368Y13850D01*
X105331Y14035D01*
X105294Y14220D01*
Y14257D01*
X105331Y14405D01*
X105405Y14627D01*
X105516Y14924D01*
X105553Y14998D01*
X105664Y15146D01*
X105850Y15405D01*
X106146Y15701D01*
X106479Y16035D01*
X106849Y16405D01*
X107331Y16775D01*
X107849Y17109D01*
X107886Y17146D01*
X107960Y17183D01*
X108109Y17257D01*
X108294Y17331D01*
X108775Y17553D01*
X109294Y17738D01*
X109331D01*
X109405Y17775D01*
X109553Y17812D01*
X109738Y17886D01*
X110219Y17960D01*
X110701Y17997D01*
X110997D01*
X111182Y17960D01*
D02*
G37*
%LPC*%
G36*
X181584Y524709D02*
Y524038D01*
X181538Y524153D01*
X181468Y524338D01*
X181376Y524431D01*
X181353Y524477D01*
X181329D01*
X181144Y524616D01*
X180959Y524685D01*
X180820Y524709D01*
X181584D01*
X171403D01*
D01*
X180658D01*
X180566Y524685D01*
X180497Y524662D01*
X180473Y524639D01*
X180334Y524547D01*
X180196Y524408D01*
X180103Y524315D01*
X180080Y524223D01*
X180057Y524199D01*
X171472Y502356D01*
X171426Y502263D01*
X171403Y502171D01*
Y504346D01*
Y502171D01*
D01*
Y502078D01*
X171426Y501963D01*
X171449Y501847D01*
X171542Y501662D01*
X171611Y501569D01*
X171657Y501523D01*
X171866Y501384D01*
X172051Y501315D01*
X172189Y501292D01*
X172236D01*
X172444Y501338D01*
X172652Y501453D01*
X172791Y501569D01*
X172884Y501685D01*
X172930Y501777D01*
X172953Y501800D01*
X181538Y523644D01*
X181584Y523829D01*
Y504369D01*
Y524709D01*
D02*
G37*
G36*
X194820Y520034D02*
Y519386D01*
X194774Y519502D01*
X194704Y519687D01*
X194611Y519803D01*
X194588Y519826D01*
X194565D01*
X194380Y519942D01*
X194195Y520011D01*
X194079Y520034D01*
X194820D01*
X185471D01*
X186189D01*
X185980Y519988D01*
X185819Y519919D01*
X185726Y519849D01*
X185680Y519803D01*
X185564Y519595D01*
X185495Y519386D01*
Y519294D01*
X185471Y519225D01*
Y519248D01*
Y505179D01*
X185518Y504924D01*
X185587Y504739D01*
X185657Y504647D01*
X185703Y504600D01*
X185888Y504485D01*
X186050Y504438D01*
X186189Y504415D01*
X194195D01*
X194288Y504438D01*
X194334Y504462D01*
X194357D01*
X194588Y504647D01*
X194727Y504855D01*
X194797Y505063D01*
X194820Y505133D01*
Y520034D01*
D02*
G37*
G36*
X163790D02*
X163605D01*
X163049Y520011D01*
X162517Y519942D01*
X162031Y519826D01*
X161615Y519710D01*
X161268Y519595D01*
X161129Y519548D01*
X161013Y519479D01*
X160921Y519456D01*
X160851Y519410D01*
X160805Y519386D01*
X160782D01*
X160458Y519178D01*
X160180Y518970D01*
X159949Y518762D01*
X159764Y518577D01*
X159625Y518391D01*
X159509Y518253D01*
X159463Y518160D01*
X159440Y518137D01*
X159301Y517859D01*
X159208Y517582D01*
X159139Y517304D01*
X159093Y517072D01*
X159069Y516864D01*
X159046Y516702D01*
Y516610D01*
Y516563D01*
X159069Y516332D01*
X159093Y516101D01*
X159139Y515892D01*
X159185Y515707D01*
X159231Y515545D01*
X159278Y515430D01*
X159324Y515337D01*
Y515314D01*
X159440Y515106D01*
X159579Y514921D01*
X159717Y514759D01*
X159833Y514643D01*
X159949Y514527D01*
X160041Y514458D01*
X160088Y514412D01*
X160111Y514388D01*
X165896Y510108D01*
X166057Y509946D01*
X166220Y509807D01*
X166335Y509668D01*
X166428Y509529D01*
X166497Y509436D01*
X166543Y509344D01*
X166590Y509298D01*
Y509274D01*
X166682Y509066D01*
X166728Y508881D01*
X166775Y508696D01*
X166821Y508534D01*
Y508395D01*
X166844Y508280D01*
Y508210D01*
Y508187D01*
Y508002D01*
X166821Y507840D01*
X166798Y507724D01*
X166775Y507701D01*
Y507678D01*
X166728Y507516D01*
X166659Y507354D01*
X166613Y507238D01*
X166590Y507215D01*
Y507192D01*
X166381Y506914D01*
X166173Y506706D01*
X166104Y506637D01*
X166034Y506590D01*
X165988Y506544D01*
X165965D01*
X165502Y506336D01*
X165039Y506174D01*
X164623Y506058D01*
X164253Y505989D01*
X163952Y505942D01*
X163720Y505896D01*
X163512D01*
X163188Y505919D01*
X162887Y505942D01*
X162610Y505989D01*
X162355Y506058D01*
X162124Y506104D01*
X161962Y506151D01*
X161869Y506174D01*
X161823Y506197D01*
X161522Y506313D01*
X161221Y506451D01*
X160944Y506590D01*
X160689Y506729D01*
X160481Y506868D01*
X160319Y506961D01*
X160226Y507030D01*
X160180Y507053D01*
X160018Y507146D01*
X159879Y507169D01*
X159787Y507192D01*
X159625D01*
X159532Y507146D01*
X159347Y507076D01*
X159255Y506984D01*
X159208Y506961D01*
Y506937D01*
X159093Y506752D01*
X159023Y506567D01*
X159000Y506428D01*
Y506544D01*
Y504346D01*
Y506359D01*
X159023Y506220D01*
X159046Y506104D01*
X159185Y505896D01*
X159301Y505780D01*
X159324Y505734D01*
X159347D01*
X159579Y505595D01*
X159787Y505457D01*
X159972Y505341D01*
X160134Y505248D01*
X160250Y505179D01*
X160342Y505133D01*
X160388Y505086D01*
X160411D01*
X160735Y504924D01*
X161059Y504785D01*
X161198Y504739D01*
X161314Y504693D01*
X161383Y504670D01*
X161406D01*
X161777Y504554D01*
X162147Y504485D01*
X162494Y504415D01*
X162818Y504392D01*
X163096Y504369D01*
X163304Y504346D01*
X159000D01*
X168371D01*
Y508233D01*
X168348Y508580D01*
X168302Y508904D01*
X168233Y509205D01*
X168140Y509460D01*
X168048Y509691D01*
X167978Y509853D01*
X167932Y509969D01*
X167909Y510015D01*
X167724Y510339D01*
X167538Y510617D01*
X167353Y510848D01*
X167168Y511056D01*
X167029Y511195D01*
X166891Y511311D01*
X166798Y511380D01*
X166775Y511403D01*
X160990Y515661D01*
X160851Y515800D01*
X160735Y515939D01*
X160666Y516077D01*
X160597Y516216D01*
X160574Y516355D01*
X160550Y516448D01*
Y516517D01*
Y516540D01*
Y516725D01*
X160574Y516864D01*
X160597Y516957D01*
Y516980D01*
X160805Y517350D01*
X161036Y517605D01*
X161268Y517813D01*
X161360Y517882D01*
X161430Y517929D01*
X161476Y517975D01*
X161499D01*
X161869Y518137D01*
X162239Y518276D01*
X162587Y518368D01*
X162910Y518415D01*
X163188Y518461D01*
X163420Y518484D01*
X163929D01*
X164253Y518438D01*
X164877Y518322D01*
X165433Y518137D01*
X165919Y517952D01*
X166127Y517836D01*
X166312Y517744D01*
X166497Y517651D01*
X166636Y517559D01*
X166752Y517489D01*
X166821Y517443D01*
X166867Y517420D01*
X166891Y517397D01*
X167052Y517304D01*
X167215Y517258D01*
X167307Y517234D01*
X167353D01*
X167469Y517258D01*
X167562Y517281D01*
X167724Y517373D01*
X167839Y517466D01*
X167885Y517512D01*
X167978Y517628D01*
X168024Y517720D01*
X168117Y517906D01*
X168140Y518021D01*
Y518044D01*
Y518068D01*
X168117Y518206D01*
X168094Y518299D01*
X168071Y518368D01*
X168048Y518391D01*
X167978Y518507D01*
X167909Y518623D01*
X167839Y518669D01*
X167816Y518692D01*
X167446Y518924D01*
X167099Y519132D01*
X166752Y519294D01*
X166451Y519433D01*
X166173Y519548D01*
X165965Y519618D01*
X165826Y519664D01*
X165803Y519687D01*
X165780D01*
X165387Y519803D01*
X164993Y519896D01*
X164623Y519942D01*
X164299Y519988D01*
X164021Y520011D01*
X163790Y520034D01*
D02*
G37*
%LPD*%
G36*
X193825Y520011D02*
X193663Y519942D01*
X193547Y519849D01*
X193501Y519826D01*
X193362Y519618D01*
X193293Y519433D01*
X193269Y519294D01*
Y519271D01*
Y519248D01*
Y508303D01*
X186929Y519525D01*
X186814Y519687D01*
X186698Y519826D01*
X186582Y519919D01*
X186467Y519965D01*
X186351Y520011D01*
X186258Y520034D01*
X194033D01*
X193825Y520011D01*
D02*
G37*
G36*
X193339Y504878D02*
X193455Y504716D01*
X193570Y504600D01*
X193686Y504531D01*
X193825Y504485D01*
X193917Y504438D01*
X194010Y504415D01*
X186235D01*
X186467Y504438D01*
X186652Y504508D01*
X186744Y504577D01*
X186790Y504600D01*
X186929Y504785D01*
X186999Y504971D01*
X187022Y505109D01*
Y505156D01*
Y505179D01*
Y516124D01*
X193339Y504878D01*
D02*
G37*
G36*
X168371Y504346D02*
X163489D01*
X164044Y504369D01*
X164322Y504415D01*
X164553Y504438D01*
X164762Y504485D01*
X164924Y504508D01*
X165016Y504531D01*
X165063D01*
X165387Y504647D01*
X165687Y504762D01*
X165965Y504878D01*
X166220Y504971D01*
X166405Y505063D01*
X166567Y505109D01*
X166659Y505156D01*
X166682Y505179D01*
X166983Y505364D01*
X167238Y505572D01*
X167469Y505780D01*
X167631Y505989D01*
X167770Y506174D01*
X167885Y506313D01*
X167932Y506405D01*
X167955Y506451D01*
X168094Y506752D01*
X168186Y507076D01*
X168279Y507377D01*
X168325Y507655D01*
X168348Y507886D01*
X168371Y508071D01*
Y504346D01*
D02*
G37*
%LPC*%
G36*
X169945Y556786D02*
X160738D01*
X169228D01*
X169066Y556763D01*
X168904Y556717D01*
X168788Y556624D01*
X168672Y556532D01*
X168603Y556439D01*
X168533Y556347D01*
X168510Y556301D01*
X168487Y556277D01*
X164461Y549590D01*
X160435Y556277D01*
X160296Y556463D01*
X160203Y556578D01*
X160111Y556648D01*
X160088Y556671D01*
X159949Y556740D01*
X159833Y556763D01*
X159740Y556786D01*
X159000D01*
X159602D01*
X159509Y556740D01*
X159347Y556671D01*
X159255Y556578D01*
X159208Y556555D01*
Y556532D01*
X159139Y556439D01*
X159093Y556347D01*
X159023Y556115D01*
Y556023D01*
X159000Y555930D01*
Y541885D01*
X159046Y541630D01*
X159116Y541445D01*
X159185Y541352D01*
X159231Y541306D01*
X159417Y541190D01*
X159579Y541144D01*
X159717Y541121D01*
X162074D01*
X159764D01*
X159995Y541144D01*
X160180Y541214D01*
X160273Y541283D01*
X160319Y541306D01*
X160458Y541491D01*
X160527Y541676D01*
X160550Y541815D01*
Y541861D01*
Y541885D01*
Y553015D01*
X163790Y547623D01*
X163929Y547461D01*
X164044Y547346D01*
X164160Y547253D01*
X164253Y547207D01*
X164345Y547160D01*
X164415Y547137D01*
X164461D01*
X164600Y547160D01*
X164739Y547207D01*
X164947Y547392D01*
X165039Y547461D01*
X165109Y547554D01*
X165132Y547600D01*
X165155Y547623D01*
X168395Y553015D01*
Y541885D01*
X168418Y541746D01*
X168441Y541630D01*
X168533Y541445D01*
X168603Y541352D01*
X168649Y541306D01*
X168834Y541190D01*
X168996Y541144D01*
X169112Y541121D01*
X169158D01*
X169390Y541144D01*
X169575Y541214D01*
X169667Y541283D01*
X169713Y541306D01*
X169852Y541491D01*
X169922Y541676D01*
X169945Y541815D01*
Y555861D01*
X169922Y556138D01*
X169852Y556347D01*
X169760Y556486D01*
X169737Y556532D01*
X169644Y556624D01*
X169552Y556671D01*
X169390Y556763D01*
X169274Y556786D01*
X169945D01*
D01*
D02*
G37*
G36*
X215182Y542671D02*
Y542000D01*
X215136Y542116D01*
X215044Y542278D01*
X214951Y542394D01*
X214928Y542440D01*
X214905D01*
X214720Y542579D01*
X214558Y542648D01*
X214442Y542671D01*
X215182D01*
X214396D01*
X214164Y542625D01*
X214002Y542556D01*
X213887Y542486D01*
X213840Y542440D01*
X213725Y542255D01*
X213655Y542070D01*
X213632Y541931D01*
Y541885D01*
X213655Y541676D01*
X213748Y541514D01*
X213817Y541399D01*
X213840Y541352D01*
X214025Y541214D01*
X214211Y541144D01*
X214349Y541121D01*
X215182D01*
X214396D01*
X214627Y541167D01*
X214789Y541237D01*
X214905Y541306D01*
X214951Y541352D01*
X215090Y541538D01*
X215159Y541723D01*
X215182Y541838D01*
Y542671D01*
D02*
G37*
G36*
X209791Y556740D02*
X202710D01*
D01*
X205834D01*
X205371Y556694D01*
X204932Y556601D01*
X204562Y556439D01*
X204237Y556277D01*
X203960Y556115D01*
X203775Y555953D01*
X203659Y555861D01*
X203613Y555815D01*
X203312Y555467D01*
X203081Y555097D01*
X202942Y554727D01*
X202826Y554380D01*
X202757Y554079D01*
X202733Y553825D01*
X202710Y553732D01*
Y544245D01*
X202757Y543782D01*
X202849Y543342D01*
X203011Y542972D01*
X203173Y542648D01*
X203335Y542371D01*
X203497Y542186D01*
X203590Y542070D01*
X203636Y542024D01*
X204006Y541723D01*
X204376Y541491D01*
X204747Y541352D01*
X205094Y541237D01*
X205394Y541167D01*
X205626Y541144D01*
X205718Y541121D01*
X209745D01*
X209883Y541144D01*
X209999Y541167D01*
X210161Y541260D01*
X210277Y541329D01*
X210300Y541376D01*
X210416Y541561D01*
X210485Y541723D01*
X210508Y541838D01*
Y541885D01*
X210462Y542093D01*
X210393Y542255D01*
X210323Y542371D01*
X210277Y542417D01*
X210184Y542509D01*
X210092Y542556D01*
X209930Y542648D01*
X209791Y542671D01*
X205811D01*
X205603Y542695D01*
X205418Y542718D01*
X205256Y542741D01*
X205233Y542764D01*
X205209D01*
X205024Y542880D01*
X204862Y542995D01*
X204747Y543088D01*
X204700Y543111D01*
X204562Y543296D01*
X204446Y543481D01*
X204376Y543666D01*
X204307Y543852D01*
X204284Y543990D01*
X204261Y544106D01*
Y544199D01*
Y544222D01*
Y553616D01*
X204284Y553848D01*
X204307Y554033D01*
X204330Y554172D01*
X204353Y554195D01*
Y554218D01*
X204446Y554426D01*
X204562Y554588D01*
X204654Y554681D01*
X204700Y554727D01*
X204885Y554889D01*
X205070Y555005D01*
X205256Y555074D01*
X205441Y555144D01*
X205580Y555167D01*
X205695Y555190D01*
X209722D01*
X209860Y555213D01*
X209976Y555236D01*
X210161Y555329D01*
X210277Y555398D01*
X210300Y555444D01*
X210416Y555629D01*
X210485Y555791D01*
X210508Y555907D01*
Y555953D01*
X210462Y556162D01*
X210393Y556324D01*
X210323Y556439D01*
X210277Y556486D01*
X210184Y556578D01*
X210115Y556624D01*
X209930Y556717D01*
X209791Y556740D01*
D02*
G37*
G36*
X199702Y556879D02*
X188757D01*
X194241D01*
X194056Y556856D01*
X193917Y556786D01*
X193778Y556671D01*
X193686Y556555D01*
X193593Y556416D01*
X193547Y556324D01*
X193524Y556231D01*
X193501Y556208D01*
X188804Y542139D01*
X188757Y541861D01*
X188780Y541746D01*
X188804Y541653D01*
X188896Y541468D01*
X188965Y541376D01*
X189012Y541329D01*
X189197Y541214D01*
X189382Y541144D01*
X189521Y541121D01*
X188757D01*
X189567D01*
X189729Y541144D01*
X189868Y541190D01*
X189960Y541214D01*
X189984Y541237D01*
X190123Y541376D01*
X190192Y541514D01*
X190238Y541607D01*
X190261Y541653D01*
X191395Y545032D01*
X197064D01*
X198198Y541653D01*
X198267Y541514D01*
X198314Y541422D01*
X198383Y541329D01*
X198430Y541283D01*
X198522Y541214D01*
X198545Y541190D01*
X198684Y541144D01*
X198800Y541121D01*
X198892D01*
X199101Y541144D01*
X199286Y541237D01*
X199401Y541306D01*
X199448Y541329D01*
X199540Y541422D01*
X199587Y541514D01*
X199679Y541676D01*
X199702Y541815D01*
Y541861D01*
X199656Y542139D01*
X194982Y556208D01*
X194889Y556439D01*
X194774Y556601D01*
X194658Y556717D01*
X194519Y556786D01*
X194426Y556856D01*
X194334Y556879D01*
X199702D01*
D02*
G37*
G36*
X179316Y556740D02*
X179270D01*
X179062Y556717D01*
X178900Y556648D01*
X178784Y556555D01*
X178738Y556532D01*
X178599Y556324D01*
X178530Y556138D01*
X178507Y556000D01*
Y555976D01*
Y555953D01*
Y554403D01*
X177720D01*
X177373Y554380D01*
X177026Y554334D01*
X176702Y554264D01*
X176378Y554195D01*
X175822Y553963D01*
X175336Y553709D01*
X175128Y553570D01*
X174943Y553431D01*
X174781Y553316D01*
X174665Y553223D01*
X174550Y553130D01*
X174480Y553061D01*
X174434Y553015D01*
X174411Y552992D01*
X174179Y552737D01*
X173971Y552459D01*
X173786Y552182D01*
X173624Y551881D01*
X173485Y551603D01*
X173370Y551325D01*
X173208Y550816D01*
X173161Y550585D01*
X173115Y550354D01*
X173092Y550168D01*
X173069Y550007D01*
X173046Y549868D01*
Y548919D01*
X173069Y548549D01*
X173115Y548202D01*
X173161Y547878D01*
X173254Y547554D01*
X173485Y546975D01*
X173601Y546721D01*
X173740Y546489D01*
X173855Y546281D01*
X173971Y546096D01*
X174087Y545934D01*
X174203Y545818D01*
X174295Y545703D01*
X174341Y545633D01*
X174388Y545587D01*
X174411Y545564D01*
X174665Y545332D01*
X174943Y545124D01*
X175221Y544939D01*
X175498Y544800D01*
X175776Y544661D01*
X176054Y544546D01*
X176586Y544384D01*
X176817Y544337D01*
X177026Y544291D01*
X177234Y544268D01*
X177396Y544245D01*
X177535Y544222D01*
X178507D01*
Y541885D01*
X178553Y541630D01*
X178622Y541445D01*
X178692Y541352D01*
X178738Y541306D01*
X178923Y541190D01*
X179085Y541144D01*
X179224Y541121D01*
X185518D01*
Y549706D01*
Y549683D01*
X185495Y550053D01*
X185471Y550400D01*
X185402Y550701D01*
X185333Y550978D01*
X185263Y551187D01*
X185217Y551372D01*
X185171Y551464D01*
X185147Y551511D01*
X185009Y551811D01*
X184824Y552089D01*
X184662Y552344D01*
X184500Y552575D01*
X184361Y552760D01*
X184245Y552899D01*
X184153Y552992D01*
X184129Y553015D01*
X183875Y553269D01*
X183597Y553478D01*
X183319Y553663D01*
X183042Y553825D01*
X182764Y553963D01*
X182486Y554056D01*
X181954Y554241D01*
X181723Y554287D01*
X181515Y554334D01*
X181306Y554357D01*
X181144Y554380D01*
X181006Y554403D01*
X180057D01*
Y555953D01*
Y556092D01*
X180011Y556208D01*
X179941Y556393D01*
X179849Y556509D01*
X179825Y556532D01*
X179802D01*
X179617Y556648D01*
X179455Y556717D01*
X179316Y556740D01*
D02*
G37*
%LPD*%
G36*
X196532Y546628D02*
X191927D01*
X194241Y553501D01*
X196532Y546628D01*
D02*
G37*
G36*
X181306Y552806D02*
X181723Y552714D01*
X182093Y552552D01*
X182417Y552390D01*
X182695Y552205D01*
X182880Y552043D01*
X182995Y551950D01*
X183042Y551904D01*
X183343Y551534D01*
X183574Y551163D01*
X183736Y550793D01*
X183852Y550446D01*
X183921Y550145D01*
X183944Y549914D01*
X183967Y549822D01*
Y549752D01*
Y549729D01*
Y549706D01*
Y548919D01*
X183921Y548433D01*
X183829Y548017D01*
X183667Y547623D01*
X183505Y547299D01*
X183343Y547045D01*
X183181Y546837D01*
X183088Y546721D01*
X183042Y546674D01*
X182672Y546374D01*
X182301Y546142D01*
X181931Y546003D01*
X181584Y545888D01*
X181283Y545818D01*
X181029Y545795D01*
X180936Y545772D01*
X180057D01*
Y552853D01*
X180820D01*
X181306Y552806D01*
D02*
G37*
G36*
X178507Y545772D02*
X177720D01*
X177257Y545818D01*
X176817Y545911D01*
X176447Y546073D01*
X176123Y546235D01*
X175869Y546397D01*
X175660Y546559D01*
X175545Y546651D01*
X175498Y546698D01*
X175198Y547068D01*
X174966Y547438D01*
X174827Y547808D01*
X174712Y548155D01*
X174642Y548456D01*
X174619Y548711D01*
X174596Y548803D01*
Y548873D01*
Y548896D01*
Y548919D01*
Y549706D01*
X174642Y550168D01*
X174735Y550608D01*
X174897Y550978D01*
X175059Y551302D01*
X175221Y551557D01*
X175383Y551765D01*
X175475Y551881D01*
X175522Y551927D01*
X175892Y552228D01*
X176262Y552459D01*
X176632Y552621D01*
X176979Y552737D01*
X177280Y552806D01*
X177512Y552830D01*
X177604Y552853D01*
X178507D01*
Y545772D01*
D02*
G37*
G36*
X185518Y541121D02*
X179270D01*
X179501Y541144D01*
X179687Y541214D01*
X179779Y541283D01*
X179825Y541306D01*
X179964Y541491D01*
X180034Y541676D01*
X180057Y541815D01*
Y541861D01*
Y541885D01*
Y544222D01*
X180820D01*
X181191Y544245D01*
X181538Y544291D01*
X181862Y544361D01*
X182162Y544430D01*
X182741Y544661D01*
X183227Y544916D01*
X183435Y545055D01*
X183620Y545170D01*
X183782Y545286D01*
X183898Y545402D01*
X184014Y545471D01*
X184083Y545541D01*
X184129Y545587D01*
X184153Y545610D01*
X184384Y545888D01*
X184615Y546142D01*
X184777Y546443D01*
X184939Y546721D01*
X185078Y546998D01*
X185194Y547276D01*
X185356Y547785D01*
X185402Y548017D01*
X185448Y548248D01*
X185471Y548433D01*
X185495Y548595D01*
X185518Y548734D01*
Y541121D01*
D02*
G37*
%LPC*%
G36*
X293363Y13035D02*
X289660Y2036D01*
X297030D01*
X293363Y13035D01*
D02*
G37*
G36*
X249479Y8221D02*
X246776D01*
X246591Y8184D01*
X246368Y8147D01*
X246072Y8036D01*
X245776Y7924D01*
X245480Y7739D01*
X245183Y7480D01*
X245109Y7406D01*
X244961Y7258D01*
X244776Y6999D01*
X244628Y6665D01*
Y6628D01*
X244591Y6591D01*
X244554Y6369D01*
X244517Y6073D01*
X244480Y5702D01*
Y3184D01*
X251997D01*
Y5702D01*
Y5739D01*
Y5888D01*
X251960Y6073D01*
X251923Y6332D01*
X251812Y6591D01*
X251701Y6887D01*
X251516Y7184D01*
X251257Y7480D01*
X251220Y7517D01*
X251146Y7591D01*
X250961Y7702D01*
X250775Y7850D01*
X250516Y7998D01*
X250220Y8109D01*
X249849Y8184D01*
X249479Y8221D01*
D02*
G37*
G36*
X211989Y-43205D02*
X209378D01*
X209285Y-43224D01*
X209174Y-43242D01*
X209026Y-43298D01*
X208878Y-43354D01*
X208730Y-43446D01*
X208582Y-43576D01*
X208545Y-43613D01*
X208471Y-43687D01*
X208378Y-43816D01*
X208304Y-43983D01*
Y-44002D01*
X208285Y-44020D01*
X208267Y-44131D01*
X208248Y-44279D01*
X208230Y-44465D01*
Y-48223D01*
Y-48242D01*
Y-48316D01*
X208248Y-48408D01*
X208267Y-48520D01*
X208322Y-48668D01*
X208378Y-48816D01*
X208471Y-48964D01*
X208582Y-49112D01*
X208619Y-49131D01*
X208711Y-49205D01*
X208841Y-49297D01*
X208989Y-49390D01*
X209007D01*
X209026Y-49408D01*
X209156Y-49427D01*
X209304Y-49445D01*
X209470Y-49464D01*
X210822D01*
X210915Y-49445D01*
X211044Y-49427D01*
X211174Y-49390D01*
X211322Y-49316D01*
X211470Y-49242D01*
X211618Y-49131D01*
X211637Y-49112D01*
X211674Y-49075D01*
X211730Y-48983D01*
X211803Y-48890D01*
X211878Y-48760D01*
X211933Y-48594D01*
X211970Y-48427D01*
X211989Y-48223D01*
Y-43205D01*
D02*
G37*
G36*
X182010D02*
X180659D01*
X180566Y-43224D01*
X180455Y-43242D01*
X180307Y-43298D01*
X180159Y-43354D01*
X180011Y-43446D01*
X179862Y-43576D01*
X179825Y-43613D01*
X179751Y-43687D01*
X179659Y-43816D01*
X179585Y-43983D01*
Y-44002D01*
X179566Y-44020D01*
X179548Y-44131D01*
X179529Y-44279D01*
X179511Y-44465D01*
Y-45724D01*
X183270D01*
Y-44465D01*
Y-44446D01*
Y-44372D01*
X183251Y-44279D01*
X183232Y-44150D01*
X183177Y-44020D01*
X183121Y-43872D01*
X183029Y-43724D01*
X182899Y-43576D01*
X182881Y-43557D01*
X182844Y-43520D01*
X182751Y-43465D01*
X182658Y-43390D01*
X182529Y-43316D01*
X182381Y-43261D01*
X182195Y-43224D01*
X182010Y-43205D01*
D02*
G37*
G36*
X154791Y-39446D02*
X152180D01*
X152087Y-39465D01*
X151976Y-39483D01*
X151828Y-39539D01*
X151680Y-39595D01*
X151532Y-39687D01*
X151384Y-39817D01*
X151347Y-39854D01*
X151273Y-39928D01*
X151180Y-40058D01*
X151106Y-40224D01*
Y-40243D01*
X151088Y-40261D01*
X151069Y-40372D01*
X151051Y-40521D01*
X151032Y-40706D01*
Y-48223D01*
Y-48242D01*
Y-48316D01*
X151051Y-48408D01*
X151069Y-48520D01*
X151125Y-48668D01*
X151180Y-48816D01*
X151273Y-48964D01*
X151384Y-49112D01*
X151421Y-49131D01*
X151514Y-49205D01*
X151643Y-49297D01*
X151791Y-49390D01*
X151810D01*
X151828Y-49408D01*
X151958Y-49427D01*
X152106Y-49446D01*
X152273Y-49464D01*
X154883D01*
X154976Y-49446D01*
X155106Y-49427D01*
X155235Y-49390D01*
X155384Y-49316D01*
X155532Y-49242D01*
X155680Y-49131D01*
X155698Y-49112D01*
X155735Y-49075D01*
X155791Y-48983D01*
X155865Y-48890D01*
X155939Y-48760D01*
X155995Y-48594D01*
X156032Y-48427D01*
X156050Y-48223D01*
Y-40706D01*
Y-40687D01*
Y-40613D01*
X156032Y-40521D01*
X156013Y-40391D01*
X155957Y-40261D01*
X155902Y-40113D01*
X155809Y-39965D01*
X155680Y-39817D01*
X155661Y-39798D01*
X155624Y-39761D01*
X155532Y-39706D01*
X155439Y-39632D01*
X155309Y-39558D01*
X155161Y-39502D01*
X154976Y-39465D01*
X154791Y-39446D01*
D02*
G37*
G36*
X127294Y-43205D02*
X125942D01*
X125850Y-43224D01*
X125738Y-43242D01*
X125590Y-43298D01*
X125442Y-43354D01*
X125294Y-43446D01*
X125146Y-43576D01*
X125109Y-43613D01*
X125035Y-43687D01*
X124942Y-43816D01*
X124868Y-43983D01*
Y-44002D01*
X124850Y-44020D01*
X124831Y-44131D01*
X124813Y-44279D01*
X124794Y-44465D01*
Y-45724D01*
X128553D01*
Y-44465D01*
Y-44446D01*
Y-44372D01*
X128534Y-44279D01*
X128516Y-44150D01*
X128460Y-44020D01*
X128405Y-43872D01*
X128312Y-43724D01*
X128183Y-43576D01*
X128164Y-43557D01*
X128127Y-43520D01*
X128034Y-43465D01*
X127942Y-43390D01*
X127812Y-43316D01*
X127664Y-43261D01*
X127479Y-43224D01*
X127294Y-43205D01*
D02*
G37*
G36*
X164531Y-43205D02*
X162031D01*
Y-49464D01*
X164623D01*
X164716Y-49445D01*
X164845Y-49427D01*
X164975Y-49390D01*
X165123Y-49316D01*
X165271Y-49242D01*
X165420Y-49131D01*
X165438Y-49112D01*
X165475Y-49075D01*
X165531Y-48983D01*
X165605Y-48890D01*
X165679Y-48760D01*
X165734Y-48594D01*
X165771Y-48427D01*
X165790Y-48223D01*
Y-44465D01*
Y-44446D01*
Y-44372D01*
X165771Y-44279D01*
X165753Y-44150D01*
X165697Y-44020D01*
X165642Y-43872D01*
X165549Y-43724D01*
X165420Y-43576D01*
X165401Y-43557D01*
X165364Y-43520D01*
X165271Y-43465D01*
X165179Y-43390D01*
X165049Y-43316D01*
X164901Y-43261D01*
X164716Y-43224D01*
X164531Y-43205D01*
D02*
G37*
G36*
X287907Y-23946D02*
X286648D01*
Y-26464D01*
X287999D01*
X288110Y-26446D01*
X288240Y-26408D01*
X288388Y-26371D01*
X288536Y-26316D01*
X288684Y-26223D01*
X288814Y-26094D01*
X288832Y-26075D01*
X288870Y-26020D01*
X288925Y-25945D01*
X288999Y-25834D01*
X289055Y-25705D01*
X289110Y-25557D01*
X289147Y-25390D01*
X289166Y-25205D01*
Y-25186D01*
Y-25112D01*
X289147Y-25020D01*
X289129Y-24909D01*
X289092Y-24760D01*
X289036Y-24612D01*
X288962Y-24464D01*
X288851Y-24335D01*
X288832Y-24297D01*
X288740Y-24242D01*
X288629Y-24149D01*
X288462Y-24057D01*
X288444D01*
X288425Y-24038D01*
X288370Y-24020D01*
X288296Y-24001D01*
X288129Y-23964D01*
X287907Y-23946D01*
D02*
G37*
G36*
X262669Y-20205D02*
X261817D01*
X261706Y-20224D01*
X261558Y-20261D01*
X261391Y-20317D01*
X261206Y-20391D01*
X261021Y-20502D01*
X260854Y-20650D01*
X260835Y-20668D01*
X260780Y-20724D01*
X260724Y-20816D01*
X260650Y-20946D01*
X260558Y-21113D01*
X260502Y-21298D01*
X260447Y-21502D01*
X260428Y-21724D01*
Y-24964D01*
Y-24983D01*
Y-25075D01*
X260447Y-25186D01*
X260484Y-25334D01*
X260539Y-25501D01*
X260613Y-25686D01*
X260706Y-25871D01*
X260854Y-26038D01*
X260872Y-26057D01*
X260928Y-26112D01*
X261021Y-26168D01*
X261150Y-26242D01*
X261317Y-26334D01*
X261502Y-26390D01*
X261706Y-26446D01*
X261928Y-26464D01*
X262780D01*
X262891Y-26446D01*
X263039Y-26408D01*
X263187Y-26353D01*
X263372Y-26279D01*
X263557Y-26186D01*
X263724Y-26038D01*
X263743Y-26020D01*
X263798Y-25964D01*
X263872Y-25871D01*
X263965Y-25742D01*
X264039Y-25594D01*
X264113Y-25408D01*
X264168Y-25205D01*
X264187Y-24964D01*
Y-21724D01*
Y-21687D01*
Y-21613D01*
X264168Y-21502D01*
X264131Y-21353D01*
X264076Y-21187D01*
X264002Y-21002D01*
X263891Y-20816D01*
X263743Y-20650D01*
X263724Y-20631D01*
X263668Y-20576D01*
X263576Y-20502D01*
X263446Y-20428D01*
X263298Y-20354D01*
X263113Y-20279D01*
X262909Y-20224D01*
X262669Y-20205D01*
D02*
G37*
G36*
X242689D02*
X241837D01*
X241726Y-20224D01*
X241578Y-20261D01*
X241411Y-20317D01*
X241226Y-20391D01*
X241041Y-20502D01*
X240875Y-20650D01*
X240856Y-20668D01*
X240800Y-20724D01*
X240745Y-20816D01*
X240671Y-20946D01*
X240578Y-21113D01*
X240523Y-21298D01*
X240467Y-21502D01*
X240449Y-21724D01*
Y-24964D01*
Y-24983D01*
Y-25075D01*
X240467Y-25186D01*
X240504Y-25334D01*
X240560Y-25501D01*
X240634Y-25686D01*
X240726Y-25871D01*
X240875Y-26038D01*
X240893Y-26057D01*
X240949Y-26112D01*
X241041Y-26168D01*
X241171Y-26242D01*
X241338Y-26334D01*
X241523Y-26390D01*
X241726Y-26446D01*
X241949Y-26464D01*
X242800D01*
X242911Y-26446D01*
X243060Y-26408D01*
X243208Y-26353D01*
X243393Y-26279D01*
X243578Y-26186D01*
X243745Y-26038D01*
X243763Y-26020D01*
X243819Y-25964D01*
X243893Y-25871D01*
X243985Y-25742D01*
X244059Y-25594D01*
X244133Y-25408D01*
X244189Y-25205D01*
X244207Y-24964D01*
Y-21724D01*
Y-21687D01*
Y-21613D01*
X244189Y-21502D01*
X244152Y-21353D01*
X244096Y-21187D01*
X244022Y-21002D01*
X243911Y-20816D01*
X243763Y-20650D01*
X243745Y-20631D01*
X243689Y-20576D01*
X243596Y-20502D01*
X243467Y-20428D01*
X243319Y-20354D01*
X243134Y-20279D01*
X242930Y-20224D01*
X242689Y-20205D01*
D02*
G37*
G36*
X225210D02*
X224358D01*
X224247Y-20224D01*
X224098Y-20261D01*
X223932Y-20317D01*
X223747Y-20391D01*
X223561Y-20502D01*
X223395Y-20650D01*
X223376Y-20668D01*
X223321Y-20724D01*
X223265Y-20816D01*
X223191Y-20946D01*
X223099Y-21113D01*
X223043Y-21298D01*
X222987Y-21502D01*
X222969Y-21724D01*
Y-24964D01*
Y-24983D01*
Y-25075D01*
X222987Y-25186D01*
X223025Y-25334D01*
X223080Y-25501D01*
X223154Y-25686D01*
X223247Y-25871D01*
X223395Y-26038D01*
X223413Y-26057D01*
X223469Y-26112D01*
X223561Y-26168D01*
X223691Y-26242D01*
X223858Y-26334D01*
X224043Y-26390D01*
X224247Y-26446D01*
X224469Y-26464D01*
X225321D01*
X225432Y-26446D01*
X225580Y-26408D01*
X225728Y-26353D01*
X225913Y-26279D01*
X226098Y-26186D01*
X226265Y-26038D01*
X226283Y-26020D01*
X226339Y-25964D01*
X226413Y-25871D01*
X226506Y-25742D01*
X226580Y-25594D01*
X226654Y-25408D01*
X226709Y-25205D01*
X226728Y-24964D01*
Y-21724D01*
Y-21687D01*
Y-21613D01*
X226709Y-21502D01*
X226672Y-21353D01*
X226617Y-21187D01*
X226543Y-21002D01*
X226432Y-20816D01*
X226283Y-20650D01*
X226265Y-20631D01*
X226209Y-20576D01*
X226117Y-20502D01*
X225987Y-20428D01*
X225839Y-20354D01*
X225654Y-20279D01*
X225450Y-20224D01*
X225210Y-20205D01*
D02*
G37*
G36*
X206730Y-23946D02*
X205471D01*
Y-26464D01*
X206822D01*
X206934Y-26446D01*
X207063Y-26408D01*
X207211Y-26371D01*
X207360Y-26316D01*
X207508Y-26223D01*
X207637Y-26094D01*
X207656Y-26075D01*
X207693Y-26020D01*
X207748Y-25945D01*
X207822Y-25834D01*
X207878Y-25705D01*
X207934Y-25557D01*
X207971Y-25390D01*
X207989Y-25205D01*
Y-25186D01*
Y-25112D01*
X207971Y-25020D01*
X207952Y-24909D01*
X207915Y-24760D01*
X207859Y-24612D01*
X207785Y-24464D01*
X207674Y-24335D01*
X207656Y-24297D01*
X207563Y-24242D01*
X207452Y-24149D01*
X207285Y-24057D01*
X207267D01*
X207248Y-24038D01*
X207193Y-24020D01*
X207119Y-24001D01*
X206952Y-23964D01*
X206730Y-23946D01*
D02*
G37*
G36*
X198601Y-16446D02*
X195472D01*
Y-20224D01*
X198694D01*
X198786Y-20205D01*
X198916Y-20187D01*
X199046Y-20131D01*
X199194Y-20076D01*
X199342Y-19983D01*
X199490Y-19872D01*
X199508Y-19854D01*
X199545Y-19816D01*
X199601Y-19724D01*
X199675Y-19631D01*
X199749Y-19502D01*
X199805Y-19335D01*
X199842Y-19168D01*
X199860Y-18965D01*
Y-17706D01*
Y-17687D01*
Y-17613D01*
X199842Y-17521D01*
X199823Y-17391D01*
X199768Y-17261D01*
X199712Y-17113D01*
X199620Y-16965D01*
X199490Y-16817D01*
X199471Y-16798D01*
X199434Y-16761D01*
X199342Y-16706D01*
X199249Y-16632D01*
X199120Y-16558D01*
X198972Y-16502D01*
X198786Y-16465D01*
X198601Y-16446D01*
D02*
G37*
G36*
X199231Y-21465D02*
X195472D01*
Y-26464D01*
X199323D01*
X199416Y-26446D01*
X199545Y-26427D01*
X199675Y-26390D01*
X199823Y-26316D01*
X199971Y-26242D01*
X200119Y-26131D01*
X200138Y-26112D01*
X200175Y-26075D01*
X200231Y-25982D01*
X200305Y-25890D01*
X200379Y-25760D01*
X200434Y-25594D01*
X200471Y-25427D01*
X200490Y-25223D01*
Y-22724D01*
Y-22705D01*
Y-22631D01*
X200471Y-22538D01*
X200453Y-22409D01*
X200397Y-22279D01*
X200342Y-22131D01*
X200249Y-21983D01*
X200119Y-21835D01*
X200101Y-21816D01*
X200064Y-21779D01*
X199971Y-21724D01*
X199879Y-21650D01*
X199749Y-21576D01*
X199601Y-21520D01*
X199416Y-21483D01*
X199231Y-21465D01*
D02*
G37*
G36*
X183010Y-20205D02*
X180399D01*
X180307Y-20224D01*
X180177Y-20261D01*
X180029Y-20298D01*
X179862Y-20372D01*
X179714Y-20465D01*
X179548Y-20594D01*
X179529Y-20613D01*
X179492Y-20668D01*
X179455Y-20742D01*
X179399Y-20835D01*
X179325Y-20965D01*
X179288Y-21113D01*
X179251Y-21279D01*
X179233Y-21465D01*
Y-21483D01*
Y-21539D01*
X179251Y-21631D01*
X179270Y-21761D01*
X179307Y-21890D01*
X179362Y-22039D01*
X179436Y-22187D01*
X179548Y-22335D01*
X179566Y-22353D01*
X179603Y-22390D01*
X179677Y-22464D01*
X179788Y-22520D01*
X179918Y-22594D01*
X180085Y-22668D01*
X180270Y-22705D01*
X180492Y-22724D01*
X183010D01*
Y-20205D01*
D02*
G37*
G36*
X155254Y-20205D02*
X154402D01*
X154291Y-20224D01*
X154143Y-20261D01*
X153976Y-20317D01*
X153791Y-20391D01*
X153606Y-20502D01*
X153439Y-20650D01*
X153421Y-20668D01*
X153365Y-20724D01*
X153309Y-20816D01*
X153236Y-20946D01*
X153143Y-21113D01*
X153087Y-21298D01*
X153032Y-21502D01*
X153013Y-21724D01*
Y-24964D01*
Y-24983D01*
Y-25075D01*
X153032Y-25186D01*
X153069Y-25334D01*
X153124Y-25501D01*
X153198Y-25686D01*
X153291Y-25872D01*
X153439Y-26038D01*
X153458Y-26057D01*
X153513Y-26112D01*
X153606Y-26168D01*
X153735Y-26242D01*
X153902Y-26334D01*
X154087Y-26390D01*
X154291Y-26446D01*
X154513Y-26464D01*
X155365D01*
X155476Y-26446D01*
X155624Y-26409D01*
X155772Y-26353D01*
X155957Y-26279D01*
X156143Y-26186D01*
X156309Y-26038D01*
X156328Y-26020D01*
X156383Y-25964D01*
X156457Y-25872D01*
X156550Y-25742D01*
X156624Y-25594D01*
X156698Y-25409D01*
X156754Y-25205D01*
X156772Y-24964D01*
Y-21724D01*
Y-21687D01*
Y-21613D01*
X156754Y-21502D01*
X156717Y-21353D01*
X156661Y-21187D01*
X156587Y-21002D01*
X156476Y-20816D01*
X156328Y-20650D01*
X156309Y-20631D01*
X156254Y-20576D01*
X156161Y-20502D01*
X156032Y-20428D01*
X155883Y-20354D01*
X155698Y-20280D01*
X155494Y-20224D01*
X155254Y-20205D01*
D02*
G37*
G36*
X136793D02*
X134182D01*
X134089Y-20224D01*
X133978Y-20242D01*
X133830Y-20298D01*
X133682Y-20354D01*
X133534Y-20446D01*
X133386Y-20576D01*
X133349Y-20613D01*
X133275Y-20687D01*
X133182Y-20816D01*
X133108Y-20983D01*
Y-21002D01*
X133089Y-21020D01*
X133071Y-21131D01*
X133052Y-21279D01*
X133034Y-21465D01*
Y-25223D01*
Y-25242D01*
Y-25316D01*
X133052Y-25409D01*
X133071Y-25520D01*
X133126Y-25668D01*
X133182Y-25816D01*
X133275Y-25964D01*
X133386Y-26112D01*
X133423Y-26131D01*
X133515Y-26205D01*
X133645Y-26297D01*
X133793Y-26390D01*
X133812D01*
X133830Y-26409D01*
X133960Y-26427D01*
X134108Y-26446D01*
X134275Y-26464D01*
X135626D01*
X135719Y-26446D01*
X135848Y-26427D01*
X135978Y-26390D01*
X136126Y-26316D01*
X136274Y-26242D01*
X136422Y-26131D01*
X136441Y-26112D01*
X136478Y-26075D01*
X136533Y-25983D01*
X136608Y-25890D01*
X136682Y-25760D01*
X136737Y-25594D01*
X136774Y-25427D01*
X136793Y-25223D01*
Y-20205D01*
D02*
G37*
G36*
X119313D02*
X116702D01*
X116610Y-20224D01*
X116498Y-20242D01*
X116350Y-20298D01*
X116202Y-20354D01*
X116054Y-20446D01*
X115906Y-20576D01*
X115869Y-20613D01*
X115795Y-20687D01*
X115702Y-20816D01*
X115628Y-20983D01*
Y-21002D01*
X115610Y-21020D01*
X115591Y-21131D01*
X115573Y-21279D01*
X115554Y-21465D01*
Y-25223D01*
Y-25242D01*
Y-25316D01*
X115573Y-25409D01*
X115591Y-25520D01*
X115647Y-25668D01*
X115702Y-25816D01*
X115795Y-25964D01*
X115906Y-26112D01*
X115943Y-26131D01*
X116036Y-26205D01*
X116165Y-26297D01*
X116313Y-26390D01*
X116332D01*
X116350Y-26409D01*
X116480Y-26427D01*
X116628Y-26446D01*
X116795Y-26464D01*
X118146D01*
X118239Y-26446D01*
X118369Y-26427D01*
X118498Y-26390D01*
X118646Y-26316D01*
X118795Y-26242D01*
X118943Y-26131D01*
X118961Y-26112D01*
X118998Y-26075D01*
X119054Y-25983D01*
X119128Y-25890D01*
X119202Y-25760D01*
X119257Y-25594D01*
X119295Y-25427D01*
X119313Y-25223D01*
Y-20205D01*
D02*
G37*
G36*
X109314D02*
X107962D01*
X107870Y-20224D01*
X107759Y-20242D01*
X107611Y-20298D01*
X107462Y-20354D01*
X107314Y-20446D01*
X107166Y-20576D01*
X107129Y-20613D01*
X107055Y-20687D01*
X106962Y-20816D01*
X106888Y-20983D01*
Y-21002D01*
X106870Y-21020D01*
X106851Y-21131D01*
X106833Y-21279D01*
X106814Y-21465D01*
Y-25223D01*
Y-25242D01*
Y-25316D01*
X106833Y-25409D01*
X106851Y-25520D01*
X106907Y-25668D01*
X106962Y-25816D01*
X107055Y-25964D01*
X107166Y-26112D01*
X107203Y-26131D01*
X107296Y-26205D01*
X107425Y-26297D01*
X107573Y-26390D01*
X107592D01*
X107611Y-26409D01*
X107740Y-26427D01*
X107888Y-26446D01*
X108055Y-26464D01*
X109407D01*
X109499Y-26446D01*
X109629Y-26427D01*
X109759Y-26390D01*
X109907Y-26316D01*
X110055Y-26242D01*
X110203Y-26131D01*
X110221Y-26112D01*
X110259Y-26075D01*
X110314Y-25983D01*
X110388Y-25890D01*
X110462Y-25760D01*
X110518Y-25594D01*
X110555Y-25427D01*
X110573Y-25223D01*
Y-21465D01*
Y-21446D01*
Y-21372D01*
X110555Y-21279D01*
X110536Y-21150D01*
X110481Y-21020D01*
X110425Y-20872D01*
X110332Y-20724D01*
X110203Y-20576D01*
X110184Y-20557D01*
X110147Y-20520D01*
X110055Y-20465D01*
X109962Y-20391D01*
X109833Y-20317D01*
X109684Y-20261D01*
X109499Y-20224D01*
X109314Y-20205D01*
D02*
G37*
G36*
X101833D02*
X99223D01*
X99130Y-20224D01*
X99019Y-20242D01*
X98871Y-20298D01*
X98723Y-20354D01*
X98574Y-20446D01*
X98426Y-20576D01*
X98389Y-20613D01*
X98315Y-20687D01*
X98223Y-20816D01*
X98149Y-20983D01*
Y-21002D01*
X98130Y-21020D01*
X98112Y-21131D01*
X98093Y-21279D01*
X98075Y-21465D01*
Y-25223D01*
Y-25242D01*
Y-25316D01*
X98093Y-25409D01*
X98112Y-25520D01*
X98167Y-25668D01*
X98223Y-25816D01*
X98315Y-25964D01*
X98426Y-26112D01*
X98463Y-26131D01*
X98556Y-26205D01*
X98686Y-26297D01*
X98834Y-26390D01*
X98852D01*
X98871Y-26409D01*
X99000Y-26427D01*
X99149Y-26446D01*
X99315Y-26464D01*
X100667D01*
X100759Y-26446D01*
X100889Y-26427D01*
X101019Y-26390D01*
X101167Y-26316D01*
X101315Y-26242D01*
X101463Y-26131D01*
X101482Y-26112D01*
X101519Y-26075D01*
X101574Y-25983D01*
X101648Y-25890D01*
X101722Y-25760D01*
X101778Y-25594D01*
X101815Y-25427D01*
X101833Y-25223D01*
Y-20205D01*
D02*
G37*
G36*
X164253Y-20205D02*
X161753D01*
Y-26464D01*
X164345D01*
X164438Y-26446D01*
X164568Y-26427D01*
X164697Y-26390D01*
X164845Y-26316D01*
X164993Y-26242D01*
X165142Y-26131D01*
X165160Y-26112D01*
X165197Y-26075D01*
X165253Y-25982D01*
X165327Y-25890D01*
X165401Y-25760D01*
X165456Y-25594D01*
X165494Y-25427D01*
X165512Y-25223D01*
Y-21465D01*
Y-21446D01*
Y-21372D01*
X165494Y-21279D01*
X165475Y-21150D01*
X165419Y-21020D01*
X165364Y-20872D01*
X165271Y-20724D01*
X165142Y-20576D01*
X165123Y-20557D01*
X165086Y-20520D01*
X164993Y-20465D01*
X164901Y-20391D01*
X164771Y-20317D01*
X164623Y-20261D01*
X164438Y-20224D01*
X164253Y-20205D01*
D02*
G37*
G36*
X126794Y-20205D02*
X124294D01*
Y-26464D01*
X126886D01*
X126979Y-26446D01*
X127109Y-26427D01*
X127238Y-26390D01*
X127386Y-26316D01*
X127534Y-26242D01*
X127683Y-26131D01*
X127701Y-26112D01*
X127738Y-26075D01*
X127794Y-25983D01*
X127868Y-25890D01*
X127942Y-25760D01*
X127997Y-25594D01*
X128034Y-25427D01*
X128053Y-25223D01*
Y-21465D01*
Y-21446D01*
Y-21372D01*
X128034Y-21279D01*
X128016Y-21150D01*
X127960Y-21020D01*
X127905Y-20872D01*
X127812Y-20724D01*
X127683Y-20576D01*
X127664Y-20557D01*
X127627Y-20520D01*
X127534Y-20465D01*
X127442Y-20391D01*
X127312Y-20317D01*
X127164Y-20261D01*
X126979Y-20224D01*
X126794Y-20205D01*
D02*
G37*
G36*
X165288Y5480D02*
X160325D01*
X160288Y4221D01*
Y-2037D01*
Y-2075D01*
Y-2223D01*
X160325Y-2408D01*
X160362Y-2630D01*
X160473Y-2926D01*
X160585Y-3223D01*
X160770Y-3519D01*
X160992Y-3815D01*
X161066Y-3852D01*
X161251Y-4000D01*
X161510Y-4186D01*
X161807Y-4371D01*
X161844D01*
X161881Y-4408D01*
X162140Y-4445D01*
X162436Y-4482D01*
X162770Y-4519D01*
X165473D01*
X165658Y-4482D01*
X165917Y-4445D01*
X166177Y-4371D01*
X166473Y-4223D01*
X166769Y-4074D01*
X167065Y-3852D01*
X167102Y-3815D01*
X167176Y-3741D01*
X167288Y-3556D01*
X167436Y-3371D01*
X167584Y-3112D01*
X167695Y-2778D01*
X167769Y-2445D01*
X167806Y-2037D01*
Y2962D01*
Y2999D01*
Y3147D01*
X167769Y3332D01*
X167732Y3591D01*
X167621Y3851D01*
X167510Y4147D01*
X167325Y4443D01*
X167065Y4739D01*
X167028Y4777D01*
X166954Y4851D01*
X166769Y4962D01*
X166584Y5110D01*
X166325Y5258D01*
X166028Y5369D01*
X165658Y5443D01*
X165288Y5480D01*
D02*
G37*
G36*
X129810Y15516D02*
X128106D01*
X127884Y15479D01*
X127588Y15405D01*
X127255Y15294D01*
X126884Y15146D01*
X126514Y14924D01*
X126181Y14627D01*
X126144Y14590D01*
X126033Y14479D01*
X125921Y14294D01*
X125773Y14035D01*
X125588Y13701D01*
X125477Y13331D01*
X125366Y12924D01*
X125329Y12479D01*
Y-1519D01*
Y-1556D01*
Y-1741D01*
X125366Y-1963D01*
X125440Y-2260D01*
X125551Y-2593D01*
X125699Y-2963D01*
X125885Y-3334D01*
X126181Y-3667D01*
X126218Y-3704D01*
X126329Y-3815D01*
X126514Y-3926D01*
X126773Y-4074D01*
X127107Y-4260D01*
X127477Y-4371D01*
X127884Y-4482D01*
X128329Y-4519D01*
X130032D01*
X130254Y-4482D01*
X130551Y-4408D01*
X130847Y-4297D01*
X131217Y-4148D01*
X131588Y-3963D01*
X131921Y-3667D01*
X131958Y-3630D01*
X132069Y-3519D01*
X132217Y-3334D01*
X132402Y-3074D01*
X132550Y-2778D01*
X132699Y-2408D01*
X132810Y-2000D01*
X132847Y-1519D01*
Y12479D01*
Y12553D01*
Y12702D01*
X132810Y12924D01*
X132736Y13220D01*
X132625Y13553D01*
X132476Y13924D01*
X132254Y14294D01*
X131958Y14627D01*
X131921Y14664D01*
X131810Y14776D01*
X131625Y14924D01*
X131365Y15072D01*
X131069Y15220D01*
X130699Y15368D01*
X130291Y15479D01*
X129810Y15516D01*
D02*
G37*
%LPD*%
D10*
X181250Y-484750D02*
G03*
X181250Y-484750I-1500J0D01*
G01*
D11*
X-406000Y-178940D02*
G03*
X-406000Y-177940I0J500D01*
G01*
D02*
G03*
X-406000Y-178940I0J-500D01*
G01*
X-211530Y538000D02*
G03*
X-212530Y538000I-500J0D01*
G01*
D02*
G03*
X-211530Y538000I500J0D01*
G01*
X-296000D02*
G03*
X-297000Y538000I-500J0D01*
G01*
D02*
G03*
X-296000Y538000I500J0D01*
G01*
X414000Y-435800D02*
G03*
X414000Y-434800I0J500D01*
G01*
D02*
G03*
X414000Y-435800I0J-500D01*
G01*
X-414000Y40000D02*
G03*
X-414000Y39000I0J-500D01*
G01*
D02*
G03*
X-414000Y40000I0J500D01*
G01*
X-196400Y538000D02*
G03*
X-197400Y538000I-500J0D01*
G01*
D02*
G03*
X-196400Y538000I500J0D01*
G01*
X-414000Y-437000D02*
G03*
X-414000Y-438000I0J-500D01*
G01*
D02*
G03*
X-414000Y-437000I0J500D01*
G01*
X-337000Y101500D02*
X-331000D01*
X-337000Y23500D02*
X-329000D01*
X-337000Y-376000D02*
X-331000D01*
X-337000Y-454000D02*
X-329000D01*
X-19000Y286700D02*
X-16667D01*
X-17834D01*
Y293698D01*
X-19000Y292532D01*
X-20000Y152800D02*
X-17667D01*
X-18834D01*
Y159798D01*
X-20000Y158631D01*
D12*
X-307500Y-112500D02*
G03*
X-307500Y-112500I-62500J0D01*
G01*
X-57500Y-210000D02*
G03*
X-57500Y-210000I-62500J0D01*
G01*
Y-347500D02*
G03*
X-57500Y-347500I-62500J0D01*
G01*
X-187500Y-45000D02*
G03*
X-187500Y-45000I-50000J0D01*
G01*
Y62500D02*
G03*
X-187500Y62500I-50000J0D01*
G01*
X-155000Y-510000D02*
G03*
X-155000Y-510000I-50000J0D01*
G01*
X-260000D02*
G03*
X-260000Y-510000I-50000J0D01*
G01*
X381500Y435000D02*
G03*
X381500Y435000I-50000J0D01*
G01*
X394000Y77500D02*
G03*
X394000Y77500I-50000J0D01*
G01*
X219000Y435000D02*
G03*
X219000Y435000I-50000J0D01*
G01*
X190000Y77000D02*
G03*
X190000Y77000I-50000J0D01*
G01*
X-104500Y414000D02*
X-72000D01*
X-104500D02*
Y541000D01*
X-72000D01*
X-10000D02*
X22500D01*
Y414000D02*
Y541000D01*
X-10000Y414000D02*
X22500D01*
X-219000Y-189500D02*
X-186500D01*
Y-316500D02*
Y-189500D01*
X-219000Y-316500D02*
X-186500D01*
X-313500D02*
X-281000D01*
X-313500D02*
Y-189500D01*
X-281000D01*
X-54000Y-136000D02*
Y-103500D01*
X-181000Y-136000D02*
X-54000D01*
X-181000D02*
Y-103500D01*
Y-41500D02*
Y-9000D01*
X-54000D01*
Y-41500D02*
Y-9000D01*
X-16500Y-548500D02*
Y-516000D01*
X-143500Y-548500D02*
X-16500D01*
X-143500D02*
Y-516000D01*
Y-454000D02*
Y-421500D01*
X-16500D01*
Y-454000D02*
Y-421500D01*
X129900Y363300D02*
X211200D01*
X129900Y261700D02*
X211200D01*
X129900D02*
Y363300D01*
X334150D02*
X415450D01*
X334150Y261700D02*
X415450D01*
X334150D02*
Y363300D01*
X262000Y-365800D02*
Y-359200D01*
X244150Y-354500D02*
X250850D01*
X233000Y-365800D02*
Y-359200D01*
X4125Y-130050D02*
Y-128075D01*
Y-153925D02*
Y-151950D01*
X47875Y-130050D02*
Y-128075D01*
Y-153925D02*
Y-151950D01*
X4125Y-153925D02*
X47875D01*
X4125Y-128075D02*
X47875D01*
X-57050Y50875D02*
X-55075D01*
X-80925D02*
X-78950D01*
X-57050Y7125D02*
X-55075D01*
X-80925D02*
X-78950D01*
X-80925D02*
Y50875D01*
X-55075Y7125D02*
Y50875D01*
X10625Y-351550D02*
Y-349575D01*
Y-375425D02*
Y-373450D01*
X54375Y-351550D02*
Y-349575D01*
Y-375425D02*
Y-373450D01*
X10625Y-375425D02*
X54375D01*
X10625Y-349575D02*
X54375D01*
Y-497925D02*
Y-495950D01*
Y-474050D02*
Y-472075D01*
X10625Y-497925D02*
Y-495950D01*
Y-474050D02*
Y-472075D01*
X54375D01*
X10625Y-497925D02*
X54375D01*
X-130475Y463075D02*
Y465050D01*
Y486950D02*
Y488925D01*
X-174225Y463075D02*
Y465050D01*
Y486950D02*
Y488925D01*
X-130475D01*
X-174225Y463075D02*
X-130475D01*
X139000Y-477800D02*
Y-476800D01*
X125000Y-477800D02*
Y-476800D01*
X139000Y-507200D02*
Y-506200D01*
X125000Y-507200D02*
Y-506200D01*
Y-476800D02*
X139000D01*
X125000Y-507200D02*
X139000D01*
X161500Y-414550D02*
X165440D01*
X161500Y-418270D02*
Y-414550D01*
Y-454550D02*
Y-450850D01*
Y-454550D02*
X165270D01*
X197890D02*
X201500D01*
Y-450800D01*
Y-418430D02*
Y-414550D01*
X197930D02*
X201500D01*
X426800Y-162100D02*
Y-97100D01*
X380800Y-162100D02*
X426800D01*
X380800D02*
Y-97100D01*
X426800D01*
X-25725Y-184300D02*
X35225D01*
X-25725Y-249700D02*
X35225D01*
Y-184300D01*
X-25725Y-185650D02*
Y-184300D01*
Y-249700D02*
Y-248350D01*
Y-42300D02*
X35225D01*
X-25725Y-107700D02*
X35225D01*
Y-42300D01*
X-25725Y-43650D02*
Y-42300D01*
Y-107700D02*
Y-106350D01*
Y-259200D02*
X35225D01*
X-25725Y-324600D02*
X35225D01*
Y-259200D01*
X-25725Y-260550D02*
Y-259200D01*
Y-324600D02*
Y-323250D01*
X13775Y-387300D02*
X74725D01*
X13775Y-452700D02*
X74725D01*
Y-387300D01*
X13775Y-388650D02*
Y-387300D01*
Y-452700D02*
Y-451350D01*
X335000Y-410675D02*
X346800D01*
X323200D02*
X335000D01*
X323200Y-364325D02*
X335000D01*
X346800D01*
X323200Y-410675D02*
Y-364325D01*
X346800Y-410675D02*
Y-364325D01*
X335000Y-428320D02*
Y-410675D01*
Y-364325D02*
Y-346680D01*
D13*
X72000Y346500D02*
G03*
X72000Y346500I-1000J0D01*
G01*
X276250D02*
G03*
X276250Y346500I-1000J0D01*
G01*
X238000Y-386600D02*
G03*
X238000Y-386600I-1000J0D01*
G01*
X-13500Y-141000D02*
G03*
X-13500Y-141000I-1000J0D01*
G01*
X-67000Y69500D02*
G03*
X-67000Y69500I-1000J0D01*
G01*
X-7000Y-362500D02*
G03*
X-7000Y-362500I-1000J0D01*
G01*
X74000Y-485000D02*
G03*
X74000Y-485000I-1000J0D01*
G01*
X-110850Y476000D02*
G03*
X-110850Y476000I-1000J0D01*
G01*
X154000Y-500250D02*
G03*
X154000Y-500250I-1000J0D01*
G01*
X-386350Y253000D02*
G03*
X-386350Y253000I-1000J0D01*
G01*
X247000Y-151650D02*
G03*
X247000Y-151650I-1000J0D01*
G01*
Y-262000D02*
G03*
X247000Y-262000I-1000J0D01*
G01*
X429800Y-79600D02*
G03*
X429800Y-79600I-1000J0D01*
G01*
X56500Y-252000D02*
G03*
X56500Y-252000I-1000J0D01*
G01*
Y-110000D02*
G03*
X56500Y-110000I-1000J0D01*
G01*
Y-326900D02*
G03*
X56500Y-326900I-1000J0D01*
G01*
X96000Y-455000D02*
G03*
X96000Y-455000I-1000J0D01*
G01*
X336000Y-317580D02*
G03*
X336000Y-317580I-1000J0D01*
G01*
X-366000Y-290200D02*
Y-183600D01*
X-447000Y-290200D02*
X-366000D01*
X-447000D02*
Y-183600D01*
X-366000D01*
X-219530Y506000D02*
Y570000D01*
X-299530Y506000D02*
X-219530D01*
X-299530Y570000D02*
X-219530D01*
X-299530Y506000D02*
Y570000D01*
X-304000Y506000D02*
Y570000D01*
X-384000Y506000D02*
X-304000D01*
X-384000Y570000D02*
X-304000D01*
X-384000Y506000D02*
Y570000D01*
X382000Y-427800D02*
X446000D01*
X382000D02*
Y-347800D01*
X446000Y-427800D02*
Y-347800D01*
X382000D02*
X446000D01*
X-446000Y47000D02*
X-382000D01*
X-446000D02*
Y103000D01*
X-382000Y47000D02*
Y103000D01*
X-446000D02*
X-382000D01*
X-189400Y506000D02*
Y570000D01*
X-133400D01*
X-189400Y506000D02*
X-133400D01*
Y570000D01*
X-446000Y-430000D02*
X-382000D01*
X-446000D02*
Y-374000D01*
X-382000Y-430000D02*
Y-374000D01*
X-446000D02*
X-382000D01*
X388000Y146000D02*
Y250000D01*
X284000Y146000D02*
Y250000D01*
X183500Y146000D02*
Y250000D01*
X79500Y146000D02*
Y250000D01*
X-15000Y175400D02*
Y304500D01*
X15000D01*
X-15000Y175400D02*
X15000D01*
Y304500D01*
X-16000Y41500D02*
Y170600D01*
X14000D01*
X-16000Y41500D02*
X14000D01*
Y170600D01*
X-383850Y264000D02*
Y296000D01*
X-334850D01*
Y264000D02*
Y296000D01*
X-383850Y264000D02*
X-334850D01*
X203000Y-148150D02*
X235000D01*
X203000D02*
Y-99150D01*
X235000D01*
Y-148150D02*
Y-99150D01*
X203000Y-258500D02*
X235000D01*
X203000D02*
Y-209500D01*
X235000D01*
Y-258500D02*
Y-209500D01*
X371850Y-94500D02*
Y-74000D01*
X278220Y-98000D02*
X374780D01*
X278220Y-162000D02*
Y-98000D01*
Y-162000D02*
X374780D01*
Y-98000D01*
X187000Y-403000D02*
Y-397000D01*
X215650Y-421000D02*
X228350D01*
X245000Y-419350D02*
Y-406650D01*
X230000Y-448350D02*
Y-435650D01*
X231000Y-459000D02*
Y-453000D01*
X231000Y-480000D02*
Y-474000D01*
X276000Y-531350D02*
Y-518650D01*
X144500Y-531350D02*
Y-518650D01*
X-229000Y143000D02*
Y147000D01*
X-185000Y121920D02*
Y132080D01*
X-180350Y101000D02*
X-167650D01*
X249000Y-323850D02*
Y-311150D01*
X265000Y-338850D02*
Y-326150D01*
X223000Y-345000D02*
X227000D01*
X282500Y-356350D02*
Y-343650D01*
X215000Y-381350D02*
Y-368650D01*
X187500Y-381350D02*
Y-368650D01*
X433000Y-167000D02*
X439000D01*
X408000Y-66350D02*
Y-53650D01*
X109000Y-214890D02*
Y-197110D01*
X100110Y-299000D02*
X117890D01*
X94000Y-106890D02*
Y-89110D01*
X-8500Y376500D02*
X-2500D01*
X-1000Y343000D02*
Y347000D01*
X-1000Y328000D02*
Y332000D01*
X-1000Y313000D02*
Y317000D01*
X55000Y290500D02*
X59000D01*
X68000D02*
X72000D01*
X-229000Y344000D02*
Y348000D01*
X-215000Y350000D02*
X-211000D01*
X-132390Y415000D02*
X-114610D01*
X-162390Y415000D02*
X-144610D01*
X-240000Y180000D02*
X-108000D01*
X-240000Y312000D02*
X-108000D01*
Y180000D02*
Y312000D01*
X-240000Y180000D02*
Y312000D01*
X-278000Y286000D02*
X-274000D01*
X-278000Y261000D02*
X-274000D01*
X-304000Y262000D02*
Y266000D01*
Y221000D02*
Y225000D01*
X-278500Y221000D02*
X-274500D01*
X-278500Y201000D02*
X-274500D01*
X-343250Y188500D02*
X-339250D01*
X-278500Y178500D02*
X-274500D01*
X-73250Y311000D02*
X-69250D01*
X-74250Y287000D02*
X-68250D01*
X-101500Y144000D02*
Y148000D01*
X-127000Y143000D02*
Y149000D01*
X-293000Y415000D02*
X-289000D01*
X-30000Y194000D02*
X-26000D01*
X-31000Y221000D02*
X-25000D01*
X361500Y-202500D02*
X367500D01*
X136920Y-163000D02*
X147080D01*
X403000Y-212350D02*
Y-199650D01*
Y-225000D02*
Y-219000D01*
X136920Y-273000D02*
X147080D01*
X248000Y-291890D02*
Y-274110D01*
X357650Y-55000D02*
X370350D01*
X280000Y-68350D02*
Y-55650D01*
X246000Y-181890D02*
Y-164110D01*
X94000Y-149890D02*
Y-132110D01*
X236000Y-91000D02*
Y-85000D01*
Y-201000D02*
Y-195000D01*
X305110Y-233000D02*
X322890D01*
X331110Y-232800D02*
X348890D01*
X252150Y141000D02*
X264850D01*
X214150Y141000D02*
X226850D01*
X272000Y290500D02*
X276000D01*
X259000D02*
X263000D01*
X62500Y426500D02*
X66500D01*
X71500Y404500D02*
Y410500D01*
X78500Y426500D02*
X82500D01*
X31110Y518000D02*
X48890D01*
X57110D02*
X74890D01*
X-356500Y453500D02*
Y457500D01*
X-399000Y312500D02*
X-395000D01*
X358665Y-409669D02*
X356998Y-408003D01*
X353666D01*
X352000Y-409669D01*
Y-416334D01*
X353666Y-418000D01*
X356998D01*
X358665Y-416334D01*
Y-413002D01*
X355332D01*
X361997Y-418000D02*
Y-408003D01*
X368661Y-418000D01*
Y-408003D01*
X371994D02*
Y-418000D01*
X376992D01*
X378658Y-416334D01*
Y-409669D01*
X376992Y-408003D01*
X371994D01*
X358000Y-383003D02*
X361332D01*
X359666D01*
Y-393000D01*
X358000D01*
X361332D01*
X366331D02*
Y-383003D01*
X372995Y-393000D01*
Y-383003D01*
X353000Y-367000D02*
X356332D01*
X354666D01*
Y-357003D01*
X353000Y-358669D01*
X367995Y-367000D02*
X361331D01*
X367995Y-360336D01*
Y-358669D01*
X366329Y-357003D01*
X362997D01*
X361331Y-358669D01*
X371327Y-357003D02*
Y-363668D01*
X374660Y-367000D01*
X377992Y-363668D01*
Y-357003D01*
X-200000Y538332D02*
X-193335D01*
X-196668Y541665D02*
Y535000D01*
X25164Y135597D02*
X18500D01*
Y125600D01*
X25164D01*
X18500Y130598D02*
X21832D01*
X28497Y125600D02*
Y135597D01*
X35161Y125600D01*
Y135597D01*
X-358000Y-217200D02*
X-354668D01*
X-356334D01*
Y-207203D01*
X-358000Y-208869D01*
X-343005Y-207203D02*
X-349669D01*
Y-212202D01*
X-346337Y-210536D01*
X-344671D01*
X-343005Y-212202D01*
Y-215534D01*
X-344671Y-217200D01*
X-348003D01*
X-349669Y-215534D01*
X-339673Y-208869D02*
X-338006Y-207203D01*
X-334674D01*
X-333008Y-208869D01*
Y-215534D01*
X-334674Y-217200D01*
X-338006D01*
X-339673Y-215534D01*
Y-208869D01*
X-329676Y-207203D02*
Y-213868D01*
X-326343Y-217200D01*
X-323011Y-213868D01*
Y-207203D01*
X-351335Y-259669D02*
X-353002Y-258003D01*
X-356334D01*
X-358000Y-259669D01*
Y-266334D01*
X-356334Y-268000D01*
X-353002D01*
X-351335Y-266334D01*
Y-263002D01*
X-354668D01*
X-348003Y-268000D02*
Y-258003D01*
X-341339Y-268000D01*
Y-258003D01*
X-338006D02*
Y-268000D01*
X-333008D01*
X-331342Y-266334D01*
Y-259669D01*
X-333008Y-258003D01*
X-338006D01*
X-121335Y559331D02*
X-123002Y560997D01*
X-126334D01*
X-128000Y559331D01*
Y552666D01*
X-126334Y551000D01*
X-123002D01*
X-121335Y552666D01*
Y555998D01*
X-124668D01*
X-118003Y551000D02*
Y560997D01*
X-111339Y551000D01*
Y560997D01*
X-108006D02*
Y551000D01*
X-103008D01*
X-101342Y552666D01*
Y559331D01*
X-103008Y560997D01*
X-108006D01*
X-263130Y489500D02*
Y499497D01*
X-258132D01*
X-256466Y497831D01*
Y494498D01*
X-258132Y492832D01*
X-263130D01*
X-288530Y489500D02*
Y499497D01*
X-281866Y489500D01*
Y499497D01*
X-241866Y497831D02*
X-243532Y499497D01*
X-246864D01*
X-248530Y497831D01*
Y491166D01*
X-246864Y489500D01*
X-243532D01*
X-241866Y491166D01*
Y494498D01*
X-245198D01*
X-238533Y489500D02*
Y499497D01*
X-231869Y489500D01*
Y499497D01*
X-228536D02*
Y489500D01*
X-223538D01*
X-221872Y491166D01*
Y497831D01*
X-223538Y499497D01*
X-228536D01*
X-326335Y497831D02*
X-328002Y499497D01*
X-331334D01*
X-333000Y497831D01*
Y491166D01*
X-331334Y489500D01*
X-328002D01*
X-326335Y491166D01*
Y494498D01*
X-329668D01*
X-323003Y489500D02*
Y499497D01*
X-316339Y489500D01*
Y499497D01*
X-313006D02*
Y489500D01*
X-308008D01*
X-306342Y491166D01*
Y497831D01*
X-308008Y499497D01*
X-313006D01*
X-348000Y489500D02*
Y496165D01*
X-344668Y499497D01*
X-341335Y496165D01*
Y489500D01*
Y494498D01*
X-348000D01*
X-373000Y499497D02*
Y489500D01*
X-368002D01*
X-366335Y491166D01*
Y492832D01*
X-368002Y494498D01*
X-373000D01*
X-368002D01*
X-366335Y496165D01*
Y497831D01*
X-368002Y499497D01*
X-373000D01*
X197169Y72000D02*
X195503Y73666D01*
Y76998D01*
X197169Y78664D01*
X198836D01*
X200502Y76998D01*
Y75332D01*
Y76998D01*
X202168Y78664D01*
X203834D01*
X205500Y76998D01*
Y73666D01*
X203834Y72000D01*
X205500Y81997D02*
X203834D01*
Y83663D01*
X205500D01*
Y81997D01*
X197169Y90327D02*
X195503Y91994D01*
Y95326D01*
X197169Y96992D01*
X198836D01*
X200502Y95326D01*
Y93660D01*
Y95326D01*
X202168Y96992D01*
X203834D01*
X205500Y95326D01*
Y91994D01*
X203834Y90327D01*
X195503Y100324D02*
X202168D01*
X205500Y103656D01*
X202168Y106989D01*
X195503D01*
X283000Y74500D02*
Y77832D01*
Y76166D01*
X273003D01*
X274669Y74500D01*
X283000Y89495D02*
Y82831D01*
X276336Y89495D01*
X274669D01*
X273003Y87829D01*
Y84497D01*
X274669Y82831D01*
X273003Y92827D02*
X279668D01*
X283000Y96160D01*
X279668Y99492D01*
X273003D01*
X18500Y161431D02*
X20166Y163097D01*
X23498D01*
X25164Y161431D01*
Y159764D01*
X23498Y158098D01*
X21832D01*
X23498D01*
X25164Y156432D01*
Y154766D01*
X23498Y153100D01*
X20166D01*
X18500Y154766D01*
X28497Y153100D02*
Y154766D01*
X30163D01*
Y153100D01*
X28497D01*
X36827Y161431D02*
X38493Y163097D01*
X41826D01*
X43492Y161431D01*
Y159764D01*
X41826Y158098D01*
X40160D01*
X41826D01*
X43492Y156432D01*
Y154766D01*
X41826Y153100D01*
X38493D01*
X36827Y154766D01*
X46824Y163097D02*
Y156432D01*
X50156Y153100D01*
X53489Y156432D01*
Y163097D01*
X25164Y57731D02*
X23498Y59397D01*
X20166D01*
X18500Y57731D01*
Y51066D01*
X20166Y49400D01*
X23498D01*
X25164Y51066D01*
Y54398D01*
X21832D01*
X28497Y49400D02*
Y59397D01*
X35161Y49400D01*
Y59397D01*
X38493D02*
Y49400D01*
X43492D01*
X45158Y51066D01*
Y57731D01*
X43492Y59397D01*
X38493D01*
X18500Y74800D02*
Y84797D01*
X23498D01*
X25164Y83131D01*
Y79798D01*
X23498Y78132D01*
X18500D01*
X28497Y84797D02*
Y74800D01*
X31829Y78132D01*
X35161Y74800D01*
Y84797D01*
X38493Y74800D02*
Y84797D01*
X41826Y81465D01*
X45158Y84797D01*
Y74800D01*
X18500Y100200D02*
Y110197D01*
X23498D01*
X25164Y108531D01*
Y105198D01*
X23498Y103532D01*
X18500D01*
X28497Y110197D02*
Y100200D01*
X31829Y103532D01*
X35161Y100200D01*
Y110197D01*
X38493Y100200D02*
Y110197D01*
X41826Y106865D01*
X45158Y110197D01*
Y100200D01*
X19500Y193731D02*
X21166Y195397D01*
X24498D01*
X26165Y193731D01*
Y192064D01*
X24498Y190398D01*
X22832D01*
X24498D01*
X26165Y188732D01*
Y187066D01*
X24498Y185400D01*
X21166D01*
X19500Y187066D01*
X29497Y185400D02*
Y187066D01*
X31163D01*
Y185400D01*
X29497D01*
X37827Y193731D02*
X39494Y195397D01*
X42826D01*
X44492Y193731D01*
Y192064D01*
X42826Y190398D01*
X41160D01*
X42826D01*
X44492Y188732D01*
Y187066D01*
X42826Y185400D01*
X39494D01*
X37827Y187066D01*
X47824Y195397D02*
Y188732D01*
X51156Y185400D01*
X54489Y188732D01*
Y195397D01*
X19500Y210800D02*
Y220797D01*
X24498D01*
X26165Y219131D01*
Y215798D01*
X24498Y214132D01*
X19500D01*
X22832D02*
X26165Y210800D01*
X36161Y219131D02*
X34495Y220797D01*
X31163D01*
X29497Y219131D01*
Y217465D01*
X31163Y215798D01*
X34495D01*
X36161Y214132D01*
Y212466D01*
X34495Y210800D01*
X31163D01*
X29497Y212466D01*
X39494Y220797D02*
X46158D01*
X42826D01*
Y210800D01*
X19500Y246197D02*
Y236200D01*
X24498D01*
X26165Y237866D01*
Y244531D01*
X24498Y246197D01*
X19500D01*
X29497D02*
X32829D01*
X31163D01*
Y236200D01*
X29497D01*
X32829D01*
X42826Y246197D02*
X39494D01*
X37827Y244531D01*
Y237866D01*
X39494Y236200D01*
X42826D01*
X44492Y237866D01*
Y244531D01*
X42826Y246197D01*
X26165Y269931D02*
X24498Y271597D01*
X21166D01*
X19500Y269931D01*
Y263266D01*
X21166Y261600D01*
X24498D01*
X26165Y263266D01*
Y266598D01*
X22832D01*
X29497Y261600D02*
Y271597D01*
X36161Y261600D01*
Y271597D01*
X39494D02*
Y261600D01*
X44492D01*
X46158Y263266D01*
Y269931D01*
X44492Y271597D01*
X39494D01*
X26165Y295331D02*
X24498Y296997D01*
X21166D01*
X19500Y295331D01*
Y288666D01*
X21166Y287000D01*
X24498D01*
X26165Y288666D01*
X29497Y296997D02*
Y287000D01*
X36161D01*
X39494Y296997D02*
Y287000D01*
Y290332D01*
X46158Y296997D01*
X41160Y291998D01*
X46158Y287000D01*
X284171Y-412502D02*
Y-419166D01*
X287503Y-422498D01*
X290835Y-419166D01*
Y-412502D01*
X294168D02*
Y-422498D01*
X299166D01*
X300832Y-420832D01*
Y-414168D01*
X299166Y-412502D01*
X294168D01*
X310829Y-422498D02*
X304165D01*
X310829Y-415834D01*
Y-414168D01*
X309163Y-412502D01*
X305831D01*
X304165Y-414168D01*
X176669Y-364998D02*
Y-355002D01*
X181668D01*
X183334Y-356668D01*
Y-360000D01*
X181668Y-361666D01*
X176669D01*
X180002D02*
X183334Y-364998D01*
X186666Y-356668D02*
X188332Y-355002D01*
X191665D01*
X193331Y-356668D01*
Y-358334D01*
X191665Y-360000D01*
X193331Y-361666D01*
Y-363332D01*
X191665Y-364998D01*
X188332D01*
X186666Y-363332D01*
Y-361666D01*
X188332Y-360000D01*
X186666Y-358334D01*
Y-356668D01*
X188332Y-360000D02*
X191665D01*
X-179331Y75002D02*
Y84998D01*
X-174332D01*
X-172666Y83332D01*
Y80000D01*
X-174332Y78334D01*
X-179331D01*
X-175998D02*
X-172666Y75002D01*
X-169334Y84998D02*
X-162669D01*
Y83332D01*
X-169334Y76668D01*
Y75002D01*
X206669Y-364998D02*
Y-355002D01*
X211668D01*
X213334Y-356668D01*
Y-360000D01*
X211668Y-361666D01*
X206669D01*
X210002D02*
X213334Y-364998D01*
X223331Y-355002D02*
X219998Y-356668D01*
X216666Y-360000D01*
Y-363332D01*
X218332Y-364998D01*
X221665D01*
X223331Y-363332D01*
Y-361666D01*
X221665Y-360000D01*
X216666D01*
X240669Y-306998D02*
Y-297002D01*
X245668D01*
X247334Y-298668D01*
Y-302000D01*
X245668Y-303666D01*
X240669D01*
X244002D02*
X247334Y-306998D01*
X250666Y-298668D02*
X252332Y-297002D01*
X255665D01*
X257331Y-298668D01*
Y-300334D01*
X255665Y-302000D01*
X253998D01*
X255665D01*
X257331Y-303666D01*
Y-305332D01*
X255665Y-306998D01*
X252332D01*
X250666Y-305332D01*
X284669Y-335998D02*
Y-326002D01*
X289668D01*
X291334Y-327668D01*
Y-331000D01*
X289668Y-332666D01*
X284669D01*
X288002D02*
X291334Y-335998D01*
X301331D02*
X294666D01*
X301331Y-329334D01*
Y-327668D01*
X299664Y-326002D01*
X296332D01*
X294666Y-327668D01*
X298335Y-354998D02*
Y-345002D01*
X303334D01*
X305000Y-346668D01*
Y-350000D01*
X303334Y-351666D01*
X298335D01*
X301668D02*
X305000Y-354998D01*
X308332D02*
X311665D01*
X309998D01*
Y-345002D01*
X308332Y-346668D01*
X245837Y-385002D02*
Y-394998D01*
X250835D01*
X252502Y-393332D01*
Y-386668D01*
X250835Y-385002D01*
X245837D01*
X255834Y-394998D02*
Y-388334D01*
X259166Y-385002D01*
X262498Y-388334D01*
Y-394998D01*
Y-390000D01*
X255834D01*
X265831Y-394998D02*
X269163D01*
X267497D01*
Y-385002D01*
X265831Y-386668D01*
X-193666Y148332D02*
X-195332Y149998D01*
X-198664D01*
X-200331Y148332D01*
Y141668D01*
X-198664Y140002D01*
X-195332D01*
X-193666Y141668D01*
X-183669Y149998D02*
X-187002Y148332D01*
X-190334Y145000D01*
Y141668D01*
X-188668Y140002D01*
X-185336D01*
X-183669Y141668D01*
Y143334D01*
X-185336Y145000D01*
X-190334D01*
X220834Y-324168D02*
X219168Y-322502D01*
X215835D01*
X214169Y-324168D01*
Y-330832D01*
X215835Y-332498D01*
X219168D01*
X220834Y-330832D01*
X230831Y-332498D02*
X224166D01*
X230831Y-325834D01*
Y-324168D01*
X229165Y-322502D01*
X225832D01*
X224166Y-324168D01*
X-442498Y-363331D02*
X-432502Y-356666D01*
X-442498D02*
X-432502Y-363331D01*
X-434168Y-353334D02*
X-432502Y-351668D01*
Y-348335D01*
X-434168Y-346669D01*
X-440832D01*
X-442498Y-348335D01*
Y-351668D01*
X-440832Y-353334D01*
X-439166D01*
X-437500Y-351668D01*
Y-346669D01*
X432668Y-141665D02*
X431002Y-143331D01*
Y-146663D01*
X432668Y-148329D01*
X439332D01*
X440998Y-146663D01*
Y-143331D01*
X439332Y-141665D01*
X432668Y-138332D02*
X431002Y-136666D01*
Y-133334D01*
X432668Y-131668D01*
X434334D01*
X436000Y-133334D01*
Y-135000D01*
Y-133334D01*
X437666Y-131668D01*
X439332D01*
X440998Y-133334D01*
Y-136666D01*
X439332Y-138332D01*
X432668Y-128336D02*
X431002Y-126669D01*
Y-123337D01*
X432668Y-121671D01*
X434334D01*
X436000Y-123337D01*
X437666Y-121671D01*
X439332D01*
X440998Y-123337D01*
Y-126669D01*
X439332Y-128336D01*
X437666D01*
X436000Y-126669D01*
X434334Y-128336D01*
X432668D01*
X436000Y-126669D02*
Y-123337D01*
X-223998Y386671D02*
X-217334D01*
X-214002Y390003D01*
X-217334Y393335D01*
X-223998D01*
Y396668D02*
X-214002D01*
Y401666D01*
X-215668Y403332D01*
X-222332D01*
X-223998Y401666D01*
Y396668D01*
Y413329D02*
Y406665D01*
X-219000D01*
X-220666Y409997D01*
Y411663D01*
X-219000Y413329D01*
X-215668D01*
X-214002Y411663D01*
Y408331D01*
X-215668Y406665D01*
X-201998Y461671D02*
X-195334D01*
X-192002Y465003D01*
X-195334Y468335D01*
X-201998D01*
Y471668D02*
X-192002D01*
Y476666D01*
X-193668Y478332D01*
X-200332D01*
X-201998Y476666D01*
Y471668D01*
X-200332Y481665D02*
X-201998Y483331D01*
Y486663D01*
X-200332Y488329D01*
X-198666D01*
X-197000Y486663D01*
Y484997D01*
Y486663D01*
X-195334Y488329D01*
X-193668D01*
X-192002Y486663D01*
Y483331D01*
X-193668Y481665D01*
X-306666Y280832D02*
X-308332Y282498D01*
X-311665D01*
X-313331Y280832D01*
Y274168D01*
X-311665Y272502D01*
X-308332D01*
X-306666Y274168D01*
X-298335Y272502D02*
Y282498D01*
X-303334Y277500D01*
X-296669D01*
X-326666Y225832D02*
X-328332Y227498D01*
X-331665D01*
X-333331Y225832D01*
Y219168D01*
X-331665Y217502D01*
X-328332D01*
X-326666Y219168D01*
X-316669Y227498D02*
X-323334D01*
Y222500D01*
X-320002Y224166D01*
X-318335D01*
X-316669Y222500D01*
Y219168D01*
X-318335Y217502D01*
X-321668D01*
X-323334Y219168D01*
X-46666Y223332D02*
X-48332Y224998D01*
X-51665D01*
X-53331Y223332D01*
Y216668D01*
X-51665Y215002D01*
X-48332D01*
X-46666Y216668D01*
X-43334Y224998D02*
X-36669D01*
Y223332D01*
X-43334Y216668D01*
Y215002D01*
X-56666Y290832D02*
X-58332Y292498D01*
X-61665D01*
X-63331Y290832D01*
Y284168D01*
X-61665Y282502D01*
X-58332D01*
X-56666Y284168D01*
X-53334Y290832D02*
X-51668Y292498D01*
X-48335D01*
X-46669Y290832D01*
Y289166D01*
X-48335Y287500D01*
X-46669Y285834D01*
Y284168D01*
X-48335Y282502D01*
X-51668D01*
X-53334Y284168D01*
Y285834D01*
X-51668Y287500D01*
X-53334Y289166D01*
Y290832D01*
X-51668Y287500D02*
X-48335D01*
X-129166Y135832D02*
X-130832Y137498D01*
X-134164D01*
X-135831Y135832D01*
Y129168D01*
X-134164Y127502D01*
X-130832D01*
X-129166Y129168D01*
X-125834D02*
X-124168Y127502D01*
X-120836D01*
X-119169Y129168D01*
Y135832D01*
X-120836Y137498D01*
X-124168D01*
X-125834Y135832D01*
Y134166D01*
X-124168Y132500D01*
X-119169D01*
X-53331Y190002D02*
Y199998D01*
X-48332D01*
X-46666Y198332D01*
Y195000D01*
X-48332Y193334D01*
X-53331D01*
X-49998D02*
X-46666Y190002D01*
X-36669Y199998D02*
X-43334D01*
Y195000D01*
X-40002Y196666D01*
X-38335D01*
X-36669Y195000D01*
Y191668D01*
X-38335Y190002D01*
X-41668D01*
X-43334Y191668D01*
X-204331Y349002D02*
Y358998D01*
X-199332D01*
X-197666Y357332D01*
Y354000D01*
X-199332Y352334D01*
X-204331D01*
X-200998D02*
X-197666Y349002D01*
X-194334Y350668D02*
X-192668Y349002D01*
X-189335D01*
X-187669Y350668D01*
Y357332D01*
X-189335Y358998D01*
X-192668D01*
X-194334Y357332D01*
Y355666D01*
X-192668Y354000D01*
X-187669D01*
X-331665Y242498D02*
X-325000D01*
Y240832D01*
X-331665Y234168D01*
Y232502D01*
X-325000D01*
X-321668D02*
X-318335D01*
X-320002D01*
Y242498D01*
X-321668Y240832D01*
X-444998Y109169D02*
X-435002Y115834D01*
X-444998D02*
X-435002Y109169D01*
X-443332Y119166D02*
X-444998Y120832D01*
Y124164D01*
X-443332Y125831D01*
X-441666D01*
X-440000Y124164D01*
X-438334Y125831D01*
X-436668D01*
X-435002Y124164D01*
Y120832D01*
X-436668Y119166D01*
X-438334D01*
X-440000Y120832D01*
X-441666Y119166D01*
X-443332D01*
X-440000Y120832D02*
Y124164D01*
X-442498Y-173331D02*
X-432502Y-166666D01*
X-442498D02*
X-432502Y-173331D01*
X-442498Y-163334D02*
Y-156669D01*
X-440832D01*
X-434168Y-163334D01*
X-432502D01*
X-38331Y172498D02*
X-31666Y162502D01*
Y172498D02*
X-38331Y162502D01*
X-21669Y172498D02*
X-28334D01*
Y167500D01*
X-25002Y169166D01*
X-23335D01*
X-21669Y167500D01*
Y164168D01*
X-23335Y162502D01*
X-26668D01*
X-28334Y164168D01*
X-38331Y307498D02*
X-31666Y297502D01*
Y307498D02*
X-38331Y297502D01*
X-23335D02*
Y307498D01*
X-28334Y302500D01*
X-21669D01*
X81671Y-415002D02*
Y-421666D01*
X85003Y-424998D01*
X88336Y-421666D01*
Y-415002D01*
X91668D02*
X98332D01*
X95000D01*
Y-424998D01*
X106663D02*
Y-415002D01*
X101664Y-420000D01*
X108329D01*
X44171Y-287502D02*
Y-294166D01*
X47503Y-297498D01*
X50835Y-294166D01*
Y-287502D01*
X54168D02*
X60832D01*
X57500D01*
Y-297498D01*
X64165Y-289168D02*
X65831Y-287502D01*
X69163D01*
X70829Y-289168D01*
Y-290834D01*
X69163Y-292500D01*
X67497D01*
X69163D01*
X70829Y-294166D01*
Y-295832D01*
X69163Y-297498D01*
X65831D01*
X64165Y-295832D01*
X44171Y-72502D02*
Y-79166D01*
X47503Y-82498D01*
X50835Y-79166D01*
Y-72502D01*
X54168D02*
X60832D01*
X57500D01*
Y-82498D01*
X70829D02*
X64165D01*
X70829Y-75834D01*
Y-74168D01*
X69163Y-72502D01*
X65831D01*
X64165Y-74168D01*
X45837Y-210002D02*
Y-216666D01*
X49169Y-219998D01*
X52502Y-216666D01*
Y-210002D01*
X55834D02*
X62498D01*
X59166D01*
Y-219998D01*
X65831D02*
X69163D01*
X67497D01*
Y-210002D01*
X65831Y-211668D01*
X115006Y-460002D02*
Y-466666D01*
X118338Y-469998D01*
X121670Y-466666D01*
Y-460002D01*
X125002D02*
Y-469998D01*
X130001D01*
X131667Y-468332D01*
Y-461668D01*
X130001Y-460002D01*
X125002D01*
X134999Y-469998D02*
X138331D01*
X136665D01*
Y-460002D01*
X134999Y-461668D01*
X149994Y-460002D02*
X143330D01*
Y-465000D01*
X146662Y-463334D01*
X148328D01*
X149994Y-465000D01*
Y-468332D01*
X148328Y-469998D01*
X144996D01*
X143330Y-468332D01*
X15006Y-335002D02*
Y-341666D01*
X18338Y-344998D01*
X21670Y-341666D01*
Y-335002D01*
X25002D02*
Y-344998D01*
X30001D01*
X31667Y-343332D01*
Y-336668D01*
X30001Y-335002D01*
X25002D01*
X34999Y-344998D02*
X38331D01*
X36665D01*
Y-335002D01*
X34999Y-336668D01*
X43330D02*
X44996Y-335002D01*
X48328D01*
X49994Y-336668D01*
Y-338334D01*
X48328Y-340000D01*
X46662D01*
X48328D01*
X49994Y-341666D01*
Y-343332D01*
X48328Y-344998D01*
X44996D01*
X43330Y-343332D01*
X173506Y-305002D02*
Y-311666D01*
X176838Y-314998D01*
X180170Y-311666D01*
Y-305002D01*
X183502D02*
Y-314998D01*
X188501D01*
X190167Y-313332D01*
Y-306668D01*
X188501Y-305002D01*
X183502D01*
X193499Y-314998D02*
X196831D01*
X195165D01*
Y-305002D01*
X193499Y-306668D01*
X208494Y-314998D02*
X201830D01*
X208494Y-308334D01*
Y-306668D01*
X206828Y-305002D01*
X203496D01*
X201830Y-306668D01*
X-116828Y34998D02*
Y28334D01*
X-113496Y25002D01*
X-110164Y28334D01*
Y34998D01*
X-106831D02*
Y25002D01*
X-101833D01*
X-100167Y26668D01*
Y33332D01*
X-101833Y34998D01*
X-106831D01*
X-96835Y25002D02*
X-93502D01*
X-95169D01*
Y34998D01*
X-96835Y33332D01*
X-88504Y25002D02*
X-85172D01*
X-86838D01*
Y34998D01*
X-88504Y33332D01*
X8506Y-164002D02*
Y-170666D01*
X11838Y-173998D01*
X15170Y-170666D01*
Y-164002D01*
X18502D02*
Y-173998D01*
X23501D01*
X25167Y-172332D01*
Y-165668D01*
X23501Y-164002D01*
X18502D01*
X28499Y-173998D02*
X31832D01*
X30165D01*
Y-164002D01*
X28499Y-165668D01*
X36830D02*
X38496Y-164002D01*
X41828D01*
X43494Y-165668D01*
Y-172332D01*
X41828Y-173998D01*
X38496D01*
X36830Y-172332D01*
Y-165668D01*
X177551Y-192852D02*
Y-199516D01*
X180883Y-202848D01*
X184216Y-199516D01*
Y-192852D01*
X187548D02*
Y-202848D01*
X192546D01*
X194212Y-201182D01*
Y-194518D01*
X192546Y-192852D01*
X187548D01*
X197544Y-201182D02*
X199211Y-202848D01*
X202543D01*
X204209Y-201182D01*
Y-194518D01*
X202543Y-192852D01*
X199211D01*
X197544Y-194518D01*
Y-196184D01*
X199211Y-197850D01*
X204209D01*
X53284Y388909D02*
Y382244D01*
X56616Y378912D01*
X59949Y382244D01*
Y388909D01*
X63281D02*
Y378912D01*
X68279D01*
X69945Y380578D01*
Y387243D01*
X68279Y388909D01*
X63281D01*
X73278Y387243D02*
X74944Y388909D01*
X78276D01*
X79942Y387243D01*
Y385577D01*
X78276Y383910D01*
X79942Y382244D01*
Y380578D01*
X78276Y378912D01*
X74944D01*
X73278Y380578D01*
Y382244D01*
X74944Y383910D01*
X73278Y385577D01*
Y387243D01*
X74944Y383910D02*
X78276D01*
X206671Y62498D02*
Y55834D01*
X210003Y52502D01*
X213335Y55834D01*
Y62498D01*
X216668D02*
Y52502D01*
X221666D01*
X223332Y54168D01*
Y60832D01*
X221666Y62498D01*
X216668D01*
X226665D02*
X233329D01*
Y60832D01*
X226665Y54168D01*
Y52502D01*
X246671Y62498D02*
Y55834D01*
X250003Y52502D01*
X253335Y55834D01*
Y62498D01*
X256668D02*
Y52502D01*
X261666D01*
X263332Y54168D01*
Y60832D01*
X261666Y62498D01*
X256668D01*
X271663Y52502D02*
Y62498D01*
X266665Y57500D01*
X273329D01*
X-333331Y344998D02*
Y338334D01*
X-329998Y335002D01*
X-326666Y338334D01*
Y344998D01*
X-316669Y335002D02*
X-323334D01*
X-316669Y341666D01*
Y343332D01*
X-318335Y344998D01*
X-321668D01*
X-323334Y343332D01*
X-308664Y468998D02*
Y462334D01*
X-305332Y459002D01*
X-302000Y462334D01*
Y468998D01*
X-298668Y459002D02*
X-295336D01*
X-297002D01*
Y468998D01*
X-298668Y467332D01*
X-234664Y466998D02*
X-228000D01*
X-231332D01*
Y457002D01*
X-224668D02*
X-221336D01*
X-223002D01*
Y466998D01*
X-224668Y465332D01*
X294171Y-529998D02*
Y-520002D01*
X299169D01*
X300835Y-521668D01*
Y-525000D01*
X299169Y-526666D01*
X294171D01*
X297503D02*
X300835Y-529998D01*
X304168Y-521668D02*
X305834Y-520002D01*
X309166D01*
X310832Y-521668D01*
Y-523334D01*
X309166Y-525000D01*
X307500D01*
X309166D01*
X310832Y-526666D01*
Y-528332D01*
X309166Y-529998D01*
X305834D01*
X304168Y-528332D01*
X314165Y-521668D02*
X315831Y-520002D01*
X319163D01*
X320829Y-521668D01*
Y-523334D01*
X319163Y-525000D01*
X320829Y-526666D01*
Y-528332D01*
X319163Y-529998D01*
X315831D01*
X314165Y-528332D01*
Y-526666D01*
X315831Y-525000D01*
X314165Y-523334D01*
Y-521668D01*
X315831Y-525000D02*
X319163D01*
X101671Y-529998D02*
Y-520002D01*
X106669D01*
X108336Y-521668D01*
Y-525000D01*
X106669Y-526666D01*
X101671D01*
X105003D02*
X108336Y-529998D01*
X111668Y-521668D02*
X113334Y-520002D01*
X116666D01*
X118332Y-521668D01*
Y-523334D01*
X116666Y-525000D01*
X115000D01*
X116666D01*
X118332Y-526666D01*
Y-528332D01*
X116666Y-529998D01*
X113334D01*
X111668Y-528332D01*
X121664Y-520002D02*
X128329D01*
Y-521668D01*
X121664Y-528332D01*
Y-529998D01*
X249171Y-429998D02*
Y-420002D01*
X254169D01*
X255835Y-421668D01*
Y-425000D01*
X254169Y-426666D01*
X249171D01*
X252503D02*
X255835Y-429998D01*
X259168Y-421668D02*
X260834Y-420002D01*
X264166D01*
X265832Y-421668D01*
Y-423334D01*
X264166Y-425000D01*
X262500D01*
X264166D01*
X265832Y-426666D01*
Y-428332D01*
X264166Y-429998D01*
X260834D01*
X259168Y-428332D01*
X275829Y-420002D02*
X272497Y-421668D01*
X269165Y-425000D01*
Y-428332D01*
X270831Y-429998D01*
X274163D01*
X275829Y-428332D01*
Y-426666D01*
X274163Y-425000D01*
X269165D01*
X214171Y-402498D02*
Y-392502D01*
X219169D01*
X220835Y-394168D01*
Y-397500D01*
X219169Y-399166D01*
X214171D01*
X217503D02*
X220835Y-402498D01*
X224168Y-394168D02*
X225834Y-392502D01*
X229166D01*
X230832Y-394168D01*
Y-395834D01*
X229166Y-397500D01*
X227500D01*
X229166D01*
X230832Y-399166D01*
Y-400832D01*
X229166Y-402498D01*
X225834D01*
X224168Y-400832D01*
X240829Y-392502D02*
X234165D01*
Y-397500D01*
X237497Y-395834D01*
X239163D01*
X240829Y-397500D01*
Y-400832D01*
X239163Y-402498D01*
X235831D01*
X234165Y-400832D01*
X249171Y-444998D02*
Y-435002D01*
X254169D01*
X255835Y-436668D01*
Y-440000D01*
X254169Y-441666D01*
X249171D01*
X252503D02*
X255835Y-444998D01*
X259168Y-436668D02*
X260834Y-435002D01*
X264166D01*
X265832Y-436668D01*
Y-438334D01*
X264166Y-440000D01*
X262500D01*
X264166D01*
X265832Y-441666D01*
Y-443332D01*
X264166Y-444998D01*
X260834D01*
X259168Y-443332D01*
X274163Y-444998D02*
Y-435002D01*
X269165Y-440000D01*
X275829D01*
X91671Y-189998D02*
Y-180002D01*
X96669D01*
X98336Y-181668D01*
Y-185000D01*
X96669Y-186666D01*
X91671D01*
X95003D02*
X98336Y-189998D01*
X101668Y-181668D02*
X103334Y-180002D01*
X106666D01*
X108332Y-181668D01*
Y-183334D01*
X106666Y-185000D01*
X105000D01*
X106666D01*
X108332Y-186666D01*
Y-188332D01*
X106666Y-189998D01*
X103334D01*
X101668Y-188332D01*
X111664Y-181668D02*
X113331Y-180002D01*
X116663D01*
X118329Y-181668D01*
Y-183334D01*
X116663Y-185000D01*
X114997D01*
X116663D01*
X118329Y-186666D01*
Y-188332D01*
X116663Y-189998D01*
X113331D01*
X111664Y-188332D01*
X91671Y-267498D02*
Y-257502D01*
X96669D01*
X98336Y-259168D01*
Y-262500D01*
X96669Y-264166D01*
X91671D01*
X95003D02*
X98336Y-267498D01*
X101668Y-259168D02*
X103334Y-257502D01*
X106666D01*
X108332Y-259168D01*
Y-260834D01*
X106666Y-262500D01*
X105000D01*
X106666D01*
X108332Y-264166D01*
Y-265832D01*
X106666Y-267498D01*
X103334D01*
X101668Y-265832D01*
X118329Y-267498D02*
X111664D01*
X118329Y-260834D01*
Y-259168D01*
X116663Y-257502D01*
X113331D01*
X111664Y-259168D01*
X275837Y-287498D02*
Y-277502D01*
X280835D01*
X282502Y-279168D01*
Y-282500D01*
X280835Y-284166D01*
X275837D01*
X279169D02*
X282502Y-287498D01*
X285834Y-279168D02*
X287500Y-277502D01*
X290832D01*
X292498Y-279168D01*
Y-280834D01*
X290832Y-282500D01*
X289166D01*
X290832D01*
X292498Y-284166D01*
Y-285832D01*
X290832Y-287498D01*
X287500D01*
X285834Y-285832D01*
X295831Y-287498D02*
X299163D01*
X297497D01*
Y-277502D01*
X295831Y-279168D01*
X418671Y-210998D02*
Y-201002D01*
X423669D01*
X425336Y-202668D01*
Y-206000D01*
X423669Y-207666D01*
X418671D01*
X422003D02*
X425336Y-210998D01*
X428668Y-202668D02*
X430334Y-201002D01*
X433666D01*
X435332Y-202668D01*
Y-204334D01*
X433666Y-206000D01*
X432000D01*
X433666D01*
X435332Y-207666D01*
Y-209332D01*
X433666Y-210998D01*
X430334D01*
X428668Y-209332D01*
X438665Y-202668D02*
X440331Y-201002D01*
X443663D01*
X445329Y-202668D01*
Y-209332D01*
X443663Y-210998D01*
X440331D01*
X438665Y-209332D01*
Y-202668D01*
X394171Y-49998D02*
Y-40002D01*
X399169D01*
X400835Y-41668D01*
Y-45000D01*
X399169Y-46666D01*
X394171D01*
X397503D02*
X400835Y-49998D01*
X410832D02*
X404168D01*
X410832Y-43334D01*
Y-41668D01*
X409166Y-40002D01*
X405834D01*
X404168Y-41668D01*
X414165Y-48332D02*
X415831Y-49998D01*
X419163D01*
X420829Y-48332D01*
Y-41668D01*
X419163Y-40002D01*
X415831D01*
X414165Y-41668D01*
Y-43334D01*
X415831Y-45000D01*
X420829D01*
X266671Y-49998D02*
Y-40002D01*
X271669D01*
X273335Y-41668D01*
Y-45000D01*
X271669Y-46666D01*
X266671D01*
X270003D02*
X273335Y-49998D01*
X283332D02*
X276668D01*
X283332Y-43334D01*
Y-41668D01*
X281666Y-40002D01*
X278334D01*
X276668Y-41668D01*
X286665D02*
X288331Y-40002D01*
X291663D01*
X293329Y-41668D01*
Y-43334D01*
X291663Y-45000D01*
X293329Y-46666D01*
Y-48332D01*
X291663Y-49998D01*
X288331D01*
X286665Y-48332D01*
Y-46666D01*
X288331Y-45000D01*
X286665Y-43334D01*
Y-41668D01*
X288331Y-45000D02*
X291663D01*
X80671Y-82998D02*
Y-73002D01*
X85669D01*
X87336Y-74668D01*
Y-78000D01*
X85669Y-79666D01*
X80671D01*
X84003D02*
X87336Y-82998D01*
X97332D02*
X90668D01*
X97332Y-76334D01*
Y-74668D01*
X95666Y-73002D01*
X92334D01*
X90668Y-74668D01*
X100665Y-73002D02*
X107329D01*
Y-74668D01*
X100665Y-81332D01*
Y-82998D01*
X329171Y-49998D02*
Y-40002D01*
X334169D01*
X335835Y-41668D01*
Y-45000D01*
X334169Y-46666D01*
X329171D01*
X332503D02*
X335835Y-49998D01*
X345832D02*
X339168D01*
X345832Y-43334D01*
Y-41668D01*
X344166Y-40002D01*
X340834D01*
X339168Y-41668D01*
X355829Y-40002D02*
X352497Y-41668D01*
X349165Y-45000D01*
Y-48332D01*
X350831Y-49998D01*
X354163D01*
X355829Y-48332D01*
Y-46666D01*
X354163Y-45000D01*
X349165D01*
X81671Y-164998D02*
Y-155002D01*
X86669D01*
X88336Y-156668D01*
Y-160000D01*
X86669Y-161666D01*
X81671D01*
X85003D02*
X88336Y-164998D01*
X98332D02*
X91668D01*
X98332Y-158334D01*
Y-156668D01*
X96666Y-155002D01*
X93334D01*
X91668Y-156668D01*
X101664D02*
X103331Y-155002D01*
X106663D01*
X108329Y-156668D01*
Y-158334D01*
X106663Y-160000D01*
X104997D01*
X106663D01*
X108329Y-161666D01*
Y-163332D01*
X106663Y-164998D01*
X103331D01*
X101664Y-163332D01*
X267498Y-155829D02*
X257502D01*
Y-150831D01*
X259168Y-149164D01*
X262500D01*
X264166Y-150831D01*
Y-155829D01*
Y-152497D02*
X267498Y-149164D01*
Y-139168D02*
Y-145832D01*
X260834Y-139168D01*
X259168D01*
X257502Y-140834D01*
Y-144166D01*
X259168Y-145832D01*
X267498Y-129171D02*
Y-135836D01*
X260834Y-129171D01*
X259168D01*
X257502Y-130837D01*
Y-134169D01*
X259168Y-135836D01*
X208337Y160002D02*
Y169998D01*
X213335D01*
X215002Y168332D01*
Y165000D01*
X213335Y163334D01*
X208337D01*
X211669D02*
X215002Y160002D01*
X224998D02*
X218334D01*
X224998Y166666D01*
Y168332D01*
X223332Y169998D01*
X220000D01*
X218334Y168332D01*
X228331Y160002D02*
X231663D01*
X229997D01*
Y169998D01*
X228331Y168332D01*
X74998Y252671D02*
X65002D01*
Y257669D01*
X66668Y259335D01*
X70000D01*
X71666Y257669D01*
Y252671D01*
Y256003D02*
X74998Y259335D01*
Y269332D02*
Y262668D01*
X68334Y269332D01*
X66668D01*
X65002Y267666D01*
Y264334D01*
X66668Y262668D01*
Y272665D02*
X65002Y274331D01*
Y277663D01*
X66668Y279329D01*
X73332D01*
X74998Y277663D01*
Y274331D01*
X73332Y272665D01*
X66668D01*
X47504Y303002D02*
Y312998D01*
X52502D01*
X54169Y311332D01*
Y308000D01*
X52502Y306334D01*
X47504D01*
X50836D02*
X54169Y303002D01*
X57501D02*
X60833D01*
X59167D01*
Y312998D01*
X57501Y311332D01*
X72496Y312998D02*
X69164Y311332D01*
X65831Y308000D01*
Y304668D01*
X67498Y303002D01*
X70830D01*
X72496Y304668D01*
Y306334D01*
X70830Y308000D01*
X65831D01*
X-41496Y340002D02*
Y349998D01*
X-36498D01*
X-34832Y348332D01*
Y345000D01*
X-36498Y343334D01*
X-41496D01*
X-38164D02*
X-34832Y340002D01*
X-31499D02*
X-28167D01*
X-29833D01*
Y349998D01*
X-31499Y348332D01*
X-23168Y341668D02*
X-21502Y340002D01*
X-18170D01*
X-16504Y341668D01*
Y348332D01*
X-18170Y349998D01*
X-21502D01*
X-23168Y348332D01*
Y346666D01*
X-21502Y345000D01*
X-16504D01*
X11504Y326002D02*
Y335998D01*
X16502D01*
X18168Y334332D01*
Y331000D01*
X16502Y329334D01*
X11504D01*
X14836D02*
X18168Y326002D01*
X21501D02*
X24833D01*
X23167D01*
Y335998D01*
X21501Y334332D01*
X29832D02*
X31498Y335998D01*
X34830D01*
X36496Y334332D01*
Y332666D01*
X34830Y331000D01*
X36496Y329334D01*
Y327668D01*
X34830Y326002D01*
X31498D01*
X29832Y327668D01*
Y329334D01*
X31498Y331000D01*
X29832Y332666D01*
Y334332D01*
X31498Y331000D02*
X34830D01*
X10504Y310002D02*
Y319998D01*
X15502D01*
X17169Y318332D01*
Y315000D01*
X15502Y313334D01*
X10504D01*
X13836D02*
X17169Y310002D01*
X20501D02*
X23833D01*
X22167D01*
Y319998D01*
X20501Y318332D01*
X28832Y319998D02*
X35496D01*
Y318332D01*
X28832Y311668D01*
Y310002D01*
X88504Y422002D02*
Y431998D01*
X93502D01*
X95169Y430332D01*
Y427000D01*
X93502Y425334D01*
X88504D01*
X91836D02*
X95169Y422002D01*
X98501D02*
X101833D01*
X100167D01*
Y431998D01*
X98501Y430332D01*
X113496Y431998D02*
X106832D01*
Y427000D01*
X110164Y428666D01*
X111830D01*
X113496Y427000D01*
Y423668D01*
X111830Y422002D01*
X108498D01*
X106832Y423668D01*
X32504Y422002D02*
Y431998D01*
X37502D01*
X39169Y430332D01*
Y427000D01*
X37502Y425334D01*
X32504D01*
X35836D02*
X39169Y422002D01*
X42501D02*
X45833D01*
X44167D01*
Y431998D01*
X42501Y430332D01*
X55830Y422002D02*
Y431998D01*
X50831Y427000D01*
X57496D01*
X247504Y160002D02*
Y169998D01*
X252502D01*
X254168Y168332D01*
Y165000D01*
X252502Y163334D01*
X247504D01*
X250836D02*
X254168Y160002D01*
X257501D02*
X260833D01*
X259167D01*
Y169998D01*
X257501Y168332D01*
X265831D02*
X267498Y169998D01*
X270830D01*
X272496Y168332D01*
Y166666D01*
X270830Y165000D01*
X269164D01*
X270830D01*
X272496Y163334D01*
Y161668D01*
X270830Y160002D01*
X267498D01*
X265831Y161668D01*
X254504Y303002D02*
Y312998D01*
X259502D01*
X261168Y311332D01*
Y308000D01*
X259502Y306334D01*
X254504D01*
X257836D02*
X261168Y303002D01*
X264501D02*
X267833D01*
X266167D01*
Y312998D01*
X264501Y311332D01*
X279496Y303002D02*
X272831D01*
X279496Y309666D01*
Y311332D01*
X277830Y312998D01*
X274498D01*
X272831Y311332D01*
X234170Y285002D02*
Y294998D01*
X239169D01*
X240835Y293332D01*
Y290000D01*
X239169Y288334D01*
X234170D01*
X237502D02*
X240835Y285002D01*
X244167D02*
X247499D01*
X245833D01*
Y294998D01*
X244167Y293332D01*
X252498Y285002D02*
X255830D01*
X254164D01*
Y294998D01*
X252498Y293332D01*
X-365831Y465002D02*
Y474998D01*
X-360832D01*
X-359166Y473332D01*
Y470000D01*
X-360832Y468334D01*
X-365831D01*
X-362498D02*
X-359166Y465002D01*
X-350835D02*
Y474998D01*
X-355834Y470000D01*
X-349169D01*
X-331665Y164998D02*
Y155002D01*
X-325000D01*
X-321668D02*
X-318335D01*
X-320002D01*
Y164998D01*
X-321668Y163332D01*
X-331666Y454998D02*
X-338331D01*
Y450000D01*
X-334998D01*
X-338331D01*
Y445002D01*
X-321669D02*
X-328334D01*
X-321669Y451666D01*
Y453332D01*
X-323335Y454998D01*
X-326668D01*
X-328334Y453332D01*
X-385000Y454998D02*
X-391665D01*
Y450000D01*
X-388332D01*
X-391665D01*
Y445002D01*
X-381668D02*
X-378335D01*
X-380002D01*
Y454998D01*
X-381668Y453332D01*
X-279329Y389998D02*
Y380002D01*
X-274331D01*
X-272665Y381668D01*
Y388332D01*
X-274331Y389998D01*
X-279329D01*
X-269332D02*
Y380002D01*
X-264334D01*
X-262668Y381668D01*
Y388332D01*
X-264334Y389998D01*
X-269332D01*
X-252671Y380002D02*
X-259335D01*
X-252671Y386666D01*
Y388332D01*
X-254337Y389998D01*
X-257669D01*
X-259335Y388332D01*
X134169Y-442502D02*
Y-452498D01*
X139168D01*
X140834Y-450832D01*
Y-444168D01*
X139168Y-442502D01*
X134169D01*
X144166D02*
X150831D01*
Y-444168D01*
X144166Y-450832D01*
Y-452498D01*
X210669Y-217002D02*
Y-226998D01*
X215668D01*
X217334Y-225332D01*
Y-218668D01*
X215668Y-217002D01*
X210669D01*
X227331D02*
X223998Y-218668D01*
X220666Y-222000D01*
Y-225332D01*
X222332Y-226998D01*
X225665D01*
X227331Y-225332D01*
Y-223666D01*
X225665Y-222000D01*
X220666D01*
X11669Y402998D02*
Y393002D01*
X16668D01*
X18334Y394668D01*
Y401332D01*
X16668Y402998D01*
X11669D01*
X28331Y393002D02*
X21666D01*
X28331Y399666D01*
Y401332D01*
X26665Y402998D01*
X23332D01*
X21666Y401332D01*
X148336Y-396668D02*
X146669Y-395002D01*
X143337D01*
X141671Y-396668D01*
Y-403332D01*
X143337Y-404998D01*
X146669D01*
X148336Y-403332D01*
X156666Y-404998D02*
Y-395002D01*
X151668Y-400000D01*
X158332D01*
X168329Y-395002D02*
X164997Y-396668D01*
X161665Y-400000D01*
Y-403332D01*
X163331Y-404998D01*
X166663D01*
X168329Y-403332D01*
Y-401666D01*
X166663Y-400000D01*
X161665D01*
X255835Y-451668D02*
X254169Y-450002D01*
X250837D01*
X249171Y-451668D01*
Y-458332D01*
X250837Y-459998D01*
X254169D01*
X255835Y-458332D01*
X264166Y-459998D02*
Y-450002D01*
X259168Y-455000D01*
X265832D01*
X275829Y-450002D02*
X269165D01*
Y-455000D01*
X272497Y-453334D01*
X274163D01*
X275829Y-455000D01*
Y-458332D01*
X274163Y-459998D01*
X270831D01*
X269165Y-458332D01*
X255835Y-471668D02*
X254169Y-470002D01*
X250837D01*
X249171Y-471668D01*
Y-478332D01*
X250837Y-479998D01*
X254169D01*
X255835Y-478332D01*
X264166Y-479998D02*
Y-470002D01*
X259168Y-475000D01*
X265832D01*
X274163Y-479998D02*
Y-470002D01*
X269165Y-475000D01*
X275829D01*
X262002Y-194668D02*
X260336Y-193002D01*
X257003D01*
X255337Y-194668D01*
Y-201332D01*
X257003Y-202998D01*
X260336D01*
X262002Y-201332D01*
X270332Y-202998D02*
Y-193002D01*
X265334Y-198000D01*
X271998D01*
X275331Y-202998D02*
X278663D01*
X276997D01*
Y-193002D01*
X275331Y-194668D01*
X135336Y-306668D02*
X133669Y-305002D01*
X130337D01*
X128671Y-306668D01*
Y-313332D01*
X130337Y-314998D01*
X133669D01*
X135336Y-313332D01*
X143666Y-314998D02*
Y-305002D01*
X138668Y-310000D01*
X145332D01*
X148665Y-306668D02*
X150331Y-305002D01*
X153663D01*
X155329Y-306668D01*
Y-313332D01*
X153663Y-314998D01*
X150331D01*
X148665Y-313332D01*
Y-306668D01*
X424336Y-218668D02*
X422669Y-217002D01*
X419337D01*
X417671Y-218668D01*
Y-225332D01*
X419337Y-226998D01*
X422669D01*
X424336Y-225332D01*
X427668Y-218668D02*
X429334Y-217002D01*
X432666D01*
X434332Y-218668D01*
Y-220334D01*
X432666Y-222000D01*
X431000D01*
X432666D01*
X434332Y-223666D01*
Y-225332D01*
X432666Y-226998D01*
X429334D01*
X427668Y-225332D01*
X437664D02*
X439331Y-226998D01*
X442663D01*
X444329Y-225332D01*
Y-218668D01*
X442663Y-217002D01*
X439331D01*
X437664Y-218668D01*
Y-220334D01*
X439331Y-222000D01*
X444329D01*
X229335Y-69668D02*
X227669Y-68002D01*
X224337D01*
X222671Y-69668D01*
Y-76332D01*
X224337Y-77998D01*
X227669D01*
X229335Y-76332D01*
X232668Y-69668D02*
X234334Y-68002D01*
X237666D01*
X239332Y-69668D01*
Y-71334D01*
X237666Y-73000D01*
X236000D01*
X237666D01*
X239332Y-74666D01*
Y-76332D01*
X237666Y-77998D01*
X234334D01*
X232668Y-76332D01*
X249329Y-68002D02*
X242665D01*
Y-73000D01*
X245997Y-71334D01*
X247663D01*
X249329Y-73000D01*
Y-76332D01*
X247663Y-77998D01*
X244331D01*
X242665Y-76332D01*
X136215Y-133518D02*
X134549Y-131852D01*
X131217D01*
X129551Y-133518D01*
Y-140182D01*
X131217Y-141848D01*
X134549D01*
X136215Y-140182D01*
X139548Y-133518D02*
X141214Y-131852D01*
X144546D01*
X146212Y-133518D01*
Y-135184D01*
X144546Y-136850D01*
X142880D01*
X144546D01*
X146212Y-138516D01*
Y-140182D01*
X144546Y-141848D01*
X141214D01*
X139548Y-140182D01*
X154543Y-141848D02*
Y-131852D01*
X149544Y-136850D01*
X156209D01*
X335835Y-191668D02*
X334169Y-190002D01*
X330837D01*
X329171Y-191668D01*
Y-198332D01*
X330837Y-199998D01*
X334169D01*
X335835Y-198332D01*
X339168Y-191668D02*
X340834Y-190002D01*
X344166D01*
X345832Y-191668D01*
Y-193334D01*
X344166Y-195000D01*
X342500D01*
X344166D01*
X345832Y-196666D01*
Y-198332D01*
X344166Y-199998D01*
X340834D01*
X339168Y-198332D01*
X349165Y-191668D02*
X350831Y-190002D01*
X354163D01*
X355829Y-191668D01*
Y-193334D01*
X354163Y-195000D01*
X352497D01*
X354163D01*
X355829Y-196666D01*
Y-198332D01*
X354163Y-199998D01*
X350831D01*
X349165Y-198332D01*
X-35665Y372332D02*
X-37331Y373998D01*
X-40663D01*
X-42329Y372332D01*
Y365668D01*
X-40663Y364002D01*
X-37331D01*
X-35665Y365668D01*
X-25668Y364002D02*
X-32332D01*
X-25668Y370666D01*
Y372332D01*
X-27334Y373998D01*
X-30666D01*
X-32332Y372332D01*
X-22336Y373998D02*
X-15671D01*
Y372332D01*
X-22336Y365668D01*
Y364002D01*
X94335Y410332D02*
X92669Y411998D01*
X89337D01*
X87671Y410332D01*
Y403668D01*
X89337Y402002D01*
X92669D01*
X94335Y403668D01*
X104332Y402002D02*
X97668D01*
X104332Y408666D01*
Y410332D01*
X102666Y411998D01*
X99334D01*
X97668Y410332D01*
X114329Y411998D02*
X110997Y410332D01*
X107664Y407000D01*
Y403668D01*
X109331Y402002D01*
X112663D01*
X114329Y403668D01*
Y405334D01*
X112663Y407000D01*
X107664D01*
X35835Y555832D02*
X34169Y557498D01*
X30837D01*
X29171Y555832D01*
Y549168D01*
X30837Y547502D01*
X34169D01*
X35835Y549168D01*
X45832Y547502D02*
X39168D01*
X45832Y554166D01*
Y555832D01*
X44166Y557498D01*
X40834D01*
X39168Y555832D01*
X55829Y557498D02*
X49165D01*
Y552500D01*
X52497Y554166D01*
X54163D01*
X55829Y552500D01*
Y549168D01*
X54163Y547502D01*
X50831D01*
X49165Y549168D01*
X68335Y555832D02*
X66669Y557498D01*
X63337D01*
X61671Y555832D01*
Y549168D01*
X63337Y547502D01*
X66669D01*
X68335Y549168D01*
X78332Y547502D02*
X71668D01*
X78332Y554166D01*
Y555832D01*
X76666Y557498D01*
X73334D01*
X71668Y555832D01*
X86663Y547502D02*
Y557498D01*
X81664Y552500D01*
X88329D01*
X-160665Y384332D02*
X-162331Y385998D01*
X-165663D01*
X-167329Y384332D01*
Y377668D01*
X-165663Y376002D01*
X-162331D01*
X-160665Y377668D01*
X-150668Y376002D02*
X-157332D01*
X-150668Y382666D01*
Y384332D01*
X-152334Y385998D01*
X-155666D01*
X-157332Y384332D01*
X-147336D02*
X-145669Y385998D01*
X-142337D01*
X-140671Y384332D01*
Y382666D01*
X-142337Y381000D01*
X-144003D01*
X-142337D01*
X-140671Y379334D01*
Y377668D01*
X-142337Y376002D01*
X-145669D01*
X-147336Y377668D01*
X-130665Y384332D02*
X-132331Y385998D01*
X-135663D01*
X-137329Y384332D01*
Y377668D01*
X-135663Y376002D01*
X-132331D01*
X-130665Y377668D01*
X-120668Y376002D02*
X-127332D01*
X-120668Y382666D01*
Y384332D01*
X-122334Y385998D01*
X-125666D01*
X-127332Y384332D01*
X-110671Y376002D02*
X-117336D01*
X-110671Y382666D01*
Y384332D01*
X-112337Y385998D01*
X-115669D01*
X-117336Y384332D01*
X-368331Y193332D02*
X-369998Y194998D01*
X-373330D01*
X-374996Y193332D01*
Y186668D01*
X-373330Y185002D01*
X-369998D01*
X-368331Y186668D01*
X-364999Y185002D02*
X-361667D01*
X-363333D01*
Y194998D01*
X-364999Y193332D01*
X-356669D02*
X-355002Y194998D01*
X-351670D01*
X-350004Y193332D01*
Y191666D01*
X-351670Y190000D01*
X-350004Y188334D01*
Y186668D01*
X-351670Y185002D01*
X-355002D01*
X-356669Y186668D01*
Y188334D01*
X-355002Y190000D01*
X-356669Y191666D01*
Y193332D01*
X-355002Y190000D02*
X-351670D01*
X-280832Y163332D02*
X-282498Y164998D01*
X-285830D01*
X-287496Y163332D01*
Y156668D01*
X-285830Y155002D01*
X-282498D01*
X-280832Y156668D01*
X-277499Y155002D02*
X-274167D01*
X-275833D01*
Y164998D01*
X-277499Y163332D01*
X-269168Y156668D02*
X-267502Y155002D01*
X-264170D01*
X-262504Y156668D01*
Y163332D01*
X-264170Y164998D01*
X-267502D01*
X-269168Y163332D01*
Y161666D01*
X-267502Y160000D01*
X-262504D01*
X-283581Y306332D02*
X-285248Y307998D01*
X-288580D01*
X-290246Y306332D01*
Y299668D01*
X-288580Y298002D01*
X-285248D01*
X-283581Y299668D01*
X-280249Y298002D02*
X-276917D01*
X-278583D01*
Y307998D01*
X-280249Y306332D01*
X-271919Y307998D02*
X-265254D01*
Y306332D01*
X-271919Y299668D01*
Y298002D01*
X-303331Y210832D02*
X-304998Y212498D01*
X-308330D01*
X-309996Y210832D01*
Y204168D01*
X-308330Y202502D01*
X-304998D01*
X-303331Y204168D01*
X-299999Y202502D02*
X-296667D01*
X-298333D01*
Y212498D01*
X-299999Y210832D01*
X-286670Y202502D02*
Y212498D01*
X-291668Y207500D01*
X-285004D01*
X-233832Y136332D02*
X-235498Y137998D01*
X-238830D01*
X-240496Y136332D01*
Y129668D01*
X-238830Y128002D01*
X-235498D01*
X-233832Y129668D01*
X-230499Y128002D02*
X-227167D01*
X-228833D01*
Y137998D01*
X-230499Y136332D01*
X-222169D02*
X-220502Y137998D01*
X-217170D01*
X-215504Y136332D01*
Y134666D01*
X-217170Y133000D01*
X-218836D01*
X-217170D01*
X-215504Y131334D01*
Y129668D01*
X-217170Y128002D01*
X-220502D01*
X-222169Y129668D01*
X-105831Y135832D02*
X-107498Y137498D01*
X-110830D01*
X-112496Y135832D01*
Y129168D01*
X-110830Y127502D01*
X-107498D01*
X-105831Y129168D01*
X-102499Y127502D02*
X-99167D01*
X-100833D01*
Y137498D01*
X-102499Y135832D01*
X-87504Y127502D02*
X-94169D01*
X-87504Y134166D01*
Y135832D01*
X-89170Y137498D01*
X-92502D01*
X-94169Y135832D01*
X-59165Y313332D02*
X-60831Y314998D01*
X-64164D01*
X-65830Y313332D01*
Y306668D01*
X-64164Y305002D01*
X-60831D01*
X-59165Y306668D01*
X-55833Y305002D02*
X-52501D01*
X-54167D01*
Y314998D01*
X-55833Y313332D01*
X-47502Y305002D02*
X-44170D01*
X-45836D01*
Y314998D01*
X-47502Y313332D01*
X-260832Y350332D02*
X-262498Y351998D01*
X-265830D01*
X-267496Y350332D01*
Y343668D01*
X-265830Y342002D01*
X-262498D01*
X-260832Y343668D01*
X-257499Y342002D02*
X-254167D01*
X-255833D01*
Y351998D01*
X-257499Y350332D01*
X-249168D02*
X-247502Y351998D01*
X-244170D01*
X-242504Y350332D01*
Y343668D01*
X-244170Y342002D01*
X-247502D01*
X-249168Y343668D01*
Y350332D01*
X-416666Y315832D02*
X-418332Y317498D01*
X-421665D01*
X-423331Y315832D01*
Y309168D01*
X-421665Y307502D01*
X-418332D01*
X-416666Y309168D01*
X-413334Y315832D02*
X-411668Y317498D01*
X-408335D01*
X-406669Y315832D01*
Y314166D01*
X-408335Y312500D01*
X-410002D01*
X-408335D01*
X-406669Y310834D01*
Y309168D01*
X-408335Y307502D01*
X-411668D01*
X-413334Y309168D01*
X-306332Y415000D02*
X-307998Y413334D01*
Y410002D01*
X-306332Y408335D01*
X-299668D01*
X-298002Y410002D01*
Y413334D01*
X-299668Y415000D01*
X-298002Y418332D02*
Y421665D01*
Y419998D01*
X-307998D01*
X-306332Y418332D01*
D14*
X169750Y-464510D02*
G03*
X169750Y-464510I-750J0D01*
G01*
X-267062Y430250D02*
G03*
X-262938Y430250I2061J0D01*
G01*
X163800Y-540800D02*
Y-517800D01*
X256200Y-540800D02*
Y-517800D01*
X249500Y109000D02*
X258500Y118000D01*
X258500D01*
X267500Y109000D01*
X249500D02*
X267500D01*
X249500Y106000D02*
X250500D01*
X249500Y118000D02*
X267500D01*
X249500Y106000D02*
X267500D01*
X249500Y68000D02*
Y106000D01*
X267500Y68000D02*
Y106000D01*
X249500Y68000D02*
X267500D01*
X211500Y109000D02*
X220500Y118000D01*
X220500D01*
X229500Y109000D01*
X211500D02*
X229500D01*
X211500Y106000D02*
X212500D01*
X211500Y118000D02*
X229500D01*
X211500Y106000D02*
X229500D01*
X211500Y68000D02*
Y106000D01*
X229500Y68000D02*
Y106000D01*
X211500Y68000D02*
X229500D01*
X-204000Y407500D02*
X-200000D01*
X-204000Y401500D02*
Y407500D01*
X-170000Y366500D02*
Y438500D01*
X-210000Y366500D02*
Y438500D01*
Y366500D02*
X-170000D01*
X-210000Y438500D02*
X-170000D01*
X-200000Y407500D02*
X-182500D01*
X-180000D01*
X-191250D02*
X-190000D01*
X-200000Y398750D02*
X-191250Y407500D01*
X-200000Y398750D02*
X-181250D01*
X-190000Y407500D02*
X-181250Y398750D01*
X-190625Y407500D02*
X-190000D01*
X252000Y321000D02*
Y371000D01*
X272000Y321000D02*
Y371000D01*
X252000D02*
X272000D01*
X252000Y321000D02*
X272000D01*
X254500Y341000D02*
X272000D01*
X252000D02*
X254500D01*
X262000D02*
X263250D01*
X272000Y349750D01*
X253250D02*
X272000D01*
X253250D02*
X262000Y341000D01*
X262625D01*
X52000Y321000D02*
Y371000D01*
X72000Y321000D02*
Y371000D01*
X52000D02*
X72000D01*
X52000Y321000D02*
X72000D01*
X54500Y341000D02*
X72000D01*
X52000D02*
X54500D01*
X62000D02*
X63250D01*
X72000Y349750D01*
X53250D02*
X72000D01*
X53250D02*
X62000Y341000D01*
X62625D01*
X335000Y-382500D02*
X335625D01*
X326250Y-391250D02*
X335000Y-382500D01*
X326250Y-391250D02*
X345000D01*
X336250Y-382500D02*
X345000Y-391250D01*
X335000Y-382500D02*
X336250D01*
X327500D02*
X342500D01*
X345000Y-385000D01*
X327500Y-382500D02*
Y-382500D01*
X325000Y-380000D02*
X327500Y-382500D01*
X38250Y354750D02*
X43250D01*
Y359750D01*
X11750Y354750D02*
Y359750D01*
Y354750D02*
X16750D01*
X43250Y381250D02*
Y386250D01*
X38250D02*
X43250D01*
X11750D02*
X16750D01*
X11750Y381250D02*
Y386250D01*
X-290500Y452000D02*
Y471000D01*
X-288000D01*
X-258000D02*
X-255750D01*
X-268000Y452000D02*
X-255750D01*
Y471000D01*
X-277000D02*
X-269000D01*
X-290500Y452000D02*
X-278000D01*
X-314500Y231000D02*
X-293500D01*
Y256000D01*
X-314500Y231000D02*
Y249500D01*
X-308000Y256000D02*
X-293500D01*
X-314500Y256000D02*
X-312500D01*
X-314500Y254000D02*
Y256000D01*
X-308750Y176000D02*
Y191000D01*
X-283000Y394750D02*
X-247000D01*
X-262969Y430750D02*
X-246000D01*
X-284000D02*
X-267062D01*
X-236000Y441000D02*
X-220000D01*
X17500Y87500D02*
X45000D01*
X72000Y448500D02*
Y481500D01*
X-419501Y113498D02*
X-420501Y114498D01*
X-422500D01*
X-423500Y113498D01*
Y109500D01*
X-422500Y108500D01*
X-420501D01*
X-419501Y109500D01*
Y111499D01*
X-421501D01*
X-417502Y108500D02*
Y114498D01*
X-413503Y108500D01*
Y114498D01*
X-411504D02*
Y108500D01*
X-408505D01*
X-407505Y109500D01*
Y113498D01*
X-408505Y114498D01*
X-411504D01*
X-419501Y-363502D02*
X-420501Y-362502D01*
X-422500D01*
X-423500Y-363502D01*
Y-367500D01*
X-422500Y-368500D01*
X-420501D01*
X-419501Y-367500D01*
Y-365501D01*
X-421501D01*
X-417502Y-368500D02*
Y-362502D01*
X-413503Y-368500D01*
Y-362502D01*
X-411504D02*
Y-368500D01*
X-408505D01*
X-407505Y-367500D01*
Y-363502D01*
X-408505Y-362502D01*
X-411504D01*
X-438500Y37000D02*
Y42998D01*
X-435501D01*
X-434501Y41998D01*
Y39999D01*
X-435501Y38999D01*
X-438500D01*
X-432502Y42998D02*
X-430503D01*
X-431502D01*
Y37000D01*
X-432502D01*
X-430503D01*
X-423505Y42998D02*
X-427504D01*
Y37000D01*
X-423505D01*
X-427504Y39999D02*
X-425504D01*
X-421506Y42998D02*
X-417507D01*
Y41998D01*
X-421506Y37999D01*
Y37000D01*
X-417507D01*
X-412509Y42998D02*
X-414508D01*
X-415508Y41998D01*
Y37999D01*
X-414508Y37000D01*
X-412509D01*
X-411509Y37999D01*
Y41998D01*
X-412509Y42998D01*
X-409509Y36000D02*
X-405511D01*
X-400512Y42998D02*
X-402512D01*
X-403511Y41998D01*
Y37999D01*
X-402512Y37000D01*
X-400512D01*
X-399513Y37999D01*
Y41998D01*
X-400512Y42998D01*
X-397513D02*
Y37999D01*
X-396514Y37000D01*
X-394514D01*
X-393515Y37999D01*
Y42998D01*
X-391515D02*
X-387517D01*
X-389516D01*
Y37000D01*
X-438500Y-440000D02*
Y-434002D01*
X-435501D01*
X-434501Y-435002D01*
Y-437001D01*
X-435501Y-438001D01*
X-438500D01*
X-432502Y-434002D02*
X-430503D01*
X-431502D01*
Y-440000D01*
X-432502D01*
X-430503D01*
X-423505Y-434002D02*
X-427504D01*
Y-440000D01*
X-423505D01*
X-427504Y-437001D02*
X-425504D01*
X-421506Y-434002D02*
X-417507D01*
Y-435002D01*
X-421506Y-439001D01*
Y-440000D01*
X-417507D01*
X-412509Y-434002D02*
X-414508D01*
X-415508Y-435002D01*
Y-439001D01*
X-414508Y-440000D01*
X-412509D01*
X-411509Y-439001D01*
Y-435002D01*
X-412509Y-434002D01*
X-409509Y-441000D02*
X-405511D01*
X-400512Y-434002D02*
X-402512D01*
X-403511Y-435002D01*
Y-439001D01*
X-402512Y-440000D01*
X-400512D01*
X-399513Y-439001D01*
Y-435002D01*
X-400512Y-434002D01*
X-397513D02*
Y-439001D01*
X-396514Y-440000D01*
X-394514D01*
X-393515Y-439001D01*
Y-434002D01*
X-391515D02*
X-387517D01*
X-389516D01*
Y-440000D01*
X304503Y-270499D02*
Y-264501D01*
X307502D01*
X308501Y-265501D01*
Y-267500D01*
X307502Y-268500D01*
X304503D01*
X306502D02*
X308501Y-270499D01*
X314499D02*
X310501D01*
X314499Y-266500D01*
Y-265501D01*
X313500Y-264501D01*
X311500D01*
X310501Y-265501D01*
X320497Y-264501D02*
X316499D01*
Y-267500D01*
X318498Y-266500D01*
X319498D01*
X320497Y-267500D01*
Y-269499D01*
X319498Y-270499D01*
X317498D01*
X316499Y-269499D01*
X334503Y-270499D02*
Y-264501D01*
X337502D01*
X338501Y-265501D01*
Y-267500D01*
X337502Y-268500D01*
X334503D01*
X336502D02*
X338501Y-270499D01*
X344499D02*
X340501D01*
X344499Y-266500D01*
Y-265501D01*
X343500Y-264501D01*
X341500D01*
X340501Y-265501D01*
X349498Y-270499D02*
Y-264501D01*
X346499Y-267500D01*
X350497D01*
X-287749Y258001D02*
X-288749Y257001D01*
Y255002D01*
X-287749Y254002D01*
X-283751D01*
X-282751Y255002D01*
Y257001D01*
X-283751Y258001D01*
X-282751Y260000D02*
Y262000D01*
Y261000D01*
X-288749D01*
X-287749Y260000D01*
X-288749Y268998D02*
X-287749Y266998D01*
X-285750Y264999D01*
X-283751D01*
X-282751Y265999D01*
Y267998D01*
X-283751Y268998D01*
X-284750D01*
X-285750Y267998D01*
Y264999D01*
X-287749Y220251D02*
X-288749Y219251D01*
Y217252D01*
X-287749Y216252D01*
X-283751D01*
X-282751Y217252D01*
Y219251D01*
X-283751Y220251D01*
X-282751Y222250D02*
Y224250D01*
Y223250D01*
X-288749D01*
X-287749Y222250D01*
X-288749Y231248D02*
Y227249D01*
X-285750D01*
X-286750Y229248D01*
Y230248D01*
X-285750Y231248D01*
X-283751D01*
X-282751Y230248D01*
Y228249D01*
X-283751Y227249D01*
D15*
X44600Y351500D02*
G03*
X44600Y351500I-100J0D01*
G01*
X-370000Y-161500D02*
Y-153500D01*
X-374000Y-157500D02*
X-366000D01*
X-120000Y-259000D02*
Y-251000D01*
X-124000Y-255000D02*
X-116000D01*
X-120000Y-306500D02*
Y-298500D01*
X-124000Y-302500D02*
X-116000D01*
X-197500Y-49000D02*
Y-41000D01*
X-201500Y-45000D02*
X-193500D01*
X-277500Y58500D02*
Y66500D01*
X-281500Y62500D02*
X-273500D01*
X-209000Y-470000D02*
X-201000D01*
X-205000Y-474000D02*
Y-466000D01*
X-314000Y-470000D02*
X-306000D01*
X-310000Y-474000D02*
Y-466000D01*
X327500Y475000D02*
X335500D01*
X331500Y471000D02*
Y479000D01*
X304000Y73500D02*
Y81500D01*
X300000Y77500D02*
X308000D01*
X165000Y475000D02*
X173000D01*
X169000Y471000D02*
Y479000D01*
X100000Y73000D02*
Y81000D01*
X96000Y77000D02*
X104000D01*
X-401000Y402350D02*
X-367000D01*
X-347000Y402500D02*
X-313000D01*
X18000Y139000D02*
X36000D01*
X-185596Y566618D02*
X-175439Y551382D01*
Y566618D02*
X-185596Y551382D01*
X-160204Y566618D02*
X-165282Y564078D01*
X-170361Y559000D01*
Y553922D01*
X-167822Y551382D01*
X-162743D01*
X-160204Y553922D01*
Y556461D01*
X-162743Y559000D01*
X-170361D01*
X158843Y440078D02*
X156304Y442618D01*
X151226D01*
X148687Y440078D01*
Y429922D01*
X151226Y427383D01*
X156304D01*
X158843Y429922D01*
X174078Y427383D02*
X163922D01*
X174078Y437539D01*
Y440078D01*
X171539Y442618D01*
X166461D01*
X163922Y440078D01*
X179157D02*
X181696Y442618D01*
X186774D01*
X189314Y440078D01*
Y437539D01*
X186774Y435000D01*
X189314Y432461D01*
Y429922D01*
X186774Y427383D01*
X181696D01*
X179157Y429922D01*
Y432461D01*
X181696Y435000D01*
X179157Y437539D01*
Y440078D01*
X181696Y435000D02*
X186774D01*
X321343Y440078D02*
X318804Y442618D01*
X313726D01*
X311187Y440078D01*
Y429922D01*
X313726Y427383D01*
X318804D01*
X321343Y429922D01*
X336578Y427383D02*
X326422D01*
X336578Y437539D01*
Y440078D01*
X334039Y442618D01*
X328961D01*
X326422Y440078D01*
X341657D02*
X344196Y442618D01*
X349274D01*
X351814Y440078D01*
Y429922D01*
X349274Y427383D01*
X344196D01*
X341657Y429922D01*
Y440078D01*
X-55196Y487617D02*
Y472383D01*
X-45039D01*
X-29804D02*
X-39961D01*
X-29804Y482539D01*
Y485078D01*
X-32343Y487617D01*
X-37422D01*
X-39961Y485078D01*
X-380696Y566618D02*
X-370539Y551382D01*
Y566618D02*
X-380696Y551382D01*
X-365461Y564078D02*
X-362922Y566618D01*
X-357843D01*
X-355304Y564078D01*
Y561539D01*
X-357843Y559000D01*
X-360382D01*
X-357843D01*
X-355304Y556461D01*
Y553922D01*
X-357843Y551382D01*
X-362922D01*
X-365461Y553922D01*
X-298696Y566618D02*
X-288539Y551382D01*
Y566618D02*
X-298696Y551382D01*
X-273304D02*
X-283461D01*
X-273304Y561539D01*
Y564078D01*
X-275843Y566618D01*
X-280922D01*
X-283461Y564078D01*
X9339Y-505382D02*
Y-515539D01*
X14417Y-520617D01*
X19495Y-515539D01*
Y-505382D01*
X24574D02*
Y-520617D01*
X32191D01*
X34730Y-518078D01*
Y-507922D01*
X32191Y-505382D01*
X24574D01*
X39809Y-520617D02*
X44887D01*
X42348D01*
Y-505382D01*
X39809Y-507922D01*
X60122Y-520617D02*
Y-505382D01*
X52505Y-513000D01*
X62661D01*
X-372696Y-349883D02*
Y-365117D01*
X-362539D01*
X-357461Y-362578D02*
X-354922Y-365117D01*
X-349843D01*
X-347304Y-362578D01*
Y-352422D01*
X-349843Y-349883D01*
X-354922D01*
X-357461Y-352422D01*
Y-354961D01*
X-354922Y-357500D01*
X-347304D01*
X-89696Y-479382D02*
Y-494618D01*
X-79539D01*
X-74461Y-481922D02*
X-71922Y-479382D01*
X-66843D01*
X-64304Y-481922D01*
Y-484461D01*
X-66843Y-487000D01*
X-64304Y-489539D01*
Y-492078D01*
X-66843Y-494618D01*
X-71922D01*
X-74461Y-492078D01*
Y-489539D01*
X-71922Y-487000D01*
X-74461Y-484461D01*
Y-481922D01*
X-71922Y-487000D02*
X-66843D01*
X-375196Y125118D02*
Y109882D01*
X-365039D01*
X-359961Y125118D02*
X-349804D01*
Y122578D01*
X-359961Y112422D01*
Y109882D01*
X-130196Y-67382D02*
Y-82618D01*
X-120039D01*
X-104804Y-67382D02*
X-109882Y-69922D01*
X-114961Y-75000D01*
Y-80078D01*
X-112422Y-82618D01*
X-107343D01*
X-104804Y-80078D01*
Y-77539D01*
X-107343Y-75000D01*
X-114961D01*
X-369507Y290118D02*
Y274883D01*
X-361889D01*
X-359350Y277422D01*
Y287578D01*
X-361889Y290118D01*
X-369507D01*
X-354272Y274883D02*
X-349193D01*
X-351732D01*
Y290118D01*
X-354272Y287578D01*
X-248157Y90578D02*
X-250696Y93118D01*
X-255774D01*
X-258314Y90578D01*
Y80422D01*
X-255774Y77882D01*
X-250696D01*
X-248157Y80422D01*
X-243078Y90578D02*
X-240539Y93118D01*
X-235461D01*
X-232922Y90578D01*
Y88039D01*
X-235461Y85500D01*
X-238000D01*
X-235461D01*
X-232922Y82961D01*
Y80422D01*
X-235461Y77882D01*
X-240539D01*
X-243078Y80422D01*
X-227843Y93118D02*
X-217687D01*
Y90578D01*
X-227843Y80422D01*
Y77882D01*
X-245657Y-16922D02*
X-248196Y-14382D01*
X-253274D01*
X-255814Y-16922D01*
Y-27078D01*
X-253274Y-29618D01*
X-248196D01*
X-245657Y-27078D01*
X-240578Y-16922D02*
X-238039Y-14382D01*
X-232961D01*
X-230422Y-16922D01*
Y-19461D01*
X-232961Y-22000D01*
X-235500D01*
X-232961D01*
X-230422Y-24539D01*
Y-27078D01*
X-232961Y-29618D01*
X-238039D01*
X-240578Y-27078D01*
X-215187Y-14382D02*
X-220265Y-16922D01*
X-225343Y-22000D01*
Y-27078D01*
X-222804Y-29618D01*
X-217726D01*
X-215187Y-27078D01*
Y-24539D01*
X-217726Y-22000D01*
X-225343D01*
D16*
X-227000Y302000D02*
G03*
X-227000Y302000I-3000J0D01*
G01*
D17*
X-250000Y313000D02*
G03*
X-250000Y313000I-1250J0D01*
G01*
X287500Y-369500D02*
X306500D01*
X287500Y-380000D02*
Y-369500D01*
X306500Y-372500D02*
Y-369500D01*
Y-391500D02*
Y-383500D01*
X287500Y-405500D02*
X306500D01*
X287500D02*
Y-395000D01*
X306500Y-405500D02*
Y-402500D01*
X-341000Y330500D02*
Y349500D01*
X-351500D02*
X-341000D01*
X-344000Y330500D02*
X-341000D01*
X-363000D02*
X-355000D01*
X-377000D02*
Y349500D01*
X-366500D01*
X-377000Y330500D02*
X-374000D01*
X64997Y-552504D02*
X62498Y-550005D01*
X57499D01*
X55000Y-552504D01*
Y-562501D01*
X57499Y-565000D01*
X62498D01*
X64997Y-562501D01*
X77493Y-550005D02*
X72494D01*
X69995Y-552504D01*
Y-562501D01*
X72494Y-565000D01*
X77493D01*
X79992Y-562501D01*
Y-552504D01*
X77493Y-550005D01*
X84990Y-565000D02*
Y-550005D01*
X94987Y-565000D01*
Y-550005D01*
X109982Y-552504D02*
X107483Y-550005D01*
X102485D01*
X99985Y-552504D01*
Y-555003D01*
X102485Y-557503D01*
X107483D01*
X109982Y-560002D01*
Y-562501D01*
X107483Y-565000D01*
X102485D01*
X99985Y-562501D01*
X122478Y-550005D02*
X117480D01*
X114980Y-552504D01*
Y-562501D01*
X117480Y-565000D01*
X122478D01*
X124977Y-562501D01*
Y-552504D01*
X122478Y-550005D01*
X129976D02*
Y-565000D01*
X139972D01*
X154968Y-550005D02*
X144971D01*
Y-565000D01*
X154968D01*
X144971Y-557503D02*
X149969D01*
X317506Y-452502D02*
Y-462499D01*
X322504Y-467498D01*
X327502Y-462499D01*
Y-452502D01*
X332501D02*
Y-467498D01*
X339998D01*
X342498Y-464998D01*
Y-455002D01*
X339998Y-452502D01*
X332501D01*
X347496Y-467498D02*
X352494D01*
X349995D01*
Y-452502D01*
X347496Y-455002D01*
X399506Y251498D02*
Y236502D01*
X407004D01*
X409503Y239002D01*
Y248998D01*
X407004Y251498D01*
X399506D01*
X414502D02*
Y236502D01*
X421999D01*
X424498Y239002D01*
Y248998D01*
X421999Y251498D01*
X414502D01*
X429497Y248998D02*
X431996Y251498D01*
X436994D01*
X439493Y248998D01*
Y246499D01*
X436994Y244000D01*
X434495D01*
X436994D01*
X439493Y241501D01*
Y239002D01*
X436994Y236502D01*
X431996D01*
X429497Y239002D01*
X196007Y251498D02*
Y236502D01*
X203504D01*
X206003Y239002D01*
Y248998D01*
X203504Y251498D01*
X196007D01*
X211002D02*
Y236502D01*
X218499D01*
X220998Y239002D01*
Y248998D01*
X218499Y251498D01*
X211002D01*
X233494Y236502D02*
Y251498D01*
X225997Y244000D01*
X235993D01*
X130003Y109998D02*
X127504Y112498D01*
X122506D01*
X120007Y109998D01*
Y100002D01*
X122506Y97502D01*
X127504D01*
X130003Y100002D01*
X144998Y97502D02*
X135002D01*
X144998Y107499D01*
Y109998D01*
X142499Y112498D01*
X137501D01*
X135002Y109998D01*
X149997Y100002D02*
X152496Y97502D01*
X157494D01*
X159993Y100002D01*
Y109998D01*
X157494Y112498D01*
X152496D01*
X149997Y109998D01*
Y107499D01*
X152496Y105000D01*
X159993D01*
X335002Y109998D02*
X332503Y112498D01*
X327505D01*
X325006Y109998D01*
Y100002D01*
X327505Y97502D01*
X332503D01*
X335002Y100002D01*
X349998Y97502D02*
X340001D01*
X349998Y107499D01*
Y109998D01*
X347498Y112498D01*
X342500D01*
X340001Y109998D01*
X354996Y97502D02*
X359994D01*
X357495D01*
Y112498D01*
X354996Y109998D01*
X120004Y207498D02*
Y192502D01*
X130001D01*
X142497D02*
Y207498D01*
X134999Y200000D01*
X144996D01*
X322504Y207498D02*
Y192502D01*
X332501D01*
X337499Y204998D02*
X339998Y207498D01*
X344997D01*
X347496Y204998D01*
Y202499D01*
X344997Y200000D01*
X342498D01*
X344997D01*
X347496Y197501D01*
Y195002D01*
X344997Y192502D01*
X339998D01*
X337499Y195002D01*
X266256Y-550002D02*
X276253Y-564998D01*
Y-550002D02*
X266256Y-564998D01*
X281251D02*
X286250D01*
X283750D01*
Y-550002D01*
X281251Y-552502D01*
X293747D02*
X296246Y-550002D01*
X301245D01*
X303744Y-552502D01*
Y-562498D01*
X301245Y-564998D01*
X296246D01*
X293747Y-562498D01*
Y-552502D01*
X422503Y-325002D02*
X432500Y-339998D01*
Y-325002D02*
X422503Y-339998D01*
X437498D02*
X442497D01*
X439998D01*
Y-325002D01*
X437498Y-327502D01*
X242507Y392498D02*
Y382501D01*
X247505Y377502D01*
X252503Y382501D01*
Y392498D01*
X257502D02*
Y377502D01*
X264999D01*
X267498Y380002D01*
Y389998D01*
X264999Y392498D01*
X257502D01*
X282493D02*
X277495Y389998D01*
X272497Y385000D01*
Y380002D01*
X274996Y377502D01*
X279994D01*
X282493Y380002D01*
Y382501D01*
X279994Y385000D01*
X272497D01*
X83756Y490002D02*
Y504998D01*
X91254D01*
X93753Y502498D01*
Y497500D01*
X91254Y495001D01*
X83756D01*
X88755D02*
X93753Y490002D01*
X98751D02*
X103750D01*
X101250D01*
Y504998D01*
X98751Y502498D01*
X111247D02*
X113746Y504998D01*
X118745D01*
X121244Y502498D01*
Y492502D01*
X118745Y490002D01*
X113746D01*
X111247Y492502D01*
Y502498D01*
X-262496Y-243002D02*
Y-257998D01*
X-252499D01*
X-237504Y-243002D02*
X-247501D01*
Y-250500D01*
X-242502Y-248001D01*
X-240003D01*
X-237504Y-250500D01*
Y-255498D01*
X-240003Y-257998D01*
X-245002D01*
X-247501Y-255498D01*
X-217494Y304998D02*
Y290002D01*
X-209997D01*
X-207498Y292502D01*
Y302498D01*
X-209997Y304998D01*
X-217494D01*
X-202499D02*
Y290002D01*
X-195002D01*
X-192502Y292502D01*
Y302498D01*
X-195002Y304998D01*
X-202499D01*
X-187504Y290002D02*
X-182506D01*
X-185005D01*
Y304998D01*
X-187504Y302498D01*
X385504Y-106502D02*
Y-121498D01*
X393002D01*
X395501Y-118998D01*
Y-109002D01*
X393002Y-106502D01*
X385504D01*
X410496D02*
X400499D01*
Y-114000D01*
X405498Y-111501D01*
X407997D01*
X410496Y-114000D01*
Y-118998D01*
X407997Y-121498D01*
X402998D01*
X400499Y-118998D01*
X284504Y-106502D02*
Y-121498D01*
X292002D01*
X294501Y-118998D01*
Y-109002D01*
X292002Y-106502D01*
X284504D01*
X306997Y-121498D02*
Y-106502D01*
X299499Y-114000D01*
X309496D01*
X207504Y-105002D02*
Y-119998D01*
X215002D01*
X217501Y-117498D01*
Y-107502D01*
X215002Y-105002D01*
X207504D01*
X222499Y-107502D02*
X224998Y-105002D01*
X229997D01*
X232496Y-107502D01*
Y-110001D01*
X229997Y-112500D01*
X227498D01*
X229997D01*
X232496Y-114999D01*
Y-117498D01*
X229997Y-119998D01*
X224998D01*
X222499Y-117498D01*
X-319997Y-502502D02*
X-322496Y-500002D01*
X-327494D01*
X-329994Y-502502D01*
Y-512498D01*
X-327494Y-514998D01*
X-322496D01*
X-319997Y-512498D01*
X-307501Y-514998D02*
Y-500002D01*
X-314998Y-507500D01*
X-305002D01*
X-300003Y-502502D02*
X-297504Y-500002D01*
X-292506D01*
X-290007Y-502502D01*
Y-505001D01*
X-292506Y-507500D01*
X-295005D01*
X-292506D01*
X-290007Y-509999D01*
Y-512498D01*
X-292506Y-514998D01*
X-297504D01*
X-300003Y-512498D01*
X-214997Y-502502D02*
X-217496Y-500002D01*
X-222494D01*
X-224993Y-502502D01*
Y-512498D01*
X-222494Y-514998D01*
X-217496D01*
X-214997Y-512498D01*
X-202501Y-514998D02*
Y-500002D01*
X-209998Y-507500D01*
X-200002D01*
X-185007Y-514998D02*
X-195003D01*
X-185007Y-505001D01*
Y-502502D01*
X-187506Y-500002D01*
X-192504D01*
X-195003Y-502502D01*
X-129997Y-342502D02*
X-132496Y-340002D01*
X-137494D01*
X-139993Y-342502D01*
Y-352498D01*
X-137494Y-354998D01*
X-132496D01*
X-129997Y-352498D01*
X-124998Y-342502D02*
X-122499Y-340002D01*
X-117501D01*
X-115002Y-342502D01*
Y-345001D01*
X-117501Y-347500D01*
X-120000D01*
X-117501D01*
X-115002Y-349999D01*
Y-352498D01*
X-117501Y-354998D01*
X-122499D01*
X-124998Y-352498D01*
X-100007Y-354998D02*
X-110003D01*
X-100007Y-345001D01*
Y-342502D01*
X-102506Y-340002D01*
X-107504D01*
X-110003Y-342502D01*
X-127498Y-205002D02*
X-129997Y-202502D01*
X-134995D01*
X-137494Y-205002D01*
Y-214998D01*
X-134995Y-217498D01*
X-129997D01*
X-127498Y-214998D01*
X-122499Y-205002D02*
X-120000Y-202502D01*
X-115002D01*
X-112502Y-205002D01*
Y-207501D01*
X-115002Y-210000D01*
X-117501D01*
X-115002D01*
X-112502Y-212499D01*
Y-214998D01*
X-115002Y-217498D01*
X-120000D01*
X-122499Y-214998D01*
X-107504Y-217498D02*
X-102506D01*
X-105005D01*
Y-202502D01*
X-107504Y-205002D01*
X-381997Y-104502D02*
X-384496Y-102002D01*
X-389494D01*
X-391993Y-104502D01*
Y-114498D01*
X-389494Y-116998D01*
X-384496D01*
X-381997Y-114498D01*
X-376998Y-104502D02*
X-374499Y-102002D01*
X-369501D01*
X-367002Y-104502D01*
Y-107001D01*
X-369501Y-109500D01*
X-372000D01*
X-369501D01*
X-367002Y-111999D01*
Y-114498D01*
X-369501Y-116998D01*
X-374499D01*
X-376998Y-114498D01*
X-362003Y-104502D02*
X-359504Y-102002D01*
X-354506D01*
X-352006Y-104502D01*
Y-114498D01*
X-354506Y-116998D01*
X-359504D01*
X-362003Y-114498D01*
Y-104502D01*
D18*
X186743Y-173000D02*
X190553D01*
X194363Y-179350D02*
Y-166650D01*
X186743Y-179350D02*
X194363Y-173000D01*
X186743Y-178080D02*
X194363Y-173000D01*
X186743Y-176810D02*
X194363Y-173000D01*
X186743Y-175540D02*
X194363Y-173000D01*
X186743Y-174270D02*
X194363Y-173000D01*
X186743Y-166650D02*
X194363Y-173000D01*
X186743Y-167920D02*
X194363Y-173000D01*
X186743Y-169190D02*
X194363Y-173000D01*
X186743Y-170460D02*
X194363Y-173000D01*
X186743Y-171730D02*
X194363Y-173000D01*
X186743Y-179350D02*
Y-166650D01*
X165743Y-157252D02*
X214257D01*
X165743Y-161164D02*
Y-157252D01*
Y-188748D02*
X214257D01*
Y-184836D01*
Y-161164D02*
Y-157252D01*
X165743Y-188748D02*
Y-184836D01*
Y-298748D02*
Y-294836D01*
X214257Y-271164D02*
Y-267252D01*
Y-298748D02*
Y-294836D01*
X165743Y-298748D02*
X214257D01*
X165743Y-271164D02*
Y-267252D01*
X214257D01*
X186743Y-289350D02*
Y-276650D01*
Y-281730D02*
X194363Y-283000D01*
X186743Y-280460D02*
X194363Y-283000D01*
X186743Y-279190D02*
X194363Y-283000D01*
X186743Y-277920D02*
X194363Y-283000D01*
X186743Y-276650D02*
X194363Y-283000D01*
X186743Y-284270D02*
X194363Y-283000D01*
X186743Y-285540D02*
X194363Y-283000D01*
X186743Y-286810D02*
X194363Y-283000D01*
X186743Y-288080D02*
X194363Y-283000D01*
X186743Y-289350D02*
X194363Y-283000D01*
Y-289350D02*
Y-276650D01*
X186743Y-283000D02*
X190553D01*
M02*
